<svg id="Layer_1" xmlns="http://www.w3.org/2000/svg" viewBox="0 0 792 612" enable-background="new 0 0 792 612"><style>.st0{fill:#272e22}.st1{fill:#749364}.st2{opacity:.79}.st3{fill:#223a1f}.st4{fill:#be2328}</style><filter id="dropshadow" height="130%"><feGaussianBlur in="SourceAlpha" stdDeviation="3"/><feOffset dx="2" dy="2" result="offsetblur"/><feMerge><feMergeNode/><feMergeNode in="SourceGraphic"/></feMerge></filter><g id="XMLID_160_" filter="url(#dropshadow)"><path id="XMLID_163_" class="st0" d="M263.3 230.8v-58.3c0-1.4-1.2-2.8-2.8-2.8h-2.9v-.5.5H255c-.6 0-1 .2-1.5.5-.6-1.3-1.3-2-1.8-2 .3 1.1-.6 1.1-.3 2.2-.9-3.2-2.2-6.5-2.5-2.2-.4 17.8-.4 35.9-.2 54-4.6 0-9.2.1-13.9.2-.5-10.7.5-22.9-.4-33.1-.3-3.4.9-9.1-.6-11.4v-5.4c0-.4-.1-.8-.3-1.2v-.4h-.2c-.2-.4-.6-.7-.9-.9 0-.1-.1-.1-.1-.2v.2c-.4-.2-.8-.4-1.3-.4h-1c-.1-.4-.1-1.2-.1-2.1v2.1h-2c-.4-.2-.8-.6-1 0h-.7c-.6-2.1-1.5-3.3-2.2-3.3.3 1.1-.6 1.1-.3 2.3-.9-3.4-2.2-6.9-2.5-2.3-.4 18.7-.4 37.6-.2 56.6-2.8.1-5.5.3-8.3.4-.9.3-.4.9-.4 1.6 1.7 0 3.5-.3 4.8.3.4 0-.4 1.2 0 1.9h1.7c.4.9-.4 1.9 0 2.8.4.8 1.6.5 2.3.7v.9c-.5.1-1.3.2-1.8.2.4.6-.9 0-.9.6 0 1.2 0 2.5 1.7 3.4.4.3 0 1.2 0 1.9h1.1c.3 16.7.6 33.4.9 49.8h1.5v-.2l.6.3c.2 0 .4.1.5.2.2 0 .4.1.6.1h5.7c1.6 0 2.8-1.2 2.8-2.8v-14.6c.2-.6.4-1.3.6-2.2.3-1.1 1.2 0 1.9 0 0-10.2 0-21.1-.5-31.7.1 0 .3 0 .4-.1 4-.8 8.7.2 12.8-.4.3 15.6.6 31.3.9 46.7.3 2.2.9 1.1 1.6 1.1 0-4.3-.3-8.6.3-11.9 0-.4.2-.4.4-.2V285c0 1.6 1.2 2.8 2.8 2.8h5.5c1.6 0 2.8-1.2 2.8-2.8v-21c.3.1.5.3.8.3 0-10.8 0-22.4-.8-33.5z"/><path id="XMLID_162_" class="st0" d="M209.1 171.2c-.3-.6-.8-1-1.4-1.3-.1-1-.3-1.9-1.8-2.7-.5-.3 0-1.2 0-1.9-5.4 0-11.3 0-16.7 1.2-4.5.9-10-.4-14.5.6-1.4.3-3.6-.9-4.5.6h1.4c-1.4.9-2.7 0-4.1.3 0 .6 0 .9-.5 1.2.9 0 2.3-.3 3.2 0v.9c-.9.3-2.3-.3-3.2 0v1.2c0 .3-.5.3-.9.3h1.8v1.2c0 .3-.5.3-.9.3 0 .6-.5 1.2 0 1.6h1.4c-1.8.3-2.7 1.9-2.7 2.8.5-.3.5.6.9.3-1.4.9-2.7 2.2-.9 2.5 4.3.3 8.5.3 12.8.3.2.1.5.1.8.1h4.4c-.8 35.2.3 71.2.9 106.4h1.6c0-2.8-.1-5.4.4-7.6 0-.5.3-.2.7 0v5.1c0 1.6 1.2 2.8 2.8 2.8h5.7c1.6 0 2.8-1.2 2.8-2.8V272c.1 0 .2.1.3.1 0-7.5 0-15.5-.3-23.3v-68.1h8c1 0 1.8-.5 2.3-1.2h.2v-8.3z"/><path id="XMLID_161_" class="st0" d="M313.9 172.4c-.3.3-.3-.6-.5-.3.8-.9 1.6-2.2.5-2.5-5.6-.6-11.4-.3-17.1.1h-13c-3.2 0-5.7 2.7-5.7 5.7v.7c-.5-.7-.9-1.1-1.3-1.1.3 1.1-.6 1.1-.3 2.1-.9-3.2-2.2-6.4-2.5-2.1-.9 33.8.1 68.6.8 102.6.4 2.4.9 4.7 1.7 7-.1-2.9-.1-5.6.4-7.8 0-.8.7.2 1.3.3v5.2c0 3 2.1 5.3 5 5.6.1.1.2.3.3.4.3.3 0 1.2 0 1.9 3.4 0 7.1 0 10.5-1.2 2.8-.9 6.3.4 9.1-.6.8-.3 2.2.8 2.8-.5.3-.1.5-.3.7-.4.3.1.7.1 1 0 0-.6 0-.9.3-1.2h-.4c.1-.3.2-.6.2-.9h.2v-1.2c0-.3.3-.3.6-.3h-.7V282h.2c0-.6.3-1.2 0-1.6h-.2v-.4c.7-.6 1-1.7 1-2.4-.3.3-.3-.6-.6-.3.9-.9 1.7-2.2.6-2.5-6.4-.6-12.9-.3-19.3.2v-38.6c1.5-.2 3.1-.4 4.6-.9 3.6-.9 8 .4 11.5-.6 1.1-.3 2.9.9 3.6-.6h-1.1c1.1-.9 2.2 0 3.2-.3 0-.6 0-.9.4-1.2-.7 0-1.8.3-2.5 0v-.9c.7-.3 1.8.3 2.5 0v-1.2c0-.3.4-.3.7-.3H311V229c0-.3.4-.3.7-.3 0-.6.4-1.2 0-1.6h-1.1c1.4-.3 2.2-1.9 2.2-2.8-.4.3-.4-.6-.7-.3 1.1-.9 2.2-2.2.7-2.5-7.7-.6-15.5-.3-23.3.1v-40.2c.1.6.4 1.1.9 1.5.3.3 0 1.2 0 1.9 3.2 0 6.6 0 9.8-1.2 2.6-.9 5.8.4 8.4-.6.8-.3 2.1.9 2.6-.6h-.8c.8-.9 1.6 0 2.4-.3 0-.6 0-.9.3-1.2-.5 0-1.3.3-1.8 0v-.9c.5-.3 1.3.3 1.8 0v-1.2c0-.3.3-.3.5-.3h-1.1V177c0-.3.3-.3.5-.3 0-.6.3-1.2 0-1.6h-.8c1.1-.2 1.7-1.8 1.7-2.7z"/></g><g id="XMLID_37_"><path id="XMLID_157_" class="st0" d="M376.6 189.5c0-11.3-9-20.4-20.3-20.4h-14.6c-3.2 0-5.6 2.6-5.6 5.6v1.5c-.3-.3-.6-.5-.8-.5.3 1.1-.6 1.1-.3 2.2-.9-3.4-2.2-6.7-2.5-2.2-.8 35.7.1 72.3.7 108.2.6.6 1.2 1.1 1.8 1.7.1-.8.1-1.6.3-2.3 0-.6.4-.2.8.1 0 1.6 1.2 2.8 2.8 2.8h5.6c1.4 0 2.8-1.2 2.8-2.8v-7.9h.2c0-7.4 0-15-.2-22.7v-15.5c1.3.1 2.6.1 3.8.3 1.6.2 3 .5 4.3 1 .7.2 1.3.5 1.5.6 0 0 .1.2.2.6.2.9.4 2.1.6 3.2.3 2.3.4 4.8.6 7.5.2 5.5.4 11 .7 16.5.4 8.5.8 17 1.1 25.5h1.8c0-.4.1-.8.2-1.2 0-.8 1.2.8 1.8 0 0-.8-.1-2.5-.1-3.4.9-.9 1.9.8 2.8 0 .4-.3.5-1.1.5-1.9.3.1.6.2.9.2h.4v.8c.6-.9 0 1.7.7 1.7 1.1 0 2.2-.1 3-2.5h1.6c1.6 0 2.8-1.2 2.8-2.8v-41c0-5.8-2.3-11.1-6.2-14.8 3.9-3.7 6.2-8.8 6.2-14.6v-23.5h.1zM360.5 203c-.1 3.4-.5 6.9-1.1 10.2-.3 1.6-.6 2.6-.8 3-.1.2-.1.2-.3.4-.2.2-.5.5-1.1.8-1.1.6-2.8 1.4-4.3 2-1.6.7-3.1 1.2-4.8 1.8-.2.1-.5.1-.7.2v-36.6c1.5.1 2.8.2 4.1.4 2.6.5 4.9 1.5 6.3 2.8.7.6 1.2 1.2 1.5 1.9s.7 1.8.8 3.1c.2 1.3.3 3 .3 4.7.1 1.9.1 3.6.1 5.3z"/><path id="XMLID_156_" class="st0" d="M357.1 239.2c0 .1 0 0 0 0z"/><path id="XMLID_155_" class="st0" d="M395.6 286c-.1.4 0 .7.5.9 9.2.9 18.6-.3 27.7-.9.5-.3.3-.9.3-1.5-1 0-2.1.3-2.9-.3-.3 0 .3-1.2 0-1.8h-.5v-4.5c0-.4-.1-.8-.3-1.2 0-1.1-.1-2.1-1-2.9-.3-.3 0-1.2 0-1.8-3.1 0-6.5 0-9.7 1.2-2.2.8-4.8 0-7.1.3v-8.1c.2.1.4.2.6.2 0-9.5 0-19.6-.6-29.4v-.3c7.5.2 15.1-.7 22.6-1.2.5-.3.3-.9.3-1.5-1 0-2.1.3-2.9-.3-.3 0 .3-1.2 0-1.8h-1c-.3-.9.3-1.8 0-2.8-.1-.5-.5-.5-.8-.6v-1.2h.5c-.3-.6.5 0 .5-.6 0-1.2 0-2.5-1-3.4-.3-.3 0-1.2 0-1.8-3.1 0-6.5 0-9.7 1.2-2.5.9-5.5-.3-8 .5h-.5v-37.8c8.4.1 16.9-.7 25.3-1.2.6-.3.3-.9.3-1.5-1.2 0-2.4.3-3.3-.3-.3 0 .3-1.2 0-1.8h-1.2c-.3-.9.3-1.8 0-2.8-.3-.9-1.5-.3-1.8-.9-.9-.6.6-.9 1.5-.9-.3-.6.6 0 .6-.6 0-1.2 0-2.5-1.2-3.4-.3-.3 0-1.2 0-1.8-1.9 0-4 0-6 .2h-19.7c-3.2 0-5.6 2.6-5.6 5.6v1.8c-.1-.1-.3-.1-.4-.1.3 1-.6 1-.3 2-.9-3-2.2-6-2.5-2-.9 35 .3 71 .9 106 .3 2 .9 1 1.5 1 0-4-.3-8 .3-11 0-.4.2-.3.4-.2v8.3c-.2 2.3 1.7 4.5 4.2 5z"/><path id="XMLID_123_" class="st0" d="M522.9 227.2c-.4-6.2-.3-12.9-.1-19.8.1-6.9-.1-14.6-3-21.3l-.6-1.5c-1.7-6.6-6.5-11.8-12.7-14.2.8-.2 1.3-.5 1.6-.8.2-.2.4-.5.1-.6-.2-.2-.4-.3-1.4-.4-2-.1-5.4-1.1-10.4-.1-2.7.6-4.9 1.8-6.8 3.2-6.1 3.4-10.3 9.9-10.4 17.4-.5 1.8-.8 3.7-1 5.5-.8 6.2-.7 12-.6 17.4l.3 16.4c.4 17.8.9 35.5 1.3 53.2v2c0 1 .1 2.1.1 3.1h1.6v-.7c.3.1.7.2 1.1.2h5.6c1.6 0 2.8-1.2 2.8-2.8v-6.7c.5-.7 1-1.9 1.4-4.1.3-1.2 1.3 0 1.9 0-.1-12.8-.3-26.4-1.2-39.4h16v50.2c0 .6.2 1.2.6 1.7v.7h9.2c.9-.5 1.4-1.4 1.4-2.4v-6c.8-.4 1.5-1.5 2.1-4.7.3-1.2 1.3 0 1.9 0 .2-14.8.4-30.8-.8-45.5zm-14.4-9.5c-2.5.1-5.1.3-7.5 1.2-2.8.9-6.2-.4-9 .6-.1 0-.2.1-.3.1-.1-4-.1-8.1-.1-12.2.1-6.6.5-12.7 1.7-17.5.3-1.5 1.4-3.2 2.3-4.6.5-.6.9-1.1 1.2-1.6 3-.2 4.8-.3 5.1-.1.3.1 1.3.6 2.2 1.9.9 1.2 1.8 3 2.5 4.9s1.1 4 1.4 6.3c.2 1.8.4 3.7.4 5.6l.1 15.4z"/><path id="XMLID_58_" class="st0" d="M498.2 181.2s.1 0 0 0c.1 0 0 0 0 0z"/><path id="XMLID_57_" class="st0" d="M469.2 181c-1.3 0-2.6.3-3.6-.3-.3 0 .1-.9.1-1.5.4-.5.6-1 .6-1.7v-5.6c0-1.4-1.2-2.8-2.8-2.8h-.2c0-.2.1-.5.1-.7-3.1 0-6.4 0-9.6.7h-17.4c-1.6 0-2.8 1.4-2.8 2.8v5.6c0 1 .5 1.8 1.2 2.3-.1.3-.2.7-.2.9.3-.3.3.6.6.3-1 .9-1.9 2.2-.6 2.5 2.6.2 5.1.3 7.7.3-.8 33.5.2 67.9.8 101.5h1.9v-.2l.2.2h5.1c.8 0 1.3.4 1.7.8h.8c1.6 0 2.8-1.2 2.8-2.8v-7c.3-1 1.2.1 1.8.1 0-12.8 0-26.7-1.2-39.5-.9-10.5.4-23.3-.6-33.8v-3.7c.1-1.9.3-3.9 0-5.5v-10.6c4.5-.3 8.9-.6 13.3-.8.6-.2.3-.9.3-1.5z"/><path id="XMLID_55_" class="st0" d="M544.7 167.8v2.1c-.5-.5-1.2-.8-1.9-.8h-5.6c-1.6 0-2.8 1.4-2.8 2.8v12.2c-.2.6-.5 1.4-.7 2.4-.3 1.1-1.3 0-1.9 0 0 13.5 0 28.2 1.3 41.8.9 11.3-.4 24.9.6 36.1.3 3.4-.9 9 .6 11.3v-3.4 11.2c0 1.6 1.2 2.8 2.8 2.8h5.6c.2 0 .3-.1.5-.1.4.5.8.8 1.1.8-.2-.7.1-1 .3-1.4.1-.1.2-.1.3-.2.9 3.1 2 5.8 2.3 1.6.9-39.3-.3-79.7-.9-119h-1.6v-.2z"/><path id="XMLID_38_" class="st0" d="M614.6 282.3c-1.8 0-3.7.3-5.1-.3-.5 0 .5-1.3 0-1.9h-1.8c-.5-.9.5-1.9 0-2.8-.5-.9-2.3-.3-2.8-.9-1.4-.6.9-.9 2.3-.9-.5-.6.9 0 .9-.6 0-1.3 0-2.5-1.8-3.5-.5-.3 0-1.3 0-1.9-5.5 0-11.5 0-17 1.3-4.6.9-10.2-.4-14.7.6-.3.1-.6.1-.9 0 0-13.1 0-27.2-1.3-40.2-.9-11.2.4-24.9-.6-36-.3-2.8.6-7.3-.1-9.9V172c0-1.4-1.4-2.8-2.8-2.8h-5.6c-1.6 0-2.8 1.4-2.8 2.8v1.7c-.9-2.8-1.9-4.9-2.1-1-.9 37 .2 74.9.8 112 .5.8 1.1 1.5 1.6 2.2 0-1.4 0-2.8.1-4 .8 2 2.8 3.4 5.2 3.4h20.8c1 0 1.8-.5 2.3-1.3 8.4-.3 16.8-.8 25.1-1.1.7-.4.3-1 .3-1.6z"/></g><g id="XMLID_276_"><g id="XMLID_69_"><g id="XMLID_74_"><path id="XMLID_77_" class="st1" d="M269.7 225.3V167c0-1.4-1.2-2.8-2.8-2.8H264v-.5.5h-2.6c-.6 0-1 .2-1.5.5-.6-1.3-1.3-2-1.8-2 .3 1.1-.6 1.1-.3 2.2-.9-3.2-2.2-6.5-2.5-2.2-.4 17.8-.4 35.9-.2 54-4.6 0-9.2.1-13.9.2-.5-10.7.5-22.9-.4-33.1-.3-3.4.9-9.1-.6-11.4V167c0-.4-.1-.8-.3-1.2v-.4h-.2c-.2-.4-.6-.7-.9-.9 0-.1-.1-.1-.1-.2v.2c-.4-.2-.8-.4-1.3-.4h-1.1c-.1-.4-.1-1.2-.1-2.1v2.1h-2c-.4-.2-.8-.6-1 0h-.7c-.6-2.1-1.5-3.3-2.2-3.3.3 1.1-.6 1.1-.3 2.3-.9-3.4-2.2-6.9-2.5-2.3-.4 18.7-.4 37.6-.2 56.6-2.8.1-5.5.3-8.3.4-.9.3-.4.9-.4 1.6 1.7 0 3.5-.3 4.8.3.4 0-.4 1.2 0 1.9h1.7c.4.9-.4 1.9 0 2.8.4.8 1.6.5 2.3.7v.9c-.5.1-1.3.2-1.8.2.4.6-.9 0-.9.6 0 1.2 0 2.5 1.7 3.4.4.3 0 1.2 0 1.9h1.1c.3 16.7.6 33.4.9 49.8h1.5v-.2l.6.3c.2 0 .4.1.5.2.2 0 .4.1.6.1h5.7c1.6 0 2.8-1.2 2.8-2.8V265c.2-.6.4-1.3.6-2.2.3-1.1 1.2 0 1.9 0 0-10.2 0-21.1-.5-31.7.1 0 .3 0 .4-.1 4-.8 8.7.2 12.8-.4.3 15.6.6 31.3.9 46.7.3 2.2.9 1.1 1.6 1.1 0-4.3-.3-8.6.3-11.9 0-.4.2-.4.4-.2v13.3c0 1.6 1.2 2.8 2.8 2.8h5.5c1.6 0 2.8-1.2 2.8-2.8v-21c.3.1.5.3.8.3.1-10.9.1-22.5-.7-33.6z"/><path id="XMLID_76_" class="st1" d="M215.5 165.7c-.3-.6-.8-1-1.4-1.3-.1-1-.3-1.9-1.8-2.7-.5-.3 0-1.2 0-1.9-5.4 0-11.3 0-16.7 1.2-4.5.9-10-.4-14.5.6-1.4.3-3.6-.9-4.5.6h1.4c-1.4.9-2.7 0-4.1.3 0 .6 0 .9-.5 1.2.9 0 2.3-.3 3.2 0v.9c-.9.3-2.3-.3-3.2 0v1.2c0 .3-.5.3-.9.3h1.8v1.2c0 .3-.5.3-.9.3 0 .6-.5 1.2 0 1.6h1.4c-1.8.3-2.7 1.9-2.7 2.8.5-.3.5.6.9.3-1.4.9-2.7 2.2-.9 2.5 4.3.3 8.5.3 12.8.3.2.1.5.1.8.1h4.4c-.8 35.2.3 71.2.9 106.4h1.6c0-2.8-.1-5.4.4-7.6 0-.5.3-.2.7 0v5.1c0 1.6 1.2 2.8 2.8 2.8h5.7c1.6 0 2.8-1.2 2.8-2.8V267c.1 0 .2.1.3.1 0-7.5 0-15.5-.3-23.3v-68.1h8c1 0 1.8-.5 2.3-1.2h.2v-8.8z"/><path id="XMLID_75_" class="st1" d="M320.2 166.9c-.3.3-.3-.6-.5-.3.8-.9 1.6-2.2.5-2.5-5.6-.6-11.4-.3-17.1.1h-13c-3.2 0-5.7 2.7-5.7 5.7v.7c-.5-.7-.9-1.1-1.3-1.1.3 1.1-.6 1.1-.3 2.1-.9-3.2-2.2-6.4-2.5-2.1-.9 33.8.1 68.6.8 102.6.4 2.4.9 4.7 1.7 7-.1-2.9-.1-5.6.4-7.8 0-.8.7.2 1.3.3v5.2c0 3 2.1 5.3 5 5.6.1.1.2.3.3.4.3.3 0 1.2 0 1.9 3.4 0 7.1 0 10.5-1.2 2.8-.9 6.3.4 9.1-.6.8-.3 2.2.8 2.8-.5.3-.1.5-.3.7-.4.3.1.7.1 1 0 0-.6 0-.9.3-1.2h-.4c.1-.3.2-.6.2-.9h.2v-1.2c0-.3.3-.3.6-.3h-.7v-1.5h.2c0-.6.3-1.2 0-1.6h-.2v-.4c.7-.6 1-1.7 1-2.4-.3.3-.3-.6-.6-.3.9-.9 1.7-2.2.6-2.5-6.4-.6-12.9-.3-19.3.2v-38.6c1.5-.2 3.1-.4 4.6-.9 3.6-.9 8 .4 11.5-.6 1.1-.3 2.9.9 3.6-.6h-1.1c1.1-.9 2.2 0 3.2-.3 0-.6 0-.9.4-1.2-.7 0-1.8.3-2.5 0v-.9c.7-.3 1.8.3 2.5 0v-1.2c0-.3.4-.3.7-.3h-1.4v-1.2c0-.3.4-.3.7-.3 0-.6.4-1.2 0-1.6h-1c1.4-.3 2.2-1.9 2.2-2.8-.4.3-.4-.6-.7-.3 1.1-.9 2.2-2.2.7-2.5-7.7-.6-15.5-.3-23.3.1v-40.2c.1.6.4 1.1.9 1.5.3.3 0 1.2 0 1.9 3.2 0 6.6 0 9.8-1.2 2.6-.9 5.8.4 8.4-.6.8-.3 2.1.9 2.6-.6h-.8c.8-.9 1.6 0 2.4-.3 0-.6 0-.9.3-1.2-.5 0-1.3.3-1.8 0v-.9c.5-.3 1.3.3 1.8 0v-1.2c0-.3.3-.3.5-.3h-1.1v-1.2c0-.3.3-.3.5-.3 0-.6.3-1.2 0-1.6h-.8c1.1-1.1 1.6-2.7 1.6-3.6z"/></g></g><g id="XMLID_51_" class="st2"><g id="XMLID_61_"><path id="XMLID_64_" class="st3" d="M269.7 225.3V167c0-1.4-1.2-2.8-2.8-2.8H264v-.5.5h-2.6c-.6 0-1 .2-1.5.5-.6-1.3-1.3-2-1.8-2 .3 1.1-.6 1.1-.3 2.2-.9-3.2-2.2-6.5-2.5-2.2-.4 17.8-.4 35.9-.2 54-4.6 0-9.2.1-13.9.2-.5-10.7.5-22.9-.4-33.1-.3-3.4.9-9.1-.6-11.4V167c0-.4-.1-.8-.3-1.2v-.4h-.2c-.2-.4-.6-.7-.9-.9 0-.1-.1-.1-.1-.2v.2c-.4-.2-.8-.4-1.3-.4h-1.1c-.1-.4-.1-1.2-.1-2.1v2.1h-2c-.4-.2-.8-.6-1 0h-.7c-.6-2.1-1.5-3.3-2.2-3.3.3 1.1-.6 1.1-.3 2.3-.9-3.4-2.2-6.9-2.5-2.3-.4 18.7-.4 37.6-.2 56.6-2.8.1-5.5.3-8.3.4-.9.3-.4.9-.4 1.6 1.7 0 3.5-.3 4.8.3.4 0-.4 1.2 0 1.9h1.7c.4.9-.4 1.9 0 2.8.4.8 1.6.5 2.3.7v.9c-.5.1-1.3.2-1.8.2.4.6-.9 0-.9.6 0 1.2 0 2.5 1.7 3.4.4.3 0 1.2 0 1.9h1.1c.3 16.7.6 33.4.9 49.8h1.5v-.2l.6.3c.2 0 .4.1.5.2.2 0 .4.1.6.1h5.7c1.6 0 2.8-1.2 2.8-2.8V265c.2-.6.4-1.3.6-2.2.3-1.1 1.2 0 1.9 0 0-10.2 0-21.1-.5-31.7.1 0 .3 0 .4-.1 4-.8 8.7.2 12.8-.4.3 15.6.6 31.3.9 46.7.3 2.2.9 1.1 1.6 1.1 0-4.3-.3-8.6.3-11.9 0-.4.2-.4.4-.2v13.3c0 1.6 1.2 2.8 2.8 2.8h5.5c1.6 0 2.8-1.2 2.8-2.8v-21c.3.1.5.3.8.3.1-10.9.1-22.5-.7-33.6z"/><path id="XMLID_63_" class="st3" d="M215.5 165.7c-.3-.6-.8-1-1.4-1.3-.1-1-.3-1.9-1.8-2.7-.5-.3 0-1.2 0-1.9-5.4 0-11.3 0-16.7 1.2-4.5.9-10-.4-14.5.6-1.4.3-3.6-.9-4.5.6h1.4c-1.4.9-2.7 0-4.1.3 0 .6 0 .9-.5 1.2.9 0 2.3-.3 3.2 0v.9c-.9.3-2.3-.3-3.2 0v1.2c0 .3-.5.3-.9.3h1.8v1.2c0 .3-.5.3-.9.3 0 .6-.5 1.2 0 1.6h1.4c-1.8.3-2.7 1.9-2.7 2.8.5-.3.5.6.9.3-1.4.9-2.7 2.2-.9 2.5 4.3.3 8.5.3 12.8.3.2.1.5.1.8.1h4.4c-.8 35.2.3 71.2.9 106.4h1.6c0-2.8-.1-5.4.4-7.6 0-.5.3-.2.7 0v5.1c0 1.6 1.2 2.8 2.8 2.8h5.7c1.6 0 2.8-1.2 2.8-2.8V267c.1 0 .2.1.3.1 0-7.5 0-15.5-.3-23.3v-68.1h8c1 0 1.8-.5 2.3-1.2h.2v-8.8z"/><path id="XMLID_62_" class="st3" d="M320.2 166.9c-.3.3-.3-.6-.5-.3.8-.9 1.6-2.2.5-2.5-5.6-.6-11.4-.3-17.1.1h-13c-3.2 0-5.7 2.7-5.7 5.7v.7c-.5-.7-.9-1.1-1.3-1.1.3 1.1-.6 1.1-.3 2.1-.9-3.2-2.2-6.4-2.5-2.1-.9 33.8.1 68.6.8 102.6.4 2.4.9 4.7 1.7 7-.1-2.9-.1-5.6.4-7.8 0-.8.7.2 1.3.3v5.2c0 3 2.1 5.3 5 5.6.1.1.2.3.3.4.3.3 0 1.2 0 1.9 3.4 0 7.1 0 10.5-1.2 2.8-.9 6.3.4 9.1-.6.8-.3 2.2.8 2.8-.5.3-.1.5-.3.7-.4.3.1.7.1 1 0 0-.6 0-.9.3-1.2h-.4c.1-.3.2-.6.2-.9h.2v-1.2c0-.3.3-.3.6-.3h-.7v-1.5h.2c0-.6.3-1.2 0-1.6h-.2v-.4c.7-.6 1-1.7 1-2.4-.3.3-.3-.6-.6-.3.9-.9 1.7-2.2.6-2.5-6.4-.6-12.9-.3-19.3.2v-38.6c1.5-.2 3.1-.4 4.6-.9 3.6-.9 8 .4 11.5-.6 1.1-.3 2.9.9 3.6-.6h-1.1c1.1-.9 2.2 0 3.2-.3 0-.6 0-.9.4-1.2-.7 0-1.8.3-2.5 0v-.9c.7-.3 1.8.3 2.5 0v-1.2c0-.3.4-.3.7-.3h-1.4v-1.2c0-.3.4-.3.7-.3 0-.6.4-1.2 0-1.6h-1c1.4-.3 2.2-1.9 2.2-2.8-.4.3-.4-.6-.7-.3 1.1-.9 2.2-2.2.7-2.5-7.7-.6-15.5-.3-23.3.1v-40.2c.1.6.4 1.1.9 1.5.3.3 0 1.2 0 1.9 3.2 0 6.6 0 9.8-1.2 2.6-.9 5.8.4 8.4-.6.8-.3 2.1.9 2.6-.6h-.8c.8-.9 1.6 0 2.4-.3 0-.6 0-.9.3-1.2-.5 0-1.3.3-1.8 0v-.9c.5-.3 1.3.3 1.8 0v-1.2c0-.3.3-.3.5-.3h-1.1v-1.2c0-.3.3-.3.5-.3 0-.6.3-1.2 0-1.6h-.8c1.1-1.1 1.6-2.7 1.6-3.6z"/></g></g></g><g id="XMLID_263_"><g id="XMLID_200_"><g id="XMLID_214_"><path id="XMLID_224_" class="st1" d="M383 184c0-11.3-9-20.4-20.3-20.4h-14.6c-3.2 0-5.6 2.6-5.6 5.6v1.5c-.3-.3-.6-.5-.8-.5.3 1.1-.6 1.1-.3 2.2-.9-3.4-2.2-6.7-2.5-2.2-.8 35.7.1 72.3.7 108.2.6.6 1.2 1.1 1.8 1.7.1-.8.1-1.6.3-2.3 0-.6.4-.2.8.1 0 1.6 1.2 2.8 2.8 2.8h5.6c1.4 0 2.8-1.2 2.8-2.8V270h.2c0-7.4 0-15-.2-22.7v-15.5c1.3.1 2.6.1 3.8.3 1.6.2 3 .5 4.3 1 .7.2 1.3.5 1.5.6 0 0 .1.2.2.6.2.9.4 2.1.6 3.2.3 2.3.4 4.8.6 7.5.2 5.5.4 11 .7 16.5.4 8.5.8 17 1.1 25.5h1.8c0-.4.1-.8.2-1.2 0-.8 1.2.8 1.8 0 0-.8-.1-2.5-.1-3.4.9-.9 1.9.8 2.8 0 .4-.3.5-1.1.5-1.9.3.1.6.2.9.2h.4v.8c.6-.9 0 1.7.7 1.7 1.1 0 2.2-.1 3-2.5h1.6c1.6 0 2.8-1.2 2.8-2.8v-41c0-5.8-2.3-11.1-6.2-14.8 3.9-3.7 6.2-8.8 6.2-14.6V184h.1zm-16.2 13.6c-.1 3.4-.5 6.9-1.1 10.2-.3 1.6-.6 2.6-.8 3-.1.2-.1.2-.3.4-.2.2-.5.5-1.1.8-1.1.6-2.8 1.4-4.3 2-1.6.7-3.1 1.2-4.8 1.8-.2.1-.5.1-.7.2v-36.6c1.5.1 2.8.2 4.1.4 2.6.5 4.9 1.5 6.3 2.8.7.6 1.2 1.2 1.5 1.9s.7 1.8.8 3.1c.2 1.3.3 3 .3 4.7.2 1.8.2 3.5.1 5.3z"/><path id="XMLID_223_" class="st1" d="M363.5 233.7c0 .1-.1 0 0 0z"/><path id="XMLID_222_" class="st1" d="M402 280.5c-.1.4 0 .7.5.9 9.2.9 18.6-.3 27.7-.9.5-.3.3-.9.3-1.5-1 0-2.1.3-2.9-.3-.3 0 .3-1.2 0-1.8h-.5v-4.5c0-.4-.1-.8-.3-1.2 0-1.1-.1-2.1-1-2.9-.3-.3 0-1.2 0-1.8-3.1 0-6.5 0-9.7 1.2-2.2.8-4.8 0-7.1.3v-8.1c.2.1.4.2.6.2 0-9.5 0-19.6-.6-29.4v-.3c7.5.2 15.1-.7 22.6-1.2.5-.3.3-.9.3-1.5-1 0-2.1.3-2.9-.3-.3 0 .3-1.2 0-1.8h-1c-.3-.9.3-1.8 0-2.8-.1-.5-.5-.5-.8-.6V221h.5c-.3-.6.5 0 .5-.6 0-1.2 0-2.5-1-3.4-.3-.3 0-1.2 0-1.8-3.1 0-6.5 0-9.7 1.2-2.5.9-5.5-.3-8 .5h-.5v-37.8c8.4.1 16.9-.7 25.3-1.2.6-.3.3-.9.3-1.5-1.2 0-2.4.3-3.3-.3-.3 0 .3-1.2 0-1.8h-1.2c-.3-.9.3-1.8 0-2.8-.3-.9-1.5-.3-1.8-.9-.9-.6.6-.9 1.5-.9-.3-.6.6 0 .6-.6 0-1.2 0-2.5-1.2-3.4-.3-.3 0-1.2 0-1.8-1.9 0-4 0-6 .2h-19.7c-3.2 0-5.6 2.6-5.6 5.6v1.8c-.1-.1-.3-.1-.4-.1.3 1-.6 1-.3 2-.9-3-2.2-6-2.5-2-.9 35 .3 71 .9 106 .3 2 .9 1 1.5 1 0-4-.3-8 .3-11 0-.4.2-.3.4-.2v8.3c-.2 2.3 1.7 4.5 4.2 5z"/><path id="XMLID_219_" class="st1" d="M529.3 221.7c-.4-6.2-.3-12.9-.1-19.8.1-6.9-.1-14.6-3-21.3l-.6-1.5c-1.7-6.6-6.5-11.8-12.7-14.2.8-.2 1.3-.5 1.6-.8.2-.2.4-.5.1-.6-.2-.2-.4-.3-1.4-.4-2-.1-5.4-1.1-10.4-.1-2.7.6-4.9 1.8-6.8 3.2-6.1 3.4-10.3 9.9-10.4 17.4-.5 1.8-.8 3.7-1 5.5-.8 6.2-.7 12-.6 17.4l.3 16.4c.4 17.8.9 35.5 1.3 53.2v2c0 1 .1 2.1.1 3.1h1.6v-.7c.3.1.7.2 1.1.2h5.6c1.6 0 2.8-1.2 2.8-2.8v-6.7c.5-.7 1-1.9 1.4-4.1.3-1.2 1.3 0 1.9 0-.1-12.8-.3-26.4-1.2-39.4h16v50.2c0 .6.2 1.2.6 1.7v.7h9.2c.9-.5 1.4-1.4 1.4-2.4v-6c.8-.4 1.5-1.5 2.1-4.7.3-1.2 1.3 0 1.9 0 .2-14.7.3-30.7-.8-45.5zm-14.4-9.5c-2.5.1-5.1.3-7.5 1.2-2.8.9-6.2-.4-9 .6-.1 0-.2.1-.3.1-.1-4-.1-8.1-.1-12.2.1-6.6.5-12.7 1.7-17.5.3-1.5 1.4-3.2 2.3-4.6.5-.6.9-1.1 1.2-1.6 3-.2 4.8-.3 5.1-.1.3.1 1.3.6 2.2 1.9.9 1.2 1.8 3 2.5 4.9.7 1.9 1.1 4 1.4 6.3.2 1.8.4 3.7.4 5.6l.1 15.4z"/><path id="XMLID_217_" class="st1" d="M475.6 175.6c-1.3 0-2.6.3-3.6-.3-.3 0 .1-.9.1-1.5.4-.5.6-1 .6-1.7v-5.6c0-1.4-1.2-2.8-2.8-2.8h-.2c0-.2.1-.5.1-.7-3.1 0-6.4 0-9.6.7h-17.4c-1.6 0-2.8 1.4-2.8 2.8v5.6c0 1 .5 1.8 1.2 2.3-.1.3-.2.7-.2.9.3-.3.3.6.6.3-1 .9-1.9 2.2-.6 2.5 2.6.2 5.1.3 7.7.3-.8 33.5.2 67.9.8 101.5h1.9v-.2l.2.2h5.1c.8 0 1.3.4 1.7.8h.8c1.6 0 2.8-1.2 2.8-2.8v-7c.3-1 1.2.1 1.8.1 0-12.8 0-26.7-1.2-39.5-.9-10.5.4-23.3-.6-33.8V194c.1-1.9.3-3.9 0-5.5v-10.6c4.5-.3 8.9-.6 13.3-.8.6-.3.3-.9.3-1.5z"/><path id="XMLID_216_" class="st1" d="M551.1 162.4v2.1c-.5-.5-1.2-.8-1.9-.8h-5.6c-1.6 0-2.8 1.4-2.8 2.8v12.2c-.2.6-.5 1.4-.7 2.4-.3 1.1-1.3 0-1.9 0 0 13.5 0 28.2 1.3 41.8.9 11.3-.4 24.9.6 36.1.3 3.4-.9 9 .6 11.3v-3.4 11.2c0 1.6 1.2 2.8 2.8 2.8h5.6c.2 0 .3-.1.5-.1.4.5.8.8 1.1.8-.2-.7.1-1 .3-1.4.1-.1.2-.1.2-.2.9 3.1 2 5.8 2.3 1.6.9-39.3-.3-79.7-.9-119h-1.5v-.2z"/><path id="XMLID_215_" class="st1" d="M620.9 276.8c-1.8 0-3.7.3-5.1-.3-.5 0 .5-1.3 0-1.9H614c-.5-.9.5-1.9 0-2.8-.5-.9-2.3-.3-2.8-.9-1.4-.6.9-.9 2.3-.9-.5-.6.9 0 .9-.6 0-1.3 0-2.5-1.8-3.5-.5-.3 0-1.3 0-1.9-5.5 0-11.5 0-17 1.3-4.6.9-10.2-.4-14.7.6-.3.1-.6.1-.9 0 0-13.1 0-27.2-1.3-40.2-.9-11.2.4-24.9-.6-36-.3-2.8.6-7.3-.1-9.9v-13.3c0-1.4-1.4-2.8-2.8-2.8h-5.6c-1.6 0-2.8 1.4-2.8 2.8v1.7c-.9-2.8-1.9-4.9-2.1-1-.9 37 .2 74.9.8 112 .5.8 1.1 1.5 1.6 2.2 0-1.4 0-2.8.1-4 .8 2 2.8 3.4 5.2 3.4h20.8c1 0 1.8-.5 2.3-1.3 8.4-.3 16.8-.8 25.1-1.1.8-.3.3-1 .3-1.6z"/></g></g><g id="XMLID_146_" class="st2"><g id="XMLID_174_"><path id="XMLID_184_" class="st3" d="M383 184c0-11.3-9-20.4-20.3-20.4h-14.6c-3.2 0-5.6 2.6-5.6 5.6v1.5c-.3-.3-.6-.5-.8-.5.3 1.1-.6 1.1-.3 2.2-.9-3.4-2.2-6.7-2.5-2.2-.8 35.7.1 72.3.7 108.2.6.6 1.2 1.1 1.8 1.7.1-.8.1-1.6.3-2.3 0-.6.4-.2.8.1 0 1.6 1.2 2.8 2.8 2.8h5.6c1.4 0 2.8-1.2 2.8-2.8V270h.2c0-7.4 0-15-.2-22.7v-15.5c1.3.1 2.6.1 3.8.3 1.6.2 3 .5 4.3 1 .7.2 1.3.5 1.5.6 0 0 .1.2.2.6.2.9.4 2.1.6 3.2.3 2.3.4 4.8.6 7.5.2 5.5.4 11 .7 16.5.4 8.5.8 17 1.1 25.5h1.8c0-.4.1-.8.2-1.2 0-.8 1.2.8 1.8 0 0-.8-.1-2.5-.1-3.4.9-.9 1.9.8 2.8 0 .4-.3.5-1.1.5-1.9.3.1.6.2.9.2h.4v.8c.6-.9 0 1.7.7 1.7 1.1 0 2.2-.1 3-2.5h1.6c1.6 0 2.8-1.2 2.8-2.8v-41c0-5.8-2.3-11.1-6.2-14.8 3.9-3.7 6.2-8.8 6.2-14.6V184h.1zm-16.2 13.6c-.1 3.4-.5 6.9-1.1 10.2-.3 1.6-.6 2.6-.8 3-.1.2-.1.2-.3.4-.2.2-.5.5-1.1.8-1.1.6-2.8 1.4-4.3 2-1.6.7-3.1 1.2-4.8 1.8-.2.1-.5.1-.7.2v-36.6c1.5.1 2.8.2 4.1.4 2.6.5 4.9 1.5 6.3 2.8.7.6 1.2 1.2 1.5 1.9s.7 1.8.8 3.1c.2 1.3.3 3 .3 4.7.2 1.8.2 3.5.1 5.3z"/><path id="XMLID_183_" class="st3" d="M363.5 233.7c0 .1-.1 0 0 0z"/><path id="XMLID_182_" class="st3" d="M402 280.5c-.1.4 0 .7.5.9 9.2.9 18.6-.3 27.7-.9.5-.3.3-.9.3-1.5-1 0-2.1.3-2.9-.3-.3 0 .3-1.2 0-1.8h-.5v-4.5c0-.4-.1-.8-.3-1.2 0-1.1-.1-2.1-1-2.9-.3-.3 0-1.2 0-1.8-3.1 0-6.5 0-9.7 1.2-2.2.8-4.8 0-7.1.3v-8.1c.2.1.4.2.6.2 0-9.5 0-19.6-.6-29.4v-.3c7.5.2 15.1-.7 22.6-1.2.5-.3.3-.9.3-1.5-1 0-2.1.3-2.9-.3-.3 0 .3-1.2 0-1.8h-1c-.3-.9.3-1.8 0-2.8-.1-.5-.5-.5-.8-.6V221h.5c-.3-.6.5 0 .5-.6 0-1.2 0-2.5-1-3.4-.3-.3 0-1.2 0-1.8-3.1 0-6.5 0-9.7 1.2-2.5.9-5.5-.3-8 .5h-.5v-37.8c8.4.1 16.9-.7 25.3-1.2.6-.3.3-.9.3-1.5-1.2 0-2.4.3-3.3-.3-.3 0 .3-1.2 0-1.8h-1.2c-.3-.9.3-1.8 0-2.8-.3-.9-1.5-.3-1.8-.9-.9-.6.6-.9 1.5-.9-.3-.6.6 0 .6-.6 0-1.2 0-2.5-1.2-3.4-.3-.3 0-1.2 0-1.8-1.9 0-4 0-6 .2h-19.7c-3.2 0-5.6 2.6-5.6 5.6v1.8c-.1-.1-.3-.1-.4-.1.3 1-.6 1-.3 2-.9-3-2.2-6-2.5-2-.9 35 .3 71 .9 106 .3 2 .9 1 1.5 1 0-4-.3-8 .3-11 0-.4.2-.3.4-.2v8.3c-.2 2.3 1.7 4.5 4.2 5z"/><path id="XMLID_179_" class="st3" d="M529.3 221.7c-.4-6.2-.3-12.9-.1-19.8.1-6.9-.1-14.6-3-21.3l-.6-1.5c-1.7-6.6-6.5-11.8-12.7-14.2.8-.2 1.3-.5 1.6-.8.2-.2.4-.5.1-.6-.2-.2-.4-.3-1.4-.4-2-.1-5.4-1.1-10.4-.1-2.7.6-4.9 1.8-6.8 3.2-6.1 3.4-10.3 9.9-10.4 17.4-.5 1.8-.8 3.7-1 5.5-.8 6.2-.7 12-.6 17.4l.3 16.4c.4 17.8.9 35.5 1.3 53.2v2c0 1 .1 2.1.1 3.1h1.6v-.7c.3.1.7.2 1.1.2h5.6c1.6 0 2.8-1.2 2.8-2.8v-6.7c.5-.7 1-1.9 1.4-4.1.3-1.2 1.3 0 1.9 0-.1-12.8-.3-26.4-1.2-39.4h16v50.2c0 .6.2 1.2.6 1.7v.7h9.2c.9-.5 1.4-1.4 1.4-2.4v-6c.8-.4 1.5-1.5 2.1-4.7.3-1.2 1.3 0 1.9 0 .2-14.7.3-30.7-.8-45.5zm-14.4-9.5c-2.5.1-5.1.3-7.5 1.2-2.8.9-6.2-.4-9 .6-.1 0-.2.1-.3.1-.1-4-.1-8.1-.1-12.2.1-6.6.5-12.7 1.7-17.5.3-1.5 1.4-3.2 2.3-4.6.5-.6.9-1.1 1.2-1.6 3-.2 4.8-.3 5.1-.1.3.1 1.3.6 2.2 1.9.9 1.2 1.8 3 2.5 4.9.7 1.9 1.1 4 1.4 6.3.2 1.8.4 3.7.4 5.6l.1 15.4z"/><path id="XMLID_177_" class="st3" d="M475.6 175.6c-1.3 0-2.6.3-3.6-.3-.3 0 .1-.9.1-1.5.4-.5.6-1 .6-1.7v-5.6c0-1.4-1.2-2.8-2.8-2.8h-.2c0-.2.1-.5.1-.7-3.1 0-6.4 0-9.6.7h-17.4c-1.6 0-2.8 1.4-2.8 2.8v5.6c0 1 .5 1.8 1.2 2.3-.1.3-.2.7-.2.9.3-.3.3.6.6.3-1 .9-1.9 2.2-.6 2.5 2.6.2 5.1.3 7.7.3-.8 33.5.2 67.9.8 101.5h1.9v-.2l.2.2h5.1c.8 0 1.3.4 1.7.8h.8c1.6 0 2.8-1.2 2.8-2.8v-7c.3-1 1.2.1 1.8.1 0-12.8 0-26.7-1.2-39.5-.9-10.5.4-23.3-.6-33.8V194c.1-1.9.3-3.9 0-5.5v-10.6c4.5-.3 8.9-.6 13.3-.8.6-.3.3-.9.3-1.5z"/><path id="XMLID_176_" class="st3" d="M551.1 162.4v2.1c-.5-.5-1.2-.8-1.9-.8h-5.6c-1.6 0-2.8 1.4-2.8 2.8v12.2c-.2.6-.5 1.4-.7 2.4-.3 1.1-1.3 0-1.9 0 0 13.5 0 28.2 1.3 41.8.9 11.3-.4 24.9.6 36.1.3 3.4-.9 9 .6 11.3v-3.4 11.2c0 1.6 1.2 2.8 2.8 2.8h5.6c.2 0 .3-.1.5-.1.4.5.8.8 1.1.8-.2-.7.1-1 .3-1.4.1-.1.2-.1.2-.2.9 3.1 2 5.8 2.3 1.6.9-39.3-.3-79.7-.9-119h-1.5v-.2z"/><path id="XMLID_175_" class="st3" d="M620.9 276.8c-1.8 0-3.7.3-5.1-.3-.5 0 .5-1.3 0-1.9H614c-.5-.9.5-1.9 0-2.8-.5-.9-2.3-.3-2.8-.9-1.4-.6.9-.9 2.3-.9-.5-.6.9 0 .9-.6 0-1.3 0-2.5-1.8-3.5-.5-.3 0-1.3 0-1.9-5.5 0-11.5 0-17 1.3-4.6.9-10.2-.4-14.7.6-.3.1-.6.1-.9 0 0-13.1 0-27.2-1.3-40.2-.9-11.2.4-24.9-.6-36-.3-2.8.6-7.3-.1-9.9v-13.3c0-1.4-1.4-2.8-2.8-2.8h-5.6c-1.6 0-2.8 1.4-2.8 2.8v1.7c-.9-2.8-1.9-4.9-2.1-1-.9 37 .2 74.9.8 112 .5.8 1.1 1.5 1.6 2.2 0-1.4 0-2.8.1-4 .8 2 2.8 3.4 5.2 3.4h20.8c1 0 1.8-.5 2.3-1.3 8.4-.3 16.8-.8 25.1-1.1.8-.3.3-1 .3-1.6z"/></g></g></g><g id="XMLID_171_"><path id="XMLID_916_" class="st4" d="M179.5 403.2c0-.3-.2-.5-.6-.6v.6h-.3c0-.4-.1-1.1-.3-2-.1-1.5-.4-3-.8-4.5l.4.2v-.3l-.3-.6c-.2 0-.2.1-.3.2 0-.1 0-.1-.1-.2l-.1-.2-.3-1.2h.1c0-.1-.1-.2-.2-.2 0-.1 0-.2-.1-.2 0-.2.1-.4.2-.6-1.3-5.5-2.2-8.8-2.5-9.7-.3-3.8-.8-5.7-1.4-5.7 0-.2.1-.3.3-.3v-.3c-1.1-5-1.9-7.5-2.3-7.5 0-.2.1-.3.3-.3 0-.3-.2-1-.6-2h.3l-.6-1.1h.3l-.3-.6v-1.4h-.3l-.6.3c0-.3.2-.5.6-.6 0-1.3-.3-2-.8-2 0-.2.1-.3.3-.3 0-.5-.2-1.4-.6-2.8.2 0 .3-.1.3-.3h-.3c-1-4.4-1.6-6.6-2-6.6 0-.2.1-.3.3-.3-1.4-6.8-2.2-10.9-2.6-12.2.2 0 .3-.1.3-.3 0-.3-.2-.5-.6-.6 0-.2.1-.3.3-.3 0-.2-.1-.3-.3-.3l-3.9-15c0-.1 0-.1.1-.2.7-2.6.8-4.2-.7-2.3v-.1l.3-.6c-.5 0-.9-1.2-1.1-3.7l.3-.6c-.6 0-.8-.3-.8-.8h.3l-.8-2.3h.3c0-.3-.4-1.3-1.1-3.1h.3c0-.3-.2-.5-.6-.6l.3-.6c-.4 0-.8-1.1-1.4-3.2 0-1.7-.5-2.5-1.5-2.5v-.4h.6v-.4l-.6.3c0-.2-.1-.5-.3-.8.2 0 .3-.1.3-.3-.4 0-.6-.2-.6-.6-1.9-.6-2.8-1.1-2.8-1.4-.2 0-.3.1-.3.3-.2 0-.3-.1-.3-.3l-.6.3h-.3v-.3l.3-.6c-.2 0-.4-.3-.6-.8.2 0 .3.1.3.3.4 0 .6-.2.6-.6l-.4-.6c.2 0 .4-.1.4-.3v-.3h-.9c-.2 1.7-.4 2.7-.6 3.2l-.6-.3h-.3c-.1.4-.1.6-.2.9-.8-2.5-1.9 1.4-1.9 1.4-.6 1.6-.7 2.9-.8 4.2-.8 2.6-1.7 6.2-2.8 10.9 0 .4.2.5.5.5 0 .1-.1.2-.1.2l-.4-.2c0 .4-.1.8-.3 1.1h.3c0 .4-.2.6-.6.6 0 .2.1.3.3.3v.1c-.2.5-.4.9-.6 1.4-.1.5-.1 1-.2 1.6-.2.9-.4 1.8-.6 2.8 0 .1 0 .1-.1.2-1 5.4-3.4 10.6-4 16.2.3-.3.5.1.5.4h-.2l.3.5c0 .4-.5.1-.5-.2-.5 2.2-.7 4.2-1.3 6.3.5.3-.2 1.1.4 1.3-.1.1-.1 0-.2-.1 0 1.5 0 1.7-1 2.9-1.7 5.7-2.5 11.3-3.9 17-.2.1-.3.2-.3.3v.6h.1c0 .2-.1.3-.1.5-.2.4-.7.8-1.3 1.1.1.3.2.7-.1.9-.1 1.1-1.5 1.9-1.1 3.1.2 0 .5.1.6.2h-.2l.4.2c0 .1-.5 0-.5-.1-.1.4 0 .9-.2 1.3.6.1 0 .2.6.4-.1 0-.1 0-.3-.1.2.4.3.4-.5.5-.7 1-.5 2.2-.9 3.3-.1 1.2.2 2.4.1 3.6.7.3.5.5.9.7v.3c-.1 0-.3.1-.5.1.3.1.2.1.4.1v.1c-.2 0-.5 0-.4.1-.2 0 .3.1.1.1.1.1.1.1.2.1-.1 0-.6-.2-1 0 .1.6.6 1.2.1 1.6 0 0 .4 0 .4.1-.9-.1.2.2-.2.2-.2 0-.2-.1-.3-.1-.4.2.1.5-.3.6.3.3-.5.4-.1.6-.3-.1-.3 0-.5.1 1 .3-.4.3.2.6h-.2c0 .6-.4 1.1 0 1.8.1.3-.9.5-.6 1 .1.1.4.1.4.1 0 .1-.3-.1-.4 0 .4.3-.2.4-.2.6.2.1.2.1.4.1-.7.1.1.6-.4.8.4 0 .5.1.6.1v.2c-.1 0-.2 0-.3-.1.1.2.1.3-.2.5.1.1.6.2.4.3-.6 0-.1.3-.3.3.1 0 .2 0 .3.1 0 .1 0 .1-.1.2l-.3-.1c.3.4-.2.7 0 1.1 0 .1-.1.2-.1.3v.1c-.3 1.2-.5 1.9-.5 2 0 .9.1 1.6.1 2.1-.5 9.7 1.2 19.9 1.9 29.5 0 .1.4.2.4.1.3-5.1.5-10.2.8-15.4.1-1.5-.4-5.3 1.3-5.7 1.4-.3.8 1.5.8 2.6v4.5c.1 10.8.1 21.6.2 32.3 0 .1.4.2.4.1 1.7-8.7 1-17.5.9-26.3 0-1.5-.1-3.3-.2-5.1 0-.9 0-1.8.1-2.6 0-.6.1-1.2.2-1.8.1-.9.4-1.7.7-2.4 1.3-3 .9.7 1 2.1.2 2.1.4 4.2.6 6.4 0 .1.4.2.4.1.4-5.2.7-10.3 1.1-15.5.1-1.1 0-2.3.2-3.4l.3.1c.1-.3.2-.6.3-1v.1c.8 2.3.3 5.4.3 7.8.2 10.2.3 20.4.5 30.6 0 .1.4.2.4.1.3-8.6.6-17.3.9-25.9.1-4.1.3-8.3.4-12.4.1-1.8.1-3.6.4-5.4.2-1.8.4-4.8 1.8-1.4 0 .1.4.2.4.1.3-5 .6-10.1.9-15.1.1-.2.3-.6.3-.2.2-.7.2-.7.2-1.3l.5-.7c0-.1.1-.2.1-.3.1 0 .1-.1.2-.1 4.9-2.7 4.1 2.4 4.1 4.2 0 3.3.1 6.6.1 9.9 0 .1.4.2.4.1 1.8-2.6.9-6.8.8-9.8 0-.9-.9-6.6 2.1-4 .1.1.2.3.2.7v2.8c-.1 1.5-.2 2.9-.2 3.4 0 .1.4.2.4.1 1.1-2.5.6-5.1 1.5-7.6.8-2.1 1.3-2 1.5.1.2 1.7 0 3.6 0 5.3v20.4c0 .1.4.2.4.1 1.8-1.6 1.5-4 1.7-6.3.2-3.4.3-6.9.5-10.3.1-2.7.2-5.6 1.4-8 .1-.3.4-.6.6-.9 4.6.8 7.6 22 7.8 24.2.6 8.6.6 17.3 2.2 25.8 0 .1.5.2.5.1l.3-16.3c0-.4-.2-2.9.3-2.4.6.6.3 2.3.4 3.2.2 2 .7 3.9 1.3 5.8 0 .1.4.2.4 0 0-.7 0-1.8-.1-3.1.1-1.4.1-2.8.2-4.1.1-.3.2-.5.3-.7.7-1.1.5-.4.8.9.3 1.4.2 3.2.3 4.5.4 6.1.8 12.1 1.1 18.2 0 .1.4.2.5.1.2-1.2.3-2.3.4-3.4-.1.5-.2.9-.3 1.2.2-1.6.4-3.2.5-4.8v-.6c.2-3.6.3-7.2.1-10.8 0-1 .1-2 .1-3 .1-2 .9-3.8 1.6-5.6.5-1.5 1.1-2.4 1.8-2.6 0-.2-.1-.3-.3-.3.7.2.8.1 1 .1zm-30.8-91.9h-.1c-.2.1 0 0 .1 0v.2h-.2c0-.2.1-.3.3-.3 0-.2-.1-.3-.3-.3v-.2c.6.2.1.5.2.6zm-.3-.6l.4.1-.4-.1zm.5 17.5c0 1.9-.1 4-.4 6.8-1 5.8-1.8 7.2-2.8 13.2-.7 2.8-1.3 5.9-2 8.7 0 .9-.4 2.2-.7 3.4h-.3v-.3s.1 0 .1.1v-.3c.6-.3.2-1.3.6-1.9-.1 0-.3 0-.3-.1.1-.4.2-.7.2-1.1l.4.2c-.1-2.1 1.3-4.7.9-7.2l.5-.1c0-2.5 1.1-4.7.7-7.2.4-.6.8-1.5.9-2.1-.2-.9-.1-1.2-.5-1.9 0-.3.4-.4.6-.5.4-1 1.2-1.9.7-2.9l.4.1c-.2-.9-.3-2.2.3-3.1-.1-.2-.2-.5-.2-.8.1-.1.2-.3.3-.4l.1.1c.2-.9.4-1.8.5-2.7zm4.3 4.5l.1.3c-.1-.2-.1-.3-.1-.3 0-.1 0-.1 0 0zm.2 1l.1.5s-.1 0-.1-.1v-.4zm6.9 34.9v.2l.1.1v.1h-.4c.1-.2.2-.4.3-.4zm.6 1.5h-.6l.3-.4c-.1 0-.2.2-.3.4h-.8c.1-.6.5-.6.5-.3.2-.6-.1-.2-.1-.5h.7c.1.3.2.5.3.8zm-3.1-.1c.1 0 .1-.1.2-.2v.1c0 .1-.1.2-.1.3h-.1c.1-.1.1-.2 0-.2zm.5-.5c.1 0 .1.1.1.2.1-.2.2-.2.3-.2-.1.8-.1.1-.3.3-.1.4 0 .1.1.3h-.3v-.2c0-.1.2-.1.1.1v-.5zm.5.2v-.1h.1c0 .1-.1.1-.1.1zm.4-.3v-.2h.5l-.3.3v.5h-.3c0-.2-.1-.4-.1-.4v-.1c.1.1.2.1.2-.1 0 .1.1.3.1.3.1-.4 0-.2-.1-.3zm.7-.4h-.1c.1 0 .1-.1.1-.3v.3zm-.5 0zm0 0h-.1v-.4c0 .1.1.1.1.2v.2zm-5.7-21.1l-.1.4c.2.2.3.5.3.8h-.1c.3.4.3.8.4 1h-.1l.2.5-.1-.1c.4.6.6 1.3.7 2l.2-.1c.1 1.4.8 1.7.8 3h-.1c1.1 1.3.3 2.5 1.4 3.9-.1-.2-.1.1-.2.1.3.7.6 1.4 1.1 1.3.2.5 0 .5-.2.6.2-.1.5.3.6.7l-.1-.2.5 1.1.3-.4c.1.7-.4.3-.2.9l.3-.1c.2.9-.1 1.5-.1 2.4 0 .1 0 .1.1.2-1.1-.1-2.2-.5-3.2 0 .1.2.1.5 0 .6v-.2.2h-.1c0-.1 0-.3.1-.3-.6.1-1.1.3-1.7.3v.1H153l-.6-.3v.3h-.1c-.2 0-.4-.1-.7-.3-.2 0-.5.1-.8.3l-.6-.3c-.4.2-.7.3-.9.3-.9 0-1.8 0-2.9.1 1.3-3.5 2.5-8.4 3.3-11.5.7-3 2-6.1 3.4-9.2.1.8.2 1.4.6 1.9zm-2.4-7.2c-.2.6-.4 1.2-.6 1.5 0-.1 0-.2.1-.3l-.1-.5.1-.1c-.1 0-.2-.5-.1-.9.2-.2.3-.1.5-.4 0 .2.1.5.1.7zm8 35.8s-.1 0 0 0c-.1 0 0 0 0 0zm-11.2-63.4h-.3v.1c-.1 0-.2 0-.1.1h-.2c.1-.2.2-.4.3-.5.1.2.2.3.4.5l-.1-.2zM125.9 420c-.4-4-.8-8.2-.9-12.2.3 4.1.6 8.2.9 12.2zm26.4-41.2c0-.5.1-.9.2-1.4-.2.9-.2 1.9-.3 2.9.1-.5.1-1 .1-1.5zm7.5-2.3c.3.1.5.2.7.4-.3-.1-.5-.2-.8-.3 0 0 .1 0 .1-.1zm14.3 5.7l-.3-.2c-.1-.2-.1-.5-.2-.7h.3c-.1.2 0 .5.2.9zm-.6-2.6c0 .2-.1.3-.3.3 0 .2.1.3.3.3v.3c-.1 0-.2-.1-.2-.1-.1-.3-.2-.5-.2-.8h.4zm-.5-2c-.2 0-.3.1-.3.3h-.3v-.1c0-.1.1-.2.3-.2l-.6-1.1c.3 0 .6.3.9 1.1zm-1.5-2.3v-.6h.3c0 .2.1.5.3.8l-.6-.2zm.3-1.7v.3c-.3 0-.5-.2-.6-.6v-.3c.4 0 .6.2.6.6zm-.6-3.1l.3 1.4c0 .4-.2.6-.6.6 0-.2.1-.5.3-.8v-.3l-.6.3v-.3l.3-.6h-.6v-.3h.9zm-.6-1.2h.3c-.2.4-.3.7-.3.8h-.3c0-.2-.1-.5-.3-.8.2 0 .3.1.3.3.2 0 .3-.1.3-.3zm-1.1-3.4c.4.2.7.3.8.3v.6c-.4-.2-.7-.3-.8-.3v-.6zm-1.1-6h.3l.6.3-.3.6h-.3l.3-.6h-.6v-.3zM153 331.4c-.1.1-.1.2-.3.1-.1-.5-.4-.9-.4-1.5l-.2.2c-.2-.4-.2-.8-.3-1.1v-1.2c0-.3.1-.6.1-.9l-.3.4c-.1-1.5 0-2.5.1-3.4l.3 1.8h-.3l1.3 5.6zm-2.6-17.1zm-.1-.3zm0-.4c-.1-.1-.2-.2-.4-.2l.3.1.1.1zm-.8-3c.1.1.1.1 0 .2v-.2zm0 .6c0-.1 0-.1.2-.2 0 0 .1.1.2.1l.1.3c-.1-.1-.3-.1-.4-.2h-.1zm-.5-2.6c-.2 0-.5.1-.8.3 0-.1 0-.3.1-.9v-.1l.2-.2-.3-.6h.6l.2 1.5zm-.3 79v-1.3c0 .5.1.9 0 1.3z"/><path id="XMLID_1084_" class="st4" d="M179.5 402.1v-.8h-.8c.2.5.5.8.8.8z"/><path id="XMLID_1188_" class="st4" d="M296.3 343.2c-.4-4.3-.8-7.4-1.2-9.4.2 0 .3-.1.3-.3-.8-4.7-1.4-7.5-1.8-8.2h.4c-.6-1.1-.9-1.9-.9-2.4-1.4-1.3-2.4-2.5-3.1-3.6l-.9-2.1c0-.1-.1-.2-.1-.3l.3-.6h-.6l.3-.6c0-.3-.2-.5-.6-.6 0-.2.1-.3.3-.3-1.8-3.4-3-5.9-3.5-7.6-.2 0-.3.1-.3.3h-.3c0-.2.1-.3.3-.3l-.9-1.2c-.2 0-.3.1-.3.4h-.3l.3-.6c-1 0-1.8-.7-2.3-2h-.3l-.6.3c0-.2.1-.3.3-.3-.8-1-1.4-1.5-1.8-1.5l.3-.6c-.4 0-.6-.2-.6-.6-4.7-1.2-9.1-1.9-13.2-2-.1 0-.3 0-.4-.1-2-.1-3.9-.2-5.9 0s-4.1.7-5.8 1.8c.3.1.2.5.1.6l-.1-.1-.1.5c-.2.2-.4-.3-.2-.5-1.4.7-2.5 1.7-3.7 2.5.3.5-.6.5-.2 1-.1 0-.1-.1-.1-.2-.2.3-.3.5-.5.7-.2.1-.5.2-.7.3-.2 0-.4.1-.7.1-3.3 2.6-5.1 6.1-6.8 9.6-1.5 3.7-1.9 7.5-2.3 11.3.6.5.5 1 .7 1.5-.3 1.2-.6 2.4-.8 3.7-.1.1-.2.2-.3.4 0 .3.1.6.1.8-.5 3.3-.7 6.6-.5 9.8.2-.4.5 0 .6.4l-.2.1.2.3c0 .1.1.2.2.3h-.2v.2c-.1 0-.3-.2-.4-.4 0 2.8.3 5.2.4 7.9.6.1.1 1.4.8 1.4-.1.1-.1 0-.3 0 .4 1.8.5 1.9 0 3.7.3 5.4 1.3 10.5 2.6 15.5.1 8 1.7 15.4 4.9 22.2 2.1 3.7 3.5 5.6 4.4 5.6 0 .2-.1.3-.3.3l.3.6.3-.2c.8 1.9 1.3 4 1.6 6.1.5 3.7-.4 7.6 1.6 10.9.1.1.4.1.4 0 .1-.6.1-1.7.1-2.9.1-1.2.2-2.5.2-3.7.1-.5.2-1 .4-1.2 0 .1.7 7.7.8 9.3.2 6.5.5 13.1.7 19.6 0 .1.4.2.5 0 .5-6 1-12.1 1.5-18.1.2-2.9.5-5.8.7-8.6.1-.8-.2-3 .4-3.6 0 0 .1 0 .1-.1.6.4 1.3.7 2 .9.1.9 0 2 0 2.4.5 12.5 1 25 1.5 37.6 0 .1.5.2.5 0 .1-7.3.3-14.7.4-22 .1-3.5.1-7 .2-10.6.1-2.7 2-10.6 2.8-2.8 0 .1.4.2.5 0 1.1-3.1 5-4 8-5.7 3-.2 6.2-3.4 9.4-9.6l3.5-4.9-.3-.6c.3 0 .7-.5 1.4-1.4 0-.2-.1-.4-.3-.4 1.1-2.1 2.1-4.4 3-7l-.3-.6c.5 0 .9-1.9 1.4-5.6h-.6v-.3c.6 0 .8-.3.8-.8l-.3-.6h.3c0-.2-.1-.4-.3-.4 0-.2.1-.3.3-.3 0-.2-.1-.5-.3-.8l.6-2.3h-.4l.4-.6v-.3l-.4-.6c.2 0 .4-.1.4-.3v-.9l-.4-.6c.1 0 .4-2 .9-6.1h-.3c1.5-5.2 2.3-9.9 2.3-14.1v-2l-.3-.6c.2 0 .3-.1.3-.3V345c0-.8-.2-1.6-.6-2.3h.6v.5zm-25.5-35.8c0-.1 0-.1.1-.1 0 0 0 .1-.1.1.1 0 .1 0 0 0zm-20 21.1h.2c.6-3.1 1.1-5 1.5-5.6l-.1-.2c.3-.5.6-1.1.9-1.6.3-.4.6-.9.9-1.3 1.9-3.5 4-5.9 6-7.5l.9-.3-.1 1c-1.3.9-2.3 1.9-3.2 2.8-1 1-1.7 2-2.4 3.1-1.4 2.1-2.4 4.3-3.6 7.9-.4 1-.7 2-1 3h-.2l.3-.6-.2-.5c.1-.1.1-.1.1-.2zm1.7 9.6c.1.4.1.2.2-.1h.1c-.4.9-.3 1.5-.4 2.1-.1-.5-.2-.9.1-2zm27.8 16.1c.1 3.4-.2 8.2.1 10.4l-.1-.2c.2 1.3-.1 1.6 0 3 0 .1-.1.2-.1.2.2 1.4-.4 4-.4 5.1h-.2l-.4 2.7.2-1c.5.4-.6 2-.7 4-.4 1.8.4 3.9-.4 5.7 0 1-.2-.9-.4.5-.3 0 0-.7-.3-.4-.2 1.3-.7 2-1 3.4-.1.1-.1.2-.2.3h-.1v.3c-.5.8-1 1.5-1.5 2.1-1 1.2-1.9 2.2-2.7 2.9l.2-.2c-.4.5-.8.8-1.1 1-.3.3-.7.5-1 .7-.7.4-1.5.7-2.7 1.2h-.3c-.6.3-1.4.5-2.1.4-.7 0-1.2-.3-1.8-.9-.6-.6-1.1-1.4-1.6-2.1-.1-.2-.2-.3-.3-.4-.2-.5-.5-1-.9-1.4v-.1c.3-.4-.4-1.1-.4-1.5h.1c-.7-.7-.4-1.9-1-2.6.1 0 .2 0 .3.2-.3-.6-.6-1.4-.4-1.5-.5-1.4-1.1-3.5-1.8-4.3h.1c-.5-.5-.2-.7-.5-1.3 0 0 0-.1.1-.1-.5-.5-.5-1.7-.7-2.2l.2-.1-.3-1.2.1.5c-.6 0 .1-1-.4-1.8-.1-.8-1.4-1.4-1.3-2.3-.3-.4.5.3.2-.3.3-.1.2.3.4.1-.2-.6.1-1-.2-1.7l.2-.1c-.6-.9.1-1.8-.4-2.4-.3-1 .6-.7 0-1.7l.3-.4c0-.4-.4-.3-.3-.8.2 0 .1-.6.3-.4.2-1.1-.6-2.2-.1-3.7-.4-.3-.2-1-.5-1.3.2 0 0-1.5.3-.7v.2l.2.1c.4-.8-.2-1.5-.2-2.3-.1.2-.1.6-.2.4v-.8l.2.2.1-1.1-.2.2c.1-.6.5-.7.2-1.4-.2-.3-.3.5-.4-.1.1-.7.4-1.8.6-2.8-.3.1-.2-.2-.3-.4h.2c-.2-1 .5-.3.3-1.3l.2.1-.5-.3c-.4-.9.5-.4 0-1.5 0 .4-.5.1-.4-.3l.2.1c0-.3-.1-.4 0-.5.1.2.3.1.3-.3l.2.3-.3-.8c.3-.5.1-1.5.5-1.7 0 0 .3-1.2 0-1.5.2.3.3-.4.6-.2-.2-.4-.3-1.3.1-1.7v.1c.5-1.3.1-2.4.7-3.6-.3 0 0-.6-.4-.5-.1-1.4 1.2-2.2.3-2.9.1-.6.4-.6.5-.9v.2c.2-1.1.3-1.4.5-2.2 0-.4-.5-.6-.1-1.3.1.3.2 0 .3-.3 0 .2 0 .3.3-.1 0-.1-.1-.2-.1-.2.1-.5 0-.4-.1-.2h-.1c.4-.4.4-1.3.7-1.2.4-1.3.3-2.4.7-3.6.2-.1.2.2.2.6l.3-.8c.2.1 0 .5-.1.7.7-.8.4-2 1.2-3l-.1-.3.1-.1c-.1 0-.1-.3-.1-.5.3-.1.4.2.7-.3.3-.3.4-1.2.6-1.8-.2.3-.2.1-.2 0 .1-.3.4-.3.4-.6l.3.1c-.3 0 .1-.8 0-.9.3-.1 0 .5.1.6.5-1 .2-.5.7-1.6.1-.6-.3 0-.4-.4 0-.1 0-.1.1-.2s.2-.2.3-.2c5.7-3.2 4.6 2.7 4.6 4.9 0 4.2.1 8.4.1 12.6 0 .1.4.1.4 0 1.4-3.3 1-6.6 1.1-10.2 0-2.2-.1-5.9 2.4-6.4 1.9-.4 1.5.2 1.9 1.9.3 1.3.4 2.6.5 3.9.1 2.2.2 4.4.2 6.6-.1 4-.1 8 0 12.1 0 3.9 0 7.8.2 11.7 0 .1.4 0 .4 0 1.3-1.9 1.1-3.8 1.2-6.1.1-3.2.3-6.3.4-9.5.1-1.3 0-2.8 0-4.3 0-.9.1-1.8.1-2.7.1-.6.2-1.1.3-1.6-.1-.3-.2-.6-.2-.9 0-.8.4-1.2 1.4-1.2.1-.1.2-.1.3-.2v.5c.1 1.5.2 3.5.3 6.3l-.1-.1c.4 3.3.7 5.4 1.4 7.6-.5.4.3 2.7.2 3.5v-.1c.6 2 0 4.2.4 6.1 0-.1-.2-.1-.2-.6-.4 1.3-.2 3.3-.5 3.4zm-28.9-6.7c.1.1.2.2.3.2 0 .3-.1.4-.2.5 0-.1-.1-.2-.2-.3.1-.2.1-.3.1-.4zm24.4 1.9c.1-1.8.1-3.5.2-5.3.1 1.8.1 3.6-.2 5.3zm-7.9-18.8zm-16.2 19.6l.2-.1c-.1.3-.2.4-.3.4 0-.1.1-.2.1-.3zm-.4 17.6l.1.1v.1c0-.1-.1-.2-.1-.2zm.2 3.4v-.5c.2.7.3 1.4.5 2.2-.1.7.1 1.7.3 2.7-.3-.6-.6-1.2-.8-1.9-.1-1-.2-2.1 0-2.5zm21.1 26.1c-.4.9.1.8-.4 1.8-.1-.1-.2.2-.4.4-.1.2-.2.2-.2 0-.3.4-.3.3-.4.4s-.6.2-1.2.3c-.9.1-2 .1-3.1-.3-.5-.4-.9-.7-1.5-1 .8-.1 1.6-.2 2.3-.4.9-.2 1.8-.6 2.7-1 1-.5 2-1.1 3-1.8-.1.2-.2.5-.2.9l-.6.7zm-21-46.3h.2c-.1.4-.2.7-.4 1 .1-.4.1-.7.2-1zm25.2-38.3l.1-.1s0 .1.1.1c-.1 0-.2-.1-.2 0zm-26 17.5c-.1.2-.1.4-.2.7v-.4c.1-.1.1-.2.2-.3zm27.8 61c0 .2-.1.5-.1.7h-.1c0-.2.1-.5.2-.7zm.3-1.2c0-.1.1-.1.1-.2 0 .2-.1.5 0 .5v.1l-.3.1c.1-.2.1-.3.2-.5zm.1-.2c.1-.1.2-.3.3-.4 0 .2-.1.3-.1.4l-.1.1-.1-.1zm-4.6-81.8s-.1 0 0 0c-.1 0 0-.1 0-.1v.1zm-.8-.3v.2c-.2 0-.4-.1-.6-.1v-.1c.1.5.8-.8.6 0zm-2.4-.2l-.1-.1c0-.1 0-.1-.1 0h-.1v-.1c.1-.3.2-.2.3-.3v.5zm-.1-.6c-.1.2-.1.3-.1.4 0-.1-.1-.2-.1-.3 0-.2.1-.3.2-.1zm-1.5-.2c.1-.1.2-.1.3-.1v.2c-.1 0-.2 0-.3.1v-.2zm-.2-.4v.4h-.2c.2-.1.2-.2.2-.4zm-.1.2h-.2c0-.1.2-.2.2 0zm-27 32.5c-.1 0-.1-.1-.2-.1l.2-.2v.3zm-.1-4.3c-.1-.1-.2-.1-.2-.2h.3c0 .1-.1.2-.1.2zm46.8 56.4l-.6.9h-.3c.4-.5.6-.9.6-1.2h.3v.3zm.6-.6h-.6v-.3h.6v-.4h-.6v-.3c.6 0 .8-.2.8-.6h.4l-.6 1.6zm.9-2.9h.3c-.4.5-.6.9-.6 1.2h-.6c0-.3.2-.5.6-.6 0-.2-.1-.4-.4-.4l.4-1.4h.6l-.6 1.1v.3c.2.1.3 0 .3-.2zm.3-1.5h-.3v-.3c.3-.6.6-.8.8-.8h.3c-.6.4-.8.8-.8 1.1zm.8-2.6c.2 0 .4.1.4.3h-.6l.3-2 .6.3-.7 1.4zm.6-2h-.3v-.6l.6-1.2h.3c-.4.7-.6 1.2-.6 1.8z"/><path id="XMLID_1369_" class="st4" d="M359.6 328.3c0-.2.1-.3.3-.3l-.7-3.4c0-.3.2-.8.6-1.4h-.6c-1.5-3.9-2.7-6.5-3.7-7.9.1-.1-.4-.7.1-.8-.2-.4-.5-.6-.7-.8 0-.2-.2-.4-.5-.6 0-.1-.1-.1-.1-.2l-.1.1c-.2-.1-.4-.2-.7-.2-.1-.2-.2-.3-.4-.5.1-.2.2-.4.2-.5.1.1.3.2.4.3-.2-.6-.6-.6-1-1.1.6-.7.7.8 1.3.7l.2-.8c-.6-.9-.7.2-1.2-.8l.3-.1-.6-.4c-.3.2-.5.6-.2 1-.9.2-.4-.3-1.1-.9-.4.1 0 .2 0 .4-.2-.2-.3-.4-.5-.6.8.2.4-1 1.1-.7-.3-.7-.7-.3-1.1-.5.1.2-.4.3-.4.5h-.2c-.2-.2-.4-.4-.5-.6.1-.4.4-.9-.2-1.2-.1.2-.4.3-.7.4-.3-.3-.6-.5-.9-.8-.1-.6-.5-1.3-.6-1.6-.7-.1-.1.6-.8.3.4-.1.1-.6-.2-.7.3.4 0 .5-.4.6-.2-.3-.6-.5-1-.8v-.3l.8-.1c-.6.1-.1-.3-.6-.4-.2.1-.4.3-.7.5l-.6-.3h.3c-.8-.2.2-.9-.7-1l-.4.3c-.1-.1-.1-.3.1-.4-.2.2-.7 0-.9 0v-.3c-.4.1-1 .5-1.3-.1.2.8.4.1.9.6.1.2 0 .3-.1.3-.3-.1-.5-.1-.8-.2 0-.4-.9-.1-1.3-.2-.2-.3-.4-.5-.5-.7l-.3.5c0-1-.9.1-1.3-.3.3-.3.3-.7-.1-.8.3.5-.2.7-.5.9-.2 0-.4 0-.5-.1.1-.3.4-.6.3-.9-.5.5-1-.4-1.3.3.5.2.2.3 0 .5h-.5c0-.1 0-.2-.2-.2-.1 0-.2.1-.3.2-.3 0-.5 0-.8-.1-4.7-.1-9.3 1.5-13.9 5-6.8 8.4-10.3 16.9-10.6 25.6l-.1 1.4c0 .3-.1.6-.1.9-.5 1.5-.8 2.6-1 4.9-.2 1.5-.3 3.1-.3 4.6.1.1.1.3.1.4 0 .2 0 .4-.1.6-.2 1.3-.2 2.6-.2 3.8.3.6-.1 1.6.2 2.3l-.2.3c.1.2.2.5 0 .8h-.1c.2.4 0 .8.1.9h-.1v.4l-.1-.1c.1.6.2 1.3.1 1.8h.3c-.3 1.2.3 1.6-.1 2.7h-.1c.7 1.3-.3 2.2.4 3.5-.1-.2-.1.1-.2.1.1.5.2 1 .4 1.2-.1.5-.2 1.1.1 1.8-.1-.2-.1.1-.2.1.1.7.1 1.5.7 1.5 0 .5-.2.4-.4.5.1 0 .2.1.2.3-.1.2-.1.3-.2.5.1.8.3 1.6.5 2.4-.2.5-.4.9-.6 1.5.1 3.6 1.4 7.3 1.5 10.7l-.2.2c-.4.1.8.8.4 1l.3.3c0 .1-.1.4-.2.2.1.4.1.3.3.6l-.1.4c.2 1.4 1 2.5 1.4 3.9.1 1.9 2 4.9 3.2 6.5 1.4 1.6 2.2 4.2 3.7 6 2.4 7.7 3.6 15.5 3.8 23.6 0 .1.4.1.4 0 1.8-3.1.5-6.1.3-9.5-.1-1.1.1-7 2.5-5 .1.1.2.4.3.7.1.6.2 1.2.2 1.8 0 1.8-.2 4-.2 4.5l-.3 33.4c0 .1.4.1.4 0 1.9-1.7 1.6-4 1.6-6.4v-14.9c0-4.3-.5-8.8.1-13.1.2-1.9 1.5-5.8 3-3 .1.2.2.5.3.7 0 1.2 0 2.5.2 3.5v.5c-.1 1.2-.1 2.4-.1 3.2 0 .1.4.1.4 0 .5-1.3.7-1.6 1-3 .2-1.1-.4-3.1.8-3.1 1.1 0 .4 7.5.4 8.8-.2 6.4-.3 12.9-.5 19.3 0 .1.3.1.4.1s.2-.1.3-.2c.1-.1.3-.1.4-.2 1.6-1.2 1.1-3.7 1.1-5.6-.1-4.9-.1-9.8 0-14.6.1-2.1 0-4.2.3-6.3.4-3.8 1.6-4.3 4.5-5.9.6 0 1.1-.3 1.7-.3.4.2 1 .2 1.6 0 .5-.1 1.3-.3 1.9-.7.7-.5.8-.6 1.2-.9.4-.3.8-.6 1.1-.9.6-.5 1.1-.9 1.1-1.6.1 0 0-.2 0-.2l.5-.7c1.4-1.1 3.5-3.1 6.3-5.9-.6 0-.8-.3-.8-.6v-.3c.7 0 1.1-.2 1.2-.8v-.3l-.6.3h-.3l.3-.6h-.6v-.3h.6c0-.2-.1-.3-.3-.3.4-.9 1-2.8 1.6-5.7h.4c0-.2.1-.3.3-.3 0-.2-.1-.3-.3-.3.4-1.1.6-1.9.6-2.3-.1-.3-.2-.7-.2-1.1h-.3c0 .2-.1.5-.4.8 0 .2.1.5.3.8-.2 0-.4.3-.6.8h.3l-.4.6.3.6c-.2 0-.5.1-.8.3l.3-.6.1-1.1-.6-.1v-.3l.8.1v-.3c-.2 0-.5-.1-.8-.4 0-.2.1-.3.3-.3 0-.2-.1-.3-.3-.3 0-.2 0-.3.1-.5.1-.1.1-.2.2-.4.1-.1.3-.2.6-.2 0-.2-.1-.3-.2-.4.1-.1.1-.2.2-.3.4-.9.8-1.7.9-1.8h.7v-.3h-.5c.2-.4.5-1.2.9-2.3.5-1.5.9-3.3 1-4.8.1-1.4 0-2.5-.5-2.3-.5.1-1.2 1.5-2.9 4.5l-.1-.1c-.8 1.8-1.2 2.9-1.4 4.3 0-1.8-1.4-2.6-1.4-2.6-.1 1.7-.5 3.4-1 4.9 0-.2-.1-.4-.1-.4-1.6 1.5-2.8 3-4 4.5-.5.5-.9 1.1-1.4 1.7-1 .3-1.8.6-2.6.9-.1.1-.3.1-.4.2 0-.1-.1-.2-.2-.2 0 .1.1.2.1.2-.4.2-.9.4-1.4.5 0 0 0-.1-.1-.1-.1.1-.1.1-.1.2-.3.1-.6.2-.9.2l-.3-.5c-.3 0 .1.7-.2.6v-.3l-.1.2v.1h-.4v-.1c-.1-.1-.2 0-.2.1-1-.1-1.6-.3-2.2-.6-.7-.3-1.4-.6-2.6-1.3-1-.7-2.2-1.7-3.1-2.7-.7-.3-1.2-1.4-1.9-1.9v-.4c-.2-.2-.5-.4-.6-.7h.1c-.4-.3-.5-.7-.7-.9h.1l-.3-.4h.1c-.5-.5-1-1.2-1.3-1.8l-.2.2c-.4-1.4-1.2-1.6-1.5-3h.1c-1.3-1.1-.7-2.5-1.8-3.7v-.1s0-.2.1-.2c-.1-.1-.1-.2-.2-.3v-.1c-.2-.7-.4-1.4-.9-1.4-.1-.5.1-.4.3-.5-.2 0-.4-.4-.5-.8l.1.2-.2-1.2-.4.3c.1-.6.5-.2.3-.8h-.4c0-.9.5-1.4.6-2.3-.1-2.2-.6-4.5-.7-6.7.2-.6 0-1.2 0-1.8 0-.4.1-.9.1-1.3 0-.1.1-.2.1-.3v-.4l.3-.1c.4-.1-.6-.9-.2-1l-.2-.4s0-.1.1-.1c0 0 .1.1.1.2s0 .2-.1.2l.2.1c.4-.6.1-1.1 0-1.6.1-.4.1-.7.1-1 0-.1 0-.2.1-.2.1-.3.1-.5.1-.5l-.2.1v-.1c.2-.4.5-.6.3-1.2-.1-.2-.3.2-.4.1v-.3c.2-.7.6-1.6.8-2.4-.3 0-.2-.2-.2-.4h.2c-.1-1 .6-.3.5-1.2l.1.1-.4-.3c-.3-.9.5-.4.1-1.4 0 .4-.5.1-.3-.4l.2.2c0-.3-.1-.4 0-.5.1.2.3.1.3-.2l.2.3-.3-.8c.3-.5.3-1.4.6-1.5 0 0 .4-1.1.2-1.4.1.3.4-.3.6-.1-.2-.3-.1-1.3.2-1.5v.1c.6-1.2.3-2.2.9-3.3-.3 0 .1-.6-.3-.5 0-1.3 1.3-1.9.5-2.7.1-.5.5-.5.6-.8v.1c.3-1 .4-1.3.7-2 0-.4-.4-.6 0-1.2.1.3.2 0 .3-.2 0 .2 0 .2.3 0v-.2c.1-.4 0-.4-.1-.2h-.1c.4-.3.5-1.2.8-1.1.5-1.2.5-2.2.9-3.3.2 0 .2.3.1.6l.3-.7c.2.1-.1.5-.1.7.8-.6.5-1.9 1.3-2.7l-.1-.3h.1c-.1 0-.1-.3-.1-.4h.1c.2 0 .4.2.6-.2 0 0 0-.1.1-.1.7-.2 1.4.1 1.9 1.3.1.2.2.4.2.7 0 1.7 0 3.4.1 5.1-.1 1.2-.2 2.2-.2 2.9.1 5.5.1 11 .1 16.5 0 .1.4.1.4 0 .3-1.1.5-2.1.7-3.2-.1.3-.2.6-.3.8.4-1.9.6-3.9.6-5.9 0 .8.1 1.7 0 2.5.2-2.8.2-5.7.1-8.6-.1-2.7-.2-5.4 0-8.1.1-1.3-.3-4.5 1.6-3.9 1.4.4.9 2.2.9 3.8l.9 36.2c0 .2.4.1.4 0 2.4-2.6 2.2-5.9 2.2-9.3v-16.3c0-2.3-.8-16.8 4-13.3.3.2.5.4.8.7.5.7 1 1.3 1.5 1.9.5.8 1.1 1.6 1.6 2.1.4.4.7.7 1.1 1 .5.7.8 1.2.8 1.6h.7c-.1.1-.3 0-.4.1.4.1 0 .4 0 .5h.5c-.7.3.3.5-.2.8.9-.2.5.1.7.1 0 0-.3.1-.4.1.1.1.2.2-.1.5.1.1.6 0 .5.2-.6.1 0 .2-.2.4.5-.1 1 0 .8.1l-.8.1c.5.3-.3.9.7 1.2l-.4.1c.5.3.1.8.9 1.1v.1c-.2.1-.3.3-.3.4.2.1.3.1.4.1 0 .1 0 .2.1.2-.1.2-.7.4 0 .5h-.4c.2.1.4.1.5.2v.2s0 .1-.1.1h.2v.2h-.1c-.1.3.1.5.3.8 0 .1.1.2.1.3-.4.1.2.3-.2.5.3.1 0 .3.5.4h-.2c0 .2 0 .4-.2.6-.1.1.5.1.7.2h-.4c.2.1.8.1 1.2.1-.3.1 0 .1-.2.2-.2-.1-.6-.1-1.1-.2-.2.1.8.2.2.3-.1.1 0 .2.5.2-.2 0-.3.1-.5 0 0 .1.1.1.3.2 0 0 .1 0 0 0 .4 0 .4.1.9.1-.2 0-.2 0-.2-.1.4 0 .5.2.2.2-.4 0-.7-.1-.9 0l1 .2c-.3 0-.1-.1.3-.1l-.2-.1h.4c-.2-.1.3-.3-.1-.4l-.4.1c0-.1-.6-.2-.1-.3h.6c-.1 0-.2 0-.2-.1h.7c-1 0-.4-.2-.5-.3h.1c.3-.1-.4 0-.4-.1.1-.1.8 0 1.1-.1 0-.1-.6-.4 0-.5-.1-.1-.2-.2-.4-.2l.2-.2h.7c-.3 0 0-.2-.6-.1.1-.2.2-.3.3-.5h.5c-.2 0-.3-.1-.4-.1.1-.2.1-.3.1-.4.3 0-.2.2.4.1.6 0 .7.3.3.3.7.1.1-.1.7-.1-.1-.1-.4-.1-.5-.3-.3 0-.4.1-.6 0-.7-.1.5-.2.5-.2.1 0 .1 0 .2.1.2-.1-.2-.1-.2-.2.9-.1.1.2.6.2l.6-.1c.1-.2-.7 0-.5-.2h.3l-.2-.1c-.3 0-.8.1-.7.1-.8 0-.1-.1-.3-.2-.5 0 0 .1-.4.1 0-.1 0-.2.1-.2h.3c.1 0 .2.1-.1.1.5.1 1-.1 1.3 0 .3-.1-.3-.1-.5-.1h-.6c-.2 0-.3 0-.4-.1.2-.1 1.2-.1 1.1-.2h-1v-.2h.3c.4-.1.8-.2 1-.3-.3-.1-.5.1-.7 0 .3 0 .5-.1.5-.1-.2.1-.8.1-.9 0 0-.1.5-.2.6-.2l.5.1c-.4 0 .2 0 0-.1h-1.2c-.1 0 .3-.1.2-.1l.3.1c-.1-.1.9-.1.6-.2h-.4c.1 0 .3-.1.4 0-.3 0-.3-.1-.4-.1h.3c-.2 0-.8-.1-.3-.2-.7.1 0 .1-.3.2-.5.1-.5-.1-.6-.1.7-.1.1-.1.1-.2.3-.1.4-.1.5-.1h-.5c1-.1-.2-.1.1-.2.3 0 .7 0 .8-.1-.5.1-.8 0-1.1 0v-.1c.3 0 .7 0 1.1-.1-.6 0 .3-.2-.4-.2-.2.1-.4 0-.8 0 .1-.1.3 0 .6-.1h-.6v-.1h.2s-.1-.1-.2-.1v-.2h.3-.3c.2 0 .6 0 .8-.1-.5 0-.2-.2-.3-.2-.5 0 .1 0-.2.1-.1 0-.3 0-.4-.1v-.1c.3 0 .5-.1.7-.1.2-.1-.5 0-.3-.1h.3c.1-.3-.1-.7-1-.8v-.1c.3-.1.4-.2.6-.4-.1.1-.5.1-.5 0l.5-.1c.3.1.8.2 1.5.2 0-.2.1-.5.4-.8 0-.1-.3-1.1-.8-2.9.2 0 .5-.1.8-.3.1-.9-.1-1.1-.5-1.2zm-1.8 4zM343.9 400zm-23.2-57.2v.5c0 .1-.1.3-.1.5l-.1.1c0-.4.1-.9 0-1.1 0 0 .1-.1.1-.2.1 0 .1.1.1.2zm-.2 3.2v.2h-.2l-.1 1.1.1-.4c.5.2-.5.8-.2 1.7-.1.2 0 .5.2.8-.3.4-.6.8-.8 1.3-.1.5-.1 1-.2 1.5v-.8c.1-.2 0-.4 0-.5v-.2c.1-.2.1-.5.2-.7s.2-.5.2-.2c.5-1.4.2-3 .9-4.8 0 .1 0 .2.1.3-.2.2-.2.4-.2.7-.1-.1-.1-.1 0 0-.1-.1-.1 0 0 0zm14.8 52.5s.1 0 0 0c.1 0 .1.1 0 0 .1 0 0 .1 0 .2v-.2zm11.5-1c.1-.1.1-.2.1-.3 0 .1 0 .2-.1.3zm-1.1 1.8c-.5.5-.7.5-1.3.6.8-.6 1.6-1.4 2.2-2.3.1-.1.1-.1.2-.1-.3.8-.7 1.4-1.1 1.8zm2.2-4.3v-.3c.1 0 .1-.1.2-.1 0 .1-.1.2-.1.3l-.1.1zm6.9-81.1c.2.3.4.6.4.9-.2-.3-.4-.5-.6-.6l.2-.3zm-4.1-5.2c.1 0 .5.3.4.5-.2-.1-.3-.3-.4-.5-.1.1 0 .1 0 0zm-6.5 1.8v.2c-.1-.1-.2-.2-.3-.4.1.1.2.2.3.2zm-1.8-1.6c.4.3.8.4 1.1.4 0 .2-.1.3-.3.3 0 .1 0 .1.1.2-.4-.3-.8-.6-1.3-.8.1.1.3 0 .4-.1zm-2.1-1.4c.3 0 .6-.1.8-.1h.1l-.3.6h.3c.2.2.4.3.6.4-.5 0-1-.1-1.5-.4-.1.5.1.5-.1.9-.1 0-.4.2-.5.1 0-.5.3-1.2-.4-1.4.3-.5 1 .4 1-.1zm-.4-.1c-.6.3-.8-.1-.9-.4.3.2.6.3.9.4zm-4.7-.3h.4v.1l.1-.1h.5c.1 0 .3-.1.3.2.1.4-.4.5-.8.6-.5 0-.3-.5-.5-.8-.1 0 0 0 0 0zm.2 4.2c.1-.4.7-.7.3-1 .3-.1.3.6.5.2l-.2.6c1.5-.1 2.6-.3 4.1.1 0 .3.2.4.5.5-.3 0-.5 0-.7.1l-.5-.2c-.4.1-.9.2-1.3.1v-.1c-.4.1-.7.1-1.1.1h-1.4l.1-.1c-.5.1-1.1.1-1.8.2.6-.4 1-.6 1.5-.5zm-.5-4.2c-.3.5-.5.4-.7.1.2 0 .5 0 .7-.1zm-2.7.9c.3-.2.6-.3.9-.4-.2.5-.5 1 .2 1.4-.2.2-.3.5-.5.5 0-.6-.5-.2-.4-.9l-.3.1.1-.7zm-.3-.4l.1.1c-.1 0-.1 0-.2-.1 0 .1.1.1.1 0zm-1.6 1.1c0 .1-.1.2-.1.3-.2.1-.4.1-.6.1.2-.1.5-.2.7-.4zm-1.8 1c.2-.1.3-.2.5-.3 0 .1 0 .2.1.3-.2.3-.6.1-.6.2v-.2zm-1.2 1.1c.1.2-.2.6-.3.7-.1-.1-.2-.1-.2-.2.2-.2.4-.3.5-.5zm-.8.9c-.1.2-.1.3-.2.4h-.1c0-.1.2-.3.3-.4zm-.7.8zm-.9 1.1c0 .2.1.3.2.4-.2.1-.4.1-.5-.1l.3-.3zm-.8 1v.1c-.1.1-.1.1-.2.1h-.1c.2 0 .2-.1.3-.2zm-.6 1.2c.1-.2.2-.3.3-.4h.3c-.3.2 0 .9-.6.9-.1 0-.1 0-.1-.1l.2-.2h-.2c0-.1 0-.2.1-.2zm-.2.5c.2.3.6.6.4 1 .4-.1.9.6.9 1-.6.6 0-.4-.7-.5l-.1.3c-.7 0-.6-.9-.9-1.3l.4-.5zm-8.7 72.5c-.4-.3.5.2.1-.3.3-.1.3.2.4 0-.3-.5 0-.9-.4-1.5l.1-.1c.1.1.1.2.2.3.2 1.1.4 2 .6 2.7-.4-.3-1-.6-1-1.1zm19.8 46.5c0 1.6-.1 3.3-.1 4.9-.2-1.2-.1-3.2.1-4.9zm17.9-41.7c0-.2.1-.3.1-.5 0 .1-.1.3-.1.5zm.2-1.3v-.4c.2-.2.5-.4.7-.6l.1-.1.6-.6c-.6.9-1 1.4-1.4 1.7zm-13.5-47l.3 11.5c-.3-3.8-.3-7.6-.3-11.5zm18.8-13s0 .1 0 0h-.2.2zm-.1.2h.2l.1.1c-.1-.1-.2-.1-.3-.1z"/><path id="XMLID_1406_" class="st4" d="M421.2 403.2c0-.3-.2-.5-.6-.6v.6h-.3c0-.8-.4-2.8-1.2-6v-.6l.6.3v-.3l-.3-.6c-.2 0-.3.1-.3.3h-.3c0-.2.1-.3.3-.3l-.6-1.4h.3c0-.2-.1-.3-.3-.3 0-.2.1-.5.3-.8-1.3-5.5-2.2-8.8-2.5-9.7-.3-3.8-.8-5.7-1.4-5.7 0-.2.1-.3.3-.3v-.3c-1.1-5-1.9-7.5-2.3-7.5 0-.2.1-.3.3-.3 0-.3-.2-1-.6-2h.3l-.6-1.1h.3l-.3-.6v-1.4h-.3l-.6.3c0-.3.2-.5.6-.6 0-1.3-.3-2-.8-2 0-.2.1-.3.3-.3 0-.5-.2-1.4-.6-2.8.2 0 .3-.1.3-.3h-.3c-1-4.4-1.6-6.6-2-6.6 0-.2.1-.3.3-.3-1.4-6.8-2.2-10.9-2.6-12.2.2 0 .3-.1.3-.3 0-.3-.2-.5-.6-.6 0-.2.1-.3.3-.3 0-.2-.1-.3-.3-.3l-4.6-17.7.3-.6c-.5 0-.9-1.2-1.1-3.7l.3-.6c-.6 0-.8-.3-.8-.8h.3l-.8-2.3h.3c0-.3-.4-1.3-1.1-3.1h.3c0-.3-.2-.5-.6-.6l.3-.6c-.4 0-.8-1.1-1.4-3.2 0-1.7-.5-2.5-1.5-2.5v-.4h.6v-.2l-.6.3c0-.2-.1-.5-.3-.8.2 0 .3-.1.3-.3-.4 0-.6-.2-.6-.6-1.9-.6-2.8-1.1-2.8-1.4-.2 0-.3.1-.3.3-.2 0-.3-.1-.3-.3l-.6.3h-.3v-.3l.3-.6c-.2 0-.4-.3-.6-.8.2 0 .3.1.3.3.4 0 .6-.2.6-.6l-.4-.6c.2 0 .4-.1.4-.3v-.3h-.9c-.2 1.7-.4 2.7-.6 3.2l-.6-.3h-.3c-.2 1.1-.5 1.7-.8 1.7-.6 0-1.6 2.7-3 8.1l-.2-.2-.3 2.4c-.3 1.2-.6 2.5-.9 3.8-.6 1.9-1.4 3.7-2.2 5.7-.2 1.4-.3 3.3-.9 4.5-1 5.4-3.4 10.6-4 16.2.3-.3.5.1.5.4h-.2l.3.5c0 .4-.5.1-.5-.2-.5 2.2-.7 4.2-1.3 6.3.5.3-.2 1.1.4 1.3-.1.1-.1 0-.2-.1 0 1.5 0 1.7-1 2.9-1.7 5.7-2.5 11.3-3.9 17-1.1 5.8-1.9 11.5-2.9 17.5.5.7.4 1.5.4 2.3-.4.1.1.5-.4.6.3.3-.5.3-.1.6-.3-.1-.3 0-.5 0 1 .4-.5.3.2.7l-.2-.1c-.1.5-.3 1-.2 1.5-.4.7-.9 1.3-1.3 2 0 .1.1.1.2.2l-.8 6.3c-.1 0-.2 0-.2.1-.8 10.1 1.1 20.8 1.9 30.8 0 .1.4.2.4.1.3-5.1.5-10.2.8-15.4.1-1.5-.4-5.3 1.3-5.7 1.4-.3.8 1.5.8 2.6v4.5c.1 10.8.1 21.6.2 32.3 0 .1.4.2.4.1 1.7-8.7 1-17.5.9-26.3 0-1.5-.1-3.3-.2-5.1 0-.9 0-1.8.1-2.6 0-.6.1-1.2.2-1.8.1-.9.4-1.7.7-2.4 1.3-3 .9.7 1 2.1.2 2.1.4 4.2.6 6.4 0 .1.4.2.4.1.4-5.2.7-10.3 1.1-15.5v-1c.4 1 .8.7 1.2.1 0 1.5-.1 3.1-.1 4.4.2 10.2.3 20.4.5 30.6 0 .1.4.2.4.1.3-8.6.6-17.3.9-25.9.1-4.1.3-8.3.4-12.4 0-.8.1-1.6.1-2.4.1-.2.1-.4.2-.7.3-1.2.8-2.7 1.3-4.8.1.2.3.6.5 1.1 0 .1.4.2.4.1.1-2.2.3-4.5.4-6.7.1-.6.3-1.3.5-2h.1c.7-3.7 1.3-6.8 1.7-9.2 4.3-2.1 3.6 2.7 3.6 4.4 0 3.3.1 6.6.1 9.9 0 .1.4.2.4.1 1.8-2.6.9-6.8.8-9.8 0-.9-.9-6.6 2.1-4 .1.1.2.3.2.7v2.8c-.1 1.5-.2 2.9-.2 3.4 0 .1.4.2.4.1 1.1-2.5.6-5.1 1.5-7.6.8-2.1 1.3-2 1.5.1.2 1.7 0 3.6 0 5.3v20.4c0 .1.4.2.4.1 1.8-1.6 1.5-4 1.7-6.3.2-3.4.3-6.9.5-10.3.1-2.7.2-5.6 1.4-8 .1-.3.4-.6.6-.9 4.6.8 7.6 22 7.8 24.2.6 8.6.6 17.3 2.2 25.8 0 .1.5.2.5.1l.3-16.3c0-.4-.2-2.9.3-2.4.6.6.3 2.3.4 3.2.2 2 .7 3.9 1.3 5.8 0 .1.4.2.4 0 0-.7 0-1.8-.1-3.1.1-1.4.1-2.8.2-4.1.1-.3.2-.5.3-.7.7-1.1.5-.4.8.9.3 1.4.2 3.2.3 4.5.4 6.1.8 12.1 1.1 18.2 0 .1.4.2.5.1.2-1.2.3-2.3.4-3.4-.1.5-.2.9-.3 1.2.2-1.6.4-3.2.5-4.8v-.6c.2-3.6.3-7.2.1-10.8 0-1 .1-2 .1-3 .1-2 .9-3.8 1.6-5.7.2 0 .4.1.7.1h.3c.5-1.5 1.1-2.4 1.8-2.6 0-.2-.1-.3-.3-.3.1-.1.2-.2.4-.2zM385 328.5v.8h-.4l.2-.8h.2zm-.3-1.1zm.5.5c0-.1 0-.1 0 0zm4.9-17v-.3l.6.3-.3.6h-.3c0-.2.1-.3.3-.3 0-.2-.1-.3-.3-.3zm9.1 59.2h-.3v-.2c0-.1.2-.1.1.1.1-.1.1-.3.1-.4 0 .1 0 .1.1.2-.1.4 0 .2 0 .3zm-.3-.2c0 .1-.1.2-.1.3h-.1v-.2c0-.1.1-.2.2-.1 0-.1 0-.1 0 0zm-10.3-18.1c.1-.3.4-1.6.3-.7.3-2.3.6-4.8 1.5-8.4.1-.3.1-.7.2-1 .1.8.2 1.7.6 3 .3 1.4.8 2.9 1.1 4.3.5.6.5 1.8 1 2.5l-.1.4c.2.2.3.5.3.8h-.1c.3.4.3.8.4 1h-.1l.2.5-.1-.1c.3.6.6 1.3.7 2l.2-.1c.1 1.4.8 1.7.8 3h-.1c1.1 1.3.3 2.5 1.4 3.9-.1-.2-.1.1-.2.1.3.7.6 1.4 1.1 1.3.2.5 0 .5-.2.6.2-.1.5.3.6.7l-.1-.2.2.5c-.4 0-.9 0-1.3.2.1.2.1.5 0 .6v-.2.2h-.1c0-.1 0-.3.1-.3-.6.1-1.1.3-1.7.3v.1h-.4l-.6-.3v.3c-.2 0-.5-.1-.8-.3-.2 0-.5.1-.8.3h-.1l-.5-.3c-.4.2-.7.3-.9.3-1.4 0-3 .1-4.8.2.1-1 .2-1.9.5-3.1l.1-.2c-.1-.5.4-3 .9-5.8.4-2.9 1-5.9.8-6.1zm4.3-22.9c-.6-1.1.7.9 0-.8.2-.1.3.4.4.4.3 1 .5 2 .7 3.1.3.4.6 1.2.8 1.9-.7-1.4-1.6-2.9-1.9-4.6zm-5.5-4.2v.2-.2zm12.7 51.8s-.1 0 0 0c-.1 0-.1 0 0 0zm-10.5-63.4c-.1 0-.1 0 0 0l-.2.3-.1-.1c.2-.6.5-1 .7-1.1l-.4.9zM366.7 420c-.4-4-.8-8.2-.9-12.2.3 4.1.6 8.2.9 12.2zm26.4-41.2c0-.5.1-.9.2-1.4-.2.9-.2 1.9-.3 2.9 0-.5.1-1 .1-1.5zm7.5-2.3c.3.1.5.2.7.4-.3-.1-.5-.2-.8-.3l.1-.1zm15.2 5.7l-.6-.3v-.6h.3c0 .2.1.5.3.9zm-.6-2.6c0 .2-.1.3-.3.3 0 .2.1.3.3.3v.3c-.3 0-.5-.2-.6-.6v-.3h.6zm-.5-2c-.2 0-.3.1-.3.3h-.4c0-.2.1-.3.4-.3l-.6-1.1c.3 0 .6.3.9 1.1zm-1.5-2.3v-.6h.3c0 .2.1.5.3.8l-.6-.2zm.3-1.7v.3c-.3 0-.5-.2-.6-.6v-.3c.4 0 .6.2.6.6zm-.6-3.1l.3 1.4c0 .4-.2.6-.6.6 0-.2.1-.5.3-.8v-.3l-.6.3v-.3l.3-.6h-.6v-.3h.9zm-.6-1.2h.3c-.2.4-.3.7-.3.8h-.3c0-.2-.1-.5-.3-.8.2 0 .3.1.3.3.2 0 .3-.1.3-.3zm-1.1-3.4c.4.2.7.3.8.3v.6c-.4-.2-.7-.3-.8-.3v-.6zm-1.1-6h.3l.6.3-.3.6h-.3l.3-.6h-.6v-.3zm-20-52.2l-.3-.6h.6l.3 1.5c-.2 0-.5.1-.8.3 0-.2-.1-.3-.3-.3l.5-.9zm-.8.6v.4c-.6 0-.8.4-.8 1.1h-.3v-.6c0-.2.1-.5.3-.9h.8zm-1.2-2.6h.3v.3c-.2.4-.3.7-.3.8-.3 0-.5-.2-.6-.6.4.1.6-.1.6-.5zm0 1.5h.3l-.6.8h-.3l.6-.8zm-.3 4.5h.3v.8h-.6c.3-.3.3-.6.3-.8zm-3.1 13.3c.2 0 .3-.1.5-.2 0-.2-.1-.4-.2-.7 0-.1.1-.3.1-.4.1 0 .2-.1.4-.1v-.3c-.1 0-.2-.1-.3-.1.1-.4.2-.9.3-1.3 0-.3 0-.5.1-.8l.5-1.9s.1 0 .1-.1v-.1l.6-2c0-.2-.1-.4-.3-.8v-.1h.5c0-.2-.1-.3-.3-.3.4-.9.6-1.7.6-2.3h.3v.3c-.6 3.9-1 6.3-1.4 7.2h.3c0 .2-.1.3-.3.3 0 .2.1.3.3.3-.1.2-.3.9-.5 1.9h-.1v.5c-.2.8-.4 1.8-.6 3 .1 0 .2.1.2.1v.4c-.8-.1.2-.9-.3-1.2h-.1l.2-.7c-.3-.1-.5-.2-.7-.2 0-.1.1-.2.1-.4zm-.3 3.2h.1-.1zm0 1.8c.1 0 .2.1.3.1v.1h-.3v-.2zm-.6 2h.6c0 .2-.1.3-.3.3 0 .2.1.3.3.3 0 .2-.1.3-.2.4v-.1c-.1 0-.1.1-.2.1s-.1.1-.2.1h-.3l.3-1.1zm-.2 1.4zm-.6 0c.2 0 .3.1.3.2h-.3v-.2zm0 .8h.2c0 .1-.1.1-.1.2-.1.1-.3.2-.3.4.1-.1.1-.1.2-.1 0 .1 0 .1-.1.2h-.3l.4-.7zm.4.6c.1.2.3.4.3.5 0 .2-.2.4-.3.5 0 0-.1-.1-.1-.2-.2 0-.3.1-.3.3h-.2c0-.1.1-.2.3-.2l-.1-.2h.1c0-.1 0-.2.1-.3h-.3l-.1-.1c.2 0 .4-.1.6-.3zm-1.3 4.6c.1-.1.1-.2.1-.3h.3c0 .1 0 .2.1.4-.3 0-.2.4-.1.7l-.2.1h-.3c0-.3.1-.6.1-.9zm.3 7.9c0 .2-.1.4-.1.6-.1 0-.2 0-.3-.1 0-.1.1-.1.1-.2-.2 0-.3-.1-.3-.3h.6zm7.1 40.3v-1.3 1.3z"/><path id="XMLID_1445_" class="st4" d="M421.2 402.1v-.8h-.8c.2.5.5.8.8.8z"/><path id="XMLID_1446_" class="st4" d="M476.3 315.2v-.6c0-.6-.2-.8-.6-.8l.3 1.4h.3z"/><path id="XMLID_1447_" class="st4" d="M477.7 319.2l-.3-1.4h-.3v.8c0 .4.2.6.6.6z"/><path id="XMLID_1450_" class="st4" d="M614.3 317.3c0-.1 0-.2-.1-.3 0-.1 0-.2-.1-.2 0-.2-.1-.4-.1-.6 0-.1.1-.3.2-.4l-.3-.3c-.2-.7-.3-1.4-.4-2-.6-1.6-1.4-3.2-2.5-4.6s-2.5-2.6-3.9-3.5c-.2-.1-.3-.2-.5-.2h.1c-.1 0-.2-.1-.3-.1-.1-.1-.2-.2-.3-.2-.1-.2-.1-.4-.4-.4h-.1c0-.2.4-.2.1-.5-.2 0-.2.2-.3.3-.8-.8-1.3-1.4-1.3-1.5-.3 0-1.1-.3-2.6-.8v-.1c-.1 0-.3-.1-.4-.1-.5-.2-1-.4-1.6-.6.1-.1.2-.1.2-.2-.4-.1-.5 0-.4.2-.5-.2-1-.4-1.6-.6l-.1-.2h-.4c-.2-.1-.3-.1-.4-.2v.3c-.2 0-.3-.1-.3-.3-4.3-.2-7-.3-8-.3-5.4 0-11 2.1-16.5 6.3-4.6 2.5-7 7-7.3 13.4-.5.7-.9 1.3-1.1 1.9-.4.8-.6 1.5-.8 2.4-.4 1.6-.6 3.3-.8 5.7-.2 1-.3 1.9-.3 2.7-.1.8-.1 1.4-.1 2.1s0 1.4.1 2.2c.1.8.3 1.7.5 2.7.5 2.1 1.3 4.2 2.4 6 .8.7 1.3 2.4 2.3 3.1l.1.5c.3.3.7.6.8.9h-.1c.5.3.9.9 1.1 1h-.1l.5.5h-.1c.8.6 1.6 1.3 2.3 1.9l.1-.3c1.3 1.5 2.2 1.4 3.4 2.7h-.1c2.2.6 2.6 2.3 4.9 2.8-.3-.1 0 .2 0 .2.9.4 1.9.9 2.1.5.6.4.4.4.4.7.1-.2.5 0 .9.1l.1.1h-.1l.1.1c.1.1.2.3.4.4l.2-.1.7.4-.1-.4h.1c.1.1.1.2.1.4h-.6v.4c.4 0 .6.2.6.6h.6c0-.2-.1-.3-.3-.3v-.3l.6.3c0 .2-.1.3-.3.3.3.6.6.8.8.8v-.6h.3v.8l.6-.3c.1.2.3.3.4.5h.1l-.5-.3h-.3l.6.8c.2 0 .3-.1.3-.3h.3l-.3.6c.2 0 .5.1.8.3v-.3l-.2-.4c.1.1.3.2.4.3l.4.8c-.2 0-.3.1-.3.3.8 0 1.2.3 1.2.8h.3v-.6h.3c0 .9.4 1.4 1.1 1.4h.3c0-.2-.1-.3-.3-.3v-.3l.6.3c0 .2-.1.3-.3.3 0 .3.6.7 1.7 1.2h.3c0-.2-.1-.3-.3-.3v-.3l.2.1c.3.2.6.4.9.7 0 0-.1.1-.2.1 0 .3.4.6 1.2.8 1 .9 1.8 1.9 2.3 3l-.1.3c-.3.3 1.1.6.9.9l.4.3c0 .2.1.4-.1.3.2.4.2.4.5.6v.5c.5 1.6 1.4 2.8 1.5 4.6-.1 1.1-.1 2.6-.3 4.2-.1.9-.3 1.8-.5 2.7-.7 1.4-1.5 2.6-2.3 3.6-.7 1.7-2.4 3.3-5.1 4.7-.7 0-1.4-.1-2.2-.2-1.7-.5-2.7-1.1-3.7-1.6-1.1-.6-2-1.2-3.6-2.2-1.6-1.1-3.3-2.2-4.8-3.2-.9-.2-1.9-1.2-2.9-1.6-.1-.2-.3-.4-.5-.5v-.1c-.2-.1-.4-.1-.6-.2.1-.3 0-.5-.1-.7-.4 0-.5-.1-.9 0-.1 0-.1-.1-.2-.1l.3-.3c-.1-.3.3-.9-.4-.8l.3-.2c-.5 0-1.1-.1-.8-.5-.3.1-.6-.1-.9.3-.1-.1.5-.4.1-.3l.5-.2c-.2-.6-.7-1-1.3-1.4.5-.5-.4-.5-.2-1-.4 0-.1-.6-.9-.3l.3-.2c-.1-.3-.3-.6-.3-1 0-.2-.5 0-.8 0l.3-.2c-.2 0-.5 0-.7.1v-.3c.2 0 .5-.1.8-.2 0-.3-.9 0-.5-.4 0-.2-.1-.3-.5-.1.1-.1.2-.2.4-.2-.1-.1-.2-.2-.4-.2v.1-.1c0-.1 0-.1-.1-.2-.1-.2-.1-.3-.2-.5l.2-.2c-.1 0-.1.1-.2.1 0-.1-.1-.2-.1-.3.1 0 .1-.1.2 0 .1-.1 0-.1-.2 0-.2-.3-.3-.6-.6-.8-.7-1.8-2.4-2.1-2.4-2.1.6 2.1 1 4.1 1.2 6.1-.3-.3-.4-.7-.6-1.1-.1-.4-.3-.7-.5-1.1l-.2-1.1-.2.2c0-.7.3-1-.1-1.7-.2-.3-.2.7-.4 0v-3.5c-.2.1-.3-.2-.4-.5l.2-.1c-.1-.3-.1-.4-.1-.6h-3.9c-.1.5-.5.2-.4 1.3l.3.3c.5 1.3-.5.7.3 2.1-.1-.4.1-.4.3-.2 0 .2 0 .3.1.5l-.1-.1c.1.4.2.5.2.7-.2-.2-.3-.1-.2.5l-.3-.3s.2.2.3.5c.2.2.3.5.3.5 0 .9.7 2 .5 2.4 0 0 .1.4.4.9l.3.6.3.9c0 .1 0 .1-.1.1.1 0 .2.1.3.2.8 2.3 1.7 4.5 2.5 6.7l-.1.3c-.3.3 1.1.9.9 1.2l.4.4c0 .2.1.5-.1.3.2.4.3.4.6.7l.1.6c.9 1.8 2.3 2.9 3.6 4.6.7 1.1 1.9 2.5 3.4 3.6 1.1.9 2.3 1.6 3.3 2.1.1.3.3.6.4.9 2.2 5.6.7 11.9 2.3 17.6 0 .1.4.2.4 0l.6-6.9c.1-1.3-.2-4.4.7-5.5 1.9-2.7 1.7 4 1.8 4.7.2 2.3.4 4.7.5 7 .7 9.4 1.4 18.7 2.1 28.1 0 .1.4.2.5.1l.6-22.7.3-10.5c0-.3-.1-1.9-.1-3.1 0 .1-.1.3-.1.4v-.8c0-.9.4-2 1-2.3-.3.3-.5.8-.7 1.5 2.5-1.4 2.9 6.6 3 7.4 0 .1.4.2.5.1.3-1.8.7-3.7 1-5.5s0-3.8 1.9-4.2c2.6-.6 1.5 3.5 1.4 5.2s-.1 3.5-.1 5.2c-.1 7.5.2 15 .9 22.5 0 .1.4.2.5.1 1-2.5 1.5-5.1 1.7-7.6.2-1.9.3-3.9.2-5.8 0-1.9-.2-3.7-.2-5.6 0-3.3.1-6.6.9-9.9.8-3 2.3-5.7 3.9-8.3 1.3-.4 3.2-1.4 4.2-3 .2-.3.4-.7.6-1.1 2.3-2.3 4-4.8 5.3-7.7h-.3l.6-1.4h-.3c.4-1.2.6-1.9.6-2.3-.2 0-.3-.1-.3-.3.2 0 .3-.1.3-.3l-.3-1.4c.2 0 .3-.1.3-.3-.2 0-.3-.1-.3-.3l.3-.6c-.2 0-.3-.1-.3-.3l.3-.6h-.3c0-.2.1-.3.3-.3l-.3-.6v-.6l.3-.6h-.3l.3-1.4-.3-.6c.2 0 .3-.1.3-.3l-.3-.6h.3c0-.8-.2-2-.6-3.7.2 0 .3-.1.3-.3-.6 0-.8-.6-.8-1.7l-.6.3c0-.8-.2-1.2-.6-1.2 0-.2.1-.3.3-.3-.3-.7-.9-1.1-1.7-1.4v-.6h.3v.3c.8.3 1.1.7 1.1 1.1l.6-.3c0-.1-1-1.1-3.1-2.8-1.1-2.5-1.7-3.7-2-3.7 0-.2.1-.3.3-.3-2.3-3-3.7-4.6-4-4.6l.3-.6c-.6 0-.8-.3-.8-.8-.2 0-.3.1-.3.3-.4 0-.6-.3-.6-.8-.2 0-.3.1-.3.3h-.3l.3-.6h-.3l-.6.3c0-.5-.4-.8-1-1.1 0-.1-.1-.2-.1-.3-.1-.1-.3-.2-.4-.3h.2v-.4c-.2 0-.5-.1-1-.3-2.2-1.6-4.5-2.8-6.3-4.4.2.1 0 .5-.3.3.2-.5-.2-.5-.6-.6.2-5.9.3-11.7.2-17.6-.1-2.6-.4-5.4.1-8 .1-.9.3-1.8.7-2.6.3-2.1 1.8-2.6 4.5-1.7.4.8-.6 2.3-.3 3.2.4 1 .7 1.2 1.2 1.2.2.1.4.1.6 0h.3l.1-.1c.2-.2.4-.4.5-.7.6-1.9 2.4-2.6 5.5-2.2.4.2.8.5 1.1.9.1.2.1.4 0 .6l.2.1v.1c.1 0 .3.1.3.2-.2.1-.5.1-.4.5-.1.3.2.9.4 1.2 0-.2.1-.2.2-.1 0 .2-.2.3-.1.5l-.3.1c.3-.1.4.5.5.5-.2.1-.2-.3-.4-.3.1.8.1.4.2 1.2.3.4.3-.1.5.1.1.4.3.7.2 1.2l.1-.1c0 .9-.1 1.8-.1 2.6 0 .1.2.1.3.1.1.1.3.2.4.3h-.4c.1.2.5.3.8.4.1.1.2.3.2.4l-.1.1c-.2-.2-.6-.4-1.1-.6-.2.3.7.7.1.8-.2.3 0 .5.5.5-.2-.1-.3.2-.5 0 0 .2.1.3.2.4l.1-.1c.4.1.4.3.9.3-.1-.1-.2-.1-.2-.2.4.1.5.4.1.4-.4.1-.7-.2-.9-.1l1 .5c-.3-.1-.1-.3.3-.2l-.2-.2h.4c-.1-.3.3-.5 0-.9l-.4.1c0-.2-.6-.5-.1-.6h.1c.3.4.6.4.8.2.1 0 .1-.1.1-.1.2-.2.3-.6.4-.9.1-.3.1-.4.1-.4.1-.3.1-.7.2-1 .1-.2.2-.5.3-.7h.2c-.1 0-.1-.2-.1-.3.1-.3.3-.7.4-1h.1l-.1-.1c.1-.3.2-.5.3-.8h.1c.6.2.5.8.1.8.6.4.1-.2.7 0 0-.2-.3-.4-.3-.8-.3-.1-.4 0-.5-.1.1-.1.1-.3.2-.4h.3c.1.1.1.1.1.2.3-.2-.2-.3-.1-.6.9.1 0 .4.5.6l.6-.1c.1-.4-.7-.2-.4-.6l.3.1-.2-.3c-.3-.1-.8-.1-.8.1-.1 0-.2-.1-.3-.1.1-.2.2-.3.2-.5.4.1.7-.1.9.1.3-.2-.3-.3-.4-.5h-.4c.1-.1.1-.3.2-.4.2 0 .4-.1.4-.2h-.2c.1-.3.2-.6.4-.9.1-.1.3-.1.4-.2-.1-.1-.2-.1-.2-.1 0-.1.1-.2.1-.3 0-.1.1-.2.1-.4h.1c-.1 0 0 0-.1-.1v-.1c.1 0 .2 0 .1-.1.5-1.3.9-2.6 1.2-4.2 0-.2 0-.4-.1-.6.1-.1.3-.2.4-.4.1.6-.1.5-.4.4zm-4.8 1.1s0 .1.1.1h-.5c0-.3.2-.1.4-.1zm-19 95.6c-.1-.3-.1-.5-.1-.8 0 .2.1.5.1.8zm-2.2-66c-1.1-.3-1.7-1.7-2.5-1.8.4-.2-.2-.5-.3-.8-1.3.3-1.4-1.6-2.5-1.7l.1-.1c-2.2-1.9-4.1-4.4-6.2-6.5-1.1-1.3-1.2-3.4-2.3-4.8-.1-.1-.2-.1-.3-.1 0-.1.1-.3.1-.4.1-.5.1-.9-.1-1.4.5 0 .2-.8.5-1-.2-.7.7-1.1.5-1.8 0 0 .2.1.1.2.1-.4.2-1 .5-.9.3-1 1-2.3.9-3.1l.1.1v-.3c.1-.2.2-.5.3-.7v-.1c.6-1.4 1.5-2.7 2.9-3.7 3.4-2.7 4.1-.2 4.4 3 .4 4.5 0 9.1 0 13.6 0 .1.4.1.4 0 3.2-2 1.8-8 1.8-11.2 0-1.2 0-10.3 2.3-6.1.1.2.2.5.3.8v5.3c-.1 1.2-.2 2.3-.2 3.1v19c0 .5-.1 1.2-.1 1.9-.3-.1-.5-.3-.7-.5zm19-36.4s0 .1 0 0c-.1.2 0 .1 0 0zm-.1-.1s0 .1 0 0c0 .1 0 .1 0 0 0 .1 0 .1 0 0zm-2.4-2.7c.1.1.3.2.4.3-.2.2-.5.4-.6.3-.4.2 0-.2.2-.6zm-3.5-1.3v.1-.1zm-6.9-5.8c.2-.1.3-.2.3-.3.1 0 .2 0 .3.1-.2.4.4-.1.4.4v.2c-.5 0-.9 0-1.4.1-.1-.2 0-.4-.2-.6 0-.1.6-.1.6.1zm-.8-.2c-.7.9-.9.2-1.2-.2l1.2.2zm-2.1-.3h.2c-.1.5-.8.9-.7 1.4-.3 0-.5.1-.8.1 0-.1 0-.2.1-.3h-.4l.5-.7c-.2-.1-.4-.2-.7-.3.6-.1 1.2-.2 1.8-.2zm-3.1.4h.2-.2s-.1 0 0 0zm-.4.1c-.1.2-.3.4-.5.6-.4.1-.7-.1-.9-.2.5-.2 1-.3 1.4-.4zm-2.8.8l.9-.3c0 .1-.1.2-.1.3-.3.3-.7-.1-.8 0zm-17.7 41.1c.1 0 .1 0 0 0 .3.3.6.5.8.8-.3-.1-.6-.2-.8-.8zm1.6 1.8c.1.2.2.3.3.4-.1-.1-.2-.2-.3-.4zm1.5 2.4c-.5-.5-.4-.8-.5-1.1l.1.1c-.1-.1-.2-.2-.2-.3.1 0 .1-.1.1-.2.5.4.8.6 1.1.6v.3l-.3.6c.2 0 .4.1.5.3-.2-.3-.5-.4-.8-.3zm1.2.6l.3-.1c0 .2.1.5.3.9-.3-.3-.4-.6-.6-.8zm-1.9 33.6c-.1 0-.1 0 0 0-.1 0-.1 0 0 0-.1-.1 0-.1 0 0zm25.8 46c.1 3.3.3 6.6.6 9.8-.5-1.2-.6-5.7-.6-9.8zm7.1-53.8s0-.1-.1-.1c.1 0 .2 0 .1.1zm-.2-.4zm-1.2-3.1v-.2s.1 0 .1.1l-.1.1zm-10.4-44c.1-2 .4-4 1.3-5.7-.7 1.4-1.1 3.4-1.3 5.7zm8-3.5c.3-.6.8-1.1 1.4-1.5-.6.5-.9 1.2-1.4 1.5z"/><path id="XMLID_1474_" class="st4" d="M603.2 358v-.6c-.2 0-.5-.1-.8-.3v.6c.1 0 .4.1.8.3z"/><path id="XMLID_1475_" class="st4" d="M600.8 356.3h-.3c0 .3.4.6 1.2.8h.6v-.3c-.3 0-.8-.2-1.5-.5z"/><path id="XMLID_1476_" class="st4" d="M612.9 372.8h.3v-.3c0-.8-.4-1.4-1.2-1.8v.3c.6.7.9 1.3.9 1.8z"/><path id="XMLID_1479_" class="st4" d="M669.3 350.8c0-.5-1.2-.8-3.5-.9v-.6c.6 0 .9-.2.9-.6l-4.5-.8v-.1.1h-.1c0-.1-.1-.3-.1-.1 0-.2.1-.4 0-.5v.5h-.2l-.4-.1c.1-.4-.1 0-.1-.6-.1 0-.2.4-.4.5 0-.2-.1-.1-.1-.1v.1h-.1c0-.1-.1-.1-.1 0h-.2c0-.5.2.1.2-.4l-.1-.6c-.2-.1-.1.7-.3.5v-.3l-.1.2v.7h-.2c0-.3-.1-.5 0-.7-.1-.3-.1.3-.2.5v.2h-.2c0-.2-.1-.3-.1-.2v.2h-.4c-.1-.2-.1-.4-.1-.6-.1.2 0 .4-.1.6 0-.2 0-.4-.1-.4v.4h-.3v-.1l.1-.5c-.1.4 0-.2-.1 0 0 .2 0 .4-.1.6h-.1c-.1-.2 0-.8-.1-.6 0 .3-.1.2-.2.4v-.3c-.1.2-.2.8-.2.3v.2h-.6v-.4.3h-.1v-.4c-.1.6-.2-.4-.2.4-.2 0-.5 0-.7-.1-7.3-.6-12.6-1-15.8-1.4-.1-1-.2-2-.3-3.1.2-.3.3.3.4 1l-.1-1.7c.2 0 .2.9.2 1.5.3-2-.5-4-.2-6.4l-.2-.5v-.1c-.1 0-.3-.5-.3-.8.2-.3.5 0 .4-1.1.2-.9-.2-2.6-.3-3.7 0 .6-.1.4-.2.2 0-.6.2-.9.1-1.3l.3-.1c-.3.2-.3-1.5-.5-1.7.2-.3.2.9.4 1-.1-2.3-.1-1.1-.2-3.4-.3-1.2-.3.2-.5-.3-.1-1.1-.4-2.1-.2-3.4l-.2.4c-.3-2-.3-3.2-.1-4.6-.2-1.2-.5-2.3-.7-3.1 0-.1 0-.2.1-.2.4-.9.7-1.4 1-1.8.3.1.6.1.9.2l.1.3c0 .2.3 0 .5-.2.4.9.6 2.4.7 3.5.4 4.5.7 8.9 1.1 13.4 0 .1.3.1.4.1h.2c.2 0 .5 0 .7-.2 1.7-.7.9-3.5.9-5.3-.1-2.5 0-5.2.5-7.7.3-1.2.9-3.1 1.7-3.5h.6c.3.2.6.7.9 1.5.1.4.2.8.2 1.3v2.2c-.1 1.3-.2 2.5-.2 3.5 0 2.6.1 5.3.1 7.9.1 5.3.1 10.5.2 15.8 0 .1.3.2.4.1 2-1.1 1.6-3.1 1.7-5.2.1-4.3 0-8.6 0-12.9 0-1.2-.1-2.5-.2-3.9v-5.7c.1-.6.2-1.1.3-1.6.6-1.7 1.9-2.6 3.4-3.5.1 0 .1 0 .2-.1 1.5.2 2.9.5 4.3 0 .1 0 .3-.1.3-.1l2.1-.1c0 .1 8.8-.9 3.3-2.9 2-.8 2.1-1.4 1.8-1.8l.3-.9c-.1.3-.2.1-.1-.3l-.1.2v-.3h.7l.6-.3-.3-.6c.8 0 1.4-.5 1.8-1.5-2.3-.2-4-.3-5-.3H663v-.1l-.1.1h-.5v-.1l-.1-.6c-.2-.1-.1.7-.2.5v-.3l-.1.2v.4h-.2v-.4c-.1-.3-.1.2-.2.4h-.3c0-.1 0-.1-.1 0h-.4c0-.1-.1-.3-.1-.4-.1.1-.1.3 0 .4h-.1c0-.1-.1-.3-.1-.3v.3h-.1v-.2.2h-.1l.1-.5c-.1.4 0-.2-.1 0v.5h-.2c0-.2 0-.6-.1-.5 0 .3-.1.3-.1.4v-.3c0 .1-.1.3-.1.4h-.8v-.1.1h-.6v-.3.3h-.1v-.3c-.1.5-.2-.3-.2.3h-12.3l-1.5.3c0-.2-.1-.3-.3-.3v.3c-.2 0-.3-.1-.3-.3l-.6.3h-7.6c0-1-.3-1.5-.8-1.5 0 .2-.1.4-.3.4 0-1.1-.8-2.1-2.4-3 0 .6-.2.9-.6.9 0-1-.3-1.5-.8-1.5v1.1l-1.5-.3h-.3c-1.2.8-1.8 2.5-1.8 5v2.3c-.2 0-.3-.1-.5 0h.1c.1-.3 0-.6-.5-.6.2.1.3-.2.5 0 0-.2-.1-.4-.3-.5 0 0-.1.1 0 .2-.4-.1-.4-.4-.9-.3.1.1.2.1.2.3-.4-.1-.5-.5-.2-.6.4-.1.7.3.9.1l-1-.7c.3.1.1.4-.3.3l.2.3h-.4c.1.5-.3.8.1 1.3l.4-.2c0 .3.6.6.1.8-.2-.1-.4 0-.6 0 .1.1.2.1.2.2l-.7-.1c1 .1.3.8.5.9h-.1c-.3.4.4-.1.4.2-.1.2-.8.1-1.1.3 0 .4.6 1.1 0 1.6.1.4.4.8.7 1.1 0 .3-.7 0-.4.3h-.8c.3 0 0 .6.6.4-.1.5-.2 1-.1 1.6 0-.2-.5-.2-.7-.1.4.2.7.7.6 1.1.5 0 .5-.1.9-.1.1.1.3.2.2.3-.5.1-1.2 0-1.2.4-.8-.1.1-.7-.7-.5-.6-.2-.6-.9-.3-1-.7-.3-.1.3-.7.2.1.3.4.5.5.9.3 0 .4-.2.6.1.7.4-.5.5-.5.6l-.2-.2c-.2.3.2.4.2.7-.9.1-.1-.5-.6-.6l-.6.2c-.1.5.7.1.5.6l-.3-.1.2.3c.3 0 .8-.1.7-.3.8.2.1.2.3.6.5.1 0-.2.4-.2s.4.2.5.4c0 .3-.5.2-.8.3-.1-.1-.1-.3.1-.3-.5-.4-1 .2-1.3-.1-.3.3.3.3.5.5 0-.1.5 0 .6 0 1.3.5-.9.4-.7.9.8-.1 1.2.7 2.1.3.1.1.3.3.3.4-.6-.1-.4.2-1 0v.2l-.7-.3c-.4.2-.8.6-1 .7.2.3.5-.1.7.2-.3-.1-.5.1-.5.2.2-.3.8 0 .9.2 0 .3-.5.5-.7.5l-.5-.3c.4.2-.2.1 0 .3.3.1.8.2 1.2.3.1.2-.3.3-.2.4l-.3-.3c.1.4-.9.1-.6.5l.4.1c-.1.1-.3.1-.4 0 .3.1.2.3.4.4h-.3c.2.2.8.4.3.6.7-.2 0-.2.3-.5.5-.2.5.3.6.3-.7 0-.1.4-.1.6-.3.1-.4.2-.5.3l.5.1c-1 .1.2.4-.1.6-.3-.1-.7-.1-.8.1.7-.2.9.3 1.4.3-.3.4-.9-.1-1.4 0 .6.2-.4.4.4.6.2-.3.5 0 .8.1-.1.4-.3-.1-.6.2.1.1.6.3.9.1-.2.2.5.4.1.7-.4.1-.2-.4-.5-.3 0 .5 1.1.2 1.3.7.2-.2 1 0 1.3.2-.2.5-.3-.2-.8 0l.1.2c-.8.3-1.3-.6-1.9-.3l.3.2c-.2 0-.6-.1-.8 0 .5.1.1.5.3.6.5 0-.1-.2.2-.1.1.2.9.3.6.7-.3-.2-.6.1-.9 0-.2.2.5.1.3.3h-.3c-.1.9 0 2.1 1.1 2.9-.5.1-.5.5-.8.9.2-.2.5 0 .5.1l-.5.2c-.3.3.2.6.5.9-.1 0-.2.1-.4.1-.4.2.3.3.4.3l-.4.2h.4c.2.2.1.6-.5.5.1.1.2.2.4.1-.4.2-.4.9-.2 1.4.2-.2.3-.2.7-.2.6.1-.1.1.3.3-.2 0-.5.2-.7 0-.8.6-.2 1.4-.3 2.1.1.1.2.1.4.2-.6.5 0 1-.2 1.5.3-.1 1 0 1 .3.5.3-.7.1-1 .4.2.1.3.4.3.5h-.1c.3.2.4.4.2.6 0 .2-.4.4-.3.5.5.1.2.5.6.6h-.2.4l-.2.3c-.2-.1-.3-.1-.5-.2-.3.4.4.1.6.3.3.3-.1.2-.3.4-.2-.1.1-.2 0-.2-.3-.1-.1.2-.4.2 0 .1.5.1.4.3 0 .2.1.5-.4.5.2.1.2.3.4.4.1-.1.2-.4.5-.4.1.1.2.4 0 .4l-.1-.1c.1.1 0 .4.4.3l-.6.2c.3.1.3.3.4.5-.5 0-1-.2-1.1.2l.5.3c0 .2-.1.2-.3.2-.3.6 1.3.6.9 1.1-.6-.2-.6 0-.8.2.1 0 .3 0 .3.1.3-.1-.4-.1 0-.3.3 0 .2.2.3.3-1.2.4-.3 1.4-.9 2 .7 0 .2.3.4.4-.7 0 .1.4-.3.6l.7-.1c-.4.4 1 .7.2.9-.2.2-.5-.1-.6-.2-.7.3.6.8-.2 1.1.3 0 .7-.1 1 .2-.3.2-.7.7-.8.6.1.2.4.2.1.4-.2 0-.2-.1-.3-.2-.2.3.1.6.4.8-.5.2-.3.7-.5 1.1.6.2-.3.6.6.6-.1 0-.2 0-.2.1.2.1.8.2.8.4l-.5-.1c-.7 0-.1.5-.5.5.5-.1 0 .2.4.2l.2.2c.1.3.3 0 .3.4 0 .2-.6.1-.6 0-.3.2-.1.4 0 .6 0-.1 0-.1.2 0-.1 0-.1 0-.1.1s.1.1.1.2c0-.1-.1-.2-.1-.2 0 .1-.1.1-.1.2v.1c0 .1 0 .1-.1.2l-.4-.1c0 .1.5.5.7.5-.4.6 0 1.7.3 1.9 0-.2-.4-.2-.2-.1.1.2.4.4.2.4.2.2-.3.2-.3.5h.4c-.6.5.4 1.1 0 1.7 0 0-.3-.1-.4-.2.2.4.4.9.9 1.2-.2 0-.4 0-.5-.1 0 .3.1.7.5.8.2-.2-.2 0-.2-.2.4-.2.8.2.7.4h-.1c0 .3.2.3.3.6-.2.2-.1-.2-.4-.1-.7.1-.4.7-.5.8.1.1.3.2.4.2.2.2-.4.1-.4.3l1.3.7c-.1-.2-.6.2-.9 0 .1.5.9.8 1.3 1.1-.1.1.2.6.2.8-.4.1 0-.1-.3-.2l-.4.2c-.1-.3-.6 0-.9-.1.2.3 0 .9-.1 1.3.8-.3.4.5 1.1.5.1.5-.6.2-.7.4.3.5.1.9.2 1.4h-.1c.2.4 0 1.1.6 1.5-.1 0-.3 0-.4-.1-.2.4.9.1.5.6l-.3-.1c.3.3-.3.6.2 1-.2 0-.2-.1-.3-.1.2.3.1.7.5 1-.2 0-.4 0-.6-.1-.3.3.6.3.4.6 0 .1-.3.2-.3.2.3.1.3.6.4.7-.2 0-.3.2-.5.3 0 1.6-.1 3.2.5 4.8-.7.3-.4-.4-.9-.2.6 0 .2.3.4.8h-.1c.1.2-.3.3-.1.5h.2c.4.2-.8.5 0 .7l-.4.2c.7.2-.2.4.4.7h-.1c-.3.4.7.8.2 1 .1.3.2.7.8.8-.2.1-.5 0-.7 0 .3 1.2.1 2.6.9 3.7-.1.1-.2 0-.3 0 .6.7-.7 1.4.5 1.9l.5.2c-.2.2-.5.1-.7.3.3.1.1.6.5.7-.2.1-.3 0-.4 0-.1.3.6.7.5 1l-.2-.1c-.9 1.6-1.5 3.6-.4 4.9.2.4-.7.2-.6.3.2.3.3.7.3 1h-.1l-1.5-.3v.6l1.5.2c-.1.9-.3 1.9.6 2.6.1.3.3.5.5.6v.2c-.1 0-.3 0-.3.1 1.6 10.2 2 20.5 1.2 30.8l.1.1h.4c.7.3 1.3-.5 1.6-1.4 2-5.2-1.5-22.8-.7-25.4.9-2.9 1.9-2 2.3.5.3 1.7.1 3.7.2 5.4.1 4.2.3 8.5.4 12.7.3 8.5.6 17 .8 25.4 0 .1.4.1.4 0 2.8-8 1.6-17.2 1.5-25.5 0-4.6-.3-9.2-.1-13.7 0-.7-.1-3.3.5-3.6 1.6-.8 1.1 1.8 1.2 2.6.2 2.6.4 5.3.7 7.9 0 .1.4.1.4 0 2.4-2.6 2.2-5.6 2.4-8.9.1-1.2.3-6.7 2.8-5.4.1.1.2.5.3 1.1.1.9.1 1.8.2 2.8.1 2.1 0 4.5.1 5.1.7 11.2 1.4 22.5 2 33.7 0 .1.4.1.5-.1.7-5.6 1.2-11.1 1.2-16.8 0-5.1-.9-10.2-.5-15.3.2-2.6.7-5.2 2-7.5 1.7-2.9 4.3-4 7.1-4.8.1 0 .3-.1.4-.1.2 0 .4.1.6-.2h.2v.2c.3-.4.6-.1 1-.5.1 0 .2-.1.4-.1l.2.2c0-.1.1-.2.1-.3.1 0 .3-.1.4-.1.1.2.3.5.4-.1v.4c.1-.2.1-.4.2-.5h.1-.1c.1-.1.1-.1.2-.1h-.1.1s.1 0 .1.1v-.2h.1v.1c.3.1.6-.1.9-.4h.1c.1.6.3-.1.5.3.1-.4.3.1.4-.6v.3c.1 0 .4 0 .5.2.1.1.1-.4.2-.6v.4c0-.1.1-.2.1-.4h.1c0 .2 0 .3-.1.5.1.2.2-.8.3-.2.1.1.2 0 .2-.4v.4c.1 0 .1-.1.2-.3 0 0 0-.1 0 0v-.1h.2v.1-.1h.2c0 .1 0 .2.1.4v-.4c1.3-.1 2.6-.2 4-.3v-.4l-2.9-.3h-1.3v-.3h.2v-.1c.4 0 .7 0 1.1-.1.8-.1 1.4-.2 1.9-.4.7-.3 1.1-.7 1.2-1.2-1.5-.3-2.3-.7-2.3-1.1-.2 0-.5 0-.8-.1v-.1s-.1 0-.1.1h-.5l-.5-3.4c-.6.2-1.3.3-2 .4-1.3-.2-3.2.2-4.9.6-.2 0-.4 0-.7-.1-.2.4-.8.3-1.1.5h-.1c-.2-.1-1.3.1-.6-.3h.2l.1-.2c-.8-.3-1.3.4-2.1.4.2.1.5 0 .3.2h-.7l.1-.2h-1l.2.2c-.5-.1-.7-.5-1.3-.1-.2.2.4.3.1.4-.2 0-.5 0-.7-.1-.6-.1-1.3-.2-2-.2v.2h-.4v-.1c-.9.4-.4-.5-1.3-.2l.1-.2-.2.4h-.9c-.4 0-.8 0-1.2.1l.1-.1-.1.1h-.3c-.4.3-1.1.2-1.8.2h-.7c.1-.4.1-.9.1-1.3-.3.2-.2-.3-.3-.9l.2-.1c-.2-2 .5-.7.4-2.7l-.3-.4c-.4-1.8.5-1 0-3 0 .8-.5.4-.4-.6l.2.3c0-.5-.1-.7-.1-1.1.1.3.3.2.3-.6l.3.5-.4-1.5c.3-1.2 0-3 .4-3.5 0 0 .2-2.5-.1-3.1.2.5.3-.9.6-.5-.2-.7-.4-2.6-.1-3.3v.1c.3-2.8-.3-4.9.1-7.4-.3.1-.1-1.2-.4-.9-.3-2.6.7-4.8-.3-5.8 0-1.2.3-1.4.3-2l.1.3c0-1.2-.1-2-.1-2.6.3 0 .5.1.8.1l-.1.1c1.1-.3 1.4-.4 2.3-.6.4-.2.4-.7 1.1-.7-.2.2.1.1.4.1-.2.1-.2.1.2.2 0-.1.1-.1.2-.2.5-.2.4-.2.1-.2 0 0 0-.1-.1-.1.5.1 1.4-.3 1.5 0 1-.3 1.7-.6 2.5-.9.3-.1.7-.2 1.1-.3 0 .1-.2.3-.4.4l.8-.2c0 .2-.5.2-.7.3 1.1.2 2-.8 3.2-.7l.2-.2h.1c0-.1.2-.3.4-.3.2.2.1.5.7.4.5.1 1.3-.3 1.9-.6-.3 0-.2-.1-.1-.2.3-.1.5.1.7 0l.1.3c-.2-.2.6-.4.8-.5.2.2-.4.2-.5.4.5-.1.7-.1.8-.2.1.1.2 0 .3-.1.1 0 .3-.1.6-.1.2-.1.3-.2.2-.2l.4-.2c.1.1.4.1.2.2.4 0 .4-.1.7-.3l.4.2c1.3 0 2.3-.4 3.6-.6L665 353c.3-.1.5-.3.8-.4h.3l2-.4v-.2l-.3-.6 1.5-.6zm-43.6-41.9c-.1 0-.3-.1-.4-.1.3-.3 0-.3.2-.5.1.1.2.2.4.3 0 0-.1.1-.2.3zm2.8 54.4l-.2.2c-.1 0-.2 0-.3-.1s-.1-.3-.2-.5c.3.1.1.3.5.3h-.2l.4.1zm0-4s0 .1 0 0zm16-33c-.1-1.2-.1-2.4-.1-3.6.1 1.2.2 2.6.1 3.6zm-1.6 27.8v-.2.2zm-5.4 21.2zm-.1-1.6l.1-.3v.6c0-.1 0-.2-.1-.3zm.1-3.2c0-.2 0-.5-.1-.7l.1-.1c.1.3 0 .6 0 .8zm-1.8 27.3c.1-.1.1-.2.1-.3 0 .3.1.6.2 1 .2.5.2-1.1.4.1v.2c-.2 0-.5.1-.7.1.1-.1.1-.1.3-.1 0-.3-.1-.6-.3-1zm1.6-35.4c.1.8 0 1.8.1 2.2h-.1v1.1l-.1-.2c.1 1.1.1 2.3.1 3.4-.2-1.5-.4-3-.4-4.7 0-.5.1-1 .1-1.6 0-.1.1-.2.1-.3h-.1v-1.4c0-.1.1-.2.1-.3h.1v.1c.2.4.2 1.1.1 1.7zm-.4-6.6l.1-.1c.1 0 .2.1.3.1v.3c-.1 0-.2.1-.3.1l-.1-.4zm-7.5 21.9v-.2l.5.1v.1c-.2.1-.4.1-.5 0zm.4.3l-.1.7h-.3v-1c0 .1.2.2.4.3zm-.1-1.3c-.2.1-.1-.1-.4 0v-.5c.2.1.3.1.2.2h-.1c.1.1.3.1.3.3zm-.8-8.5v-.1c.1 0 .1.1 0 .1zm-.3-3.7v-.2c0 .1 0 .2.3.1l-.3.1zm.1.4v-.2c.1.1.1.1 0 .2zm0-.6c-.1-.1-.1-.1-.1-.2h.1c.1.1.2.2 0 .2zm.4 18.5c.2-1.1.2-2.3.2-3.4h.2v.3h-.2.1v.2h-.1v.1l-.6 4.9c-.3-.2.1-.6-.5-.6.1-.1.1 0 .3 0-.1-.7-.1-.7.6-1.5zm-.9-19.1s-.1 0 0 0v-.1h-.1s0-.1-.1-.1c.1 0 .3 0 .4.1.3.1 0 .1-.2.1zm13.7-15.2h1.1v.4h-1.1v-.4zm8.5-6.3V340c.1.8.1 1.5 0 2.2zm15.5-35.1v.8s-.1-.1-.2-.1c0-.2.1-.3.1-.7l-.1.2c0-.4.2-.5.2-.2zm-.7-.4h.3l.1.3c-.1 0-.2.6-.3.1-.1-.1-.1-.3-.1-.4zm-.1 0zm0 .7c-.1 0-.2 0-.2-.1v-.2c.1.3.1.1.2.3zm-.3-.7s0 .1 0 0c-.1 0-.1 0 0 0-.1 0-.1 0 0 0zm-2.6.1c-.1 0-.1 0 0 0-.1 0-.1 0 0 0-.1 0-.1 0 0 0zm-4.9.1s.1 0 0 0c.1.2 0 .3 0 .4-.1-.1-.1-.2 0-.4zm-17 1.1v.1h-.2v-.1h.2zm-11.6 53.7c.5.2-.7.1-1 .2.2.1.3.2.3.3h-.1c.3.1.4.2.2.4 0 .1-.2.1-.3.2-.1-.2-.2-.3-.4-.5h.3c-.3-.4-.1-.5.1-.8v.1c.1-.1.9 0 .9.1zm-1.1-1.1c.1.1.2.1.3.1-.2.1-.2.1-.3.2h-.3c-.2-.1 0-.2.3-.3zm-.7-38.6l-.1.3-.1-.1c-.1-.1.1-.2.2-.2zm-.3-10.2c0-.3 0-.6.1-.9v1.4c-.1-.2-.2-.3-.5-.4l.4-.1zm.1 2.9v.4c-.1-.1-.1-.2 0-.4-.1.1-.1.1 0 0zm-.5 3.5c-.1-.2.6-.1.2-.3l.2.1v.3c-.1-.1-.2-.2-.4-.1zm3.6 113.6c0-2.9-.1-5.8-.3-8.7.4 2.9.6 5.9.3 8.7zm2.8 13.7c.1 2.4.2 4.8.2 7.2-.3-1.5-.3-4.6-.2-7.2zm3.8-31.2c.1 2 .3 4 .5 6.1-.3-1-.5-3.7-.5-6.1zm20.2-8.4zm1.1-.2c0-.1 0-.1 0 0 .1-.1.1-.1.2-.1-.1 0-.2 0-.2.1zm.6-.2c.1-.1.2-.1.3-.1-.1.1-.2.1-.3.1zm1.2-.3c.1-.1.1-.1 0 0 .1-.1.1-.1.2-.1v.1c-.1-.1-.1 0-.2 0zm3.4-1.6l-.1.1.1-.1c0-.1.1-.1.1-.2v.2c-.1-.2-.1-.1-.1 0zm.3-.2c0-.1 0-.1 0 0zm.1-.1v-.2h.1l-.1.2z"/><path id="XMLID_1526_" class="st4" d="M385.1 325c-.1.4 0 .5.3.3-.1-.2-.2-.3-.3-.3z"/><path id="XMLID_1527_" class="st4" d="M350.8 307.9l.2.2c.1 0 0-.1-.2-.2z"/><path id="XMLID_1528_" class="st4" d="M355.2 312.7c-.2-.4-.4-.4-.4 0 .1 0 .3.1.4 0z"/><path id="XMLID_1529_" class="st4" d="M354.1 312.8c.4-.1 0-.4-.1-.6 0 .2 0 .4.1.6z"/><path id="XMLID_1530_" class="st4" d="M349.5 306.2c.4-.2-.6-.3-.6-.5 0 .3.4.4.6.5z"/><path id="XMLID_1531_" class="st4" d="M345.9 304.2c.2 0 .2.1.3.2l.1-.4c-.2-.1-.5 0-.4.2z"/><path id="XMLID_1532_" class="st4" d="M470.3 404.7c.1.2.2 0 .2-.2-.3-.3.1.1-.2.2z"/><path id="XMLID_1533_" class="st4" d="M468.9 404.4c-.1 0-.1 0 0 0-.1.1 0 .1 0 0z"/><path id="XMLID_1534_" class="st4" d="M470 404.7c0-.3-.1-.6-.1-.9-.2.4 0 .6.1.9z"/><path id="XMLID_1537_" class="st4" d="M468.9 397.5c-.3.1-.6.4-.9.2h-.5c.1-.1.2-.2.4-.2-.1 0-.1-.2 0-.2s.1.2.2.1v.3c0-.3.2-.3.3-.4 0 .2-.1.2-.2.3h.5c.2-.2 0-.3.1-.5.2 0 .3-.2.5-.1v-.3c.3-.2.5-.1.7.1 1.2-.9 1.4-1.6 1.3-2.1s-.6-.7-.6-.7c-.9-.6-1.4.1-2.5.2-.9-.2-1.2-.6-2.1-.5-.3-.1-.5-.2-.5-.2-1.6-.6-2.4.1-4.3.4-1.7-.1-2.1-.6-3.9-.3-.8 0-1.7.2-2.5.3-.4.4-1.1.1-1.5.4l-.4-.3c-.1.1-.3.2-.5.1v-.1c-.2.2-.5.1-.6.2v-.1l-.3.1v-.1c-.4.2-.8.3-1.2.2l.1.3c-.6-.2-.9.1-1.4.2v-.3c0-.4-.1-.9-.1-1.3.1-.3.4-.3 0-1.6l-.2-.2c-.4-3.8-.6-7.6-.6-11.2l.2-.4c.4-.2-.7-2.1-.4-2.4l-.2-.9c.1-.3.1-.8.2-.4 0-.8-.1-.8-.3-1.4l.2-.9c0-3.3-.7-6-.8-9.5.2-4.2-.7-11.9-1.3-16.4-1-6.3.1-13.7-1-20.1 0-.2-.1-.7-.2-.7l-.3-5.9s-1-16.1-2.2-14.9v-.1c0-.1.1-.2.2-.2-.2-.3-.3-.7-.3-1.1l-.4.2c-.4-1-.8-1.3-1.1-1.2v-.2h-.4c0-.1 0-.2-.1-.3h.5l-.6-.9h.6v-2.3h-.3c-.2.7-.4 1.3-.6 1.8-.4-1.1-.7-.6-1 .3-.3-.5-.6-1.5-1.1-3h.4l-.4-.6c-.3 0-.5.2-.6.6h-.3l.3-.6h-.3l-.6.3.3-.6c-.3 0-.7-.3-1.2-.8h-.3c-2.5 5.5-3.8 13.3-3.8 23.4 0 .2-.1.5-.3.8h.3l-.3.6v9.9l-.3.6h.3c0 .4-.1 1.5-.3 3.2 0 .2.1.5.3.8-.2 0-.3.1-.3.4v.6l.3.6c-.2 0-.3.1-.3.3v11.8c0 1.8.2 4.4.6 7.6h.6l-.3.6h.6c0 5.3-.1 10.6-.4 15.8v.9l-.3.6h.3l-.3 2v4.4l-.3 3.5c.2 0 .3.1.3.3-.2 0-.3.1-.3.3v2c0 3.9.2 8 .6 12.3.2 0 .5.1.9.3 0-.6.2-.8.6-.8h.6v1.1h-1.7l-1.5-.3v.6l1.5.4c1.6 1.1 2.6 1.7 2.9 1.7v.4h-1.1s0-.1-.1-.1c-.1-.1-.5 0-.4.1-.5 0-1 .1-1.3.2v.3c.3.8 1.2 1.3 2.7 1.6 1.8 3.1 2.8 6.4 2.8 10 .1 3.7-.5 7.2.7 10.8 0 .1.4.1.4 0 .7-3.5 1-7 .8-10.6-.1-1.1-.2-2.3-.3-3.4 1.9-2.5 2.6-2.4 2.2 0 .1.4.2.8.2 1.3v1.4c-.1 1.3-.2 2.6-.2 3.6 0 6.1-1.7 15.2 1.5 20.8.1.1.4 0 .4-.1.5-6.5.6-13.1.2-19.6-.1-2.1-.4-4.3-.1-6.5.1-.9.5-4.3 2.5-3.3.7.3.5 3.7.5 4.3 0 .1.4 0 .4 0 .2-.2.4-.4.5-.6.5-.7.8-1.6 1.1-2.4.1-.2.2-.4.4-.5 1.1.1 2.2.2 3.3.4 0 .9.1 1.7.1 2.6.1 1.4.2 2.9.2 4.3l.9 17.1c0 .1.3 0 .4 0 .2-.1.3-.2.4-.3h.1c1.4-1.3 1-3.6 1-5.5 0-4.2-.3-8.5-.1-12.7.1-1 .1-2.3.2-3.6.1-.7.3-1.5.4-2.2 0-.1 0-.1.1-.2.2-.4.3-.8.6-1.1 2.2-2.7 4.5-1.6 7.1-2.3 1-.3 1.9-.7 2.8-1.2.8 0 1.6-.1 2.5-.1 0-.2-.1-.3-.3-.3l.8-1.2h-.3l-.6.3c0-.1-.1-.2-.4-.2l.3-.3c.1 0 .1-.1.2-.2 0 0-.1-.1-.1 0 .1-.4.3-.4.3-.9-.1.1-.1.2-.3.2.1 0 .1-.1.1-.2l.1-.1v-.1h.2v.2h.1c.1.4-.3.7-.1.9l.6-1c-.1.3-.2.2-.3-.1.1.1.2 0 .2-.5 0 .2.1.3 0 .5.1 0 .1-.1.2-.3 0 0 0-.1-.1 0 0-.4.1-.4.1-.9 0 .1 0 .2-.1.2 0-.4.2-.5.2-.2 0 .4-.1.7 0 .9l.2-1c0 .3-.1.1-.1-.3l-.1.2v-.4c-.2.1-.3-.3-.4.1l.1.4c-.1 0-.2.6-.3.1v-.6c0 .1 0 .2-.1.2v-.7c0 1-.3.3-.3.5v-.1c-.1-.3 0 .4-.1.4 0-.1 0-.3-.1-.5.2-.1.3-.2.5-.6.1-.2.1.6.2.6.4-.9 1.1.5 1.4-1 .3-.4.3-2 .3-2-.1 0-.9-.6-1.7-1.3zm-1.6 6.1s.1 0 .1.1c0 0 0 .1-.1.1.1 0 .1-.1 0-.2zm-26.8-43.2c-.1 0-.1 0-.2-.1-.2-.2-.4-.3-.3-.5l.2.1c0-.1.1-.1.1-.2.1 0 .3 0 .3.1-.8.1.3.4-.1.6zm23.9 36.8c-.1.2 0 .2.1.2-.1 0-.1.1 0 .2-.2 0-.4.1-.6.1h.2c0-.1 0-.6.3-.5zm.2.2v-.1c.1.1.1.1.2.1v.5-.2l-.1.4c-.1 0-.1-.5 0-.5h-.1c0-.1 0-.1.1-.1 0 0 0-.1-.1-.1zm-6.2 3.5zm-3.5-1.8c0 .3-.1.1 0 .6-.1.5-.2-.8-.3-.5v.2c-.2.5-.1.1-.2-.3.4 0 .8 0 1.3.1-.1.1-.2.2-.3.7v-.3c-.2.4-.3-.1-.5-.5zm-9.3-3.5c.1.1.1.1.1.2h-.1c-.1-.1-.1-.2 0-.2zm-.1-3.6l.1-.1c0 .1 0 .2-.1.1zm0-.1zm.2 3.5v-.1c0-.2 0-.3.1-.1v.1c0-.1-.1 0-.1.1zm7 4s0 .1 0 0c0 .1 0 0 0 0zm-8.6-.2c.1-.1.2 0 .2 0 0 .1-.1.1-.2 0zm.4.3h.1s.1 0 .1.1c0 .3-.1.5-.2.3v-.4zm18.4 2.2v.3h-.1c0-.1 0-.1.1-.3zm-22.8-40.3v.1h-.2c.1-.1.2-.1.2-.1zm2.2 38.1zm1-.1c0 .1 0 .1-.1.1h-.1s0-.1-.1-.1v-.1c.2 0 .3 0 .3.1zm24.2 5.2c.1-.1.2-.1.3 0h-.3zm-.6-3.1c0 .1-.1.3-.1.2v-.7c0-.1.1-.2.1-.3v.8zm0-.9s0-.1 0 0v-.6c.1.1.1.3.1.5 0 .1 0 .1-.1.1zm-.1-3.1zm-1-.3c.1 0 .2-.1.2-.1v.2c0-.1-.1-.1-.2-.1zM441 409.5zm27.4-5h-.2c0-.1.1-.2.1-.4 0 .2.1.3.1.4zm-.1-1.1c-.2.1-.4.3-.5.1.1-.1.3.1.4-.5v.4h.1zm-.1-2.5c-.1.1-.1.3-.2.4-.1 0 0-.7-.1-.4v-.3l.3.3zm-.5-.8v.2l.1.1v.4c-.2-.1-.3-.2-.5-.1 0 0 0-.2.1-.3v-.2.4c.1.1.1-.7.3-.5zm-.7-2.7c0-.1.1-.2.1-.3 0 .2 0 .5.1.5-.1 0-.2-.1-.4-.1l.2-.1zm-13.6 30c.1 1.6.2 3.3.3 4.9-.4-1.2-.4-3.1-.3-4.9zm3.8-18.5c.6-.6 1.3-.8 2-.9-.9.3-1.5.5-2 .9zm12.2-5.8l-.1.1.1-.1zm-.3-1c.1.3.1 0 .2.2 0 .1-.1.3-.1.5h-.1v-.7z"/><path id="XMLID_1569_" class="st4" d="M470.5 403.2c0 .2.1 0 .1-.2-.2-.2 0 .1-.1.2z"/><path id="XMLID_1570_" class="st4" d="M469.9 403c0 .1 0 0 0 0z"/><path id="XMLID_1571_" class="st4" d="M470.3 403.3v-.9c-.1.4 0 .6 0 .9z"/><path id="XMLID_1572_" class="st4" d="M467.7 303.1c.2-.1 0-.2-.2-.2-.3.5 0-.1.2.2z"/><path id="XMLID_1573_" class="st4" d="M467.7 304.6s0 .1 0 0c.1 0 .1 0 0 0z"/><path id="XMLID_1574_" class="st4" d="M467.8 303.5c-.3 0-.6.2-.9.3.5 0 .6-.2.9-.3z"/><path id="XMLID_1575_" class="st4" d="M465.5 316.1c-.4 0 .2.2 0 .3.3-.1.1-.2 0-.3z"/><path id="XMLID_1576_" class="st4" d="M465.9 317.5c0 .1.3.1.4 0-.1 0 0-.1 0-.1l-.4.1z"/><path id="XMLID_1577_" class="st4" d="M506.5 304.3c.1 0 .1 0 0 0z"/><path id="XMLID_1580_" class="st4" d="M507.2 306.6c.1-.3-.4-.3-.6-.5h.4c-.2-.2-.5-.2-.9-.3.1-.1.1-.2.2-.3.2.1.5.2.9.3.2-.3-.8-.5-.2-.7.1-.2 0-.4-.4-.4.1 0 .2-.1.4 0 0-.2-.1-.3-.3-.4 0 0-.1.1 0 .1h-.1v-.6l-.1-.2c.1 0 .2-.1.4-.2-.1 0-.3 0-.4.1l-.1-.2h.6v-1.7c-.2 0-.5.1-.8.3-.4-.2-.8-.3-1.1-.4.3-1.3.7-2.9.8-4.2.2-2.5-.3-3.5-3.3 1.8l-.1-.1c-.7 1.6-1 2.7-.9 4-.1 0-.1 0-.2.1 0-.9-.3-1.1-.7-.8-.7.4-1.6 1.9-1.6 1.9-2 3-2.1 5-3.6 8.9-1.5 3.4-2.3 4.1-3.5 7.8-.7 1.7-1.2 3.6-1.7 5.3.1.9-.8 2.2-.8 3.3l-.3.3c0 .4-.1.8-.3 1.1h-.1c0 .5-.3 1.1-.3 1.3h-.1l-.2.6-.1-.1c-.1.9-.4 1.8-.7 2.5h.3c-.8 1.6-.5 2.3-1.3 3.7h-.1c0 .8-.2 1.5-.5 2.1-.1-.1-.2-.2-.4-.2-.3-1.7-.8-2.6-1.5-2.6v-.3h.6v-.6c-.2 0-.3.1-.3.3h-.2c0-.2.1-.3.3-.3l-.3-.6c-.2 0-.3.1-.3.3h-.3c0-.2.1-.3.3-.3l-.3-1.4-.6.3-.6-.3v-.3l.6.3h.3v-.3l-.3-.6-.6.3.3-1.5V332l-.6.3c0 .2.1.5.3.9v.3h-.2c-.9-2.9-1.5-4.3-1.7-4.3 0-.2.1-.3.3-.3 0-.1-.4-.9-1.2-2.3l.3-.6c-.2-.4-.5-.6-.8-.6 0-.2.1-.3.3-.3 0-.5-.4-.8-1.1-.8 0-.2.1-.3.3-.3-2.2-7.3-3.7-11.8-4.6-13.7.2 0 .3-.1.3-.3v-.3c-.2 0-.3.1-.3.3h-.3c0-.2.1-.3.3-.3-.2-.7-.3-1.5-.3-2.3-.2 0-.3.1-.3.3h-.6v-.3h.6c-.8-1.7-1.4-2.5-1.7-2.5v-.4l.3-.6c-.2 0-.3-.2-.3-.6h-.6c0 .2.1.5.3.8v.3h-.3c0-.9-.6-1.4-1.7-1.4 0 .2-.1.5-.3.8h.3c0 .2-.1.3-.3.3 0 1.9.2 3.4.6 4.3h-.3c0 .1.1.7.3 1.7.1.7.3 1.4.4 2-.2-.3-.3-.6-.5-1 .6-.4-.2-.9 0-1.4-.4-.2 0-.9-.9-.9l.4-.1c0-.4-.1-1 0-1.5.1-.3-.5-.2-.7-.4l.4-.1c-.3-.2-.9-.2-1.3-.2.2-.3-.1-.2.2-.5.2.2.7.3 1.2.3.1-.4-.9-.5-.4-.8.1-.3-.1-.5-.6-.4.2 0 .3-.2.5-.1 0-.2-.1-.3-.3-.4v.1c-.4 0-.4-.2-1-.1.2.1.3.1.2.2-.4 0-.6-.3-.2-.5s.7.1.9-.1l-1.1-.4c.4.1.1.3-.3.3l.3.2-.4.1c.2.4-.2.7.2 1l.4-.2c.1.2.7.4.2.7-.2-.1-.4 0-.6.1.1 0 .3.1.2.1h-.7c1-.1.5.6.6.6h-.1c-.2.4.4-.1.4.1-.1.2-.8.2-1 .4.1.3.7.8.3 1.3-3-4.6-1.7 1.6-1.7 1.6.2 1 .4 1.8.6 2.6h-.3c0 .2.1.2.3 0 0 .2.1.3.2.5l-.6.3c0 .4.7 0 .6.4h-.3l.2.2c.1 0 .2-.1.4-.1.1.2.1.3.2.5-.2.1-.3.1-.5.1-.2.3.4.2.5.3h.1c.1.2.1.3.2.5-.2.1-.3.2-.2.3.1 0 .2-.1.3-.1l.3.6c-.2.2-.5.5-.7.6.3.2.5-.2.7 0-.3 0-.5.2-.5.3.1-.2.5-.2.8-.1 0 .1.1.2.1.3-.1.2-.4.3-.5.3l-.5-.1c.4.1-.2.1 0 .3h1.2s0 .1.1.1c-.1.1-.2.2-.1.2l-.4-.2c.1.2-.4.3-.6.4-.4-.9-.8-1.9-1.2-2.6-1.3-2.6-2.4-3.5-1.6 3.9l-.1-.1c.5 2.1.9 3.4 1.8 4.6-.4.4.5 1.7.6 2.2h-.1c.8 1.1.6 2.6 1.4 3.7-.1 0-.2 0-.3-.3.4.8.9 2 .7 2.1.8 2 1.8 4.9 2.8 6.1l-.1-.1c.6.6.4.9.9 1.7v.1c.6.7 1 2.3 1.4 2.9l-.2.1.7 1.6-.2-.6c.6 0 .2 1.3 1 2.4.3.9 1.4 1.5 1.9 2.3h-.3c0 .1.2.2.5.2.1.1.1.2.1.4.5.4-.6-.3-.1.4-.3.1-.3-.3-.5 0 .5.7.3 1.4.9 2.3l-.2.1c.3.4.5.7.6 1.1v.1c.3.8.4 1.6.9 2 .7 1.2-.2 1.1.8 2.3v.7c.2.6.5.3.7 1-.2 0 .2.9-.1.6.4 1.6 1.7 2.8 2.1 4.9.2.1.3.2.4.4.1.6.3 1.2.5 1.8 0 .1 0 .1.1.2h-.1v.5c-.1.2-.1.4-.1.6h-.2.2v.1c-.1 1-.1 2-.2 3-.2.3-.1.6 0 .8-.4 6.8-.6 11-.6 12.6l.3.6h-.3l.3 1.4v.3c0 4.1.2 9 .6 14.8.4 1 .9 1.6 1.6 1.8 0 .2-.1.4-.2.6.7 1.8 1.3 2.5 1.7 2.6 1.2 7.7-.1 15.6 1.2 23.3 0 .1.5.1.5 0l.3-15.6c0-1-.1-2.3-.2-3.6v-1.2c0-.6.1-1.1.3-1.6 1-2.5 1.4-.2 1.5 1.2.1 1.3.1 2.6.1 4 0 .1.3.1.4 0 .2-.1.3-.2.4-.2s.1-.1.2-.1l.1-.1c.2-.3.4-.7.4-1.1.1-.1.1-.2.2-.3 1.3-1.3.4-1.3.9.6.4 1.6.2 3.8.3 5.4.4 6.6.8 13.3 1.1 19.9 0 .1.4.1.4 0 2-3.2 1.1-8.2 1.2-11.8.1-5.4.1-10.7.2-16.1 0-3.5.1-6.9.1-10.4l.8-3.1v-3.4l.3-.6c-.2 0-.3-.1-.3-.3l.3-.6h-.3c0-.2.1-.3.3-.3 0-.2-.1-.3-.3-.3-.6-12-1-18.7-1.4-20 .2 0 .3-.1.3-.3-.2-1-.3-1.9-.3-2.5v-1.8l-.3-.6h.3c0-.2-.1-.3-.3-.3l.3-.6-.3-.6h.3c0-.2-.1-.3-.3-.3l.3-.6v-.8l-.3-.6c.2 0 .3-.1.3-.3l-.3-.6c.2 0 .3-.1.3-.4l-.3-.6h.3l-.6-2.3c.2 0 .3-.1.3-.3v-1.1l-.3-2.9c.2 0 .3-.1.3-.3l-.3-1.4c.1 0 .3-.1.5-.2 1.1-1.7 1.4-3.7 2.3-5.5.5-1.5.7-3.1 1.1-4.7h.1v-.2c0-.1.1-.2.1-.3.1-.1.2-.2.3 0 .5-.5.1-1.3.8-1.9-.3-.3.1-.6-.1-.8.2 0 .3-.7.5-.2 0 0 0 .1-.1.1l.2.1c.6-.3.1-.9.3-1.3-.1.1-.2.3-.3.1l.2-.4.1.2.3-.5h-.2c.2-.2.6-.2.5-.6-.1-.2-.4.2-.3-.2.3-.3.8-.8 1-1.3-.3-.1-.2-.2-.2-.3l.2.1c-.1-.6.5 0 .5-.6l-.3-.2c-.2-.6.5-.1.2-.8 0 0 0 .1-.1.1-.2-.1-.2-.2-.3-.3v-.1l.2.1c0-.2-.1-.2 0-.3.1.1.3.2.3-.1l.2.2-.2-.5c.3-.2.3-.8.6-.8 0 0 .4-.6.1-.9.1.2.4-.1.5.1-.2-.3-.1-.8.2-.9.5-.6.2-1.4.7-1.9-.3-.1 0-.4-.3-.4v-.1h.1c-.3-.5.4-.6.5-1l-.1-.1c0-.1 0-.2-.1-.3.2-.1.3-.3.3-.5.1-.2.1-.4.1-.5l.2-.2h-.2c0-.1.1-.3.2-.4 0-.1 0-.1-.1-.1 0-.3.1-.4.5-.7 0-.1-.1-.2-.2-.3 0-.2 0-.2-.1-.1v-.1l.1-.1c.3 0 .3-.2.3-.4v-.1s0-.1.1-.1c0-.1.1-.3.1-.4l.1.1c-.1-.5.2-.9.4-1.4 0 .1-.1.2-.1.2.5-.3.2-.9.5-1.4v-.1c0-.1.1-.1.1-.2l-.1-.2v-.3c.2 0 .3.1.4-.1.3-.2.2-.7.2-1.1-.1.2-.2.1-.2 0 0-.2.3-.2.2-.3l.3.1c-.3 0-.1-.5-.2-.6.2 0 .1.3.2.4.2-.6.1-.3.3-1-.1-.4-.3 0-.5-.3 0-.3-.1-.6.2-.9.2-.2.4-.4 0-.7l.4.1c-.1-.2-.2-.4-.3-.5 0 0 0-.1.1-.1 0-.1-.1-.2-.1-.3 0-.1.1-.2.2-.2-.2-.1-.3-.3-.5-.4 0 0 0-.1-.1-.1.1 0 .2 0 0-.1l.5.2c.3-.7.2-1.4 0-2.2.7-.1 0-.7.4-1.1-.3-.3.2-.7-.6-.9h.4c.1.5.2.1.4-.4zm-1.6-3.1h.3c0 .1 0 .2.1.4l-.4-.2v-.2zm-.1.7s.1 0 .1-.1c.2-.1.4 0 .5 0 0 .1.1.1.1.2-.1-.1-.3-.1-.6 0 .2.1.3.1.2.2-.2 0-.3-.1-.3-.1v-.2zm-35.2 25.6c.1.1.1.2.2.2h-.1c0-.1-.1-.1-.1-.2zm-.8-2h.1c0 .1 0 .1-.1 0 0 .1 0 .1 0 0zm-.4-.7s0-.1-.1-.2c.1 0 .3 0 .4.1l-.3.1zm1.6-9.7v-.1c.1 0 .1.1 0 .1.1 0 .1 0 0 0zm9.8 28.4h.1v.1c-.1 0-.2 0-.3.1-.1-.1.6-.3.2-.2zm2.6-1.2v-1.5h.3c0 .2.2.6.5 1.2-.2 0-.4.1-.7.4l-.1-.1zm21-34.8h.4v.2h-.5s0-.1.1-.2zm-.6 1.5zM502 317l-.1.2c-.2-.1-.3-.2-.5-.3.1-.1.1-.2.2-.3.2.1.4.2.4.4zm-10.1 27.4c0-.1 0-.1.1-.2 0 .1 0 .2-.1.2zm1-2.3c0-.1 0-.1.1-.2 0 .1 0 .2-.1.2zm-.2 1.1c-.1 0-.2 0-.2-.1.1-.2.2-.5.4-.8l.1.1c-.2.3-.2.6-.3.8zm-.7 1c0-.1 0-.2.1-.3v.1c0 .1 0 .2-.1.2zm-19.1-7l-.1.1h.2c0 .1 0 .1.1.2 0 .1.1.1.1.2-.1 0-.2.1-.3.1-.1-.2-.2-.5-.3-.7 0-.1.1-.2.2-.3-.1.1 0 .2.1.4zm-1-1.8h.2s-.1 0-.2.1v-.1zm.1.1l.3-.1v.1l-.1.2h-.1c-.1-.1-.1-.1-.1-.2zm-2.3-7.3zm.1.2c.1.1.2.2.1.3-.1-.1-.1-.2-.1-.3zm1.6 4.6c0 .1.1.3.1.4-.1 0-.1 0-.2.1 0-.2-.1-.3-.1-.5.1.1.2.1.2 0zm.3 1.5c0-.1 0-.2-.1-.2.1 0 .1.1.1.2zm.7 1.3c0 .1.1.1.1.2-.1.1-.2.1-.3.2v-.4h.2zm-.1.7c0-.1-.1-.2-.1-.3 0 0 .1 0 .1.1-.1 0 0 .1 0 .2zm1.2 2.6h-.2c0-.1-.1-.2-.1-.3.3.1.4.1.3.3zm16.4 70.5c-.1.3 0 .7-.1 1 0-.3 0-.7.1-1zm12.5-92.5v.1-.1zm1.1-4.6c-.2 0-.3 0-.5-.1 0-.1.1-.1.1-.2.1 0 .2 0 .3.1v.1c.1 0 .1 0 .1.1zm1.3-2.4v-.1c.1 0 .1.1 0 .1.1 0 0 0 0 0zM482.6 336h.3c0 .8.2 1.1.6 1.1 0 .2-.1.3-.3.3 0 .1.4 1 1.1 2.6l-.3.6c.5 0 .8.6 1.1 1.7v.5h-.2c-.2-.7-.3-1-.3-1.1l-.6.3c0-.2.1-.5.3-.8-.6-.7-1.2-2.3-1.7-4.9v-.3zm-.6 9.4l.6-.8h.3c0 .2-.1.3-.3.3l.2.5c-.1.1-.2.2-.3.4l-.5.2v-.6zm-1.1.3h-.2.2zm-.1-.4c-.1 0-.3-.1-.4-.1.6-.3-.1-.2.2-.4.1.2.2.4.2.5zm-.6-.8l.3.3c-.4.1.1-.2-.7 0l.4-.1v-.2zm-.2-.2c-.1 0-.3.1-.3.1l.3-.1zm0 0c-.2 0-.5.1-.7.2v-.1c.1 0 .3-.1.7-.1-.1 0-.1 0 0 0zm-.5-.2c-.1 0-.1 0 0 0-.1 0-.1 0 0 0zm-.2-.1h-.2v-.1h.1l.1.1zm-.2 0zm-8.8-39.7h.3l-.3.6c.7 0 1.1.6 1.4 1.7v.3h-.3c0-.4-.5-1-1.4-2l.3-.6zm-.6 9.6h.4c0 .1 0 .2.1.3-.2-.1-.4-.2-.6 0-.1-.1.6-.2.1-.3zm-1.8-1.5c0-.1 0-.1 0 0 0-.1 0-.1 0 0zm-1-2.8c0 .1-.1.2-.2.2-.2-.3-.4-.6-.5-.8.2.2.4.4.7.6zm1.1 11.1c-.1.3-.7.2-1.1.3 0-.1-.1-.2-.1-.3.5-.2.8.1 1.2 0zm-1.6-1.2c.7-.3 0-.2.2-.5.5-.3.5.1.6.2-.7.2 0 .4 0 .5-.2.2-.3.3-.5.4l.5-.1c-.9.3.3.3 0 .5-.2 0-.5.1-.6.2-.2-.5-.4-1-.6-1.6.4.1.9.1.4.4zm-.3-.4c0-.1-.1-.2-.1-.3.2 0 .2.2.4.2l-.3.1zm.2-.5c0 .1-.2.1-.4.1v-.1h.4zm.7 2.8c.2-.3.5-.1.8-.1 0 .3-.3 0-.5.3.1.1.7.1.9-.1 0 .1 0 .1.1.2 0 .1.1.2.1.4-.4.2-.3-.3-.6-.1 0 .2.3.2.6.2 0 .1.1.3.1.4-.2 0-.4 0-.7.1l.3.1c-.2 0-.4 0-.7.1 0-.4-.2-.9-.4-1.5zm.5 1.5c.2.1.1.4.2.4.5-.1-.2-.1.2-.2.2.2.9.1.7.4-.3-.1-.6.2-.8.2l-.2-.7s0-.1-.1-.1zm.4 1l-.1-.1c.1 0 .4-.1.3.1h-.2zm.5 1.4c.2.3.5.5.9.7v.2c-.2.2-.3.4-.4.6l-.1-.1-.4-1.4zM486 425.8c0-1.4.1-2.8.1-4.2 0 1.4 0 2.8-.1 4.2zm14.6-93.2z"/><path id="XMLID_1635_" class="st4" d="M554.2 331c0 .1-.4.2-.4 0 .9-.2-.3-.5 0-.8.2 0 .3.1.3.2.3-.8-.3-1.3 0-2.1-.4-.6.2-1.5-.3-1.9.4.1.2-.3.4-.5-1.1-.3.2-1.4-.7-1.8h.2c-.2-.9-.4-1.8-.6-2.8-.3-.9-.6-1.8-1.1-2.7-.4-1 0-2.4-.8-3.4-.2-.1-.3 0-.5 0v-.2c.1-.1.3 0 .3-.1-.3-.2-.4-.5-.5-.9.2 0 .3-.1.3-.3l-.3-.6c0-.2.1-.5.3-.8-.4-1-.6-1.7-.6-2h-.6c0 .4.2 1.1.6 2.3-.2 0-.3.1-.3.3-.1 0-.1 0-.2.1.2-.7-.4-1.3-.7-1.8l.1-.2c-.1 0-.2 0-.2-.1v-.1s-.1-.1-.1-.2h.6v-.4l-.3-.6c-.2 0-.3.1-.3.3h-.3l.3-.6v-.3l-.3-.6h.6l.3 1.4h.8v-.6h-.3c-.5-.9-.9-1.4-1.4-1.4v.3h-.4l.4-.6c-.3-.6-.6-.8-.9-.8v.6c-.6-.3-.8-.6-.8-.8h.3v-1.1l-.6.3c0-.7-1.3-1.4-3.8-2-.6-.4-1.2-.7-2-.7l.1-.5c-1.5-.3-2.6-1.1-4.1-1.1h-.8c-.3-.3-.8-.5-1.1-.6-.3.1-.5.2-.7.3-1.5-.9-4.5-1.3-9-1.3h-2.5c-.5.1-.9.2-1.3.3h-.7v.2c-.6.1-1 .2-1.2.2h-.6v-.6h.6l-.6-1.2.6.3v-.6c-.4 0-.6-.2-.6-.6-.2 0-.3.1-.3.3-.4 0-.9-.2-1.7-.6l-.3.6v2.6c0 .4-.2.6-.6.6h-1.4c-.4.7-.7 1.2-1.1 1.6 0-.1 0-.1.1-.2-.2-.1-.2.1-.2.3-.6.7-1.2 1.1-1.7 1.1v.6c.4 0 .7.1 1 .2-.4.6-.4 2.1-.4 2.1-.3 3 .6 4.4 1.1 7.8.1 1.6 0 2.6 0 3.6 0 .6-.1 1.3 0 2.2 0 1.3.1 2.7.2 4 .4.6 0 1.7.3 2.4l-.2.3c.1.2.2.5.1.8h-.1c.2.4.1.8.2 1h-.1v.4l-.1-.1c.2.6.2 1.3.1 1.9h.3c-.3 1.2.3 1.7-.1 2.8h-.1c.7 1.4-.5 2.3.2 3.7-.1-.2-.1.1-.2.1.1.7.1 1.4.6 1.4 0 .5-.2.4-.4.5.2 0 .3.4.3.8l-.1-.2.1 1.1.4-.2c-.1.6-.5.2-.4.7h.4c-.1.8-.6 1.3-.9 2.1-.1 3.3.8 6.7.2 9.8l-.3.1c-.4.1.6.8.2.9l.2.4c-.1.1-.1.3-.2.1 0 .3.1.3.2.6l-.2.4c-.2 1.3.3 2.4.2 3.7-.5 1.6 0 4.7.3 6.4.6 2.5-.9 5.4-.3 7.9-.1.1.1.3.1.3v2.3s0 3.7.6 5.3v3l.3.6c-.2 0-.3.1-.3.3v1.1l.3 1.4c-.2 0-.3.1-.3.3.2 0 .3.1.3.3v3.4l.3 2c-.2 0-.3.1-.3.4.2 0 .3.1.3.3v6.3l-.3.6h.3l-.2.8-.3 1.2c-.1 0-.3 0-.2.1 2.9 9 2.2 19.1 2.4 28.4 0 .1.4.2.5 0 .3-4.5.7-9 1-13.6.1-1 0-2.3 0-3.6 0-.4.1-.8.1-1.2.1-.5.2-1 .4-1.4 0-1.6 1-2.2 3-1.9 0 1.2 0 2.3.1 3.5l.3 22.2c-.1 1.7-.1 3.1.1 3.5v2c0 .1.5.2.5 0 .2-6.5.4-13 .8-19.6.2-2.9.5-5.8.9-8.7 0-.3.6-5.1.9-5.2 1.1-.3 1.4 2.4 1.7 3.2 0 .1.5.1.4 0-.4-4.9-.6-9.8-.5-14.8v-.6c0-1.6.1-3.2.1-4.8h.7v-.1h.3v-.4c-.1.1-.2-.5-.3-.9 0-2.6-.3-4.2-.2-6.8v-.4c.2-1.9 2.2-8 .7-9.5-.3-.3-.7-.4-1.2-.5 0-.2 0-.4-.1-.7.3.1.5.1.8.2.8-.2 1.9-.7 2.7-.6.5-.1 1-.3 1.5-.4.1.1.4-.1.4.4.3-.1.5-.4 1-.5v-.2c.2-.1.5-.1.7-.2 0 .1.1.1.1.1-.1.1-.2.1-.2.2.3.2.4-.3.7-.3.2.8-.5.2-.6.7l.3.6c.6 0 .1-.7.6-.6v.3l.3-.2c-.1-.3-.2-.8-.5-.7 0-.2 0-.3.1-.4h.1c.1 0 .3.1.5 0v-.1c.1 0 .2-.1.2-.1-.2.5.4.9.2 1.2.4.2.3-.4.5-.6-.1 0-.1-.5-.2-.6 0-.1 0-.2.1-.2s.2-.1.3-.1c.2.3.5 1 .8.8-.2-.4 0-.8 0-1.1l.6-.3-.1.6c.4.3.9.5 1.1.7.2-.4-.3-.5 0-.7 0 .3.3.5.5.4-.4-.1-.3-.7-.2-.9.3-.1.8.2.8.4l-.1.6c.1-.5.2.2.4-.1-.1-.3-.1-.8-.2-1.2.1-.2.4.1.5 0l-.1.5c.3-.3.5.7.8.3l-.1-.4c.1 0 .3.2.3.4-.1-.3.2-.4.2-.5l.2.2c.1-.3-.1-.9.4-.6-.5-.5-.2.2-.7 0-.4-.3 0-.6 0-.7.4.6.4-.2.6-.4.3.1.4.2.6.2l-.2-.4c.7.7.2-.4.6-.4.1.3.3.6.6.6-.7-.4-.3-1-.7-1.3.5-.1.5.7 1 1-.2-.6.7-.1.3-.7-.4.1-.3-.4-.4-.6.4-.3.2.3.6.2 0-.1-.1-.4-.3-.6.1-.1.2-.1.3-.2v-.1h.1c-.1-.3.1-.5.4-.7l.2.2v-.4c.1.2.4.5.6.5-.4-.4.3-.6.2-.7-.3-.3 0 .3-.3 0 0-.1 0-.3-.1-.4.1-.1.2-.3.3-.4.2.1.4.1.5.3.3-.1-.4-.4 0-.5l.2.2c.2-.2.3-.4.4-.7.1 0 .2-.1.3-.1.9-1 1.3-1.8 1.7-2.6.5-.8.9-1.6 1.2-2.5.8-1.7 1.3-3.5 2.1-5.2 1.1-3.6 1.4-7.4 1.7-11.2-.4-.3-.5-.6-.5-.9l.1-.1h-.1c0-.2-.1-.4-.2-.7v-1c.1-.2.3-.4.5-.7-.3 0-.1-.2-.5-.2v-.3c.2-.1.6-.3.5-.5.2 0-.3 0-.2-.1-.6-1 .3.2.8-1-.3-2.1-1-3.8-.7-5.4zm-20.5-24.8s0 .1 0 0c0 .1 0 .1 0 0zm3.8 4.4c.1 0 .1.1 0 0 0 .1 0 .1 0 0zm-2.9 3.8c-.1-.1-.3-.2-.4-.3.1-.1.1-.1.1-.2 0 .2.7-.1.5.4-.1 0-.1.1-.2.1zm3.4 36.5c-.2.5-.5.4-.7.6v-.1c-.4.9-.5 1.1-1 1.7-.1.3.3.7-.2 1.1 0-.3-.2 0-.3.2.1-.1 0-.2-.3 0v.2c-.2.4-.1.3 0 .2h.1c-.4.2-.6 1-.9.8-.6.9-.9 1.7-1.3 2.5 0 0-.1-.1-.2-.1 0 .1 0 .1-.1.2 0-.1 0-.2.1-.4l-.4.6c-.2-.2.2-.4.3-.6-.3.1-.5.4-.6.6-.7.3-1.1.8-1.6 1.1-.1-.1 0-.3.1-.4l-.4.2c-.1-.2.2-.2.3-.3-.6-.2-.9.7-1.6.5l-.1.2c0 .1-.1.3-.2.3-.1-.2-.1-.5-.4-.4-.3-.1-.7.3-.9.5.2 0 .2.1.1.2-.2 0-.3-.1-.4 0l-.1-.3c.1.2-.3.4-.4.5-.1-.2.2-.2.2-.4-.4.1-.4.1-.5.2 0-.1-.1-.3-.1-.4.5-.5-.1-3.5 0-4.5v.1c-.6-2.6 0-5.3-.5-7.8 0 .1.2.1.2.7-.2-1.8-.4-4.3-.1-4.4-.3-4.3-.5-10.4-1.2-13.1l.1.2c-.4-1.6-.2-2-.4-3.8 0-.1 0-.2.1-.2-.4-1.7-.3-5-.6-6.4l.2-.1-.1-1.2c.4 0 .8.2 1.3.4 1.9-.8 2.8-.5 2.5.9.5 1.1 0 3.3 0 4.5v.2c-.6 4-.1 8.7 0 12.4 0 .1.4.2.4.1v-12.2c0-.3 0-.7.1-1 .1-.6.2-1.1.4-1.5.3-.7 1.5-2 2.6-1.2.3.2.2 4.8.2 5.2l.3 7.8c.2 6.1.5 12.2.7 18.3 0 .1.4.2.4.1v-3.3c.3-2.1.2-4.4 0-6.7 0-3.6.1-7.2.3-10.8.1-1.8-.2-11.9 4.3-10 .1.1.3.1.4.2.2.3.4.5.7.7.2.1.3.3.5.5.1.2.2.4.4.5.6.6-.3.8.5 1.3l-.1.4c.1.3.4.1.5.5-.2.1.1.5-.2.4.1.9 1 1.6.9 2.8.4.2.3.8.6.9-.1.1.2 1.2-.3.6 0-.1-.1-.1 0-.2h-.2c-.3.7.4 1.2.4 1.8 0-.2 0-.5.2-.3 0 0 .1.6 0 .6l-.2-.1-.1.9.2-.1c-.1.5-.5.6-.1 1.1.2.2.3-.4.4 0-.2.6-.4 1.5-.6 2.3.3-.1.2.2.3.4h-.2c.2.9-.5.2-.4 1.1l-.1-.1.4.3c.3.8-.5.3-.1 1.2 0-.3.5-.1.3.3l-.2-.1c0 .2.1.3 0 .5-.1-.2-.3-.1-.3.2l-.2-.3.3.7c-.4.4-.3 1.2-.6 1.3 0 0-.5.9-.2 1.3-.1-.3-.4.3-.6 0 .2.3 0 1.1-.3 1.4v-.1c-.6 1-.4 2-1.2 2.8.3.1-.1.5.2.5 0 1-1.4 1.3-.7 2.1zm-.2-29c-.6-.3-1.2-.4-1.7-.3.8-.3 1.3-.1 1.7.3zm-7-2c.1 0 .3-.1.4 0-.1-.1-.3-.1-.4 0zm13.2 6.8v-.2h.1l-.1.2zm-.9-2.3v-.2c.3-.1.2 0 0 .2zm-7-10.4c-.3.4-.7.5-1.1.6-.1-.1-.3-.1-.4-.2.3-.2.7-.5.9-.4 0 0 0-.1.1-.1.2 0 .3 0 .5.1zm-8.8 52.7v-.4h.5c-.2.2-.4.3-.5.4zm1.4-56.6c.1 0 .1 0 0 0 .1-.1 0-.1 0 0zm-1.8-.2s-.1 0 0 0c-.2 0-.3 0-.4-.1 0 0 0-.1-.1-.1v.1h-.1c.1-.3 0-.3.2-.5.6-.6.3.5.4.6zm-5.3 99.2c-.1 0-.3 0-.4.1.1-.1.3-.1.4-.1zm17.3-101.9c-.2 0-.3 0-.4-.1.2-.1.3-.1.4.1zm-.9-.8c-.1.1-.3.2-.4.4-.2-.1-.3-.1-.5-.1.1-.1.2-.3.3-.4.3-.1.5 0 .6.1zm-.6-.2v.1-.1zm-.7-.1c.1 0 .1 0 0 0l.6.3c-.1.2-.3.1-.4.1-.1 0-.2-.1-.3-.1.2-.1.2-.2.1-.3zm-.3.2c.1.1.1.1.1.2h-.2c0-.1 0-.2.1-.2zm-.8-.2h.2v.1c-.1 0-.2 0-.2-.1zm-1.7-.1l-.2.2c0-.1 0-.2-.1-.2v-.1c.2.1.3.1.3.1zm-.3-4.5s-.1 0 0 0c-.2.1-.2 0-.3-.1.1 0 .2.1.3.1zm-3.2 8c-.2.2-.2.3-.2.4h-.4c.1-.1.1-.2.1-.4.2 0 .4-.1.5 0zm-1.7-8.8h.5c-.2.1-.4.3-.3.6-.2.1-.1-.7-.4-.3l.2-.3zm-.8 9.4c.3-.4-.1 0 0-.5.1-.4.4-.3.6-.3.2.1 0 .5-.1.8-.1 0-.2.1-.2.1s-.1-.1 0-.2c-.1.1-.2.1-.2.2h-.5c-.1 0-.1 0-.2-.1.5-.6.3 0 .6 0zm-.6-.1s0 .1 0 0c-.1.1-.2 0-.2 0h.2zm-2.2-9.3h.6c-.2 0-.4.1-.6.1 0-.1-.1-.1 0-.1-.1 0-.1 0 0 0zm-1.2 7c-.1.2-.1.5-.1.8.1-.3.5.1.4-.5.4.2.9.4 1.4.3-.2 0-.3.4-.2.7.3-.4.7-.5 1.1-.3.1-.5 0-.5.2-.9.1-.1.2-.2.3-.2-.1.5-.3 1.2 0 1.3-.3.7-.5-.3-.6.5-.1.2-.3.3-.4.3-.2-.1-.3-.1-.4-.1l-.1-.1c0 .1 0 .1-.1.1 0 0-.4-.1-.9-.2.2 0 .5-.1.6-.4l-.6.4c-.1 0-.3-.1-.4-.1 0-.2-.1-.5-.2-.6v-.1c0 .2-.1.3-.1.4 0 0 .1.1.1.2h-.3c.1 0 .1-.1.2-.2 0 0-.1 0-.2.2-.2 0-.4 0-.6-.1v-.1c0-.5.1-.9.1-1.3.2-.1.4-.2.6-.4.3-.1-.1.6.2.4zm-9.4-1.9h-.3c-.2-.3-.3-.5-.4-.7.4.2.6.5.7.7zm21.5 64.8c.1 0 .2-.1.3-.1v.1c0 .1-.2.1-.3 0z"/><path id="XMLID_1664_" class="st4" d="M536.6 371.3s.1 0 .1-.1c0 0-.1 0-.1.1z"/><path id="XMLID_1665_" class="st4" d="M554.1 328.3c0 .1.1.1.1.2 0-.1 0-.2-.1-.2z"/><path id="XMLID_1666_" class="st4" d="M533.5 372.3c.2 0 .3-.1.1-.4 0 .2-.1.2-.1.4z"/><path id="XMLID_1667_" class="st4" d="M533.7 371.3c0 .5.3 0 .3.3-.1-.2-.2-.3-.3-.3z"/><path id="XMLID_1668_" class="st4" d="M537.9 371.3c0 .4.3-.2.4-.1-.1-.3-.3 0-.4.1z"/><path id="XMLID_1669_" class="st4" d="M539.7 370.2l.2.3c.1-.1.1-.3 0-.4-.1.1-.1.1-.2.1z"/><path id="XMLID_1670_" class="st4" d="M588.3 348c.1 0 .2.1.3.1-.1-.1-.2-.1-.3-.1z"/><path id="XMLID_1671_" class="st4" d="M663.7 404.6c0 .2.1 0 .1-.2-.1-.2 0 .1-.1.2z"/><path id="XMLID_1672_" class="st4" d="M663.2 404.4c0 .1 0 .1 0 0z"/><path id="XMLID_1673_" class="st4" d="M660.9 347.3v-.3.3z"/><path id="XMLID_1674_" class="st4" d="M659.3 347c0 .3.1.1.1.1.1-.4-.1.2-.1-.1z"/><path id="XMLID_1675_" class="st4" d="M658.7 347.5c.1-.1.1 0 0 0v-.4.4z"/><path id="XMLID_1676_" class="st4" d="M666.6 308c-.2-.3.1.1-.1.2 0 .2.1.1.1-.2z"/><path id="XMLID_1677_" class="st4" d="M666.3 308.3c0-.3 0-.6-.1-.9 0 .4.1.6.1.9z"/><path id="XMLID_1678_" class="st4" d="M662.1 303.6c-.1 0-.1.1 0 .4v-.4z"/><path id="XMLID_1679_" class="st4" d="M660.6 303.8c0-.4-.1.2-.1-.1 0 .3.1.1.1.1z"/><path id="XMLID_1680_" class="st4" d="M626.4 304.7c.2-.1 0-.2-.2-.2-.2.4.1-.2.2.2z"/><path id="XMLID_1682_" class="st4" d="M623.2 312.5s.1 0 0 0-.2 0-.3-.1c-.1.1-.5.2-.2.4-.2.1-.4-.1-.5.1.3.1.8-.1 1-.4z"/><path id="XMLID_1683_" class="st4" d="M622.7 312.3c0 .1.1.1.2.2 0-.1-.1-.2-.2-.2z"/><path id="XMLID_1684_" class="st4" d="M623.5 364.3c-.1 0-.1 0 0 0z"/><path id="XMLID_1686_" class="st4" d="M626.5 305.1c-.3 0-.6.1-.9.1.4.3.6 0 .9-.1z"/><path id="XMLID_1687_" class="st4" d="M623.2 312.3c.1 0 .3-.1.2-.1s-.3 0-.3-.1c-.2 0 0 .1.1.2z"/><path id="XMLID_1688_" class="st4" d="M623.2 314l-.5-.6c0 .1.2.5.5.6z"/><path id="XMLID_1689_" class="st4" d="M622 315.6c-.1 0-.2-.1-.4-.1.1.2.2.3.4.1z"/><path id="XMLID_1690_" class="st4" d="M622.7 315.8c-.5 0-.1.3-.3.3.1-.1.3-.2.3-.3z"/><path id="XMLID_1691_" class="st4" d="M621.9 319.4c-.4-.1.2.3-.1.4.3-.1.1-.3.1-.4z"/><path id="XMLID_1692_" class="st4" d="M621.9 321.1c0 .1.2.2.4.1-.1-.1 0-.1 0-.1h-.4z"/><path id="XMLID_1693_" class="st4" d="M623.5 351.7l-.3-.1.2.2z"/><path id="XMLID_1694_" class="st4" d="M623.1 365.4s.5 0 .3-.2c0 .3-.3.1-.3.2z"/><path id="XMLID_1695_" class="st4" d="M624.7 372.5h.6z"/><path id="XMLID_1696_" class="st4" d="M523.6 308.6c0-.1-.1-.3-.1-.2-.1.1-.1.3-.1.3.1.2.2-.1.2-.1z"/><path id="XMLID_1697_" class="st4" d="M230.6 328.3c0 .1.1.1.1.2 0-.1 0-.2-.1-.2z"/><path id="XMLID_1698_" class="st4" d="M224.6 309.6c0 .1 0 .1.1.2l-.1-.2z"/><path id="XMLID_1701_" class="st4" d="M230.7 331c0 .1-.4.2-.4 0 .9-.2-.3-.5 0-.8.2 0 .3.1.3.2.3-.8-.3-1.3 0-2.1-.4-.6.2-1.5-.3-1.9.4.1.2-.3.4-.5-1.1-.3.2-1.4-.7-1.8h.2c-.2-.9-.4-1.8-.6-2.8-.3-.9-.6-1.8-1.1-2.7-.4-1 0-2.4-.8-3.4-.2-.1-.4.1-.5 0-.1-.3.3-.1.4-.3-.6-.4-.5-1.3-.8-1.9-.2 0-.3-.2-.5 0 .3-1-1-1.6-1-2.6-.6.7-.7-.1-1-.3v-.2c.1-.1.2-.2.3-.2-.4-.5-.6-.8-.9-1.6-.3-.3-.8 0-.9-.5.3-.6-.6-.8-.7-1.2-.3.4-.8.3-1 0v-.3l.5-.3c-1.3-.7-2.5-2.7-4.4-2.6l.1-.5c-1.7-.3-3-1.4-4.7-1-.3-.3-.9-.7-1.3-.8-.6.2-.8.2-1.2.6h-.2c-.1-.1-.1-.4-.2-.5-.6-.3-1.2-1-1.8-.4v-.4c-.3.1-.6.3-.9.4-1.7-.6-4.3-.8-7.9-.8h-2.5c-1.9.4-2.9.6-3.2.6h-.6v-.6h.6l-.6-1.2.6.3v-.6c-.4 0-.6-.2-.6-.6-.2 0-.3.1-.3.3-.4 0-.9-.2-1.7-.6l-.3.6v2.6c0 .2-.1.3-.2.4-.2-.4-.4.1-.6-.4 0 .7-.1.2-.1.4 0-.7-.1.1-.2-.3v.3h-.2c-.1-.5-.2-.1-.3 0h.1s0-.1-.1-.2v.2h-.3c0 .1-.1.1-.1.1v-.3c-.1-.2-.2.1-.2.4-.1-.5-.3-.2-.4-.5 0 .6-.2-.2-.1.6 0-.1 0-.2-.1-.2v.8l-.1-.5c-.1-.7-.2-.1-.3-.4.1.5-.1 0 0 .4v.2c-.1.2 0 .3-.1.4-.1 0-.1-.6-.1-.6-.1-.3-.1-.1-.2 0s0 .1-.1.1c0 0 0-.1.1-.1h-.1l-.1-.1-.1-.4c-.1 0-.1.5 0 .7-.3-.4-.5.1-.6.4v-.2c0 .1 0 .5-.1.2 0 .2-.1-.3-.2-.3 0-.1.1.4.1.4-.3-.6-.2.4-.5.1 0 0 0-.3-.1-.4-.1.2-.2.5-.1 1 0-.2-.1-.4-.1-.5-.1 0-.1.2-.1.4.2.3.2.7.1.7v-.1c-.1 0 0 .3-.1.3-.1-.2 0-.1-.1-.4-.2-.6-.3-.3-.4-.4 0 .1 0 .3.1.4 0 .2-.2-.4-.2-.3l.2 1.3c0-.1-.3-.6-.3-.8-.1.1.1.9.1 1.3-.1-.1-.1.2-.1.3-.2-.3 0 0 0-.3l-.2-.4c.1-.1-.2-.6-.3-.9 0 .2-.3.1-.4 0 .4.7 0 .4.3 1.1-.1.2-.3-.5-.4-.6 0 .3-.2.2-.3.3 0 0 0-.1-.1-.1 0 .2-.3.1-.1.8-.1-.1-.1-.2-.1-.4-.2-.2.4.8.1.5l-.1-.3c.1.3-.3-.2-.2.3-.1-.2-.1-.2-.1-.3 0 .2-.2.2 0 .6-.1-.2-.2-.4-.2-.5-.2-.2.2.6 0 .4 0 0-.2-.2-.2-.3.1.3 0 .3 0 .5-.1-.2-.2-.2-.4-.4-.4.2-.9.4-1 1.2-.5-.5-.1-.4-.5-.8.3.5 0 .2 0 .4l-.1-.1c0 .1-.2-.2-.2 0l.1.1c.2.4-.6-.5-.2.1l-.3-.3c.3.6-.2-.1 0 .4l-.1-.1c-.3-.2.2.7-.1.3 0 .1 0 .3.3.7-.1-.1-.3-.4-.4-.6-.1.4-.4.6-.3 1.2 0 0 0 .1-.1.1l-.1-.1c.2.5-.6 0-.2.5-.2.2-.4.4-.5.7-.8-.2-1.5 0-.9.9.1.2-.5-.4-.5-.3.5.9-1 .4 0 1.5.1.3.6.7 1 1.1-.5.1-1 .1-1.5.2-.2 0-.2.1-.1.2l-2.4 1.3c-.2 0-.4.1-.4.1 6.3 5.4 2.2 14.5 4.4 21.4 0 .1.5.1.5-.1.1-4.7-.3-9.6.2-14.2-.1-.4-.1-.6-.2-.9 0-.3.1-.7.2-1 .2-.3.6-.4 1.1-.3.6-.1.9-.1 1 .2v.8c0 .2-.1.5-.2.7.5 2.1 0 4.9 0 7.1v26.7c0 .1.4.1.5-.1.3-7.3.6-14.5.9-21.8.1-3.3 0-6.8.4-10.1.2-1.5.1-3.4 1.8-3.5 1.5 0 1.3 2.9 1.7 4.3 0 .1.4.1.4 0-.7.8 1.2-1.3 1.4-1.9h2.4v.8l.3.6h-.3c0 .2.1.3.3.3 0 .4-.1.8-.3 1.1.2 1 .3 1.9.3 2.5l-.3.6c.2 0 .3.1.3.3v3.7l.3.6h-.3c0 .2.1.3.3.3 0 1.4.1 3.9.3 7.7l-.3 2.5c.2 0 .3.1.3.3-.2.3-.3.7-.3 1.1v3.7l-.3 1.4c.2 0 .3.1.3.3-.2 0-.3.1-.3.3v4.6l-.3.6h.3l-.3.6v.9l.3.6c-.2 0-.3.1-.3.3v3.1l-.3 1.5c.2 0 .3.1.3.3-.2 0-.3.1-.3.3v2.3c0 .4-.1.8-.3 1.1.2.3.3.7.3 1.2v4.8l-.3 2c.2 0 .3.1.3.3-.2.3-.3.7-.3 1.1v10l.3.6c-.2 0-.3.1-.3.3v1.1l.3 1.4c-.2 0-.3.1-.3.3.2 0 .3.1.3.3v3.4l.3 2c-.2 0-.3.1-.3.4.2 0 .3.1.3.3v6.3l-.3.6h.3l-.3 1.4v2c.2.4.4.7.7 1 2.2 8.4 1.6 17.6 1.8 26.2 0 .1.4.2.5 0 .3-4.5.7-9 1-13.6.1-1 0-2.3 0-3.6 0-.4.1-.8.1-1.2.1-.5.2-1 .4-1.4 0-1.6 1-2.2 3-1.9 0 1.2 0 2.3.1 3.5l.3 22.2c-.1 1.7-.1 3.1.1 3.5v2c0 .1.5.2.5 0 .2-6.5.4-13 .8-19.6.2-2.9.5-5.8.9-8.7 0-.3.6-5.1.9-5.2 1.1-.3 1.4 2.4 1.7 3.2 0 .1.5.1.4 0-.5-6.4-.6-12.8-.4-19.2.1-.7.2-1.4.1-2.4v-1.2c.1-1.9.3-3.9.4-5.8.2-1.6 1.6-6.1 1.1-8.4.3 0 .6 0 1-.1.6-.1 1.3-.3 1.9-.5.2-.4.8-.2 1-.6l.2.2c.1-.1.2-.2.4-.2v.1c.1-.2.3-.2.4-.3v.1l.2-.1v.1c.3-.2.5-.4.8-.4l-.1-.2c.7.1.7-.5 1.3-.4v.1c.1-.1.1-.2.2-.3l.2.3c.4 0 .3-.3.4-.5h.3v.3l.3-.2v-.1l.3-.3c0 .1.1.1.1.2l.2-.2c0 .1.1.2 0 .4.2.1.2 0 .3-.1v.1c.3 0 .3-.2.1-.3 0-.2.1-.3.2-.3-.3.3-.2-.1-.3-.4h.1c0 .2.1.2.1.2.1 0 .3-.1.3 0-.1-.1-.2-.2-.3-.2 0-.1.1-.2.2-.3v.1l.1-.1c.1.1.1.2.2.3l.3.3v.1l.5.5c.4-.1.3-.3.3-.5.1-.1.1-.1.2-.1 0-.1-.1-.1-.1-.1.1 0 .1-.1.3-.1v.3l.4-.3c0-.1-.1-.2-.2-.4.2.1.4.2.5.3.2-.4-.3-.5 0-.7 0 .3.3.5.5.4-.2 0-.3-.2-.3-.4.2.2.4.3.2.6.6.1.3-.4.5-.7-.1 0-.1-.2-.2-.4.2.1.3.2.3.3-.1 0-.1.1-.1.1s.1 0 .1-.1l-.1.6c.1-.5.2.2.4-.1-.1-.3-.1-.8-.2-1.2 0 0 .1 0 .1-.1l.3.3-.1.2c.3-.3.5.7.8.3l-.1-.4c.1 0 .3.2.3.4-.1-.3.2-.4.2-.5l.1.1c-.1.1-.1.1-.1.2.1.2.1.1.2 0s.2-.2.3-.2c-.1-.1-.2-.1-.2 0 0-.3 0-.6.4-.4-.5-.5-.2.2-.7 0-.3-.2-.2-.4 0-.6v.1c.5.2 1.1.2 1.4.3.2-.4-.2-.4-.2-.6h.1v-.2c0 .3.4.3.6.2-.3 0-.4-.1-.4-.4 0-.2 0-.5.2-.5 0 .1.1.3.2.4l.3.2v-.1h.1c-.1 0-.1-.1-.1-.1 0-.1 0-.2-.1-.2v.1c-.1-.2-.1-.3-.2-.5h.4c.1.1.1.2.2.3v.4c0-.5.2.1.4-.3 0-.1-.1-.2-.1-.3.2-.1.4 0 .2-.4-.4.1-.3-.3-.4-.5h.2c0 .1.1.1.1.1v.3c.3-.5.7.5 1-.1l-.2-.4c.1 0 .3 0 .4.2-.2-.3.1-.5.1-.7l.2.2c0-.2-.2-.6 0-.8l.1.1v-.1h.2c-.1 0-.2-.1-.3-.1-.1-.3.3-.4.3-.5-.3-.3 0 .3-.3 0 .1-.1.2-.3.3-.4h.5l-.1-.1s.1 0 .1.1c.1 0 0-.1-.1-.2.1 0 .2 0 .2-.1h.1c.1-.1.2-.3.3-.4.2.1.3.1.5.1-.2 0-.3-.1-.4-.2 0-.1.1-.1.1-.2.1 0 .2-.1.3-.1.1.1.2.1.2.1-.3-.4.4-.4.2-.7l.6-.9c.3-.3.6-.6.7-1.1.1 0 0-.1 0-.1 0-.1.1-.2.1-.2l.5-.7s.2-.3.4-.7c.2-.4.4-.9.5-1.4v-.2c.6-1.5 1.1-3 1.7-4.4 1.1-3.6 1.4-7.4 1.7-11.2-.8-.7-.3-1.4-1.1-2.2l.3.1c-.4-.6.1-.7.5-1.4-.3 0-.1-.3-.6-.2-.4-.3.8-.4.6-.8.2 0-.3 0-.2-.1-.6-1 .3.2.8-1-.5-1.8-1.2-3.5-.9-5.1zm-16.8 32.8c.1 0 .2.1.2.1l-.1.1c-.1 0-.1-.1-.1-.2zm-6.1 3.3v-.3h.4v.3h-.4zm-3.3-.3c0 .1 0 .2-.1.3h-.1c-.1 0-.2 0-.3.1-.3 0-.6.2-.8.3h-.2c.1-.1.1-.2.2-.4-.1-.1-.3 0-.5.1-.2-.1-.4 0-.5.1 0 0-.1-.1-.1-.2-.2-.1-.3-.1-.5 0-.1 0-.1.1-.2.1.1-.2.3-.5.4-.7l2.7.3c.4 0 .7 0 1.1.1v.3c0-.1.1-.2.1-.3h.9c-.1.3-.3-.2-.3.4h-.4c-.2 0-.4-.1-.6-.1l.1-.1-.1.1c-.1 0-.2 0-.3.1-.1 0-.2-.1-.3-.1 0-.1-.1-.2-.1-.2l-.1-.2c.1.2.1.3.1.4-.1 0-.1 0-.2-.1 0 0 0-.1.1-.1.1-.1.1-.3 0-.2zm4-52.6c.8.4 1.6.8 2.3 1.3.3.2.6.4.8.6 0 .1 0 .1.1 0l.1.1-.1.1c.4.5.9 1 1.6 1.2.3.3.6.6.8.9v.4c0-.1.1-.2.1-.2l.2.2-.1.2c-.1.3.3.3.6.3l.1.1-.1-.1.1.1-.1.1c-.1.3.2.2.4.1 0 0 .1 0 .1.1l-.1.2.2-.1c.1.1.2.2.3.4-.1.1-.1.2-.3.3.1 0 .3 0 .4-.2-.1.4.2.9.6 1.1v-.1c.1.1.1.2.2.4 0 .3.2.5.3.6.3.6.6 1.2.9 1.7v.7c.3.5.6 1.1.6 1.7h-.1c.4.8.5 1.8.7 2.2h-.1l.3 1-.1-.2c.5 1.5.8 3.1.9 4.4l.2-.1c0 1.7.2 2.7.3 3.8 0 .2 0 .5-.1.7v2.1h-.1c.3 1.7 0 3-.5 4.2-.4 1.2-.9 2.4-1.3 4 .1-.4-.2.1-.2 0-.6 1.4-1.6 2.7-1.2 3.1-.7.9-.7.6-1 .6.2.1-.4 1-1 1.6l.2-.4s-.4.5-.9.9-1 .9-1 .9h.7c-1.2.8-.6-.2-1.6.7l.2.3c-1.6 1.1-2.9 1.2-4.6 1.8-2 1-4.2 1.7-6.5 2.4-.1-1.6-.1-3.2.2-4.7l.3-.1c.4-.1-.6-.9-.2-1l-.2-.3v-.1c.1-.1.1-.2.2-.1 0-.3 0-.3-.2-.6l.2-.4c.2-1.3-.3-2.5-.2-3.8v-.1s.1-.1.2-.5c0-.1-.1-.2-.1-.3v-2c0-.6.1-1.1.3-1.2.1-2.9-.1-5-.1-7.3.2-.3.3.3.3 1v-1.7c.2 0 .1 1 .1 1.5.5-2-.1-4.2.4-6.5l-.2-.5v-.1c-.1 0-.2-.5-.2-.9.2-.3.5.1.5-1.1.3-.9 0-2.6 0-3.9-.1.7-.2.4-.2.1 0-.6.3-.9.2-1.4h.3c-.3.2-.2-1.5-.3-1.8.2-.3.1.9.3 1.1.1-2.4 0-1.2.1-3.5-.2-1.3-.3.2-.5-.4 0-1.1-.1-2.2.1-3.5l-.3.4c-.1-1.9 0-3 .2-4.3 1.9.5 3.5.9 5.6 1.8zm6.3 45.2c-.1.1-.1.2-.2.3-.1 0-.1.1-.2.2v.1s0 .1-.1 0l-.2.2-.1-.1v.2c-.1.2-.3.3-.5.5-.1 0-.1.1-.2.2-.2.2-.5.3-.7.4-.6.7.4-.7-.6.1-.2-.2.4-.4 0-.5-1 .7-1.9.6-3.2 1.3l-.1-.1c1.2-.4 2.6-1 3.7-1.6-.3-.1.2-.4.7-.8l.2.2c1.1-1 1.2-.7 1.6-.9v.1c-.1.1-.2.1-.3.2.1-.2.1-.1.2 0zm-18.9-43.8c-.3-.1-.4 0-.5 0v-.3h.2c.2.1.4.2.3.3zm5.8 53.3h.1-.1zm-.1-1.5s0-.1 0 0v-.1h.1c-.1 0-.1 0-.1.1zm-6.4-55.3c.5 0 .5-.1.9-.1 0 0 .1.1.2.1v.1c-.4 0-1 .1-1.1.3 0-.3 0-.6-.1-.9.1.2.2.4.1.5zm7.1 56.9c.1-.1.1-.1.2-.1h.3c-.1.1-.2.2-.4.2 0 .1 0 0-.1-.1zm4.4-1.8v-.2c.2-.4.3-.1.3.1l-.3.1zm0-1.4v.3h-.2v-.3h.2zm-6.4-40.6c0 .3 0 .6-.1.9-.2.1-.4.4-.7.9-.1-.1-.3-.2-.2-.3.6-.2 0-.6.3-.8-.5.1-1-.3-.7-.5l.8.1c-.5-.9.4-2.1-.6-3.1l.4-.1c-.5-.9-.1-1.8-.6-2.7l.1-1c0-.1.1-.2.1-.2l.3-3s.1-1.4.3-3.4c.3 0 .5.1.8.1-.4 4 0 7.2-.2 13.1zm-20.6-8c-.2.1-.4.1-.6.2.2-.1.4-.2.6-.2zm3.5 1c-.1 0-.1 0 0 0-.1 0-.1 0 0 0zm.6-.4c-.1 0-.1 0-.2.1.1-.1.2-.1.2-.1zm12.4 91.3c-.1 0-.3 0-.4.1.2-.1.3-.1.4-.1zm18.6-103l-.3.3-.3-.3h.6zm-9.7-5.2c.1 0 .2.1.3.1-.1.1-.1.2 0 .4-.2.1-.1-.7-.4-.3l.1-.2zm-1.7 6.6c-.1.5-.3 1.2 0 1.3-.1 0-.2 0-.3-.1 0-.2-.1-.4-.1-.6 0-.1 0-.2.1-.4.1-.1.2-.3.3-.2zm-1-5.1v.2h-.1l.1-.2c-.1.1-.2.1-.2.2h-.1c.1-.1.2-.2.3-.2zm-.3-1.7c-.2 0-.4.1-.6.1 0-.1-.1-.1-.1-.1h.7zm-1.7 7c-.1.2-.1.5-.1.8.1-.3.5.1.4-.5h.1c-.1.5-.1.8-.1.8v.1h-.3c0-.1-.1-.1-.1-.2v-.1.1c-.1-.1-.1-.2-.3-.3 0-.3.1-.7.1-1 0 0 .1 0 .1-.1.3-.1-.1.6.2.4zm-1.1-7zm-.1 0c.1 0 .1 0 0 0zm-.2 0c.1 0 .1 0 0 0 .1 0 .1 0 0 0 .1.1.1.1 0 0 0 .1 0 0 0 0zm-.1 0h.1v.1s-.1 0-.1-.1c0 .1 0 0 0 0zm-.4 0c0 .3.1-.2.1.1-.1 0-.2.1-.3.2v-.3h.2zm-.2.1l-.1.4c.1-.6 0-.3-.1-.1v-.3h.2zm-.3 0h.1v.2h-.1c-.1-.1-.1-.2 0-.2zm-.2 0v.2h-.1v-.2h.1zm-.5.1c.1 0 .3-.1.4-.1 0 0 0 .1-.1.2h-.4c.1 0 .1-.1.1-.1zm-.4.1h.2v.1c-.1-.1-.1-.1-.2-.1zm-2.2 6.6h.6c.1.2.3.5.2.8-.1 0-.3 0-.4.1h.3c0 .1-.1.1-.2.2h-.6c0-.2-.1-.4-.1-.5h.3l-.1-.6zm-15 3.7c.4-.7 1.8-.2 2-1.1-.2-.1-.3-.4-.3-.5l.1.1-.2-.3c0-.1.3.3.3.4.2-.2.3-.5.6-.5-.1-.1-.1-.2-.1-.2 1-.1 2-.1 3.1-.1.8-.4 1.9-.9 2.7-.9.2-.1.4-.1.7-.2.1.5.1 1 .2 1.4-1 .2-2 .5-3.2.6l.5.2c-2.1.6-3.3.8-4.8.8-.7.2-1.3.4-1.8.6 0-.1 0-.3.2-.3zm-.8.5c-.4.1-.8.3-1.2.4.2-.3.7-.4 1.2-.4zm-1.4 21.2c0-1.3 0-2.6.1-3.9.1 1.5.1 3.1-.1 3.9zm36.5 38v-.2c.1-.1.2-.3.5-.3.2.5-.2.4-.5.5zm.7-.5v-.1l.1.1h-.1zm7.4-4.8c-.2-.1-.3-.2-.3-.3.1 0 .1-.1.2-.1s.1-.1.2-.1c.1.1.2.2.3.2-.1.1-.1.2-.4.3z"/><path id="XMLID_1741_" class="st4" d="M341.5 393.1c0-.1 0-.2-.1-.3-.1 0-.1.1.1.3z"/><path id="XMLID_1742_" class="st4" d="M355.2 342.3c.3-.1-.1 0-.2-.1-.2.1 0 .1.2.1z"/><path id="XMLID_1743_" class="st4" d="M358.2 339.7c-.1 0-.1 0 0 0h.3c.1 0 .5-.1.2-.1h.5c-.3-.1-.9 0-1 .1z"/><path id="XMLID_1744_" class="st4" d="M358.7 339.7h-.2.2z"/><path id="XMLID_1745_" class="st4" d="M352.4 332.5c.1 0 .1 0 0 0 .1 0 .1 0 0 0z"/><path id="XMLID_1747_" class="st4" d="M354.9 342.1h.9c-.4-.1-.6 0-.9 0z"/><path id="XMLID_1748_" class="st4" d="M358 339.8h.3c.2 0-.1 0-.1-.1 0 0-.3.1-.2.1z"/><path id="XMLID_1749_" class="st4" d="M358.7 339.4c0-.1-.3-.2-.5-.2l.5.2z"/><path id="XMLID_1750_" class="st4" d="M359.6 338.6c0-.1-.1-.1-.4 0h.4z"/><path id="XMLID_1751_" class="st4" d="M358.7 338.5c.5 0 .1-.1.3-.1-.2.1-.3.1-.3.1z"/><path id="XMLID_1752_" class="st4" d="M359.4 337.3c.4 0-.2-.1 0-.1-.3 0 0 .1 0 .1z"/><path id="XMLID_1753_" class="st4" d="M359.3 336.7h-.4c.1 0 0 0 0 0h.4z"/><path id="XMLID_1755_" class="st4" d="M185 302.9s0-.1 0 0c0-.1 0-.1 0 0-.1-.1 0-.1 0 0z"/><path id="XMLID_1756_" class="st4" d="M185 302.9v.1c.1.1 0 0 0-.1z"/><path id="XMLID_1757_" class="st4" d="M185.3 301.9c0-.1 0-.1 0 0z"/><path id="XMLID_1758_" class="st4" d="M189.5 301l-.1.1.1.1z"/><path id="XMLID_1759_" class="st4" d="M185 301.9c-.1.1-.1-.3-.1-.3 0 .1.1.5.1.3z"/><path id="XMLID_1760_" class="st4" d="M183.2 304l.2.5z"/><path id="XMLID_1761_" class="st4" d="M126.3 389.4s-.1 0 0 0c-.1 0-.1 0 0 0z"/><path id="XMLID_1762_" class="st4" d="M125.2 395.4c.1 0 .1 0 0 0z"/><path id="XMLID_1763_" class="st4" d="M368.4 389.9s0-.1 0 0c-.1-.1-.1-.1 0 0z"/><path id="XMLID_1764_" class="st4" d="M607.2 335.4c.3-.4-.1.1-.2-.2-.1.1 0 .2.2.2z"/><path id="XMLID_1765_" class="st4" d="M611.9 329.8c-.3-.2-.9-.1-1.1 0h-.1c.2 0 .3.1.4.1.1-.1.5-.1.3-.2.1.1.4.2.5.1z"/><path id="XMLID_1766_" class="st4" d="M611.3 330.1c0-.1-.1-.1-.2-.2 0 .1 0 .2.2.2z"/><path id="XMLID_1767_" class="st4" d="M607.3 333.8c-.1 0-.1 0 0 0-.1 0-.1 0 0 0z"/><path id="XMLID_1768_" class="st4" d="M607 334.9c.3 0 .6-.1.9-.1-.5-.2-.6 0-.9.1z"/><path id="XMLID_1769_" class="st4" d="M610.8 330c-.1 0-.3 0-.2.1s.3.1.3.1c.1 0-.1-.1-.1-.2z"/><path id="XMLID_1770_" class="st4" d="M611 328.8l.4.6c.1-.2-.1-.5-.4-.6z"/><path id="XMLID_1771_" class="st4" d="M612.7 328c0-.1-.1-.2-.3-.1.1 0 .2 0 .3.1z"/><path id="XMLID_1772_" class="st4" d="M612.1 327.5c-.2 0-.3 0-.3.2.4 0 .1-.3.3-.2z"/><path id="XMLID_1773_" class="st4" d="M613 324.8c.4.1-.1-.2.1-.3-.3.1-.1.3-.1.3z"/><path id="XMLID_1774_" class="st4" d="M150.8 341.2s.1-.1.2-.4l-.2.4z"/><path id="XMLID_1775_" class="st4" d="M143.7 356.9v-.1.1z"/><path id="XMLID_1776_" class="st4" d="M203.2 331.6s.1-.1.1-.5l-.1.5z"/><path id="XMLID_1777_" class="st4" d="M267 395.8c.1 0 .1-.1.2-.1-.1.1-.2.1-.2.1z"/><path id="XMLID_1778_" class="st4" d="M331.6 323l-.2.1c0 .1.1 0 .2-.1z"/><path id="XMLID_1779_" class="st4" d="M308 349.1c0-.1 0-.1 0 0z"/><path id="XMLID_1780_" class="st4" d="M308.2 344.2s0-.1 0 0z"/><path id="XMLID_1781_" class="st4" d="M206.5 374h-.1z"/><path id="XMLID_1783_" class="st4" d="M392.3 349v-.1z"/><path id="XMLID_1784_" class="st4" d="M449.1 391.5l.2.2z"/><path id="XMLID_1785_" class="st4" d="M260.9 322.6l-.2.2.2-.2z"/><path id="XMLID_1787_" class="st4" d="M473 337.5c-.1 0-.1-.1 0 0z"/><path id="XMLID_1788_" class="st4" d="M490.1 325.9c0-.1 0-.1 0 0z"/><path id="XMLID_1789_" class="st4" d="M500.8 333.5l.1.1z"/><path id="XMLID_1791_" class="st4" d="M513.5 324.6c0-.1 0-.1 0 0 0-.1 0-.1 0 0z"/><path id="XMLID_1792_" class="st4" d="M605.6 323.9l.1-.2c-.1.1-.1.1-.1.2z"/><path id="XMLID_1793_" class="st4" d="M564.5 345.1l-.1-.1z"/><path id="XMLID_1795_" class="st4" d="M559.9 370.8l-.1-.2z"/><path id="XMLID_1796_" class="st4" d="M640.3 336.7s.1-.1.1-.5l-.1.5z"/><path id="XMLID_1797_" class="st4" d="M640.9 393.9l.2.2z"/><path id="XMLID_1798_" class="st4" d="M654 356s.1.1.3.1l-.3-.1z"/><path id="XMLID_1800_" class="st4" d="M175.9 427.1c0 .9-.1 1.9-.2 2.8.2-.9.2-1.8.2-2.8z"/><path id="XMLID_1801_" class="st4" d="M416.7 427.1c0 .9-.1 1.9-.2 2.8.2-.9.2-1.8.2-2.8z"/><path id="XMLID_1802_" class="st4" d="M335.7 343l-.3 2.7c.2-.8.3-1.7.3-2.7z"/><path id="XMLID_1803_" class="st4" d="M587.3 410.5c.1-.4.2-.9.3-1.3-.2.2-.3.7-.3 1.3z"/></g></svg>