<svg id="Layer_1" xmlns="http://www.w3.org/2000/svg" viewBox="0 0 234.1 224.7"><style>.st0{fill:none}.st1{opacity:.85}.st2{fill:#fff}.st2,.st3{opacity:.3}.st4{fill:#fff}.st4,.st5{opacity:.32}.st6{opacity:.35;fill:#fff}.st7{opacity:.8}</style><path id="XMLID_27_" d="M-26.2 6v.5V6z"/><path id="XMLID_28_" d="M-25.9 12.1v-.5.5z"/><g id="XMLID_286_"><path id="XMLID_21_" d="M88.6 96.5c.4-1 0-1.1.1-1.8 3.1-3.1 7.6-8.1 10.8-12.6 3.2-4.4 5.2-8.2 4.2-8.2.5-.8.9-1.5 1.3-2.2.4 4 1 7.9 1.5 11.8 1 7.4 3 14.1 4.7 20.7 1.7 6.7 3.1 13.4 3.1 20.7 0 2.8.6 6.5 1.1 10.2.3 1.8.5 3.7.7 5.3l.3 2.4c.1.7.1 1.4.1 2 .9 2.8 1 9.1 2.4 9.3.3 2.9 1 4.4 1.7 6 3.1-.5 6.1-1 9.2-1.5.3-3.2.4-6.5.2-9.9-.2-2.6-.4-5.3-.8-7.9.2-.1.5-.2.6-.6-.2-.3-.6-1-.6-1 .6-1.7.1-3.2-.5-4.7-.1.2-.2.4-.4.6-.9-5.2-2-10.3-3.1-15.3 0-.2.1-.4.1-.6 1.3-4.8.2-10-1.4-15.2-1.1-3.5-2.4-7.1-3.4-10.6 0-.9-.1-1.8-.2-2.6-.6-5.9.2-8.4.8-13.6.1-1.5-.1-2.6.1-3.5.2-.9-.6-2.9-.5-4.4l.5.4c0-.5.1-1.5.1-2s.2-.4.4-.3c.3.2.6.4.8 0l1.5 1.8c.2-.1.5-.3.5 0-.1.2-.1.4-.1.6l.4.5c.1 0 .1.1.2.1.2 0 .3-.2.4-.4 0-.2.1-.3.2-.5 0 .1-.1.3-.2.5 0 .2-.1.4 0 .5.1 0 .2.1.2.1-.1 0-.1-.1-.2-.1v-.1c-.1 0-.2-.1-.3-.1h-.2l.9 1.2c.1.1.2.1.3.1.4.1.7.3.4.9l.1.2v-.1.2l.6.9c.4.6.8 1.2 1.3 1.8 2.7 4 5.9 7 9 10.8l.9 1.2c.6.9 1.2 1.7 1.8 2.5.6 1 1.3 1.9 1.9 2.9 1 1.6 2.1 2.9 3.4 4.1.3.4.6.8.8 1.1 0 0 1.2 1.2 2.3 2.4.1.1.1.2.2.2.9 1.2 1.7 2.6 2.2 4.3.8 2.2 3.9 4 5.4 5.1h.3c2.2-3.1 4.3-6.2 6.3-9.4-.7-.7-1.4-1.5-2.1-2.2-.2-.4-.3-1-.4-1.6.1.5.1.9-.1 1.1-.8-.9-1.7-1.8-2.5-2.6v-.9c.8-5.7-4.5-5.3-6.3-8.7-.4-.8-1.3-1.3-2-2.1-1.9-3.3-4.8-5.3-7.5-7.5-2.1-2.4-4.1-4.8-6.1-7.1-2.6-3.1-5.2-6.1-7.6-9.1l-11.9-19.2-.1.1c-.1-.4-.4-.6-.9-.5-.1 0-.2.1-.3.3-.5-1-1-1.9-1.5-2.8l-1 .3c.5 1 1 1.9 1.4 2.7l.3.6c-.1-.2-.2-.3-.3-.5-.4-.8-.9-1.8-1.5-2.9l-.8.3c.7 1.4 1.3 2.8 1.9 4 0 .1-.1.1-.1.2-.1-.2-.2-.3-.3-.5.1.2.2.4.3.5-.1.2-.2.3-.4.5-.3-.4-.5-.7-.8-1.1-.5-1.2-1-2.3-1.5-3.3l-.8.2.8-.2-.8.2c-.1-.1-.1-.2-.2-.3-.7-.9-1.4-1.8-2-2.7-.2-.2-.3-.4-.5-.7l-.2-.3-.1-.1s0-.1-.1 0l-.1.2c-.2.5-.5.9-.7 1.4-.4.8-.8 1.6-1.1 2.4l-1.3-3.9v6.9c-.5 1.2-1.4 2.6-2.4 4.3-.6.9-1.2 1.8-1.8 2.8-.5.7-.9 1.3-1.4 2-1.9 2.6-3.5 4.8-3.4 5.2.6 3 .1.8-3.5 8.4-.4.9-1.1 4.1-1.9 5.9-1 2-1.7 3.6-2.3 5L85 79.3c-1.1 2-2.6 5.5-3.6 7.9-.5 1.2-2.1 3.6-2.7 4.4-.1.3-.1.6-.1.8l.3 4.8c-.1.3-.2.6-.3.8l.4.1-4 13.7 13.6-15.3zm40.3 38.9c-.1.6-.2 1.1-.2 1.7-.1-.4-.1-.8-.2-1.1.1.1.3 0 .4-.6zm-.2-61.2c.4.1.5.6.4 1.3-.7.1-.6-.6-.4-1.3zM123 64c.1.2.3.5.4.7-.2 0-.3-.1-.5-.1 0-.3 0-.4.1-.6z"/><path id="XMLID_351_" d="M122.8 66.3c0-.2 0-.4.1-.6.1 0 .1 0 .2.1l-.3.5z"/><path id="XMLID_353_" d="M128.2 125.7c-.1-.7-.2-1.3-.3-2 0 .3-.1.7-.3 1.1 0 .4.3.6.6.9z"/><path id="XMLID_354_" d="M127.6 121.5c-.1-.1-.1-.2-.2-.3l.2.6v-.3z"/><path id="XMLID_355_" d="M127.1 120.3c0-.5-.1-1.1-.4-1.7.1.6.2 1.1.4 1.7z"/><path id="XMLID_356_" d="M127.4 121.3c-.1-.3-.2-.6-.3-1 0 .4-.1.7-.2 1 .2-.2.3-.4.5 0z"/><path id="XMLID_357_" d="M126.7 121.8c0 .1-.1.2-.1.3 0-.1.1-.2.1-.3z"/><path id="XMLID_358_" d="M126.9 121.3c-.1.1-.1.3-.2.5.1-.2.2-.3.2-.5z"/></g><g id="XMLID_20_"><g id="XMLID_156_"><g id="XMLID_160_"><g id="XMLID_161_"><path id="XMLID_229_" transform="rotate(-33.307 129 174.188)" class="st0" d="M114.2 146.1h29.5v56.2h-29.5z"/><g id="XMLID_162_" class="st1"><g id="XMLID_163_"><path id="XMLID_228_" d="M118.8 147.3c0-.3.5-.6.7-.3-.5-.1-.3.3-.3.5l.1-.1c0 .2-.4.3-.2.5-.1-.3-.6-.5-.7-.1 0 .4.1.3.2.5l.1-.2c-.1.1.1.6-.2.6.1.8 1.2.8 1.7 1.3-.4-.3-.8-.1-1.2-.5-.5-.5-.8-1.2-.8-1.9.2-.1.5-.9.6-.3z"/><path id="XMLID_227_" d="M120.6 147.9c.2.3.3.9.1 1.1.6-.6-.9-.7-.3-1.2-.3-.2-.6-.5-.8-.8.3.4 1.1.2 1 .9z"/><path id="XMLID_226_" d="M120.7 149.2c.1.1.2.2.2.4l-.4-.4c.2-.1.2.2.2 0z"/><path id="XMLID_225_" d="M120.6 149.8c-.3-.1-.1-.2-.2-.5l.2.5z"/><path id="XMLID_224_" d="M126 148.4c.6.2 1.1.8 1.3 1.4l.1 1c-.3 0-.6.1-.3.4.3.1.5 0 .6-.1 0 .2.4.3.3.6.6-.5 1.4-.6 2.1-.3v.5c1.1-.4 1 .8 1.9 1.1 1.7.5.1 1.3 1.8 1.9-.4 0-1-.1-.8.5.2.4.9.1 1.1.6-.4.5-1.8-.7-1.4.6.3.4.2 1 .3 1.4 1.1.7 1.1 2.5 2.7 2.8-.6-.3-.5.5-.8.7.2.8.9.9 1.3 1.4-.2.3.1.6-.4.7-.7-.8-1.2-1.7-2-2.3-.4.2-1 .1-1 .7.1 1.4-.4 3.2.1 4.1-1.1-1.9-2.6-3.6-3.7-5.4-1.1.4.6 1.1 0 1.5-.5-.5-1-.1-1.6 0l-1.2-1.8c-.3-.1-.4.1-.6.2-.9-.4-.1-1.8-1.3-2.1-.3-.7.2-1.4-.2-2-.7 0 .2.6-.1 1-.3-.1-.2-.8-.7-.7-.3.6.3 1.5-.5 1.8 0-.6-.7-.2-.8-.6-.5.1-.2.5-.1.7-.5 0-.3-.7-.6-.8-.3.2.2.8-.4.6 0-.3-.2-.6-.4-.7-.3.2.1.5-.1.7-.5-1.4-1.9-2.6-1.6-4.3.1-.7.6-1.4 1.1-1.7.5 0 1.6-.5 1.9.2.5.1.9.6 1.3.9.1-.3.1-.8.6-.9.5.8-.3 1.7.2 2.5.3-.5.8-1.1.6-1.6.4-.6 1.4-.4 1.2-1.2.1.1.3.1.4.1.2-.3.1-.4.2-.8-.9-.1-1.9-1.1-1.7-2.2 0-.8.7-1.2 1.2-1.1z"/><path id="XMLID_223_" class="st2" d="M126.2 148.6c.1.5.3.4.7.6h-.2c-.1.5.8.1.4.7 0 .1-.1-.3-.3-.1 0 .2.3.1.2.3-.1-.1-.4-.2-.6-.2-.2.3-.4.3-.8.6h.4c-.3 0-.3.3-.5.4-.3-.3-.2-.7-.6-1.1.3.4 0-.3.4-.4-.3.2-.5-.2-.3-.3l.1.1.2-.3v.1c.3-.6 0 .4.4 0l-.2-.4h.7z"/><path id="XMLID_222_" class="st3" d="M125.8 149.4c.1-.1 0-.2.2-.2 0 .2.1 0 .2 0 0 .5-.4 0-.5.4-.2-.1-.2-.2-.2-.4.2-.1 0 .1.3.2z"/><path id="XMLID_221_" class="st3" d="M125.5 149.9c0-.1-.2-.4-.3-.3l.4.1-.1.2z"/><path id="XMLID_220_" class="st2" d="M119.8 154c0 .5-.2.6-.1 1.3.2 0 .3-.4.4 0h-.2c-.4.7.9.3.6 1.1l.1-.1c.2.4 0 .4.4.8-.3-.3-.4-.1-.6.1 0-.4-.7-.6-.4-1.1l.3.1c-.1-.5-.9-.8-.8-1.1l.1.1c0-.4.2-1.1-.2-1 .2-.1.4-.1.4-.2z"/><path id="XMLID_219_" class="st2" d="M125.8 150.8l.1-.2.1.2z"/><path id="XMLID_218_" class="st2" d="M120.4 154.6v-.1c.5.4-.4.1-.4.6.1-.4 0-.5.4-.5z"/><path id="XMLID_217_" class="st2" d="M120.3 155l-.1.2v-.2z"/><path id="XMLID_216_" class="st2" d="M119.9 156l-.3-.2h.3z"/><path id="XMLID_215_" class="st2" d="M120.8 155.9l-.1-.1z"/><path id="XMLID_214_" class="st2" d="M121.1 155.9l-.3-.3.2.2z"/><path id="XMLID_213_" class="st3" d="M120.4 156.4l.2-.1-.2.1z"/><path id="XMLID_212_" class="st2" d="M121.2 156.1h.1-.4.3z"/><path id="XMLID_211_" class="st2" d="M121.5 156.1l.3.3-.3-.3z"/><path id="XMLID_210_" class="st2" d="M120.4 157.2l-.1-.1z"/><path id="XMLID_209_" class="st2" d="M121.3 157l-.1-.3v-.1z"/><path id="XMLID_208_" class="st2" d="M120.5 157.3c.1.2-.1 0-.1 0h.1z"/><path id="XMLID_207_" class="st2" d="M121.1 157.6h.3l-.2-.3c.5.2.1.3-.1.5-.1-.3-.3-.4-.2-.7.1.2.1.3.2.5z"/><path id="XMLID_206_" class="st2" d="M121.6 156.9c.1.2-.1 0-.1 0h.1z"/><path id="XMLID_205_" class="st2" d="M121.9 157.3c.1.2 0 .1 0 0z"/><path id="XMLID_204_" d="M123.8 162.1l-.2.1.1-.1z"/><path id="XMLID_202_" class="st2" d="M133 160.8v.1c-.1-.1-.3-.2-.3-.3.1 0 .1.2.3.2z"/><path id="XMLID_201_" class="st2" d="M132.2 161.7c-.1 0-.3.1-.2.3-.2-.2 0-.2.2-.3z"/><path id="XMLID_199_" d="M134.2 167.1c.3 1.2 1.4 1.8 2 2.6.7 0 1.5.7 1.6 1.5-.2-.1-.3-.8-.7-.5.6.6-.3.4.4 1l.3-.2c-.2 1-.6 1.8.3 2.7.4.7 1 1.5 1.3 2.2.2.4-.1.3-.4.4-1.3-1.2-1.6-3.4-3.1-4.2-1-.6.2-1.4-.4-2.1-.1.1 0 .2 0 .2-.1-.4-.6.3-.6-.2.1.7-.2 1.4.2 1.9-.6-2.2-1.4-4.4-2.3-6.3.7.2.8 1 1.4 1z"/><path id="XMLID_197_" d="M129.8 172.5c.7.6.3 1.5.5 2.3-.3 0-.5-.4-.8-.4.2.1.3 0 .5-.2h-.1c0 .1.1.2.2.2.2-.3.3-.9.1-1.1l-.4-.1.3-.1c-.2-.3-.4-.8-.8-.9-.1.3-.4.7-.7.5.2-.3.8-.7 1.2-.2z"/><path id="XMLID_196_" class="st4" d="M135.5 169.2c-.4.2-.1-.3-.5-.3.2-.2.4.4.5.3z"/><path id="XMLID_195_" d="M129.1 174c-.1-.3-.5-.5-.4-.9-.1.5.4.4.4.9z"/><path id="XMLID_194_" class="st4" d="M135.5 169.8h-.2c.2.2-.3.5.2.6 0-.1.1-.1.1-.2.1.5-.6.2-.6 0 .3 0 .1-.4.1-.6-.2.1-.5 0-.4-.4.1.2.5.6.8.6z"/><path id="XMLID_193_" d="M129.4 174.3l-.3-.2h.2z"/><path id="XMLID_192_" class="st4" d="M135.5 170h.2-.2z"/><path id="XMLID_191_" class="st4" d="M136.5 170.7l-.3-.1h.1z"/><path id="XMLID_190_" class="st5" d="M135.5 171.2c-.2.2.2.4-.2.4-.1-.3.4-.3.2-.4z"/><path id="XMLID_189_" class="st4" d="M136.3 171.5c-.3.1-.1-.1-.4-.4l.4.4z"/><path id="XMLID_188_" class="st4" d="M137.1 170.5v-.2.1z"/><path id="XMLID_187_" class="st4" d="M136.7 171l.3.3c-.5.5-.3-.3-.6-.4.1.1.3-.1.3.1z"/><path id="XMLID_186_" class="st4" d="M136.1 171.8l-.2-.2.2.1z"/><path id="XMLID_185_" class="st4" d="M137.4 171.8v-.2l.1.1z"/><path id="XMLID_184_" d="M136.2 173.4c.4.6.8 1.2.5 1.9-.2.2-.2.6-.5.7-.6-.2-1.1-.4-1.5-1-.2-.5-.3-1 0-1.5.4-.6 1.1-.3 1.5-.1z"/><path id="XMLID_183_" d="M131.6 177.4c.2.2 0 .5-.1.7-.2.1-.5 0-.7-.2-.4-.5.5-1 .8-.5z"/><path id="XMLID_182_" class="st4" d="M135.6 174.7l-.4.1c.3-.1.1-.6.4-.1z"/><path id="XMLID_181_" class="st4" d="M137.5 173.5l-.1-.2h.1z"/><path id="XMLID_180_" class="st4" d="M135.9 174.6c0-.2.8.1.5-.4.3.1.1.6.2.6l-.3-.2c-.1.3.3.3 0 .7l-.4-.1c.3-.4.2-.2 0-.6z"/><path id="XMLID_179_" class="st4" d="M135.8 175.3l.5.2c-.4.2-.6-.4-.9 0 .2-.2-.3-.6.1-.7.2.4.3.2.3.5z"/><path id="XMLID_178_" class="st4" d="M138 174.1l-.2-.2.2.1z"/><path id="XMLID_176_" d="M125.9 185c.7 2-.5 3.9-.8 5.8-.3.2-.6 0-.7-.2-.3-.9.5-1.7.1-2.7 0-1.1 0-2.3.8-3.2.2-.1.5 0 .6.3z"/><path id="XMLID_175_" class="st4" d="M138.9 176.1c-.1-.1.1-.3.2-.1-.1.1-.4.5-.5 0l.3.1z"/><path id="XMLID_174_" class="st4" d="M139.4 176.4c-.1.6-.2-.2-.4.2-.1-.3.2-.4.4-.2z"/><path id="XMLID_173_" d="M132 184.9c.5.3.4 1 .3 1.3-.3-.5-.1-.8-.2-1.1h.1l-.2-.2c-.4.1-.1.5-.4.6-.1-.3-.3 0-.4-.4-.4.1 0 .7-.1.9.1-.1.6.6 1.2.3l.1.6c-.4.1-.4-.5-.9-.4-.4-.4-.7-1-.5-1.6.3-.3.7-.2 1 0z"/><path id="XMLID_172_" class="st6" d="M131.6 185c-.1 0-.3.1-.3-.1l.3.1z"/><path id="XMLID_171_" d="M133.2 196.6c.8.6.3 1.5.4 2.2-.3-.4-1-.5-1.2-1.1-.1-.3-.2-.7 0-1 .2-.2.6-.1.8-.1z"/><path id="XMLID_170_" class="st2" d="M133.1 196.9c.1.3.3.9.4 1.1 0 .5-.7-.1-.2.4-.2-.1-.3-.4-.7-.4.3-.4 0-.7-.2-.9.3-.3.5-.1.7-.2z"/><path id="XMLID_169_" d="M134 202.7c.4.5.4 1.1.2 1.7-.4.1-.7-.3-1-.6 0-.4-.2-.6.1-1 .2-.3.4-.3.7-.1z"/><path id="XMLID_168_" class="st2" d="M133.3 203.1c.2.1.2-.4.4-.1l-.1.1s-.3.1-.3 0 0-.1 0 0z"/><path id="XMLID_167_" class="st2" d="M133.4 203.6c-.1 0-.3-.1-.1-.2l.1.2z"/><path id="XMLID_166_" class="st2" d="M134.2 203.6c-.6-.3.1.6-.5.4l.2-.2h-.1c-.1-.3.2-.4.4-.4v.2z"/><path id="XMLID_165_" d="M130.7 202c.2.3.5 1.1-.1 1.2-.4 0-.6-.4-.7-.8 0-.3 0-.4.1-.6.3-.1.6.1.7.2z"/><path id="XMLID_164_" class="st2" d="M130.2 202.6c.2.1.2-.3.4-.4l.3.4c-.5-.4.1.4-.4.5-.2-.1-.3-.2-.4-.6l.1.1z"/></g></g></g></g></g></g><g id="XMLID_1061_"><g id="XMLID_81_"><g id="XMLID_85_"><g id="XMLID_86_"><g id="XMLID_87_" class="st7"><path id="XMLID_88_" d="M195.3 109c.6-3.6.9-9.4.1-16.4-.5-3.5-1.1-7.3-2.2-11.1-.5-2-1.2-3.9-1.8-5.9-.7-1.9-1.5-3.9-2.4-5.9-3.4-7.8-8.3-15.2-13.6-21.3-5.3-6-10.9-10.8-15.4-13.9-3.5-2.4-6.8-4.2-9.7-5.8-1.5-.7-2.9-1.4-4.2-2-1.3-.5-2.5-1.1-3.7-1.5-1-.4-1.1-.4-.6-.3.3.1.7.2 1.3.4.6.2 1.3.5 2.2.9 3.4 1.4 8.9 4 14.8 8.2 2.6 1.9 5.5 4 8.3 6.5 1.5 1.2 2.9 2.7 4.3 4.1 1.4 1.5 2.9 3.1 4.3 4.8-3.2-4.6-6.9-8.7-10.6-12.3-3.7-3.5-7.5-6.5-10.8-8.8-5.1-2.8-10.6-5.1-16.4-6.8-12.7-3.6-26.2-4-39-1-6.4 1.5-12.6 3.7-18.4 6.6-5.9 2.9-11.4 6.6-16.5 10.8-1.9 1.5-4.2 3.6-6.6 6.1-2.4 2.5-4.9 5.4-7.2 8.5-4.7 6.1-8.3 12.8-10.4 17 0 0 0-.1.1-.3.1-.2.2-.5.4-.9.4-.8.9-1.9 1.6-3.4 1.5-2.8 3.7-6.9 6.9-11.4s7.4-9.4 12.5-14.1c2.5-2.4 5.3-4.6 8.2-6.7 3-2 6.1-4.1 9.3-5.8 6.5-3.5 13.5-6 20.2-7.5 6.7-1.6 13.2-2 18.7-2s10.1.7 13.2 1.3c1.6.3 2.8.5 3.6.7.8.2 1.3.3 1.3.3-.5-.2-1-.3-1.5-.5-.5-.1-1-.3-1.5-.4 0 0-.9-.2-2.6-.5-1.7-.2-4.1-.7-6.9-.9-2.9-.3-6.3-.4-9.9-.3-3.6.1-7.5.4-11.4 1.1-7.7 1.2-15.1 3.9-20.4 6.4-.7.3-1.3.6-1.9.9-.6.3-1.2.6-1.7.9-1.1.6-2 1-2.7 1.5-1.5.9-2.3 1.4-2.3 1.4-1.5.9-3 2-4.5 3-1.4 1.1-3 2.1-4.4 3.3 0 0 .5-.4 1.3-1.1.8-.6 1.9-1.4 3-2.2 1.1-.8 2.3-1.5 3.1-2.1.8-.6 1.4-.9 1.4-.9 3.9-2.5 8-4.7 12.2-6.6 4.3-1.9 8.8-3.5 13.8-4.7 1.5-.4 3.1-.6 4.8-.8 1.6-.2 3.3-.4 5-.5 3.3-.2 6.7-.2 9.8-.1 5.1.2 9.7 1.2 14.3 2.5 0 0 .6.1 1.4.3.8.2 2 .5 3.1.8 1.1.3 2.2.7 3 .9.8.3 1.4.4 1.4.4.9.2 1.8.5 2.7.8l-.1-.1c-1.6-1.2-7.4-4-16-5.7-8.6-1.9-19.9-2.3-31.2 0-5.6 1.1-11.2 2.9-16.3 5.1-5.1 2.2-9.8 4.9-13.8 7.6-8 5.5-13.4 11.1-15.5 13.7-3.5 4.2-6.1 8.6-8.4 13.4-2.3 4.7-4.3 9.7-6.4 15.2-.7 1.8-1.4 3.5-2 5.1-.6 1.6-1.1 3.1-1.3 4.6.2.4 0 1.9-.2 3.4-1.8 7.5-3.6 15.2-2.9 21.2.1 2.1-1 6-1.7 9.7-.2.9-.4 1.8-.5 2.6-.1.8-.2 1.6-.3 2.3-.1 1.3-.2 2.3.1 2.5 1.8 1.4 2 1.6 2 2.7s-.4 3.1.7 8c.1.6.7 1.8 1.4 3.1s1.5 2.7 1.8 3.9c.5 2 1 3.6 1.5 5 .6 1.4 1.2 2.6 1.8 3.9.7 1.2 1.4 2.5 2.3 3.9.4.7.9 1.5 1.5 2.3.5.8 1.1 1.7 1.7 2.7 1 1.4 1.8 2.7 2.7 3.9.8 1.2 1.5 2.3 2.3 3.2.7 1 1.3 1.9 2 2.8.6.9 1.3 1.7 1.9 2.5 2.5 3.1 5.1 6.1 10.3 9.5.3.2 1.5 1.1 3.1 2.2 1.7 1.1 3.7 2.6 5.9 3.8 1.1.6 2.1 1.3 3.1 1.8s1.9 1 2.7 1.4c1.6.8 2.7 1.3 2.7 1.3 1.6.9 3.2 1.6 4.7 2.4 1.6.6 3 1.3 4.5 1.8 2.9 1 5.7 1.8 8.4 2.5 5.4 1.3 10.4 2.3 16.2 3.7 6.7-.6 14.4-1 22.2-2.5 3.9-.7 7.7-1.8 11.4-3 3.7-1.3 7.2-2.8 10.2-4.7 6.2-3.6 10.3-6.5 14.4-9.2 4-2.8 7.9-5.5 12.5-10 2.5-2.7 4-5 5.5-6.5 1.6-1.6 3.4-6.5 5.2-9.7l.3 1.2c.3-.5.8-1.3 1.3-2.1s.9-1.6 1.2-2.2c.6-1.1.7-.7.8-.3.2.8.5 1.6 1.8-.2 2.6-4.6 4.9-9.6 6.6-14.8 1.1-5.4 1.6-10.8 1.7-16.1-.3-.3-.7-.7-.9-1.5 0-1.6-.2-3.1-.3-4.7-.8-1-1.7-.7-2.2-1.3-1.2-.1-2.3-1.7-3.4-3-1.1-1.4-2.2-2.5-3.3-1.8-.3.3-.6 2.4-.9 5-.2 1.3-.5 2.6-.7 3.8-.3 1.2-.7 2.4-1.1 3.2-.4.8-1-1.2-1.7-2.1-.1 1.1-.3 2-.5 2.6-.2.6-.4 1-.6 1.2-.4.3-.7-.1-1-1.1-.2 1-.5 2-.5 2-.2-.3-.9-1.2-.9-1.2-1.4 5.4-3.6 10.9-6.1 16.1-2.5 5.2-5.2 10.1-7.6 14.8-1.1 2-2.7 5.4-4 7.7-.3.6-1 1.3-1.7 2s-1.5 1.3-1.8 1.6c-.6 1.8.2 2.3.2 3.4-.8.6-1.7 1.4-2.7 2.2-1 .8-2 1.6-3.2 2.4-.6.4-1.1.8-1.7 1.2l-1.7 1.2c-1.1.8-2.3 1.5-3.4 2.3-1.1.7-2.1 1.4-3.1 2-.9.6-1.8 1.2-2.4 1.7-1.3 1.1-2 1.9-1.5 2.5-3 1.4-4.6 2.4-6.4 3.5-.9.5-1.8 1-2.9 1.6-1.1.5-2.4 1-4 1.6-4.4 1.3-9.5 2.4-15 2.8-5.5.4-11.3.2-17-.8-6.3-.9-12.1-2.8-17.7-5.3-1-.5-2.1-1-3.1-1.5s-1.9-1-2.9-1.5c-10.1-5.6-18.1-13.2-24.2-21.6-6.2-8.4-10.5-17.6-13.2-27.1-2.7-9.6-4-19.5-3.7-29.7.3-10.2 2.2-20.8 6.1-31.4C51 63.2 57.4 53 65.7 44.8c8.3-8.2 18.5-14.6 29.4-18.2 10.9-3.6 22.4-4.4 33.2-2.8 10.8 1.6 20.6 5.6 28.9 10.9 4.1 2.7 7.9 5.7 11.3 8.8 3.3 3.2 6.3 6.6 8.8 10 1.3 1.7 2.4 3.4 3.6 5.1 1 1.8 2.1 3.4 3 5.2 1 1.7 1.7 3.4 2.5 5.1.4.8.7 1.7 1.1 2.5.3.8.7 1.6 1 2.4 2.4 6.5 3.8 12.3 4.5 17.2.7 4.9 1 8.8 1.1 11.6 0 0 .1.4.2 1s.3 1.4.5 2.2c.2 1.6.5 3.2.5 3.2z"/></g></g></g></g></g><g id="XMLID_734_"><path id="XMLID_1060_" class="st0" d="M232.5 54.1l-108 7.5 5.6 92.6"/><g id="XMLID_813_" class="st7"><path id="XMLID_1059_" d="M187.1 57.2c-.5.7-1.1 1.5-1.2 2.4.3.7 1 .1 1-.1 2.1 1.4 2.5 4 4.9 4.7-.3.3-.6.5-.8.8 1 1.6.9 3.6 1.6 5.2-1.3 1.4.2 2.8-.7 4.2l-.8-.2c-.5 1-.4 2.3-.7 3.3 1.2 1 1.4 2.5 1.7 4.2-.3.9-.7 2.2-.9 2.8.1-.4-.1-.7-.4-.9-1.1.1-.7 1.7-1.8 2.1-.7-1-.3-2.9-2.1-2.7 0 1.4 1.2 3.1.6 4 0-.7-.4-1.2-.7-1.7-1.5.8-.3 2.8-.2 4.2-.1 1.5 1.8 2.8.7 4.4-2.7-3.8-5.3-7.8-6.8-12.5-2.1-4.7-2.6-10.1-2.8-14.8.5-4.8 5.2-5.4 7.4-8.5.3-1.3 1.4-.3 2-.9z"/><path id="XMLID_1058_" class="st2" d="M180.7 66.2c-.1.4-.6 0-.3-.2l.3.2z"/><path id="XMLID_1057_" class="st2" d="M180 68c-.7.6-.7-.6-.9-1l.5.6.7-1c.1.5-.7.9-.3 1.4z"/><path id="XMLID_1056_" class="st2" d="M180.7 67.4l-.2.1c0-.1 0-.3.2-.1z"/><path id="XMLID_1055_" class="st2" d="M180.8 68.8l.3.1-.3-.1z"/><path id="XMLID_1054_" class="st2" d="M181.1 69.8c.2.1-.1.3-.1.4 0-.1-.2-.4.1-.4z"/><path id="XMLID_1053_" class="st2" d="M180.2 70.5c-.3.1-.5-.3-.3-.5.2.1.3.1.3.5z"/><path id="XMLID_1052_" class="st2" d="M178.8 70.8l-.2-.5.1-.1z"/><path id="XMLID_1051_" class="st2" d="M182 74l-.1.4.1-.4z"/><path id="XMLID_1050_" class="st2" d="M181.5 74.8c0 .7.3.5-.2 1.2.7-.5-.5-1.2.2-1.4-.1.1 0 .2 0 .2z"/><path id="XMLID_1049_" class="st2" d="M182.5 75.3v-.4l.1.3z"/><path id="XMLID_1048_" class="st2" d="M181.7 75l.5.2-.5-.2z"/><path id="XMLID_1047_" class="st2" d="M179.2 75.3l.5.1-.5-.1z"/><path id="XMLID_1046_" d="M234 78.8c-.3-.5-.4-1.3-.9-1.4.9-.3 1.2.7.9 1.4z"/><path id="XMLID_1045_" d="M233.2 79.1c.2-.3.2-.5.5-.1-.6.6-1.7-.1-1.2-.9.4.5 0 1.1.7 1z"/><path id="XMLID_1044_" d="M204.4 83.2c1.1 2.8-.4 4.9-.2 7.8-1.2-.1-1.7-1.5-2.8 0-.4.4.3.5.2.8-.5-.6-1.2.5-1.9.7.1.7.5 1.5.3 2-.9.1-1.7-2.5-2.3-.5l.3 1.4c-1.3-.1-.2-2.7-1.8-2.7l-.9 1.6c-.2-.6.6-1.9-.5-1.9s-.2 1.1-1 1.3c-.8-1 .9-3.5-1.1-3.3-.7 0-.1 1.7-.7.6 1.2-1.6-.9-2.6.5-4.3 1.6-1.2-.1-3.2 2.1-3.8.1-1.4 1.8-1 2.4-1.4 2.3 2.6 2.9-1.3 5.4 0 1 .1 1.5 1.1 2 1.7z"/><path id="XMLID_1043_" transform="matrix(-.9976 .06947 -.06947 -.9976 396.791 156.926)" class="st2" d="M195.6 85.1h.2v.6h-.2z"/><path id="XMLID_1042_" class="st2" d="M193.8 86.4c-.2.1-.1-.2-.1-.2.1-.1 0 .1.1.2z"/><path id="XMLID_1041_" class="st2" d="M194.6 86.7l.1-.3.3.3z"/><path id="XMLID_1040_" class="st2" d="M195.1 87.1c-.1.3-.2.1-.4-.1.2.1.4 0 .4.1z"/><path id="XMLID_1039_" class="st2" d="M194.6 88.4c-.6 1.1-.5-.6-1.4-.6.3.2.7-.3.5-.6.1.4.5 1.1.9 1.2z"/><path id="XMLID_1038_" class="st2" d="M202.5 87.1c-.3-.4-.4-.1-.6 0 .2-.5.4-.5.6 0z"/><path id="XMLID_1037_" class="st2" d="M193.3 87.4c0 .1 0 .3-.1.3 0-.2-.1-.4.1-.3z"/><path id="XMLID_1036_" class="st2" d="M192.6 88l.2-.4-.1.4z"/><path id="XMLID_1035_" class="st2" d="M195.5 88.1c-.1-.2-.7-.1-.4-.5.1.3.2.1.4.5z"/><path id="XMLID_1034_" class="st2" d="M201.9 87.4l.2.3-.2-.3z"/><path id="XMLID_1033_" class="st2" d="M195.2 88.9l-.1-.5.2.2z"/><path id="XMLID_1032_" class="st2" d="M202.1 88.8c-.6-.8-.1.8-.6-.1.3-.5.5 0 .6.1z"/><path id="XMLID_1031_" class="st2" d="M194.2 89.3c.3.4.5.6.9.4-.6-.2-1.4.2-1.5-.3.3.1.3.1.6-.1z"/><path id="XMLID_1030_" class="st2" d="M192.8 89.9l.2-.3-.1.3z"/><path id="XMLID_1029_" transform="matrix(-.9976 .06947 -.06947 -.9976 408.302 165.648)" class="st2" d="M201.2 89.4h.1v1h-.1z"/><path id="XMLID_1028_" class="st2" d="M195.2 91.2c-.5 0-.3-.1-.8-.2l.4.7-.1-.1-.1.5c-.4-.9.1-1.4.6-2-.3.6.2.9 0 1.1z"/><path id="XMLID_1027_" class="st2" d="M196.2 90.9c-.2.1-.3-.1-.4-.1-.5.2.1.6 0 .6-.6.1.1-.4-.4-.7.3 0 .9-.3.8.2z"/><path id="XMLID_1026_" class="st2" d="M197.3 91.3c-.2-.5-.7.1-.5-.6.2.4.7.3.5.6z"/><path id="XMLID_1025_" class="st2" d="M196.3 92.4c0-.8-1-.2-.3-1 .2.1.8.7.3 1z"/><path id="XMLID_1024_" class="st2" d="M197 92.5l-.1-.4v.1z"/><path id="XMLID_1023_" transform="matrix(-.9976 .06947 -.06947 -.9976 397.767 171.247)" class="st2" d="M195.9 92.3h.1v.4h-.1z"/><path id="XMLID_1022_" d="M189.4 98.3l.1.9-.1-.9z"/><path id="XMLID_1021_" d="M188.6 99.4l.5 1.6-.5-1.6z"/><path id="XMLID_1020_" d="M190 101.8l.1-.2.3.3z"/><path id="XMLID_1019_" d="M189.4 102.8c.2.2-.1.4 0 .6-.1-.2-.2-.6 0-.6z"/><path id="XMLID_1018_" d="M205.2 104.2c.3 1.4 1.4 2.7.5 4.1.2 2.5-.6 5.5-2.6 6.6-.3 3.6 3.2 6.5 2.4 10.1-1.5.2-1.4 1.8-2.6 2.4 0 .7 0 1.4-.4 1.9-.6-.6.6-2.8-.8-2.9l.1 2.4c-.3-.3-.1-1.3-.3-1.8-1.1-.5-1.8 1.1-1.7 2-.8-.5-.1-1.5-.1-2.3-1-.4-.4 1.1-1.4 1 1.7 1.4 2 3.4 1.4 5.6-.8.9-1 2.9-2.3 3-.7-.3-.8-1.7-1.7-1.1-1 1.1-1.2 1.9-1.2 3.4-.3.8-.9 0-1.3-.2-.2-.5-.5-1.2-1-1.5.6 1.5 0 3.1-.7 4.5-.8.1-1.8-1.1-2.1-2.1-.1-.9 0-1.9.5-2.7.6-.9 1.4.1 2-.1-1-1.2-2-2.5-1.7-4.4.2-1.2.6-2.2 1.6-3.1 1.1-.8 1.8 0 2.9.4.4-1.1 1.1-2.1 2.3-2.4l1 .3c-.1-2.7-1.1-5.4-.1-8 .6-1.1.7-2.8 2.2-3 .6-.7 1.8-.1 2.5.3.1-.9.3-2.1-.7-2.6-.1.2.4 1.5-.3 1.5-.9-1.1-1.4-2.6-1.3-4-.7-.1-.6.8-1.2.8.3-2.6-1.7-5.4.2-7.7-.2-1.1 1.2-1.8 1.6-2.4 1.6-.3 3.4.5 4.3 2z"/><path id="XMLID_1017_" transform="matrix(-.9976 .06947 -.06947 -.9976 385.733 194.313)" d="M189.4 103.7h.1v.3h-.1z"/><path id="XMLID_1016_" class="st2" d="M200.9 103.6c-.4 0-.2-.3-.1-.5-.3.2 0 .7.1.5z"/><path id="XMLID_1015_" class="st2" d="M200.5 103.9c-.5-.1 0 .5-.1.8.2-.4.6.3.8-.2-.1.4.2.4-.2 1.1-.3 0-1.4-.4-1.5.6.7-1.3.4-1.1.7-2.6l.3.3z"/><path id="XMLID_1014_" d="M190.6 104.5l-.2.4.2-.4z"/><path id="XMLID_1013_" class="st2" d="M203.7 104.1c0 .6.5-.2.3.4l-.3-.4s.3-.2 0 0z"/><path id="XMLID_1012_" class="st2" d="M203.1 104.4h.4-.4z"/><path id="XMLID_1011_" d="M200.7 104.8c-.2.1-.1.3-.1.4l-.2-.4h.3z"/><path id="XMLID_1010_" class="st2" d="M204.8 106.8l-1-.7h.2c0-.7-.5-.5-.2-1.2.3.3.7 1.5 1 1.9z"/><path id="XMLID_1009_" class="st2" d="M201.5 105.4l-.1-.3h.4z"/><path id="XMLID_1008_" class="st2" d="M203.4 105.5c.3.3.1 1.1-.3 1.4-.6 0-1.7-.4-1.5.8v-.6l-.1.2c0-1.1-.8.1-1 .2.4-.5-.5-.9.1-.9v.1c0-.3.8.1.8-.5-.1 1.6.4-.5 1 .8-.2-.5.6-.3.3-.9.4-.1.6 1.3.9.3-.8-.4.2-.9-.6-1.3l.4.4z"/><path id="XMLID_1007_" class="st2" d="M200.9 106.2c-.3.4-.6-.3-.8-.4.1.4.7.1.8.4z"/><path id="XMLID_1006_" class="st2" d="M202 106c-.2 0-.2.1-.5.1.1-.1.3-.1.5-.1z"/><path id="XMLID_1005_" class="st2" d="M204.4 105.8l.4.1-.4-.1z"/><path id="XMLID_1004_" class="st2" d="M199.2 107.3l-.1.3.1-.5v.2z"/><path id="XMLID_1003_" class="st2" d="M200 107.2c-.5 0-.2.7-.4.5-.2-.2.1-.8.4-.5z"/><path id="XMLID_1002_" class="st2" d="M204.5 107.5c.6.3-.6-.4-.6.4-.3-.5.1-.9.5-1l.1.6z"/><path id="XMLID_1001_" class="st2" d="M203.5 107.8l-.2.1c.1-.2.1-.4.3-.4 0 0 .1.3-.1.3z"/><path id="XMLID_1000_" class="st2" d="M202.3 107.7c-.1.3.1.8-.1 1.4.2-.5-.6-.8-.3-1.3l.1.4.3-.5z"/><path id="XMLID_999_" class="st2" d="M200.9 108.2c-.5.4.4 1-.4 1-.5-.5-1.2 0-1.4-.6 1.3.8.4-.9 1.8-.4z"/><path id="XMLID_998_" d="M200.5 108.7c-.4-.1-.3-.3 0-.4-.1.1.1.3 0 .4z"/><path id="XMLID_997_" class="st2" d="M202.7 108.5l.2-.4-.1.3z"/><path id="XMLID_996_" class="st2" d="M201.2 108.6l.2-.3.2.1z"/><path id="XMLID_995_" class="st2" d="M203.8 108.9l.1-.3v.2z"/><path id="XMLID_994_" class="st2" d="M203 109.4c-.3-.1 0-.7.1-.5l-.1.5z"/><path id="XMLID_993_" class="st2" d="M205 109.3c-.2.1-.6 0-.7.2.1-.5.3-.7.7-.2z"/><path id="XMLID_992_" class="st2" d="M199.7 110.8c0-.1.2-.2.1-.3-.2.4.7 1.3-.1 1.2-.1-.4 0-.8-.4-1.2l.4.3z"/><path id="XMLID_991_" transform="matrix(-.9976 .06947 -.06947 -.9976 409.382 206.772)" class="st2" d="M201.1 110.3h.1v.3h-.1z"/><path id="XMLID_990_" d="M196.8 112.5l.2.7c-.1-.3-.3-.9-.7-1.2-.8.5-.1.1-1-.3-.9.9-.4 1.7-.5 2.7.9-.1.6 1.3 1.4.7.1-.5.6-1.1.6-1.6 0 .7-.4 1.3-.8 1.9-.7-.2-1.3-1.1-1.4-1.9-.1-.8.1-1.6.8-2 .6 0 1.2.5 1.4 1z"/><path id="XMLID_989_" class="st2" d="M202.3 111.4c.1.4-.1-.1-.2-.2l.2.2z"/><path id="XMLID_988_" class="st2" d="M204.2 111.1l.1.3-.1-.3z"/><path id="XMLID_987_" d="M147.8 120.3c.1 1.1-.3 2.1-.8 2.9-.8-.3-1.6-.7-1.7-1.7.2-.7.2-1.5.8-2 .6-.3 1.4.2 1.7.8z"/><path id="XMLID_986_" class="st2" d="M145.8 120.3l-.1.7.1-.7z"/><path id="XMLID_985_" class="st2" d="M147.4 121.4l-.1-.2c-.1.6-.4 1-.7 1.4-.5.1-.5-1.1-.9-.4-.3-.4.5-1.1.6-1.7.2 0 .6.2.7 0l-.1-.3c.6-.1.3.8.5 1.2z"/><path id="XMLID_984_" class="st2" d="M201.4 119.6l.3-.4.4.2z"/><path id="XMLID_983_" class="st2" d="M201.4 119.9l-.1.8.1-.8z"/><path id="XMLID_982_" class="st2" d="M203.6 122c-.3-.1-.2-.4 0-.7v.7z"/><path id="XMLID_981_" class="st2" d="M200.4 122.4c-.1-.2-.5.5-.6 0h.6z"/><path id="XMLID_980_" class="st2" d="M202.8 122.6c0 .2.3.3.4.1 0 .8-1-.1-.7.7.2-.6 1 .3.9.4-.5.1-1.7-.2-1.2.7 0 .2.2-1.2-.5-.7v.3c-.4-.7.1-.4.7-.6l-.3-.1c.2-.6.4-.6.7-.8z"/><path id="XMLID_979_" class="st2" d="M201 123.5c-.3-.1 0-.5.1-.7l-.1.7z"/><path id="XMLID_978_" class="st2" d="M200.4 123.8c-.1.3-.5.3-.6.1.2 0 .5-.6.6-.1z"/><path id="XMLID_977_" class="st2" d="M199.8 124.6l-.1-.2.4.1z"/><path id="XMLID_976_" class="st2" d="M202.6 124.7l.2-.4.1.5z"/><path id="XMLID_975_" class="st2" d="M201.1 124.9c0 .2-.1.2-.2.4l.4-.7c0 .2.1.5-.2.3z"/><path id="XMLID_974_" transform="matrix(-.9976 .06947 -.06947 -.9976 415.601 234.627)" class="st2" d="M203.6 124.4h.2v.3h-.2z"/><path id="XMLID_973_" class="st2" d="M201.8 124.9l.4.1-.4-.1z"/><path id="XMLID_972_" class="st2" d="M200.1 125.4l.1.2-.1-.2z"/><path id="XMLID_971_" class="st2" d="M200.8 126l.1.3c-.3.1-.5-.5-.8-.2.2-.8.4.3.7-.1z"/><path id="XMLID_970_" class="st2" d="M201.8 125.9l.3.3-.3-.3z"/><path id="XMLID_969_" class="st2" d="M196.4 131l.3-.3-.1.3z"/><path id="XMLID_968_" transform="matrix(-.9976 .06947 -.06947 -.9976 392.634 250.014)" class="st2" d="M191.9 131.6h.1v.4h-.1z"/><path id="XMLID_967_" class="st2" d="M193.5 133l-.1-.5.2.4z"/><path id="XMLID_965_" d="M135.6 145.8c.4 1.9.9 4.2.1 6-.5 1.4-2.1 2.1-3.4 2.3-.3-1.2-2-1.6-2.4-2.8-.6-1.4-.1-2.9.3-4.3 1.1-1.3 2.4-3.6 4.4-2.6l1 1.4z"/><path id="XMLID_927_" class="st2" d="M180.2 144l-.1-.3h.1z"/><path id="XMLID_888_" class="st2" d="M132.8 148.1c-.2.3-.8.3-.4.7-.4-.6-.3-.7.4-.7z"/><path id="XMLID_846_" class="st2" d="M132.7 150l.3.3-.3-.3z"/></g></g><g id="XMLID_282_"><path id="XMLID_1282_" class="st0" d="M82.7 150c5.9-.6 10 2.6 12.2 7 10.4.5 20.1 5.2 25 16.3.6 1.4 1.1 2.9 1.4 4.4l22.5-24.5-86.7-91.4-44.8 48.8 50.3 53.2c5-8.3 10.8-12.9 20.1-13.8z"/><path id="XMLID_1285_" class="st0" d="M94.3 189.4l-.3-.6c-.2 0-.3-.1-.1-.2 0-.1 0-.1-.1-.1-.5.1-.9.1-1.1.1-.6 0-1.4.2-1.8.2-.6.2-1.3.3-1.9.5-.6.2-1.1.4-1.7.5L99 202l4.8-5.2c-4-.9-7.7-3.3-9.5-7.4z"/><g id="XMLID_434_" class="st1"><path id="XMLID_1206_" class="st4" d="M68.6 147.5v.1l-.4-.4.1-.1z"/><path id="XMLID_1205_" d="M77 136.2c-1.8-1.1-1.4-3.3-2-5 .7-.2 1.3.6 1.9.5-.5-.1-.5.1-.9.6l.1-.1c0-.3-.3-.4-.5-.3-.3.9-.2 2.2.2 2.6h.8l-.7.3c.6.6 1.3 1.5 2.1 1.6 0-.7.5-1.8 1.3-1.6 0 1.1-1.1 2.4-2.3 1.4z"/><path id="XMLID_1204_" class="st4" d="M66.6 146.4c.7-.6.4.7 1.2.4-.4.6-1-.6-1.2-.4z"/><path id="XMLID_1203_" d="M77.9 132.3c.3.7 1.3.9 1.3 1.8-.1-1.1-1.1-.5-1.3-1.8z"/><path id="XMLID_1202_" class="st4" d="M66.2 145h.4c-.5-.4.5-1.2-.6-1.3.1.2-.1.3-.2.5-.3-1.1 1.1-.8 1.3-.3-.5.1 0 1 .1 1.4.4-.3 1.1-.4 1 .6-.3-.2-1.2-.9-2-.9z"/><path id="XMLID_1201_" d="M77.2 131.8l.6.4-.3.1z"/><path id="XMLID_1200_" class="st4" d="M66.1 144.6h-.4.4z"/><path id="XMLID_1199_" class="st4" d="M63.7 143.6l.7-.1-.3.1z"/><path id="XMLID_1198_" class="st5" d="M65.6 141.9c.3-.5-.5-.8.2-.9.4.5-.5.7-.2.9z"/><path id="XMLID_1197_" class="st4" d="M63.9 141.6c.7-.4.3.1 1 .6l-1-.6z"/><path id="XMLID_1196_" class="st4" d="M62.6 144.1l.1.5-.1-.2z"/><path id="XMLID_1195_" class="st4" d="M63.1 143l.1-.1-.9-.4c.8-1.3.9.5 1.4.6-.1-.2-.4.2-.6-.1z"/><path id="XMLID_1194_" class="st4" d="M64.2 140.7l.3.5-.4-.1z"/><path id="XMLID_1193_" class="st4" d="M61.3 141.5l.2.4-.4-.2z"/><path id="XMLID_1192_" d="M63.1 137.1c-1.1-1.1-2.3-2.3-1.9-4.1.3-.5.1-1.4.8-1.9 1.3.2 2.5.3 3.5 1.6.6 1.1 1.1 2.1.7 3.4-.6 1.7-2 1.3-3.1 1z"/><path id="XMLID_1191_" d="M71.1 125.9c-.5-.4-.3-1.1-.1-1.6.5-.4 1-.2 1.5.1 1 1-.6 2.4-1.4 1.5z"/><path id="XMLID_1190_" class="st4" d="M63.8 133.9l.9-.4c-.6.5 0 1.4-.9.4z"/><path id="XMLID_1189_" class="st4" d="M60.4 137.5l.3.6h-.3z"/><path id="XMLID_1188_" class="st4" d="M63.3 134.4c0 .4-1.7.2-.9 1.1-.7-.1-.4-1.4-.6-1.3l.7.4c.1-.9-.7-.6-.3-1.5h.8c-.4 1-.5.5.3 1.3z"/><path id="XMLID_1187_" class="st4" d="M63.2 132.6l-1.2-.1c.8-.7 1.3.6 1.8-.5-.3.6.9 1.2.1 1.6-.6-.6-.6-.1-.7-1z"/><path id="XMLID_1186_" class="st4" d="M59 136.5l.5.4-.4-.1z"/><path id="XMLID_1185_" class="st4" d="M59.4 135.9l-.1.1-.3-.4v-.1z"/><path id="XMLID_1184_" d="M79.6 105.9c-2.4-4.3-.7-9-.9-13.7.6-.6 1.3-.2 1.7.2 1 1.9-.3 4.2 1 6.2.5 2.5 1 5.1-.3 7.6-.5.4-1.1.3-1.5-.3z"/><path id="XMLID_1183_" class="st4" d="M56.3 132.5c.2.2-.2.6-.5.4.3-.3.7-1.4 1.1-.4h-.6z"/><path id="XMLID_1182_" class="st4" d="M55.1 131.9c-.1-1.3.5.3.9-.6.1.6-.4 1-.9.6z"/><path id="XMLID_848_" d="M66.8 109c-1.1-.3-1.2-2-1.2-2.9.9 1 .5 1.8.9 2.4h-.1c.1.4.3.5.5.4.7-.3-.2-.9.4-1.3.3.6.7-.1 1 .6.7-.5-.2-1.5-.1-2-.2.2-1.6-1-2.7-.2l-.5-1.4c.9-.5 1 .9 2.1.5.9.7 2 1.8 1.8 3.3-.5 1-1.3 1-2.1.6z"/><path id="XMLID_457_" class="st6" d="M67.7 108.6c.3-.1.6-.4.7.1l-.7-.1z"/><path id="XMLID_446_" d="M59 83c-1.9-.9-1.3-3.2-1.9-4.7.9.8 2.3.7 3 1.9.3.7.7 1.5.3 2.2-.2.8-.9.6-1.4.6z"/><path id="XMLID_444_" class="st2" d="M58.9 82.4c-.3-.7-1-1.9-1.4-2.2-.2-1.1 1.5-.2.3-1 .5.1.9.8 1.6.6-.5 1 .3 1.6.9 1.9-.3.8-.9.5-1.4.7z"/><path id="XMLID_443_" d="M54.5 69.7c-1.1-.8-1.3-2.3-1.2-3.7.8-.4 1.7.3 2.5.9.1.9.7 1.3.3 2.3-.4.6-1 .7-1.6.5z"/><path id="XMLID_442_" class="st2" d="M55.8 68.5c-.5-.1-.2.9-.9.4l.1-.4c.2.1.9-.2.9.2-.1 0-.1-.1-.1-.2z"/><path id="XMLID_441_" class="st2" d="M55.3 67.3c.2-.1.7.1.4.4l-.4-.4z"/><path id="XMLID_440_" class="st2" d="M53.6 67.7c1.3.4-.4-1.3.9-1.2l-.3.5h.1c.3.6-.3.9-.7 1.1v-.4z"/><path id="XMLID_439_" d="M61.7 69.6c-.6-.6-1.5-2.3-.4-2.8.7-.2 1.5.6 1.9 1.4.1.6.2.9 0 1.4-.4.6-1.1.3-1.5 0z"/><path id="XMLID_437_" class="st2" d="M62.6 68c-.5 0-.3.9-.7 1.1l-.7-.8c1.3.6-.5-.9.6-1.2.5 0 .7.3 1.1 1.1l-.3-.2z"/></g></g><g id="XMLID_283_"><path id="XMLID_1211_" class="st0" d="M21.1 169.5c.1.1.2.2.2.3l55.2-34.2-7.9-14.6c-2.4 3.5-6.2 5.8-11.4 5.7-12.9-.3-26.3-7.5-30.1-21.7-1.3-4.8-1.2-9.8 0-14.5H27c-4.5-2.4-8.4-6-12.3-9.6 0 6.7-.9 13.4-4.2 19.4-4.3 7.8-13.9 10-20.8 5.4.1 2.6.3 5.3.6 7.9l29.5 54.8c.4.3.9.7 1.3 1.1z"/><g id="XMLID_438_" class="st1"><path id="XMLID_1303_" d="M34.4 147.5c.4-1.4 1.9-1.5 2.7-2.2.3 1.4 1.6.5 2.4 1.5 2-.1 4 .3 6-.4.1.8-1.7.6-2 1.8-.5 1.5.9 2.3 1.6 3.1 1.1.6 2.6.7 2.8 2-3-2.2-6 1.3-9-.3-1.7-.9-4.3-1-4.5-3.5-.7-.6-.2-1.2 0-2z"/><path id="XMLID_1298_" d="M29.7 135.5c-.3-3.2.4-6 1.1-8.9.6-.1.8-1.1 1.3-.3.5.5.2 1.2.4 1.8-.5 2.8-1.4 5.5-1.5 8.3-.1.7.1 1.9-1.1 1.9-1.3-.3-.5-2.2-.2-2.8z"/><path id="XMLID_1268_" d="M27.1 105c-.7-.4-1.3-.8-.9-1.8.2 0 .4.1.5.1-.2-.8-.3-1.7-.4-2.5-.5-.3-1.1-.6-1-1.3-1-.5-2.1-1.2-3.1-1-.8 1-2.5.4-3.3 1.7-.3 1.4-.8 2.7-.5 4 .8 2.2 2.1 3.9 4.2 4.1.9.5 1-.7 1.5-1.2 1-1.5 2.3.3 3.3.7.2.1.3 0 .5 0-.2-.9-.5-1.9-.8-2.8z"/><path id="XMLID_1293_" d="M32.4 121.9c0 1.2-.6.1-.8.3.1-.3.5-.9.8-.3z"/><path id="XMLID_1291_" class="st2" d="M22.6 89.4c-.2-.2 0-.4.2-.3h-.1l.3.3c-.6-.2-.4.6-.1.7-.3-.2-.6-.3-.3-.7z"/></g></g></svg>