<svg id="Layer_1" xmlns="http://www.w3.org/2000/svg" viewBox="0 0 234.1 224.7"><style>.st0{fill:none}.st1{opacity:.85}.st2{fill:#fff}.st2,.st3{opacity:.3}.st4{opacity:.8}.st5{stroke:#000;stroke-width:2.5503;stroke-miterlimit:10}</style><path id="XMLID_27_" d="M-26.2 6v.5V6z"/><path id="XMLID_28_" d="M-25.9 12.1v-.5.5z"/><g id="XMLID_337_"><path id="XMLID_346_" d="M210.8 188.6l1.5.8 1.2.6c0 .4-.1.8-.1 1.2.4.1.8.2 1.2.4 0-.3.1-.6.1-1l2.9 1.4 1.7.9.9.4.4.2h.1l.2.2c.3-.2.6-.5.8-.7l-.9-.6 1.1-6.9c.1-.6.2-1.3.3-1.9l.1-1.6.3-3.1c.1-1 .2-2 .3-3.1l.1-3.1c.2-4.1.1-8.2.1-12.2-.2-4.1-.3-8.1-.6-12.1-.4-6-1-12-1.6-17.9.1-.2.2-.4.1-.4s-.1 0-.1-.1c-.1-.7-.1-1.4-.2-2v-.3c0-.1 0-.2-.1-.4l-.9-8.4c.1-1.1.2-2-.4-3.6-.3-3.3-.7-6.6-1-9.9 0-.9.2-1.8.6-2.8-1-3 .2-7 0-10.2-.2-2.7.4-4.1 1-6.1V71c-.9-.6-1.7-1.2-2.6-1.8v-.6l.1-1.3.1-.7v-.7c0-.1 0-.3-.1-.5 0-.1-.6-1.2-1.3-1.3l-.3-.5c-.2-.2-.3-.5-.5-.7-.7-.9-1.4-1.6-2.2-2.2-.7-.6-1.4-1.1-2.1-1.7-10.9-8.7-21.2-16.9-30.7-24.5-2.4-1.9-4.7-3.8-7-5.6-.6-.5-1.1-.9-1.7-1.4-.6-.4-1.2-.9-1.9-1.4-1.7-1.2-3.9-1.8-5.9-1.4-.5.1-1 .2-1.5.4s-1 .4-1.3.6c-.7.4-1.4.8-2 1.1-1.2.7-2.3 1.4-3.4 2.1-2.3 1.3-4.5 2.7-6.6 3.9-17.1 10.2-29.9 17.8-36.7 21.9l-2.8 2c-.1-.1-.2-.1-.3-.2-.1 0-.2-.1-.3-.1l-.1-.1-.2-.1-.9-.6c-.6-.4-1.1-.7-1.6-1-.9-.7-1.7-1.3-2.5-1.8-1.5-1.1-3-2.2-5.7-3.4-.2-.1-1.2-.7-2.4-1.4.2.1.5.2.8.3l-2.6-1.6c.4.1 1.6.3 1.6.3-6-3.9-12.5-8.2-19.2-12.2l-.6-.6c-1.5-.7-3-1.6-4.5-2.6-.8-.5-1.5-1-2.3-1.6-1-.7-2-1.4-2.9-2.2l-.8-.6-.1-.2-.1-.1-.1.1-.4.2-1.6.9c-1 .6-2 1.1-3 1.6-.8.4-1.6.9-2.4 1.3-.5.2-1 .4-1.4.6-1 .5-2 1-3 1.4-.9.5-1.9.9-2.8 1.4-1.6.8-3.1 1.6-4.6 2.4-1.5.5-3 1.1-4.9 1.8-1.5.8-2.6 1.4-3.6 1.6-1 .3-2.9 1.9-4.4 2.5l.2-.6c-.5.2-1.6.6-2.1.9-.5.2-.5 0-.4-.2.1-.4.2-.8-.7-.6-2.2.8-4.5 1.6-6.8 2.5l-6.3 3.6c0 .2-.1.5-.4.8l-1.8 1.1c-.2.6.1 1 0 1.3-.2.7-.4 1.8-.8 2.4-.2.2-.6-.3-1-.5 0 1.1-.5 1.2-.9.7 0 .3-.1.5-.1.5-.1-.1-.6-.3-.6-.3-.6 2.9-1.6 6.1-1.1 9 .1.6.4 1.6.6 2.3.1.3-.1 1.1-.2 1.3.4.5.9.4 1.3.6-.4 2.1-1.2 6.6.4 6.5-.1 1.7.7 2 .7 3.8.1 2.3.2 5.3.3 8.2.1 1.9.1 3.4.1 5v1.7c.2 11.5-1.1 20 .1 31.2.4 3.8.7 7.7.8 11.5-.3 6.8-.7 13.8-1 20.8-.2 4.3-.4 8.5-.6 12.7-.1 1-.1 2-.2 3-.2 2.4-.4 4.2-.5 5.2l.2.5c0 .4 0 .8-.1 1.2-.4 1.1-1.3 2.4-.5 3h.4c-.1 1.3-.1 2.6-.2 3.9l1.8-1c2.1-1.2 4.1-2.3 6-3.4-.1.1-.1.2-.3.3.6-.2 1.1-.5 1.1-.5-.1.2-.3.8-.3.8 6-2.3 12.8-4.9 17.9-8.5 1.1-.7 2.8-2.2 4-3.1.6-.5 2.1-1.1 2.6-1.4.7-.9.3-1.2.4-1.8 3.5-1.7 10.4-5.4 11.6-7.1.1-.1.2-.1.3-.2 1.7-1 3.3-2.1 5-3.1l1.7-1.1.7-.4.1-.2.2-.1.1-.1s0 .1.1.1c.4.5.7 1 1.2 1.4l.3.3.6.5 1.3 1.1c1.8 1.4 3.6 2.6 5.5 3.7 3.7 2.2 7.4 4.2 11 6.2 3.6 2 7.2 4 10.2 6.4.7.6 1.5 1.2 2 1.8l.4.5.2.2.3.3c.3.4.7.8 1.1 1.3.8.8 1.6 1.7 2.7 2.5s2.4 1.4 3.9 1.7c.4 0 .8.2 1.1.5l.3.3c.2.2.7.5 1.2.7.6.2 1.4.3 1.9.2h.2c.1 0 .1.1.2.1.2-.1.3-.2.5-.3.2-.1.3-.1.5-.2l.5-.2.3-.1.5-.3 1.1-.6 2.1-1.2c2.8-1.6 5.7-3.2 8.5-4.9 1.5-.9 3.1-2 4.6-3 5.3-3.2 10.7-6.6 16.5-10.4 2.6-1.7 5.1-3.4 7.7-5l3.9-2.5c.3-.2.5-.3.8-.5 1.1-.2 2.3-.3 3.4-.3.3 0 .8.1 1.1.1.3 0 .6.1.8.1.5.1 1 .3 1.3.8l.6.8c.3.4.6.8 1 1.2.7.8 1.5 1.5 2.2 2 1.4 1.1 2.8 2.3 4.2 3.4 6.4 5 13.1 9.8 20.1 14.2 3.5 2.2 7 4.3 10.6 6.4l5.4 3 2.6 1.5zm.6-2.8l-2.1-1.5c.3.1.5.3.8.4.7.5 1.4 1 2.2 1.5-.3 0-.6-.2-.9-.4zm2.4 1.4c-.1 0-.1-.1-.2-.1l-1.2-.9c.2.1.5.3.7.4.2.1.5.2.7.4v.2zm6.8-34.4c.2 4.3.3 8.7.3 13v3.2l-.2 3.2c-.1 2.2-.2 4.3-.5 6.5l-.3 3.2-.2 1.6c-.1.4-.1.9-.2 1.3l-.5 2.6-.2 1.3-.1.7v.3h-.1l-.3-.2c-1.1-.5-2.1-1.1-3.4-1.7v-.3c.2.1.3.2.5.2.8.4 1.5.8 2.3 1.2l.6.3h.1v-.3l.1-.3.2-1.3c.1-.9.3-1.7.4-2.6.1-.4.2-.9.2-1.3l.2-1.7c.5-4.7.8-9.4.9-14.2.1-3.5 0-7.1-.1-10.6.1-1.5.2-2.9.3-4.1zm-.8 8.7c0-.4.1-.8.1-1.2v7.7c0 1.5-.1 2.9-.2 4-.1 2.2-.2 3.4-.2 3.4.4-4.6.4-9.2.3-13.9zm-.5-25.7c.1 1.3.3 2.7.4 4 .2 1.8.3 3.7.5 5.6-.3-1.2-.6-2.4-.6-3.7 0-.9.2-1.6 0-2.3-.1-.1-.3-.4-.4-.7-.1-1 0-2 .1-2.9zm-2-65.5c.3.2.6.4.8.6-.3-.1-.6-.3-.9-.4.1 0 .1-.1.1-.2zm-.1 103.3c0-1.4.1-2.7.1-4.1.2-6.1.3-12 .6-18.1v-.7c.1 2 .2 3.9.2 5.9l-.2 12.4c0-.2.1-.5.1-.7l.2-3.6v2.9c0 .2-.1.4-.1.6l-.1 2.1c0 .2 0 .4.1.6 0 .4 0 .8-.1 1.3-.1 1.6-.1 3.2-.3 4.7-.2 1.5-.3 3-.5 4.5-.2 1.9-.2 1.9-.3 2.5-.1.5-.2.9-.3 1.4l-.1.3c-.1 0-.2-.1-.3-.1l-.6-.3-.6-.3c.2-3.7.4-7.3.7-9.7.1-2 .3-3.6.4-4.7.1-1 0 1.3-.4 4.7-.1 1.5-.2 3.4-.3 5.5.7-2.7 1.3-5.3 1.8-7.1zm-1.5-108.7c.2 0 .4.1.6.3.1.1.2.2.2.4v1.2c0 .6-.1 1.2-.1 1.7 0 0-.1 0-.1-.1v-.3c0-.5.1-1 .1-1.5v-1c0-.1 0 0-.1-.3-.1-.2-.3-.4-.5-.4 0 .1-.1.1-.1 0 0 .1 0 .1 0 0zM157 31.5c1.5-.7 3.6-1.2 5.6-.8 2 .4 3.7 1.6 5.1 2.5l4.5 3c11.9 7.9 23.9 15.9 23.9 15.9l-1.2-.9-24.9-17c-.7-.5-1.4-1-2.1-1.4-.7-.5-1.5-1-2.4-1.5 0 0 .3.2.8.5s1 .7 1.6 1c1.1.7 2.1 1.5 2.1 1.5 3.7 2.5 7.4 4.7 11.5 7.4 2.5 1.7 5.2 3.7 7.7 5.4 2 1.4 3.8 2.8 5.6 4.3l3.7 2.5c.4.2.8.5 1.2.7-1.2-1.5-9.6-7.8-18.2-14.1-4.3-3.2-8.8-6.3-12.5-8.9-.5-.3-.9-.7-1.4-1-.5-.3-1.1-.7-1.7-1-1.2-.6-2.6-1-3.9-1.2-1.3-.1-2.5 0-3.4.2 1-.6 2-1.3 3.3-1.9.8-.4 1.8-.8 2.8-.9 1-.1 2 0 2.9.4.9.3 1.8.9 2.4 1.4.7.5 1.2 1 1.8 1.4 4.7 3.7 9.3 7.4 13.7 10.8 8.8 7 16.7 13.3 22.6 18.1 1.2.9 2.3 1.8 3.4 2.7 1.1.9 2.2 1.7 3.1 2.9.3.3.6.8.8 1.2v.2c-.1-.2-.3-.5-.5-.8-.4-.5-.8-1-1.2-1.4-.9-.9-1.8-1.6-2.7-2.3-.9-.8-1.9-1.5-2.9-2.3-7-5.6-15.3-12.1-25.1-19.8 5.9 5 11.7 9.9 17.1 14.4a907.287 907.287 0 0 0 11.1 9.3c1.1.9 2.2 1.9 2.8 3 .3.4.4.9.9 1.3.1.1.3.2.5.2h.1v1.4c-4.3-3.5-8.4-6.9-11.3-9.3-2.4-1.6-4.9-3.3-7.3-5-5.5-3.7-10.8-7.3-16.2-10.9-2.7-1.8-5.3-3.6-8-5.4-1.3-.9-2.7-1.8-4-2.7l-2-1.4c-.7-.5-1.4-.9-2.3-1.3-1.2-.6-3.1-.9-5-.5s-3.7 1.5-5.2 2.4c-3.3 1.8-6.5 3.7-8.5 4.7 0 0 3.1-1.8 7.8-4.5.7-1 1.9-1.8 3.5-2.5zm58.3 36.1v.1c-3.6-2.5-6.9-4.8-9.3-6.5-3.6-2.5-6.3-4.4-8.3-5.9-1.7-1.3 2.3 1.5 8.3 5.9 2.6 1.8 5.7 3.9 9.3 6.4zm-65.9-33.7c-1.8 1.4-3.7 2.7-5.8 4.1-1.6 1-3.1 1.6-4.2 2.5 0 .2-.6.7-1.2 1.1-3.2 2-6.6 3.4-8.9 5.2-.7.5-2.2.9-3.7 1.3 7.2-4.2 15.4-9.1 23.8-14.2zM56.7 152.5c-1.6 1-3.2 1.9-4.7 2.9-5.8 3.9-8.7 4.8-14.2 7.4-1.5.8-2.6 1.5-3.6 1.9-1 .3-2.8 2.1-4.3 2.9l.1-.6c-.5.3-1.6.8-2.1 1-.5.3-.5.1-.4-.1.1-.4.2-.8-.8-.5-2.2 1-4.4 2-6.7 3l-4.2 2.7c0-.6.1-1.3.1-1.9.2-3.3.3-6.4.5-9.5.2-3.6.5-7 .8-10.6 1.1-5.2 2.2-18 2-20.5-.1-1.2-.4-2.3-.6-3.5.8-14.1 2.2-29.5 2.8-42.6.4-9.2 1-15.8 1.6-22 .1-1.5.4-2.9.8-3.9s1.1-1.6 2.2-2.4c1.1-.7 2.5-1.3 4.1-2 1.6-.7 3.4-1.5 5.2-2.3 4.2-1.9 7.3-3.5 9.8-4.5 2.5-1 8.1-4.4 12.3-6.4l-.9 1c.5-.2 1.2-.6 1.9-.9v.5c.1.6.4 1.6.6 2.2.1.3-.2 1-.2 1.3.4.5.9.4 1.3.6-.5 2-1.4 6.3.2 6.2-.1 1.6.6 2 .6 3.6.1 2.2.1 5.1 0 7.8.1 1.5 0 3-.1 4.5v1.6c-.2 11-1.7 19.2-.8 30 .4 5.4.5 11 .3 16.4-.2 5.4-.6 10.5-.9 15.3-.3 4.8-.4 9.1-.1 12.7.2 2.8.6 5.1.9 6.7-1.1.6-2.3 1.3-3.5 2zm97.9-1.7c-.5.3-.9.5-1.2.8-4 1.2-7.5 2.9-10.8 4.9-2.1 1.3-4.1 2.7-5.8 4.2-.4.4-.9.8-1.3 1.1-.4.4-.8.7-1.1 1-.7.7-1.5 1.4-2.1 2-1.6 1.4-4.7 3.4-8 5.1-2.2.6-4.7 1.1-4.8 1.4-.1.5-.2.8-.3 1-2.9 1.3-5.1 2.2-5.4 2.6-.7.8-1 1.3-1.4 1.6 0 0-.1 0-.1.1-.1 0-.2.1-.3.1l-.1.1h-.1c-.1 0-.2.1-.2.1-.1.1-.3.1-.4.2-.2.1-.5.3-.7.5-.3-.1-.6-.2-.9-.4-.2-.1-.3-.1-.6-.3-.4-.3-.9-.6-1.4-.9-5.2-3-6.2-4.7-10.4-6.9-1.7-1.3-3.2-2.3-4.6-3.1-1.7-1-3.3-1.9-4.9-2.7-.8-.4-1.5-.8-2.3-1.2-5.1-3.5-8.9-5.5-12.5-9.3-.7-.4-1.5-.8-2.3-1.2-.4-.2-.8-.5-1.1-.7-.4-.3-.9-.6-1.3-.8-.9-.6-1.8-1.2-2.7-1.9l-.1-.1h-.1l-.1-.1c-.1-.1-.3-.2-.4-.2l-.4.2-.8.5-1.6.9c-.2.1-.4.3-.7.4-.1-.4-.1-.8-.2-1.3-.3-1.8-.5-3.8-.7-5.9-.4-4.2-.3-8.5 0-11.1.1-2 .3-3.5.5-4.6.2-.9-.1 1.2-.5 4.6-.1 1.5-.1 3.3-.1 5.4.4-2.7 1-5.2 1.5-7 0-1.3.1-2.6.2-4 .4-5.9.6-11.7 1.2-17.5.2-2.1.4-6.8.8-8.8l-1.2 25.9.1-.7 1.1-13.6c-.1 2 0 4 0 6.2-.1 1.4-.4 2.9-.4 4.3-.1 1.1-.4 2.1-.6 3.2l-.1 2v.6c1.2-1.6 3.4-18.7 3.3-21.5-.1-2.3-1-4.4-1-6.9 0-.8.3-1.5.1-2.2-.1-.1-.2-.4-.4-.7 0-1.7.6-3.3.2-4.6-.2-.9 2.3-3.4 1.9-3.6-1.6-.8-.4-.2-.2-2.3 0-.3-.6-1.1-.5-1.6.5-1.7-.1-2.3-.2-4.3-.4-3 .6-3.6-.3-6.3-.1-.3-.6-4.5-.6-4.5.2-3.2-.5-5.2.7-7.7-.9-2.9.4-6.8.3-9.9-.1-3.1.8-4.4 1.6-7.1.1-.8.1-1.4.3-1.8 0-.1.1-.2.1-.3.4.2.8.4 1.2.7 2.8 1.6 5.6 3.3 8.5 5 5.8 3.1 11.5 6.3 17.3 9.4.4 0 .9.1 1.8.4 1.7.9 3.5 1.8 5.2 2.6 1.2.2 1.1-.4 2-.3.1-.2.6-.3 1.2-.2l.1.1-.2.1c.1 0 .1-.1.2-.1.6.4 1.2.9 1.8 1.3-.2.2-.5.1-.7-.1 0 .2-.1.5-.1.5-.1-.1-.6-.2-.6-.2-.6 2.6-1.6 5.4-1.1 7.9.1.5.4 1.4.6 2 .1.3-.1 1-.2 1.2.4.4.9.4 1.3.5-.4 1.8-1.2 5.8.4 5.7-.1 1.5.7 1.8.7 3.3.1 2.1.2 4.7.3 7.2.1 1.4.1 2.8.1 4.1v1.5c.2 10.2-1.1 17.7.1 27.6 2.5 20-1.2 42.1-1.6 47l.6 1.4c1.4-3.2 1.6-14.1 2.2-18.8.1-1.8.3-3.2.4-4.3.1-.9 0 1.2-.4 4.3-.1 1.4-.2 3-.3 4.9.6-2.4 1.2-4.7 1.7-6.3 0-1.2.1-2.4.1-3.7.2-5.5.3-10.8.6-16.2.1-2 .2-6.3.5-8.2l-.4 23.9c0-.2.1-.4.1-.6l.6-12.6c0 1.9.1 3.7.2 5.7 0 1.3-.3 2.7-.3 3.9-.1 1-.3 2-.5 2.9l-.1 1.9c0 .2 0 .4.1.6 1.2-1.6 2.9-17.3 2.6-20-.1-2.1-1.1-4-1.2-6.3 0-.8.2-1.4 0-2-.1-.1-.3-.4-.4-.7-.1-1.5.5-3.1 0-4.3-.2-.8 2.2-3.2 1.8-3.3-1.6-.7-.4-.2-.3-2.1 0-.2-.6-1-.6-1.5.4-1.6-.1-2.1-.3-3.9-.5-2.7.5-3.3-.5-5.8-.1-.3-.8-4.1-.8-4.1.1-3-.7-4.8.5-7.1-1-2.7.2-6.3 0-9.1-.2-2.9.6-4.1 1.3-6.6.1-.7 0-1.3.3-1.7.2-.4-.4-1.4-.3-2.1.1.1.3.1.4.2 0-.2.1-.7.1-1 0-.2.2-.2.3-.1.3.1.6.2.8-.2.3-1 .4-2 .6-3.1-.2-.9-.4-1.8-.7-2.7 1.8-1 3.6-2.1 5.4-3.1 2.9-1.7 5.7-3.3 8.6-5 5.8-3.4 11.6-7.1 17.9-11.2 2.3-1.5 4.6-3 7-4.5-.6 2.1-1.2 4.3-.9 6.3.1.6.4 1.5.6 2.2.1.3-.2 1-.2 1.2.4.5.9.4 1.3.6-.5 1.9-1.4 6.1.2 6-.1 1.6.6 1.9.7 3.5.1 2.2.1 4.9.2 7.6.1 1.5.1 2.9 0 4.3v1.5c.1 10.7-1 18.6.6 29 1.6 10.4 2 21.4 2 30.5 0 9.1-.2 16.2-.2 18.8l.3.6c-2.3.7-3.4 1.4-4.1 1.8zm42 26.2c-5.6-3.6-10.9-7.4-15.2-10.7.5.4 1.1.7 1.6 1.1 3.1 2.3 7.1 5.2 11.9 8.3 1.5 1 3.1 2 4.7 3 1.1.8 2.2 1.5 3.3 2.3-2-1.3-4.2-2.6-6.3-4zm3.5-.6c-1.4-1-2.9-1.9-4.3-2.9-5.6-3.7-11-7.4-16.5-11.1-2.1-1.4-4.2-2.8-6.3-4.3-.8-.7-1.7-1.4-2.4-2.1l-.5-.5c.3.2.5.4.8.5 12.1 8.1 24.3 16.2 24.3 16.2-.4-.3-.8-.6-1.3-.9l-25.1-17.1c3.7 2.4 7.4 4.7 11.5 7.3 2.5 1.7 5.3 3.8 7.9 5.5 2.1 1.4 3.8 2.9 5.7 4.3l3.8 2.6c.4.2.8.5 1.2.7-1.3-1.5-9.7-7.9-18.6-14.3-4.4-3.2-8.9-6.4-12.7-9.1-1.1-.7-2.5-1.5-4-1.9-1.5-.4-3-.4-4.2-.3-.2 0-.3.1-.5.1.7-4.3-.1-14.2.2-18.8 0-1.9 0-3.4.1-4.5.1-.9 0 1.2-.1 4.5 0 1.5.1 3.2.1 5.2.4-2.6.8-5 1.1-6.8-.1-1.3-.1-2.5-.1-3.8-.2-5.7-.5-11.2-.4-16.9 0-2.1-.1-6.5.1-8.5 0 0 .1 6.2.3 12.5.1 3.1.3 6.2.4 8.6.1 2.3.2 3.9.2 3.9l.1-.7s-.1-3.3-.1-6.6v-6.6c.1 1.9.3 3.8.5 5.9 0 1.3-.1 2.8 0 4.1 0 1.1-.2 2.1-.3 3.1v2c0 .2.1.4.1.6.5-.9.9-5.4 1.2-10.1.2-4.7.4-9.5.2-10.8-.2-2.2-1.3-4.1-1.5-6.5-.1-.8.2-1.5-.1-2.1-.2-.1-.3-.4-.4-.7-.1-1.6.4-3.2-.1-4.5-.2-.9 2.2-3.3 1.7-3.5-1.7-.6-.5-.2-.3-2.2 0-.2-.7-1-.6-1.5.4-1.7-.2-2.2-.4-4.1-.5-2.8.5-3.5-.6-6-.1-.3-.8-4.3-.8-4.3.2-3.1-.6-5 .5-7.4-1-2.8.3-6.5.2-9.5-.1-3 .7-4.2 1.5-6.8.1-.7.1-1.3.3-1.7.2-.4-.4-1.5-.2-2.2l.4.2c0-.2.1-.7.2-1 0-.2.2-.2.3-.1.3.1.6.3.8-.2.3-1 .5-2.1.7-3.1-.2-1.1-.4-2.1-.6-3.2l-.6-.3-.2-.6c.7.2 1.4.6 2.1 1.1 1.3.8 2.6 1.6 3.8 2.4 2.5 1.6 5.1 3.3 7.6 4.9 10 6.5 19.5 13 28 19 3.8 2.6 7.4 5.2 10.7 7.6v.8c-.1 1.2-.1 2.4-.2 3.6-.2.2-.6-.3-1-.5 0 1.1-.5 1.2-.9.7 0 .3-.1.5-.1.5-.1-.1-.6-.3-.6-.3-.6 2.9-1.6 6-1.1 8.8.1.6.4 1.6.6 2.3.1.3-.1 1.1-.2 1.3.4.5.9.4 1.3.6-.4 2.1-1.2 6.5.4 6.4-.1 1.1.3 1.7.5 2.4.1 1.8.1 3.6.3 5.5.1 1.2.1 2.4.2 3.6v.2c.1 1.6.1 3.1.1 4.6v1.6c.2 11.4-1.1 19.7.1 30.8 1.7 15.3.5 31.7-.6 42.2-1.3-.7-2.5-1.4-3.6-2-1.4-.8-2.6-1.5-3.5-2-1.9-1.2-4.2-2.5-6.5-3.8z"/><path id="XMLID_345_" d="M218.4 185.7c.1-.4.2-.9.3-1.5 0-.3.1-.5.1-.8 0-.4.1-.7.1-1.1.2-1.7.3-3.3.5-4.6-.1 1.5-.3 3-.4 4.6-.1.6-.1 1.1-.2 1.4l-.2 1.2c-.1.8-.3 1.5-.4 2.3 0-.1.1-.6.2-1.5z"/><path id="XMLID_344_" d="M215.3 65l.1.4-.1-.4z"/><path id="XMLID_343_" d="M215.6 64.9s0 .1 0 0c0 .1 0 .1 0 0 0 .1 0 .1 0 0 0 .1 0 .1 0 0-.1.1-.1.1 0 0-.1 0-.1 0 0 0z"/><path id="XMLID_342_" d="M215.5 65.2l-.1.1c.1 0 .1 0 .1-.1s0-.1 0 0c0-.1 0 0 0 0z"/><path id="XMLID_340_" d="M216.3 70.3c-.1-.2-.1-.5 0-.7 0 0 .1 0 .1.1 0 .2-.1.4-.1.6z"/><path id="XMLID_339_" d="M215.2 64c0-.1 0-.2 0 0z"/><path id="XMLID_338_" d="M110.9 56.6c-.1.1-.3.3-.5.4 0 0-.1 0-.2-.1.3 0 .5-.1.7-.3z"/></g><g id="XMLID_316_"><g id="XMLID_559_"><path id="XMLID_661_" transform="rotate(-18.396 141.389 71.455)" class="st0" d="M108.5 54.6h65.8v33.6h-65.8z"/><g id="XMLID_561_" class="st1"><path id="XMLID_660_" d="M164.8 46.3c.5.2 1.6 0 1.8.9 1.5.6 1.6 2 2.3 3.1-.6.3.1.7.1 1.1.1.3.6.4.6.8-.3.3-.6-.5-.8 0-.5 1 .9 1.5.9 2.4-.7-.2-.8-1.3-1.6-1-.2.6-.5 1.4-.4 1.9.2-.2.6-.5 1-.4.2.2 0 .5-.2.5-.4.3-.9.2-1.2.4-.5.6-.5 1.3-.4 2 .3 0 .4.3.4.5.2.8-.9 1.2-.7 2.1.1.6.6.9.6 1.5-.1.2-.3.3-.6.3-.7-.4-.2-1.3-1.2-1.5-.3 0-.2.4-.3.6.5.4.4 1.1.6 1.6-.2-.2-.2.1-.3.2-.7-.9-.5-2.5-1.6-3-.2.1-.3.4-.5.3-.1-.2-.2-.5-.5-.6-1.3.3-1.3 1.8-2.3 2.4.6-.9.6-2.3.9-3.2-.2.8-1.2 1.2-1.6 1.5.4-1.1.8-1.6 1.5-2.4-.4-1-1.1-1.9-1.9-2.6-.6-.1-1.2.8-1.7.2.2-.6 1.1-.1 1.5-.6.1-.4.7-.6.7-1.2-.1 0-.4.1-.3-.2.1-.4.9-.6.4-.9-.2-.1-.4-.2-.5-.2.1-.1.2-.4.3-.6-.7-.6-.7.6-1.3.5 1.2-1.5 1.3-3.6 2.5-5 1-.7 2.3-1.7 3.8-1.4z"/><path id="XMLID_659_" class="st2" d="M165.8 48v-.2h.1z"/><path id="XMLID_658_" d="M147.1 56.3c.3.5.3 1-.1 1.4-.5.4-1.1.4-1.5.2-.4-.3 0-.7-.2-1.1.2-.7 1.3-.8 1.8-.5z"/><path id="XMLID_657_" class="st2" d="M165.9 49.9v-.3l-.1.2z"/><path id="XMLID_656_" class="st2" d="M167 49.5l-.1-.2.1.1z"/><path id="XMLID_655_" class="st2" d="M166.9 50.5l.1-.1v.1z"/><path id="XMLID_654_" class="st2" d="M167.2 50.8l-.1-.1z"/><path id="XMLID_653_" class="st2" d="M168 51.1l-.1-.3v.1z"/><path id="XMLID_652_" class="st2" d="M166.6 51.5l-.2-.1z"/><path id="XMLID_651_" d="M151.1 56.8c.7-.4 1.6-.4 2.3-.6.2.2 0 .4-.1.5-.9 0-1.7.6-2.5.4-.1-.1 0-.6.3-.3z"/><path id="XMLID_650_" class="st2" d="M168.3 51.1l-.1-.1h.1z"/><path id="XMLID_649_" class="st2" d="M152.2 56.7c.2-.1 0 .1.1.1-.3-.3-.2.1-.4.1l.2-.4c-.1.1 0 .1.1.2z"/><path id="XMLID_648_" class="st2" d="M151.7 56.7v.2c-.3 0 .1-.3-.2-.2h.2z"/><path id="XMLID_647_" class="st2" d="M152.8 56.5c0 .1.1.3 0 .3 0-.1-.1-.3 0-.3z"/><path id="XMLID_646_" class="st2" d="M160.4 54.6c0 .2-.1.2 0 0 0 0 0 .1 0 0z"/><path id="XMLID_645_" class="st2" d="M167.9 52.5h-.3c.1-.3.2-.1.3 0z"/><path id="XMLID_644_" transform="rotate(161.604 159.303 55.32)" class="st2" d="M159.3 55.2h.1v.2h-.1z"/><path id="XMLID_643_" class="st2" d="M160.5 55.9v.3l-.2-.3s.1.1.2 0z"/><path id="XMLID_642_" d="M114.2 75c.6.4.5 1.1.8 1.6-.7 0-.4.8-1 1.1-.2 1-.5 2-.4 3.1-.4 0-.1-.9-.6-1.2-.7-.4-1.2.2-1.7.5-.4.5-.6 1.3-1.2 1.3 1.4-1.3 0-3.2 1.1-4.6.6-.8.9-2.1 2.1-2 .3-.3.6.1.9.2z"/><path id="XMLID_641_" class="st2" d="M161.7 59.1l-.1-.1.1.1z"/><path id="XMLID_640_" d="M158.2 60.3c-.1.2.2.5-.1.7.3-.2-.2-.5.1-.7z"/><path id="XMLID_639_" class="st2" d="M161 59.5c0 .2-.2.1-.3.3-.1-.1.1-.4.3-.3z"/><path id="XMLID_638_" d="M157.9 60.5l-.1.2.1-.2z"/><path id="XMLID_637_" d="M120.4 73.9c1.5.1 2.8.8 4.1 1.5 0 .3.4.5 0 .7-.3.2-.6 0-.9 0-1.3-.5-2.5-1.3-3.8-1.6-.3-.1-.9-.1-.8-.7.3-.8 1.2-.2 1.4.1z"/><path id="XMLID_636_" d="M157.7 60.9v.2-.2z"/><path id="XMLID_635_" d="M157.8 61.4v-.3c0 .1.1.2 0 .3z"/><path id="XMLID_634_" d="M157.7 61.5l-.1.1c-.1-.1-.1-.2-.1-.3.2-.1.2.1.2.2z"/><path id="XMLID_633_" d="M138.4 71.8c.5.5 0 1.3.4 1.8 0 .6-.4 1.1-.8 1.5-.6-.2-.8 1.1-1.4.4-.2.3-.8.5-.5.9.7.2 1.2 1 2 .7.2.1-.1.3-.2.5 0 .5.7.3.9.5l-.2.5.4.3c-.1.2-.5.5-.2.8.3.5.8-.1.9.4-.2.2-.5-.1-.8.1-.2.6 0 1.1.4 1.4-.2.2-.4.1-.7.3-.1.4-.3.8.1 1.2-.2.4-.4-.1-.6.1.3.5-.6.8 0 1.2-.4 0-.3-.5-.6-.5-1.8-.1-1.7 2-3.2 2.1-.1-.8-1.2-1.1-1.1-2-.5-.5-1 0-1.4.2-.3-.3-.3-.8-.5-1-.4.6-1.2.1-1.5.7 1.1-.9 1.3-2.9 2.6-3.9 0-.3.5-.8.1-1.2-.5-.4-1-.5-1.6-.5-.6-.1-.2-.7-.8-.8.4-.4 1 .4 1.5-.1.4.2.9.7 1.5.6.9-.1 1.3-.8 2-1.1.4-.6.9-1.2 1.2-1.9-.8-.6-1 1.1-2 .9-.3-.1-.5-.4-.3-.6.3-.5 1.3-1 .7-1.6-.2-.3-.8-.5-.4-.9.3-1.1 1.3-1.6 2.4-1.8.5.1 1.1.5 1.7.8z"/><path id="XMLID_632_" d="M126.6 76.6c-.6-.1 0-.3-.1-.5.2.1.4.4.1.5z"/><path id="XMLID_631_" d="M143.7 74.5c.1.2.1.5 0 .8-.2.3-.3.6-.7.7-.2-.2-.5-.6-.4-.9.1-.3.1-.4.4-.6.3-.2.5-.2.7 0z"/><path id="XMLID_630_" class="st2" d="M143.2 74.7c.1-.1.2.1.1.2l-.2.1c.2-.3-.2-.2-.3-.1.1-.2.2-.4.4-.2z"/><path id="XMLID_629_" d="M164.4 68.1c1 .6.8 1.9 1.2 2.9-.9.3-.6 1.5-1.2 2.1-.1-.2.1-.5 0-.7l.2.1c-.1-.2.1-.3-.1-.5 0-.2.4-.6 0-.5.1-.3.4-.4.7-.6-.6-.2.2-.5-.5-.4.1-.3.3.2.4-.1.1-.7-.3-1.4-.7-1.9-.1.2.2.4 0 .6-.1-.6-.8.1-.9-.5-.3.3-.2.5-.4.9.3.3.5-.3.8 0-.3.4.4.5 0 .9.2-.4 0-.5-.1-.9-.1.4-.6.1-.6.4l.4.1c-.4 0-.1.5-.2.8-.1.1.1.2.1.3l-.2-.1c-.4.8.6 1.4.1 2.1-.3-.3.1-.9-.5-1-.4-1.2-.6-2.4.2-3.4.1-.6.9-.5 1.3-.6z"/><path id="XMLID_628_" transform="rotate(161.604 143.3 75.137)" class="st2" d="M143.3 75h.1v.2h-.1z"/><path id="XMLID_626_" class="st2" d="M163.8 68.7c.1-.1-.2-.1 0-.2v.2z"/><path id="XMLID_625_" d="M164.2 69.1c.1.2-.1.1-.1.3 0-.3-.2-.2-.3-.4.2.1.2.2.4.1z"/><path id="XMLID_624_" d="M163.8 69.2l.1.1-.1-.1z"/><path id="XMLID_623_" class="st2" d="M163 69.7c-.1.2.2.1-.1.2.1-.1-.1-.3.1-.2z"/><path id="XMLID_622_" d="M164.4 69.3v.2c-.1-.1-.2-.2 0-.2z"/><path id="XMLID_621_" d="M164.8 69.5c-.3-.1-.1.3-.2.2 0-.3-.2-.2-.1-.4.3-.2.2.2.3.2z"/><path id="XMLID_619_" class="st2" d="M163.3 70.4c-.1 0 0-.1.1-.2 0 .1-.1.2-.1.2z"/><path id="XMLID_618_" class="st2" d="M163.1 70.5c-.1.1-.1 0-.1-.1 0 .1.1.1.1.1z"/><path id="XMLID_617_" d="M164.8 70v-.2l.2.2z"/><path id="XMLID_606_" d="M170.9 68.1v-.2h.1z"/><path id="XMLID_605_" d="M163.8 70.4c-.1.2-.1.2-.2 0 .1.1.1 0 .2 0z"/><path id="XMLID_604_" d="M150.4 75.5c.4.9-.2 1.7-.7 2.3-.6-.2-1-.9-1.2-1.4 0-.4.3-.8.6-1 .4-.3 1-.5 1.3.1z"/><path id="XMLID_603_" d="M162 72.3c.5 1.1-.3 1.8-.7 2.8-.2 0-.5-.2-.6 0-.3-.6-.8-.9-1.6-1.1-.2-.4-.3-.9-.1-1.3.2-1 1.2.1 1.4-.9.7-.4 1.3 0 1.6.5z"/><path id="XMLID_602_" d="M164 71.1l.1.2-.1-.2z"/><path id="XMLID_601_" d="M164.9 71h.2-.2z"/><path id="XMLID_600_" class="st2" d="M160.4 72.6c.1.1.2 0 .2-.1.2.5-.1 1.5.4 1.4l-.1-.3c.2.1.6-.1.7.2l-.4.1.1-.2c-.2-.1-.3.2-.4.1-.1.4.3.5-.1.7-.2-.1-.1-.3-.3-.4 0 .4-.1.1-.3.3l.1-.2.1.1c.2-.2-.2-.5.1-.8-.3.1-.4-.5-.5-.7.2.3.4 0 .4-.2.1 0 0 0 0 0z"/><path id="XMLID_599_" class="st2" d="M159.7 73.2c0 .1-.2.1-.3.2-.2 0 .3-.2.3-.2z"/><path id="XMLID_598_" d="M163.3 72l.2-.1-.1.1z"/><path id="XMLID_597_" d="M171.4 69.4l-.1-.2.1.1z"/><path id="XMLID_586_" class="st3" d="M160.7 73.2c-.1 0-.2 0-.3.1h.1l-.2-.2c.2-.1.3.2.4.1z"/><path id="XMLID_585_" class="st2" d="M160 73.2l.2.3-.2-.3z"/><path id="XMLID_584_" class="st2" d="M161 73.1c-.2-.1-.1 0-.1-.2l.1.2z"/><path id="XMLID_583_" class="st2" d="M149.3 77c-.1 0-.1.1 0 0l-.2-.1c.1 0 .2 0 .2.1z"/><path id="XMLID_582_" class="st2" d="M161.2 72.8v.2-.2z"/><path id="XMLID_581_" class="st2" d="M159.8 73.5c-.1 0-.1.1 0 .1-.1 0-.1-.2-.1-.2l.1.1z"/><path id="XMLID_580_" class="st2" d="M161.5 73.1l-.1-.2h.1z"/><path id="XMLID_579_" d="M154.9 75.3v-.2l.1.1z"/><path id="XMLID_578_" class="st2" d="M161.3 73.2h-.1l.2-.1z"/><path id="XMLID_577_" d="M155.4 75.4v-.2.1z"/><path id="XMLID_566_" d="M163.9 72.4l-.2.3c.1-.1 0-.4.2-.3z"/><path id="XMLID_565_" d="M172.7 71.8l-.2.1c0-.1.1 0 .2-.1z"/><path id="XMLID_564_" d="M133.8 89.3c.4.3.4 1 .4 1.5-.5.7-.9 1.6-1.8 1.4-.3-.1-.6-.2-.9-.4 0-.5-.6-1.1-.2-1.7.5-.9 1.7-1.6 2.5-.8z"/><path id="XMLID_563_" d="M153.2 83.2c.4.5.1 1 0 1.4-.3.4-.7.8-1.3.7-.3.1-.5-.2-.7-.4-.2-.4-.3-1 0-1.4.4-.7 1.5-.9 2-.3z"/></g></g><g id="XMLID_317_"><path id="XMLID_558_" transform="rotate(-20.457 140.155 114.88)" class="st0" d="M108.9 98.9h62.4v31.9h-62.4z"/><g id="XMLID_318_" class="st1"><path id="XMLID_557_" d="M161.5 90.2c.5.2 1.5 0 1.7.8 1.4.5 1.6 1.9 2.3 2.9-.5.3.1.6.1 1 .1.3.6.4.6.7-.3.3-.6-.5-.8.1-.4 1 .9 1.4 1 2.3-.6-.1-.8-1.2-1.6-.9-.2.6-.5 1.3-.3 1.8.2-.2.6-.5.9-.4.2.2 0 .4-.2.5-.4.3-.8.3-1.1.4-.4.5-.4 1.2-.3 1.9.3-.1.4.3.4.4.2.8-.8 1.2-.6 2 .1.6.6.8.7 1.4-.1.2-.3.3-.5.3-.7-.3-.3-1.2-1.2-1.4-.3.1-.2.4-.3.6.5.4.4 1 .7 1.5-.2-.2-.2.1-.3.2-.7-.8-.5-2.4-1.6-2.8-.1.1-.2.4-.5.3-.1-.2-.2-.4-.5-.5-1.2.3-1.2 1.8-2.1 2.4.6-.9.5-2.2.7-3-.2.8-1.1 1.2-1.5 1.5.3-1.1.7-1.5 1.3-2.4-.4-.9-1.1-1.8-1.9-2.4-.5-.1-1.1.8-1.6.2.2-.5 1-.1 1.4-.6.1-.4.7-.6.6-1.1-.1 0-.4.1-.3-.2.1-.3.8-.6.4-.9-.2-.1-.4-.2-.5-.2.1-.1.2-.4.3-.5-.7-.5-.7.6-1.2.5 1.1-1.5 1.1-3.4 2.2-4.8 1-.8 2.2-1.9 3.6-1.6z"/><path id="XMLID_546_" class="st2" d="M162.5 91.8v-.2l.1.1z"/><path id="XMLID_545_" d="M145.1 100.3c.3.5.4 1 0 1.4-.4.3-1 .4-1.4.3-.4-.2-.1-.7-.2-1 0-.8 1.1-1 1.6-.7z"/><path id="XMLID_544_" class="st2" d="M162.6 93.6v-.2.1z"/><path id="XMLID_543_" class="st2" d="M163.7 93.2l-.1-.2.1.1z"/><path id="XMLID_542_" class="st2" d="M163.6 94.1l.1-.1.1.1z"/><path id="XMLID_541_" class="st2" d="M163.9 94.4l-.1-.1h.1z"/><path id="XMLID_540_" class="st2" d="M164.7 94.7l-.2-.3.1.1z"/><path id="XMLID_539_" class="st2" d="M163.4 95.1l-.2-.1z"/><path id="XMLID_538_" d="M148.8 100.6c.6-.4 1.5-.5 2.2-.6.2.2.1.4-.1.5-.8 0-1.6.6-2.4.5 0-.2.1-.6.3-.4z"/><path id="XMLID_537_" class="st2" d="M165 94.6l-.1-.1v.1z"/><path id="XMLID_526_" class="st2" d="M149.9 100.5c.2-.1 0 .1.1.1-.3-.3-.1.1-.4.1l.2-.4c-.1.1 0 .1.1.2z"/><path id="XMLID_525_" class="st2" d="M149.4 100.5v.2c-.3 0 .1-.3-.2-.2.1.1.2.1.2 0z"/><path id="XMLID_524_" class="st2" d="M150.5 100.3c0 .1.1.2 0 .3 0-.1-.1-.3 0-.3z"/><path id="XMLID_523_" class="st2" d="M157.6 98.3c0 .1-.1.1 0 0z"/><path id="XMLID_522_" class="st2" d="M164.6 96h-.3c.1-.2.3-.1.3 0z"/><path id="XMLID_521_" transform="rotate(159.543 156.592 98.973)" class="st2" d="M156.6 98.9h.1v.2h-.1z"/><path id="XMLID_520_" class="st2" d="M157.8 99.5v.3l-.2-.3s.1.1.2 0z"/><path id="XMLID_519_" d="M114.5 119.2c.6.3.5 1 .8 1.5-.7.1-.4.8-.9 1-.1 1-.5 1.9-.3 3-.4 0-.1-.9-.7-1.1-.6-.4-1.1.3-1.6.5-.4.5-.5 1.2-1.1 1.2 1.3-1.3-.1-3 .9-4.4.5-.7.8-2 2-1.9.3-.2.6.1.9.2z"/><path id="XMLID_518_" class="st2" d="M159 102.5l-.1-.1.1.1z"/><path id="XMLID_517_" d="M155.7 103.8c-.1.2.2.4-.1.6.3-.2-.2-.5.1-.6z"/><path id="XMLID_506_" class="st2" d="M158.3 102.9c0 .2-.2.1-.3.3 0-.1.2-.4.3-.3z"/><path id="XMLID_505_" d="M155.5 104l-.1.2.1-.2z"/><path id="XMLID_504_" d="M120.4 117.9c1.5.1 2.7.6 4 1.2 0 .3.4.5 0 .6-.3.2-.6 0-.8 0-1.2-.4-2.4-1.1-3.7-1.4-.3-.1-.9-.1-.8-.7.2-.5 1 .1 1.3.3z"/><path id="XMLID_503_" d="M155.3 104.3v.2-.2z"/><path id="XMLID_502_" d="M155.4 104.8v-.2s.1.1 0 .2z"/><path id="XMLID_501_" d="M155.3 104.9l-.1.1c-.1-.1-.1-.2-.1-.3.2-.1.2.1.2.2z"/><path id="XMLID_500_" d="M137.4 115.3c.5.5.1 1.3.5 1.7 0 .5-.4 1-.7 1.5-.6-.2-.7 1.1-1.3.4-.2.3-.7.5-.5.9.7.1 1.2.9 1.9.6.2.1 0 .3-.1.4 0 .5.7.3.9.5l-.2.5.4.2c-.1.2-.4.5-.1.8.3.4.7-.1.8.4-.2.2-.5 0-.7.2-.2.5 0 1.1.4 1.3-.2.2-.4.2-.6.3-.1.4-.3.8.1 1.1-.1.4-.4 0-.6.1.3.4-.6.8 0 1.2-.4.1-.3-.4-.6-.4-1.7 0-1.5 1.9-3 2.1-.2-.7-1.2-1-1.1-1.8-.5-.5-1 .1-1.4.2-.3-.2-.3-.8-.6-1-.3.6-1.1.1-1.4.7 1-.9 1.1-2.8 2.3-3.8 0-.3.5-.8 0-1.1-.5-.3-1-.5-1.5-.4-.5-.1-.2-.7-.7-.7.3-.4 1 .3 1.4-.2.4.2.9.6 1.4.5.8-.1 1.2-.8 1.9-1.1.4-.6.9-1.1 1-1.8-.8-.5-.9 1-1.9.9-.3 0-.5-.3-.3-.6.2-.5 1.2-1 .6-1.6-.2-.2-.7-.4-.4-.8.3-1 1.1-1.6 2.2-1.8.7 0 1.3.4 1.9.6z"/><path id="XMLID_499_" d="M126.3 120.2c-.5-.1 0-.3-.1-.4.2.1.4.3.1.4z"/><path id="XMLID_498_" d="M142.4 117.7c.1.2.1.5 0 .8-.2.3-.3.6-.6.7-.2-.2-.5-.5-.4-.9.1-.3.1-.4.3-.6.3-.2.6-.2.7 0z"/><path id="XMLID_497_" class="st2" d="M142 117.9c.1-.1.2.1.1.1l-.1.1c.2-.3-.2-.2-.3-.1 0-.1.1-.3.3-.1z"/><path id="XMLID_486_" d="M161.9 110.9c1 .5.8 1.8 1.2 2.7-.9.3-.5 1.5-1.1 2.1-.1-.2.1-.5 0-.7l.2.1c-.1-.2.1-.3-.1-.4 0-.2.3-.6-.1-.5 0-.3.4-.4.7-.6-.6-.1.1-.4-.5-.4.1-.3.3.2.3-.1.1-.6-.3-1.3-.7-1.8-.1.2.2.4 0 .5-.1-.6-.8.2-.9-.4-.3.3-.2.5-.4.8.3.3.5-.3.8-.1-.3.4.4.5 0 .9.2-.4-.1-.4-.1-.8-.1.4-.5.2-.6.4l.3.1c-.3 0-.1.5-.2.8-.1.1.1.2.1.2l-.2-.1c-.4.8.6 1.3.2 2-.3-.3.1-.9-.5-1-.4-1.1-.7-2.3 0-3.2.4-.5 1.2-.3 1.6-.5z"/><path id="XMLID_485_" transform="rotate(159.543 142.091 118.315)" class="st2" d="M142.1 118.2h.1v.2h-.1z"/><path id="XMLID_484_" class="st2" d="M161.3 111.5c.1-.1-.2-.1 0-.2v.2z"/><path id="XMLID_483_" d="M161.7 111.9c.1.1-.1.1-.1.3 0-.2-.2-.2-.3-.3.2 0 .3.1.4 0z"/><path id="XMLID_482_" d="M161.4 112l.1.1-.1-.1z"/><path id="XMLID_481_" class="st2" d="M160.6 112.5c-.1.2.2.1-.1.2.1-.2-.1-.3.1-.2z"/><path id="XMLID_480_" d="M161.9 112v.1c-.1 0-.2 0 0-.1z"/><path id="XMLID_479_" d="M162.3 112.2c-.3-.1-.1.3-.2.2-.1-.3-.2-.2-.1-.4.3-.1.2.2.3.2z"/><path id="XMLID_477_" class="st2" d="M160.9 113.2c-.1 0 0-.1.1-.2-.1.1-.1.1-.1.2z"/><path id="XMLID_466_" class="st2" d="M160.7 113.3c-.1.1-.1 0-.1-.1 0 0 .1 0 .1.1z"/><path id="XMLID_464_" d="M162.3 112.7v-.2l.2.2z"/><path id="XMLID_463_" d="M168.1 110.7v-.2h.1z"/><path id="XMLID_462_" d="M161.4 113.1c-.1.2-.1.2-.2 0 0 .1.1.1.2 0z"/><path id="XMLID_461_" d="M148.8 118.4c.4.8-.1 1.6-.6 2.2-.6-.2-1-.8-1.2-1.3 0-.3.3-.8.5-1 .5-.2 1-.5 1.3.1z"/><path id="XMLID_460_" d="M159.7 115c.5 1-.2 1.8-.5 2.6-.2 0-.5-.2-.6.1-.3-.6-.8-.8-1.5-1-.2-.3-.3-.8-.1-1.2.2-.9 1.1 0 1.3-.9.5-.4 1.1-.1 1.4.4z"/><path id="XMLID_459_" d="M161.6 113.8l.1.1-.1-.1z"/><path id="XMLID_458_" d="M162.4 113.6h.1-.1z"/><path id="XMLID_336_" class="st2" d="M158.2 115.4c.1.1.1 0 .2-.1.2.4 0 1.5.4 1.3l-.1-.3c.2.1.6-.1.7.1l-.3.1.1-.2c-.2-.1-.2.2-.4.1-.1.3.3.5-.1.7-.2-.1-.1-.3-.3-.4 0 .3-.1.1-.3.3l.1-.2.1.1c.2-.2-.2-.5.1-.7-.3.1-.4-.4-.5-.7.1.3.4 0 .3-.1.1-.1.1-.1 0 0z"/><path id="XMLID_335_" class="st2" d="M157.6 115.9c0 .1-.2.1-.2.2-.3.1.2-.2.2-.2z"/><path id="XMLID_334_" d="M160.9 114.7l.2-.2v.2z"/><path id="XMLID_333_" d="M168.6 111.9l-.1-.1z"/><path id="XMLID_332_" class="st3" d="M158.5 115.9c-.1 0-.2 0-.3.1h.1l-.2-.2c.2-.1.3.2.4.1z"/><path id="XMLID_331_" class="st2" d="M157.9 115.9l.2.3-.2-.3z"/><path id="XMLID_330_" class="st2" d="M158.9 115.8c-.2-.1-.1 0-.1-.2l.1.2z"/><path id="XMLID_329_" class="st2" d="M147.9 119.9c-.1 0-.1 0 0 0l-.2-.1s.1 0 .2.1z"/><path id="XMLID_328_" class="st2" d="M159 115.5v.2-.2z"/><path id="XMLID_327_" class="st2" d="M157.7 116.2c-.1 0-.1.1 0 .1-.1 0-.1-.2-.1-.2l.1.1z"/><path id="XMLID_326_" class="st2" d="M159.3 115.7l-.1-.1z"/><path id="XMLID_325_" d="M153.1 118.1v-.2h.1z"/><path id="XMLID_324_" class="st2" d="M159.1 115.9l-.1-.1h.2z"/><path id="XMLID_323_" d="M153.6 118.2l-.1-.3v.1z"/><path id="XMLID_322_" d="M161.5 115l-.2.3c.1-.1 0-.4.2-.3z"/><path id="XMLID_321_" d="M169.8 114.2l-.1.1c0-.2 0-.1.1-.1z"/><path id="XMLID_320_" d="M133.6 132.1c.4.3.4.9.4 1.4-.4.7-.8 1.5-1.7 1.4-.3 0-.6-.2-.8-.4-.1-.4-.6-1-.2-1.6.3-.9 1.5-1.6 2.3-.8z"/><path id="XMLID_319_" d="M151.8 125.7c.4.4.1 1 .1 1.3-.2.4-.7.8-1.2.7-.3.1-.5-.1-.7-.3-.2-.4-.3-.9 0-1.3.2-.8 1.3-1 1.8-.4z"/></g></g></g><g id="XMLID_173_"><path id="XMLID_315_" transform="rotate(-3.004 41.084 136.268)" class="st0" d="M19.8 119.3h42.5v34H19.8z"/><g id="XMLID_174_" class="st4"><path id="XMLID_314_" d="M38.6 153.4c.2-.3.4-.5.5-.9-.1-.2-.4 0-.4 0-.8-.5-.9-1.5-1.9-1.7l.3-.3c-.4-.6-.3-1.3-.6-1.9.5-.5-.1-1 .3-1.5l.3.1c.2-.4.2-.8.3-1.2-.5-.4-.5-.9-.6-1.5.1-.3.3-.8.3-1 0 .2 0 .2.2.3.4 0 .3-.6.7-.7.3.4.1 1 .8 1 0-.5-.5-1.2-.2-1.5 0 .2.1.5.3.6.6-.3.1-1 .1-1.5 0-.6-.7-1-.3-1.6 1 1.4 2 2.9 2.6 4.6.8 1.7 1 3.7 1 5.4-.2 1.7-2.1 1.9-2.9 3.1-.1.4-.6 0-.8.2z"/><path id="XMLID_313_" class="st2" d="M41.2 150.2c0-.2.2 0 .1.1l-.1-.1z"/><path id="XMLID_312_" class="st2" d="M41.4 149.5c.3-.2.3.2.4.4l-.2-.2-.3.4c0-.3.3-.4.1-.6z"/><path id="XMLID_311_" class="st2" d="M41.2 149.7s0 .1 0 0z"/><path id="XMLID_310_" class="st2" d="M41.1 149.2H41h.1z"/><path id="XMLID_309_" class="st2" d="M41 148.8c-.1 0 0-.1.1-.2-.1.1 0 .2-.1.2z"/><path id="XMLID_308_" class="st2" d="M41.4 148.6c.1 0 .2.1.1.2-.1 0-.1-.1-.1-.2z"/><path id="XMLID_307_" class="st2" d="M41.9 148.5l.1.2h-.1z"/><path id="XMLID_306_" class="st2" d="M40.7 147.3v-.2.2z"/><path id="XMLID_305_" class="st2" d="M40.9 147c0-.2-.1-.2.1-.4-.3.1.2.4-.1.4z"/><path id="XMLID_304_" class="st2" d="M40.5 146.8v.2-.1z"/><path id="XMLID_303_" class="st2" d="M40.8 146.9l-.2-.1.2.1z"/><path id="XMLID_302_" class="st2" d="M41.8 146.8l-.2-.1.2.1z"/><path id="XMLID_301_" d="M20.3 145.3c.1.2.2.5.3.5-.3.1-.4-.2-.3-.5z"/><path id="XMLID_300_" d="M20.6 145.2c-.1.1-.1.2-.2 0 .2-.2.7.1.5.3-.2-.1 0-.3-.3-.3z"/><path id="XMLID_299_" d="M31.9 143.8c-.4-1 .2-1.8.1-2.9.5 0 .7.6 1.1 0 .1-.1-.1-.2-.1-.3.2.2.5-.2.7-.3 0-.2-.2-.5-.1-.7.3 0 .7.9.9.2l-.1-.5c.5 0 .1 1 .7 1l.3-.6c.1.2-.2.7.2.7s.1-.4.4-.5c.3.4-.4 1.3.4 1.2.3 0 0-.6.3-.2-.5.6.3 1-.2 1.6-.6.4 0 1.2-.9 1.4 0 .5-.7.3-.9.5-.9-.9-1.2.5-2.1 0-.3 0-.5-.4-.7-.6z"/><path id="XMLID_298_" class="st2" d="M35.3 143h.1v.2h-.1z"/><path id="XMLID_297_" class="st2" d="M36.1 142.7c.1 0 .1.1 0 0 0 .1 0 0 0 0z"/><path id="XMLID_296_" class="st2" d="M35.8 142.6l-.1.1-.1-.1z"/><path id="XMLID_295_" class="st2" d="M35.6 142.4c.1-.1.1 0 .2 0-.1.1-.2.1-.2 0z"/><path id="XMLID_294_" class="st2" d="M35.8 142c.2-.4.2.2.5.2-.1-.1-.3.1-.2.2 0-.1-.1-.4-.3-.4z"/><path id="XMLID_293_" class="st2" d="M32.7 142.4c.1.1.2 0 .2 0-.1.2-.1.2-.2 0z"/><path id="XMLID_292_" class="st2" d="M36.3 142.4v-.1s.1.1 0 .1z"/><path id="XMLID_291_" class="st2" d="M36.6 142.1l-.1.2v-.2z"/><path id="XMLID_290_" class="st2" d="M35.4 142.1c0 .1.3 0 .2.2 0-.1-.1-.1-.2-.2z"/><path id="XMLID_289_" class="st2" d="M32.9 142.3l-.1-.1.1.1z"/><path id="XMLID_288_" class="st2" d="M35.6 141.8v.2l-.1-.1z"/><path id="XMLID_287_" class="st2" d="M32.8 141.8c.2.3 0-.3.3 0-.1.2-.2 0-.3 0z"/><path id="XMLID_286_" class="st2" d="M35.9 141.6c-.1-.1-.2-.2-.3-.2.3.1.6-.1.6.1-.1.1-.1.1-.3.1z"/><path id="XMLID_285_" class="st2" d="M36.5 141.4l-.1.2.1-.2z"/><path id="XMLID_283_" class="st2" d="M35.6 140.9c.2 0 .1 0 .3.1l-.1-.3.1-.2c.2.3 0 .5-.2.7 0-.1-.2-.2-.1-.3z"/><path id="XMLID_282_" class="st2" d="M35.2 141.1c.1 0 .1 0 .2.1.2-.1 0-.2 0-.2.2 0 0 .2.1.2-.1-.1-.4 0-.3-.1z"/><path id="XMLID_279_" class="st2" d="M34.8 140.9c.1.2.3 0 .2.2-.2-.1-.3-.1-.2-.2z"/><path id="XMLID_278_" class="st2" d="M35.2 140.5c0 .3.4.1.1.4-.1-.1-.3-.3-.1-.4z"/><path id="XMLID_276_" class="st2" d="M34.9 140.5v.1z"/><path id="XMLID_274_" d="M20.7 141c0-.2 0-.4.2-.5 0 .2-.3.2-.1.4l.1-.1c.3.2-.2.4.2.4.2 0 .2-.2.3-.3 0-.2-.2-.7-.4-.4l.3-.2c.3.1.2.5.1.7-.2.2-.6.4-.7 0z"/><path id="XMLID_273_" d="M37.9 138.4v-.3.3z"/><path id="XMLID_272_" d="M38.2 138l-.2-.6.2.6z"/><path id="XMLID_271_" d="M37.7 137.1l-.1.1-.1-.1z"/><path id="XMLID_270_" d="M37.9 136.7c-.1-.1 0-.2 0-.2 0 .1.1.2 0 .2z"/><path id="XMLID_269_" d="M31.7 136.1c-.1-.5-.5-1-.2-1.5-.1-.9.3-2 1.1-2.4.1-1.3-1.2-2.4-.9-3.7.6-.1.6-.6 1-.9 0-.2 0-.5.2-.7.2.2-.3 1 .3 1.1v-.9c.1.1 0 .5.1.7.4.2.7-.4.7-.7.3.2 0 .6 0 .8.4.2.2-.4.5-.4-.6-.5-.8-1.3-.5-2 .3-.3.4-1.1.9-1.1.3.1.3.6.7.4.4-.4.5-.7.5-1.2.1-.3.4 0 .5.1.1.2.2.5.4.5-.2-.5 0-1.1.3-1.7.3 0 .7.4.8.8 0 .3 0 .7-.2 1-.2.3-.6 0-.8 0 .4.4.8.9.6 1.6-.1.4-.2.8-.6 1.1-.4.3-.7 0-1.1-.2-.2.4-.4.8-.9.9l-.4-.1c0 1 .4 2 0 2.9-.2.4-.3 1-.9 1.1-.2.3-.7 0-1-.1 0 .3-.1.8.3.9.1-.1-.2-.5.1-.5.3.4.5 1 .5 1.5.3 0 .2-.3.5-.3-.1 1 .7 2-.1 2.8.1.4-.5.6-.6.9-.8.2-1.5-.1-1.8-.7z"/><path id="XMLID_267_" class="st2" d="M33.4 136.4c.2 0 .1.1 0 .2.1-.1 0-.3 0-.2z"/><path id="XMLID_266_" class="st2" d="M33.5 136.3c.2.1 0-.2 0-.3-.1.1-.2-.1-.3.1.1-.2-.1-.2.1-.4.1 0 .5.2.6-.2-.3.5-.2.4-.3.9l-.1-.1z"/><path id="XMLID_265_" d="M37.4 136.1l.1-.1-.1.1z"/><path id="XMLID_264_" class="st2" d="M32.3 136.2c0-.2-.2.1-.1-.1l.1.1s-.1.1 0 0z"/><path id="XMLID_263_" class="st2" d="M32.5 136.1h-.2.2z"/><path id="XMLID_262_" d="M33.5 135.9c.1 0 0-.1.1-.2l.1.2h-.2z"/><path id="XMLID_261_" class="st2" d="M31.9 135.2l.4.3h-.1c0 .2.2.2.1.4-.1-.1-.3-.6-.4-.7z"/><path id="XMLID_260_" class="st2" d="M33.2 135.7v.1h-.1z"/><path id="XMLID_240_" class="st2" d="M32.4 135.7c-.1-.1 0-.4.1-.5.2 0 .7.2.6-.3v.2l.1-.1c0 .4.3 0 .4-.1-.2.2.2.3 0 .3 0 .1-.3 0-.3.2.1-.6-.2.2-.4-.3.1.2-.2.1-.1.3-.2 0-.2-.5-.3-.1.3.1-.1.3.2.5l-.3-.1z"/><path id="XMLID_225_" class="st2" d="M33.4 135.4c.1-.2.3.1.3.1 0-.1-.3 0-.3-.1z"/><path id="XMLID_223_" class="st2" d="M33 135.5h.2-.2z"/><path id="XMLID_221_" class="st2" d="M32 135.6l-.2-.1.2.1z"/><path id="XMLID_218_" class="st2" d="M34.1 135c0 .1 0 0 0 0z"/><path id="XMLID_217_" class="st2" d="M33.8 135.1c.2 0 .1-.3.2-.2 0 .1-.1.3-.2.2z"/><path id="XMLID_216_" class="st2" d="M32 134.9c-.2-.1.2.1.2-.1.1.2 0 .3-.2.4v-.3z"/><path id="XMLID_215_" class="st2" d="M32.4 134.8c.1 0 0 .1 0 .1s-.1-.1 0-.1z"/><path id="XMLID_214_" class="st2" d="M32.9 134.9v-.5c-.1.2.2.3.1.5v-.2l-.1.2z"/><path id="XMLID_213_" class="st2" d="M33.4 134.7c.2-.1-.1-.4.2-.4.2.2.5 0 .5.2-.5-.2-.1.4-.7.2z"/><path id="XMLID_212_" d="M33.6 134.5c.2 0 .1.1 0 .2 0-.1-.1-.2 0-.2z"/><path id="XMLID_211_" class="st2" d="M32.7 134.6l-.1.1.1-.1z"/><path id="XMLID_210_" class="st2" d="M33.3 134.5l-.1.2v-.1z"/><path id="XMLID_209_" class="st2" d="M32.3 134.4l-.1.1z"/><path id="XMLID_208_" class="st2" d="M32.6 134.3c.1 0 0 .2-.1.2l.1-.2z"/><path id="XMLID_207_" class="st2" d="M31.8 134.3c.1 0 .2 0 .3-.1 0 .2-.1.2-.3.1z"/><path id="XMLID_206_" class="st2" d="M33.9 133.8l-.1.1c.1-.2-.3-.5 0-.4 0 .2 0 .3.1.4v-.1z"/><path id="XMLID_204_" d="M35.1 133.1l-.1-.2c0 .1.1.3.3.5.3-.2 0 0 .4.1.4-.3.2-.6.2-1-.3 0-.2-.5-.5-.3-.1.2-.2.4-.2.6 0-.2.2-.5.3-.7.3.1.5.4.5.7 0 .3-.1.6-.3.7-.3 0-.6-.2-.6-.4z"/><path id="XMLID_203_" class="st2" d="M32.9 133.5c-.1-.2 0 0 0 0 0 .1 0 0 0 0z"/><path id="XMLID_202_" class="st2" d="M32.1 133.6v-.1.1z"/><path id="XMLID_201_" d="M21.2 132.5c-.7-.3-.5-1.4-.7-2 0-.9.2-1.9.8-2.7.8-.5 1.3-1.6 2.3-2 0-.4.2-.5.1-.9.2-.1.2-.5.5-.3.6.6-.4 1 0 1.6.4.7 1 1.3 1 2-.3.3-.6.7-.7 1.1.1.6.1 1.2.3 1.7 0 .7-.8.9-1 1.4-.4.3-.8.2-1.2.5-.6-.1-1.1.1-1.4-.4z"/><path id="XMLID_200_" d="M54.3 130.5c-.1-.4.1-.8.3-1.1.3.1.6.2.7.6-.1.3-.1.6-.3.7-.3.2-.6.1-.7-.2z"/><path id="XMLID_199_" class="st2" d="M55.1 130.5v-.3.3z"/><path id="XMLID_198_" class="st2" d="M54.5 130.1c.1-.2.2-.3.3-.5.2 0 .2.4.3.1.1.1-.2.4-.2.6-.1 0-.2-.1-.3 0v.1c-.2.2-.1-.1-.1-.3z"/><path id="XMLID_197_" class="st2" d="M33.2 130.5l-.1.2-.1-.1z"/><path id="XMLID_196_" class="st2" d="M33.3 130.4v-.3.3z"/><path id="XMLID_195_" class="st2" d="M32.4 129.6c.1.1.1.2 0 .2v-.2z"/><path id="XMLID_194_" class="st2" d="M33.7 129.5c0 .1.2-.2.2 0h-.2z"/><path id="XMLID_193_" class="st2" d="M32.7 129.4c0-.1-.1-.1-.2 0 0-.3.4 0 .3-.3-.1.2-.4-.1-.3-.1.2 0 .7.1.5-.2 0-.1-.1.4.2.3v-.1c.1.2-.1.2-.3.2l.1.1c-.1 0-.2 0-.3.1z"/><path id="XMLID_192_" class="st2" d="M33.4 129.1c.1 0 0 .2 0 .3v-.3z"/><path id="XMLID_191_" class="st2" d="M33.7 129c.1-.1.2-.1.2 0-.1 0-.2.1-.2 0z"/><path id="XMLID_190_" class="st2" d="M33.9 128.7l.1.1-.2-.1z"/><path id="XMLID_189_" class="st2" d="M32.8 128.6l-.1.2v-.2z"/><path id="XMLID_188_" class="st2" d="M33.4 128.6c0-.1.1-.1.1-.1l-.1.3c-.1-.2-.1-.3 0-.2z"/><path id="XMLID_187_" class="st2" d="M32.3 128.6h.1v.1h-.1z"/><path id="XMLID_186_" class="st2" d="M33.1 128.6h-.2.2z"/><path id="XMLID_184_" class="st2" d="M33.5 128.2v-.1c.1 0 .2.2.3.1-.1.2-.2-.2-.3 0z"/><path id="XMLID_183_" class="st2" d="M33.1 128.2l-.1-.1.1.1z"/><path id="XMLID_182_" class="st2" d="M35.3 126.4l-.1.1v-.1z"/><path id="XMLID_180_" class="st2" d="M36.4 125.6l.1.2-.1-.1z"/><path id="XMLID_179_" d="M41.3 125.2c-.8-.4-1.1-1.5-1.1-2.3.2-.6.5-1.3.9-1.8.3-.3.7-.1 1-.3.2.1.3.6.7.6.3.8 1 1.7.6 2.6-.1 1-1.2 1.4-2.1 1.2z"/><path id="XMLID_178_" d="M59.2 121.2c-.2-.7-.3-1.5 0-2.2.2-.5.8-.8 1.4-.8.1.5.8.6.9 1 .2.5 0 1.1-.1 1.6-.4.5-1 1.3-1.7.9l-.5-.5z"/><path id="XMLID_177_" class="st2" d="M41.7 121.7v.1z"/><path id="XMLID_176_" class="st2" d="M60.4 120.4c.1-.1.3-.1.2-.3.1.3 0 .3-.2.3z"/><path id="XMLID_175_" class="st2" d="M60.4 119.7l-.1-.1.1.1z"/></g></g><g id="XMLID_172_"><g id="XMLID_241_" class="st1"><path id="XMLID_1069_" class="st5" d="M198.7 88c.2 0 0 .6.2.6.2.2.5.3.7.4 0-.4-.1-.7-.1-1.1-.1-.6 0-1.2.1-1.7-.3-.4-.6-.7-.9-1.1-2-2.5-4.1-4.6-6.3-7.1-1.2-1.4-2.2-2.8-3.2-4.2-2-2.8-4.6-4.6-6.3-7.8-.7-1.2-2.7-2.8-3.7-3.6-1.9-.5-2.5 1.7-2.5 1.8-.4 2 .9 1.8 1.7 4-.6-1.4 1.6-.1 1.7 1.7.1 2.7 3.1 3.6 4.5 5.7.3.5.9.9 1.3 1.5 2.2 3.1 5.2 5.1 7.9 8.1.7.8 1.7 1.1 2.5 1.6.5.4.8 1.1 1.2 1.4.6.6 1.2 1 1.9 1.3-.6-.5-1.1-.8-1.7-1.3-.5-.6.6-.4 1-.2zm0-2.3c-.2-.1-.4-.4-.4-.7.4.1.5.4.4.7z"/></g></g><g id="XMLID_171_"><g id="XMLID_227_" class="st1"><path id="XMLID_281_" class="st5" d="M179.7 88.4c.5-.7.9-1.3 1.4-1.9 0-.1-.1-.2 0-.2h.2l.2-.3v-.1c0-.1-.1-.1-.2-.1h-.2.2c.1 0 .2 0 .2-.1s.1-.2.2-.3c0 .1-.1.2-.2.3l-.1.2v.1l.5-.6c0-.1 0-.1.1-.2.1-.2.1-.4.4-.3l.1-.1h-.1.1l.4-.4v-.5h.3c-.1-.1-.1-.2-.1-.3h-.5c-.3 0 .2.5-.2.4.5.2 0-.4.2-.4h.5c0-.2.2-.3.5-.3 0 .3-.3.3-.5.3 0 .1 0 .2.1.3h-.3v.5c.3-.3.5-.6.8-.8 1.7-1.8 3.1-3.7 4.8-5.6.9-1 1.9-2 2.9-2.9 2-1.8 2.9-4.1 5.5-5.5 1-.6 1.9-2.3 2.4-3.2.1-1.6-2.1-2.1-2.2-2.1-1.9-.3-1.4.7-3.2 1.5 1.1-.6.5 1.3-1.1 1.5-2.4.1-2.5 2.8-4 4-.4.3-.6.8-1 1.2-2.2 2-3.2 4.6-5.2 7-.5.7-.6 1.5-.8 2.2-.2.5-.7.7-1 1.1-.4.5-.6 1.1-.7 1.6.3-.5.4-1 .8-1.5.2-.4.3.6.3.9 0 .2-.5 0-.5.2-.2.2-.1.5-.2.9 0 .2-.4-.1-.4-.1-.1.4.2 1-.1 1.1-.2.1-.3.2-.5.3-.1.1-.2.1-.2.2v.2c.2 0 .3.1.5.2-.1.1-.3.1-.3.2.1-.1.3-.1.3-.2-.2-.1-.3-.2-.5-.2-.1.6-.2 1.2-.4 1.8.1-.3.4-.5.8-.6-.2.1-.3 0-.2-.2h.3c-.1.3-.1.6-.6.6v.2c-.1 0-.2-.1-.3-.1 0 .1-.1.1-.1.2.4 0 .9-.1.9-.1z"/><path id="XMLID_280_" class="st5" d="M181.7 85.7s0 .1-.1.1l.4-.5c-.2 0-.3.2-.3.4z"/></g></g><g id="XMLID_170_"><g id="XMLID_229_" class="st1"><path id="XMLID_456_" d="M192.9 98.7s.1 0 0 0c0 0 0-.1-.1-.1 0 0 .1 0 .1.1z"/><path id="XMLID_454_" d="M193 98.5c-.1 0-.1 0 0 0z"/><path id="XMLID_453_" d="M192.8 98.5c.1 0 .1.1.2.1v-.1h-.2z"/><path id="XMLID_452_" d="M192.8 98.5c-.1 0-.1-.1-.2-.1.1 0 .2.1.2.1z"/><path id="XMLID_451_" d="M191.3 97.6s.4.2.3.1c-.1-.1-.3-.3-.2-.3-.1-.1.4.2.3.1-.1-.1-.6-.5-.6-.5 0 .1.1.3.1.4.1.2.3.3.4.5h-.1.2c.2.2-.3-.2-.4-.3z"/><path id="XMLID_449_" d="M192.5 98.9l-.1-.1c.3.1.2 0 .1-.1-.1 0-.1-.1-.2-.1 0 0 .1.1.2.1-.3-.1-.4-.1-.3 0 .1.2.2.2.3.2z"/><path id="XMLID_448_" d="M192.2 98.8s-.1 0 0 0c-.1 0-.1 0 0 0-.1 0-.1 0 0 0z"/><path id="XMLID_447_" d="M192.7 98.1c0-.1.1-.2.2-.3-.1-.1-.2-.1-.1-.1s.1 0 .2.1c0 0-.1-.1-.2-.1 0 0-.1 0-.2-.1 0 0 .1 0 .2.1h.1v-.1.2l.1-.1c0-.1-.1-.1.1 0 0 0 .1 0 .1-.1-.1-.1-.2-.1-.2-.2 0 0 .1.1.2.1-.1-.1-.2-.1-.2-.1-.1-.1-.3-.1-.4-.2-.2-.1.4.3 0 .1.4.2-.2-.2 0-.1.1 0 .2.1.4.2-.1-.1 0-.1.3 0 .2.1 0 .1-.3 0 0 0 .1.1.2.1-.1 0-.2-.1-.2-.1l.2.2c.1 0 .1-.1.2-.1.5-.2.6-.6 1-.9.2-.1.5-.2.9-.3.7-.1.3-.8 1.6-.6.5.1.4-.3.4-.5-.6-.6-2.5-1.5-2.6-1.5-1.6-.7-.8-.2-1.9-.4.6.1.9.7-.2.2-1.8-.7-.6.4-1.2.4-.1 0-.1.1-.2.2-.8.1-.3.9-.7 1.3-.1.1.3.4.4.7 0 .1-.2.1-.3.1 0 .1.1.3.2.4 0-.1-.1-.3-.1-.4 0-.1.5.3.6.5.1.1-.4-.2-.3-.1 0 0 .2.2.2.3.1.1-.3-.2-.3-.1.1.1.6.5.5.4h-.3l.1.1c.1.1.3.1.5.2h-.2.2c-.2-.1-.3-.2-.5-.2.2.2.4.4.5.6 0-.1 0-.1.3 0-.1 0-.2-.1-.2-.1.1 0 .1.1.2.1.1.1.2.2-.1.1l.1.1c-.1 0-.2-.1-.3-.2.7.1 1 .2 1 .2z"/><path id="XMLID_445_" d="M193 97.6h.1c-.2-.2-.2-.1-.1 0z"/></g></g><g id="XMLID_169_"><g id="XMLID_231_" class="st1"><path id="XMLID_476_" d="M190.5 109.9s0-.1-.1-.1l.1.1z"/><path id="XMLID_474_" d="M190.6 109.7c-.1-.1-.1 0 0 0z"/><path id="XMLID_473_" d="M190.4 109.6c.1 0 .1.1.1.1v-.1c0 .1 0 .1-.1 0z"/><path id="XMLID_472_" d="M190.4 109.6c-.1 0-.1-.1-.1-.1 0 .1.1.1.1.1z"/><path id="XMLID_471_" d="M189.2 108.4s.3.3.3.2c-.1-.1-.2-.3-.2-.3-.1-.1.4.3.3.2-.1-.1-.5-.6-.5-.6 0 .1.1.2.1.4l.3.6h-.1c.1 0 .1.1.2.1s-.4-.4-.4-.6z"/><path id="XMLID_469_" d="M189.9 110l-.1-.1c.3.2.2.1.2 0l-.2-.2.2.2c-.2-.2-.3-.2-.3-.1s.1.2.2.2z"/><path id="XMLID_467_" d="M190.4 109.2l.3-.3c-.1-.1-.2-.1-.1-.1s.1.1.2.1h.1s-.1-.1-.2-.1c0 0-.1-.1-.2-.1 0 0 .1.1.2.1s.1.1.1.1v-.1.2s.1 0 .1-.1-.1-.1.1 0h.1c-.1-.1-.1-.2-.2-.2 0 0 .1.1.2.1-.1-.1-.2-.1-.2-.2-.1-.1-.3-.1-.4-.2-.2-.1.4.3 0 .1.4.2-.2-.2 0-.1.1 0 .2.1.4.2-.1-.1 0-.1.3 0 .1.1 0 .1-.3 0l.2.2c-.1 0-.2-.1-.2-.1 0 .1.1.1.2.2l.2-.1c.5-.2.7-.6 1.1-1 .2-.2.5-.4.9-.5.7-.4.2-1 1.6-1.3.5-.2.3-.7.3-.9-.8-.4-2.9-.4-3-.4-1.8 0-.8.2-1.9.2.6-.1 1.1.3-.1.2-1.9-.2-.5.4-1 .5-.1 0-.1.1-.1.1-.7.1-.1.7-.4.9 0 .1.3.4.5.6 0 .1-.2 0-.2.1s.1.2.2.4c0-.1-.1-.2-.1-.4 0-.1.5.4.6.5.1.1-.4-.2-.3-.1 0 0 .1.2.2.3.1.1-.3-.2-.3-.2.1.1.5.5.4.5l-.2-.1h-.1l.1.1c.1.1.3.2.4.3 0 0-.1-.1-.2-.1 0 0 .1.1.2.1-.1-.1-.3-.2-.4-.3.2.2.3.5.4.7 0-.1.1-.1.3.1-.1-.1-.2-.1-.2-.2l.2.1c.1.1.1.3-.2.1l.1.1c-.1 0-.2-.1-.3-.2.3 0 .6.2.6.2z"/><path id="XMLID_450_" d="M190.8 108.7s0 .1 0 0h.1c-.2-.1-.1 0-.1 0z"/></g></g><g id="XMLID_33_"><g id="XMLID_233_" class="st1"><path id="XMLID_496_" d="M179.4 118.4c.1 0 0-.1 0-.2v.2z"/><path id="XMLID_494_" d="M179.6 118.3c0 .1 0 .1 0 0z"/><path id="XMLID_492_" d="M179.5 118.2c0-.1 0-.1-.1-.2.1.1.1.1.1.2z"/><path id="XMLID_491_" d="M179.2 116.5c0-.1.1.4.1.3v-.4c0-.1.1.4.1.3 0-.1 0-.8-.1-.8-.1.1-.1.2-.2.3 0 .2-.1.4-.1.6h-.1c0 .1.1.1.1.2.2.2.2-.4.2-.5z"/><path id="XMLID_489_" d="M178.9 118.2v-.2c.1.3.1.2.2.1l-.1-.2v.3c-.1-.3-.2-.3-.2-.3 0 .1 0 .2.1.3z"/><path id="XMLID_487_" d="M179.7 117.8c.1-.1.3-.1.4-.1v-.2c0 .1.1.1.1.2h.1c0-.1 0-.1-.1-.2 0 0 0-.1-.1-.2 0 0 0 .1.1.2 0 .1 0 .1.1.1 0 0 0-.1 0 0s0 .1 0 0v.1h.1c0-.1 0-.1.1.1h.1v-.3s.1.1.1.2v-.2c-.1-.1-.1-.3-.2-.4-.1-.2.1.5-.1.1.2.4 0-.3.1-.1 0 .1.1.2.2.4 0-.1.1 0 .2.2 0 .2-.1 0-.2-.2v.2c0-.1-.1-.2-.1-.2v.3l.2.1c.5.1.9-.1 1.5-.1.3 0 .6.1 1 .2.8.2.8-.6 2 .1.4.2.6-.2.8-.4-.3-.8-1.8-2.3-1.9-2.4-1.3-1.3-.7-.4-1.6-1.1.5.4.6 1-.3.1-1.3-1.4-.6 0-1.1-.3-.1-.1-.1 0-.2 0-.6-.4-.6.5-1 .5-.1 0 0 .5 0 .8 0 .1-.2-.1-.2-.1-.1 0-.1.2-.1.4.1-.1.1-.3.1-.4 0 0 .2.6.2.8 0 .1-.2-.4-.2-.3v.4c0 .1-.1-.4-.1-.3 0 .1.1.7 0 .6l-.1-.2h-.1v.1c0 .1.1.3.1.5l-.1-.1.1.1c-.1-.2-.1-.4-.1-.5 0 .3 0 .6-.1.8 0-.1.1 0 .2.2 0-.1-.1-.2-.1-.3l.1.2c0 .1 0 .3-.2 0v.2c0-.1-.1-.2-.1-.3.3.4.4.7.4.7z"/><path id="XMLID_470_" d="M180.3 117.7l.1.1c-.1-.3-.1-.2-.1-.1z"/></g></g><g id="XMLID_219_"><g id="XMLID_234_" class="st1"><path id="XMLID_516_" d="M167.2 125.3s.1 0 0 0v-.2.2z"/><path id="XMLID_514_" d="M167.4 125.1c0 .1 0 .1 0 0z"/><path id="XMLID_512_" d="M167.3 125c0-.1 0-.1-.1-.2.1.1.1.2.1.2z"/><path id="XMLID_511_" d="M166.9 123.4c0-.1.1.4.1.3v-.4c0-.1.2.4.1.3 0-.1 0-.8-.1-.8-.1.1-.1.2-.2.3 0 .2 0 .5-.1.6h-.1c0 .1.1.1.1.2.3.2.2-.4.2-.5z"/><path id="XMLID_509_" d="M166.7 125.1v-.2c.1.3.1.2.1 0 0-.1-.1-.2-.1-.2s0 .2.1.3c-.1-.3-.2-.3-.2-.2.1.1.1.2.1.3z"/><path id="XMLID_508_" d="M166.6 124.8s0-.1 0 0c0-.1 0-.1 0 0 0-.1 0-.1 0 0z"/><path id="XMLID_507_" d="M167.5 124.7c.1-.1.2-.1.4 0v-.2c0 .1.1.1.1.2h.1v-.2s0-.1-.1-.2c0 0 0 .1.1.2 0 .1 0 .1.1.1 0 0 0-.1 0 0s0 .1 0 0v.1h.1c0-.1 0-.1.1.1h.1v-.3l.1.2v-.2c-.1-.1-.1-.3-.1-.4-.1-.2.1.5-.1 0 .1.4 0-.3.1 0 0 .1.1.2.1.4 0-.1.1 0 .1.2s-.1 0-.1-.2v.2c0-.1-.1-.2-.1-.2v.3c.1 0 .1.1.2.1.5.2.8.1 1.2.2.2.1.5.2.8.5.5.5.7-.3 1.4.8.3.4.5.1.6 0 0-.8-.6-2.8-.6-3-.6-1.7-.4-.7-.9-1.7.3.5.2 1.1-.3 0-.7-1.7-.7-.2-1.1-.6-.1-.1-.2 0-.3 0-.6-.5-.8.4-1.3.3-.1 0-.1.5-.2.8-.1.1-.2-.1-.3-.1-.1 0-.1.2-.2.4.1-.1.1-.3.2-.3s.1.6.1.8c0 .1-.2-.4-.1-.3v.4c0 .1-.1-.4-.1-.3 0 .1.1.7 0 .6 0-.1-.1-.1-.1-.2h-.1v.1c0 .1.1.3.1.5l-.1-.1.1.1c0-.2-.1-.4-.1-.5 0 .3 0 .6-.1.8 0-.1.1 0 .2.2 0-.1-.1-.2-.1-.3 0 .1.1.2.1.2 0 .1 0 .3-.1 0v.2c0-.1-.1-.2-.1-.3 0 .3.2.6.2.6z"/><path id="XMLID_490_" d="M168 124.5c0 .1 0 .1 0 0 0 .1.1.1 0 0 0-.1 0 0 0 0z"/></g></g><g id="XMLID_220_"><g id="XMLID_235_" class="st1"><path id="XMLID_536_" d="M147.3 128.1c.1 0 0-.1 0-.1.1-.1 0 0 0 .1z"/><path id="XMLID_535_" d="M147.4 128.1c.1 0 0 0 0 0z"/><path id="XMLID_534_" d="M147.6 128c-.1 0-.1 0 0 0-.1.1-.1.1 0 0z"/><path id="XMLID_532_" d="M147.5 127.9v-.2.2z"/><path id="XMLID_531_" d="M147.7 126.2v.3c.1-.1.1-.3.1-.3v.3c.1-.1.2-.8.1-.8-.1.1-.2.2-.2.3l-.3.6v-.1.2c.1.2.2-.4.3-.5z"/><path id="XMLID_529_" d="M146.9 127.7c0-.1.1-.2.1-.2 0 .4.1.2.1.1v-.2s-.1.2 0 .3c0-.3 0-.4-.1-.3 0 .1-.1.3-.1.3z"/><path id="XMLID_528_" d="M146.9 127.4c.1 0 .1 0 0 0z"/><path id="XMLID_527_" d="M147.8 127.6c.1 0 .3 0 .4.1v-.1.2h.1v-.4.3h.1c0 .1 0 .1-.1 0v.1s.1 0 .1.1c0-.1.1-.1.1.1l.1.1c0-.1 0-.2.1-.3 0-.1 0-.3-.1-.4 0-.2 0 .5-.1 0 0 .5 0-.3.1 0 0 .1 0 .3.1.4 0-.1.1 0 .1.2s-.1 0-.1-.2c0 .1 0 .2-.1.3l.2.1c.4.3.8.2 1.3.4.3.1.5.3.8.5.6.5.8-.3 1.7.7.3.3.6 0 .8-.1-.1-.8-1-2.7-1.1-2.8-.8-1.6-.5-.6-1.1-1.6.4.5.3 1.1-.2 0-.7-1.7-.5-.2-.9-.6-.1-.1-.1 0-.2 0-.4-.6-.6.3-.9.1-.1 0-.1.5-.2.7-.1.1-.1-.2-.2-.2s-.1.2-.2.4c.1-.1.1-.2.2-.3.1 0 0 .6-.1.8 0 .1 0-.4-.1-.3 0 0-.1.2-.1.4v-.3c-.1.1-.1.7-.1.6l-.1-.2v.1c-.1.3-.2.5-.3.7.1 0 .1 0 .1.3v-.3.2c-.1.1-.1.3-.1-.1v-.2.5z"/><path id="XMLID_510_" d="M148.3 127.6c0 .1 0 .1 0 0l.1.1c0-.2 0-.1-.1-.1z"/></g></g><g id="XMLID_222_"><g id="XMLID_237_" class="st1"><path id="XMLID_556_" d="M118.3 118.7s0 .1 0 0c.1 0 .1 0 .1-.1-.1-.1-.1 0-.1.1z"/><path id="XMLID_554_" d="M118.6 118.7c-.1 0-.1 0 0 0-.1.1-.1.1 0 0z"/><path id="XMLID_553_" d="M118.5 118.6c0 .1 0 .1-.1.2l.1-.1v-.1z"/><path id="XMLID_552_" d="M118.5 118.6v-.2.2z"/><path id="XMLID_551_" d="M119 116.9s-.1.4 0 .3c.1-.1.2-.3.3-.3.1-.1 0 .4 0 .3.1-.1.4-.7.3-.7-.2 0-.3.1-.4.2-.2.2-.3.4-.5.5 0 0-.1 0-.1-.1 0 .1 0 .2.1.2-.1.3.2-.3.3-.4z"/><path id="XMLID_549_" d="M117.8 118.3l.1-.1c0 .4.1.2.2.1v-.2s-.1.1-.1.3c0-.3 0-.4-.1-.3-.1 0-.1.1-.1.2z"/><path id="XMLID_548_" d="M117.8 118s.1 0 0 0c.1-.1.1-.1 0 0 .1-.1 0 0 0 0z"/><path id="XMLID_547_" d="M119 118.4c.2 0 .3.1.5.2 0-.1.1-.2.1-.1v.2h.1s0-.1.1-.2v-.2.3l-.1.1.1.1c.1-.1.1-.1.1.1l.1.1c0-.1.1-.2.2-.2v.2c0-.1.1-.2.1-.2v-.4c0-.2-.2.5-.1 0-.1.5.1-.2.1 0v.4c.1-.1.1 0 .1.3-.1.2-.1 0-.1-.3 0 0-.1.1-.1.2v-.2c0 .1-.1.2-.2.2l.2.2c.4.4.9.5 1.4.9.3.2.5.5.7.8.4.7 1.1.2 1.3 1.5.1.5.6.4.8.4.5-.7.9-2.8.9-2.9.3-1.8-.1-.8-.2-2 .1.6-.5 1.1-.4-.2.2-1.9-.7-.6-.9-1.1-.1-.1-.2-.1-.3-.2-.4-.8-1.2-.2-1.8-.5-.2 0-.4.4-.6.6-.1.1-.2-.2-.3-.2-.1 0-.3.1-.5.3.1-.1.3-.2.4-.2.1 0-.2.6-.3.7-.1.1 0-.4 0-.3-.1 0-.2.2-.3.3-.1.1.1-.4 0-.3-.1.1-.3.7-.4.5 0-.1 0-.2-.1-.2 0 0 0-.1-.1 0l-.1.1c0 .1-.1.3-.1.5v-.2.2c0-.2.1-.4.1-.5-.2.2-.4.5-.5.6.1 0 .1 0 .1.3 0-.1 0-.2.1-.3v.2c-.1.1-.2.2-.2-.1l-.1.1c0-.1 0-.2.1-.3h-.1c.1.4.2.7.2.7z"/><path id="XMLID_530_" d="M119.7 118.6c-.1 0-.1 0 0 0 0 .1 0 .1.1.1 0-.2-.1-.2-.1-.1z"/></g></g><g id="XMLID_224_"><g id="XMLID_257_" class="st1"><path id="XMLID_576_" d="M95.5 103.2c.1 0 .1 0 .1-.1-.1-.1-.1 0-.1.1z"/><path id="XMLID_575_" d="M95.6 103.3c.1 0 0 0 0 0z"/><path id="XMLID_574_" d="M95.8 103.2c-.1 0 0 .1 0 0z"/><path id="XMLID_573_" d="M95.7 103.1c0 .1 0 .1-.1.2l.1-.1v-.1z"/><path id="XMLID_572_" d="M95.7 103.1v-.2.2z"/><path id="XMLID_571_" d="M96.2 101.4s-.1.4 0 .3l.3-.3c.1-.1 0 .4 0 .3.1-.1.5-.7.4-.7-.2 0-.4.1-.6.1-.2.2-.4.3-.6.5 0 0-.1 0-.1-.1l.1.3c.1.3.4-.3.5-.4z"/><path id="XMLID_569_" d="M94.8 102.8c0-.1.1-.2.1-.2 0 .4.1.2.2.1v-.2c-.1 0-.1.2-.1.3 0-.3-.1-.4-.2-.3.1 0 0 .2 0 .3z"/><path id="XMLID_567_" d="M96.3 102.9c.2 0 .4.1.6.3 0-.1.1-.2.1-.1v.2l.1.1s.1-.1.1-.2v-.2.3h.1-.2c.1 0 .1.1.2.1h.1c.1 0 .1-.1.1.1l.1.1c.1-.1.1-.2.2-.2 0 0 0 .2-.1.2.1-.1.1-.2.2-.2 0-.1.1-.3.1-.4.1-.2-.3.4-.1 0-.1.4.2-.2.1 0 0 .1-.1.3-.1.4.1-.1.1.1 0 .3-.1.2-.1 0 0-.3l-.2.2c0-.1.1-.2.1-.2-.1 0-.1.1-.2.2l.2.2c.5.6 1 .8 1.4 1.4.2.3.4.7.4 1.1.1.8 1 .8.5 2-.2.4.2.6.4.7.8-.2 2.5-1.5 2.6-1.6 1.3-1.2.4-.8.9-1.8-.3.6-1 .5-.3-.5 1.1-1.6-.6-1.2-.7-1.9 0-.2-.2-.2-.4-.4-.4-1.1-1.7-1.1-2.5-1.7-.2-.1-.7.2-1 .3-.2 0-.2-.3-.4-.3-.2-.1-.4 0-.7.1.2 0 .4-.1.6-.1.1 0-.3.5-.5.6-.1.1.1-.4 0-.4s-.2.1-.4.2c-.1.1.1-.4.1-.3-.2.1-.5.6-.5.5l-.1-.3s0-.1-.1-.1l-.1.1c0 .1-.1.3-.1.5v-.2.2c.1-.2.1-.4.1-.5-.2.2-.5.4-.7.6.1 0 .2.1.2.4 0-.1 0-.2.1-.3v.2c-.1.1-.2.2-.2-.1l-.1.1c0-.1 0-.2.1-.3h-.1v.9z"/><path id="XMLID_550_" d="M97.2 103.2s-.1 0 0 0l.1.1c0-.2-.1-.1-.1-.1z"/></g></g><g id="XMLID_226_"><g id="XMLID_277_" class="st1"><path id="XMLID_596_" d="M80.6 92.2c.1 0 .1-.1 0-.1v.1z"/><path id="XMLID_594_" d="M80.9 92.1c0 .1 0 .1 0 0z"/><path id="XMLID_592_" d="M80.8 92v-.2.2z"/><path id="XMLID_591_" d="M81 90.3v.3c.1-.1.2-.3.2-.3 0-.1 0 .4.1.3.1-.1.4-.8.2-.7-.2.1-.3.2-.5.2-.1.2-.3.4-.4.6 0 0-.1 0-.1-.1 0 .1.1.2.1.2.1.2.3-.4.4-.5z"/><path id="XMLID_589_" d="M80 91.8v-.2c.1.4.1.2.2.1v-.2.3c-.1-.3-.2-.3-.2-.3v.3z"/><path id="XMLID_588_" d="M79.9 91.5c.1 0 .1 0 0 0z"/><path id="XMLID_587_" d="M81.3 91.7c.2 0 .4 0 .6.1 0-.1.1-.2.1-.1v.2h.1v-.4.3h.1c0 .1-.1 0-.1 0l-.1.1c.1 0 .1.1.2.1.1-.1.1-.1.1.1l.1.1c0-.1.1-.2.1-.3v.2c0-.1.1-.2.1-.2v-.4c0-.2-.2.5-.1 0-.1.5.1-.3.1 0v.4c.1-.1.1 0 .1.3-.1.2-.1 0-.1-.3 0 0-.1.1-.1.2v-.2c0 .1-.1.2-.1.3l.2.2c.5.4 1 .5 1.5.9.2.2.4.5.6.9.2.7 1 .4.8 1.7-.1.5.3.5.5.5.7-.5 1.8-2.2 1.9-2.4.9-1.5.2-.9.4-2-.1.7-.8.8-.4-.3.6-1.8-.7-.9-1-1.5-.1-.2-.2-.2-.4-.3-.6-.9-1.6-.5-2.4-.9-.2-.1-.5.3-.8.5-.2.1-.3-.2-.4-.2-.2 0-.4.1-.5.3.2-.1.3-.2.5-.2.1 0-.2.6-.3.7-.1.1 0-.4-.1-.3-.1 0-.2.2-.3.3-.1.1 0-.4 0-.3-.1.1-.3.7-.3.6l-.1-.2s-.1-.1-.1 0l-.1.1v.5s0-.1-.1-.2c0 0 0 .1.1.2v-.5c-.2.3-.4.5-.5.7.1 0 .2 0 .2.3V91v.2c-.1.1-.2.3-.2-.1 0 0 0 .1-.1.2v-.4h-.1c.3.5.4.8.4.8z"/><path id="XMLID_570_" d="M82.1 91.8s-.1 0 0 0l.1.1c0-.2-.1-.1-.1-.1z"/></g></g><g id="XMLID_228_"><g id="XMLID_251_" class="st1"><path id="XMLID_616_" d="M68.7 83.3v-.1.1z"/><path id="XMLID_615_" d="M68.7 83.3c.1 0 .1 0 0 0 .1 0 0 0 0 0z"/><path id="XMLID_614_" d="M68.8 83.2c0 .1 0 .1 0 0z"/><path id="XMLID_612_" d="M68.8 83.1v-.2.2z"/><path id="XMLID_611_" d="M69.1 81.4c0-.1-.1.4 0 .3.1-.1.1-.3.1-.3v.3c.1-.1.2-.8.2-.7-.1.1-.2.2-.2.3l-.3.6v-.1.2c0 .1.1-.5.2-.6z"/><path id="XMLID_609_" d="M68.4 82.9v-.2c0 .4 0 .2.1.1v-.2.3c0-.3 0-.3-.1-.3v.3z"/><path id="XMLID_608_" d="M68.4 82.6s.1 0 0 0c.1 0 .1-.1 0 0 .1 0 0 0 0 0z"/><path id="XMLID_607_" d="M69.1 82.8c.1 0 .2 0 .3.1v-.3.3c0 .1 0 .1 0 0v.1l.1.1c0-.1.1-.1 0 .1l.1.1c0-.1.1-.2.1-.3v.2c0-.1 0-.2.1-.2v-.4c0-.2-.1.5-.1 0-.1.5.1-.3.1 0v.6c-.1.2-.1 0 0-.2 0 0 0 .1-.1.2V83c0 .1-.1.2-.1.3l.1.1c.2.4.5.3.8.6.1.2.3.4.4.7.2.6.6 0 .7 1.3 0 .4.3.2.4.2.3-.8.5-2.9.6-3 .2-1.8 0-.8-.1-1.9 0 .6-.3 1.1-.2-.1.1-1.9-.4-.4-.5-.9 0-.1-.1-.1-.2-.1-.2-.7-.7 0-1-.2-.1 0-.2.4-.4.7-.1.1-.1-.2-.1-.2-.1 0-.2.2-.3.4.1-.1.2-.2.2-.3.1 0-.1.6-.2.7V81s-.1.2-.1.3V81c-.1.1-.2.7-.2.6v-.2s0-.1 0 0v.1c0 .1 0 .3-.1.5v-.2.2c0-.2.1-.4.1-.5-.1.3-.2.5-.3.7 0 0 .1 0 .1.3v-.3.2c-.1.1-.1.3-.1-.1v-.1c-.1.3-.1.6-.1.6z"/><path id="XMLID_590_" d="M69.4 82.9v.1c.1-.3.1-.2 0-.1z"/></g></g><g id="XMLID_230_"><g id="XMLID_238_" class="st1"><path id="XMLID_627_" d="M46.9 80.3c.1 0 0-.1 0-.2v.2z"/><path id="XMLID_465_" d="M47.2 80.1c-.1 0-.1 0 0 0-.1.1 0 .1 0 0z"/><path id="XMLID_259_" d="M47 80.1v.1c.1 0 .1-.1 0-.1z"/><path id="XMLID_258_" d="M47 80.1c0-.1 0-.1-.1-.2.1 0 .1.1.1.2z"/><path id="XMLID_256_" d="M46.8 78.4c0-.1.1.4.1.3 0-.1.1-.4.1-.4 0-.1.2.4.2.3.1-.1.1-.8 0-.8-.2.1-.3.2-.4.4-.1.2-.2.5-.3.7h-.1l.2.2c.1 0 .1-.6.2-.7z"/><path id="XMLID_255_" d="M46.2 80.1v-.2c.1.3.2.2.2 0l-.1-.2v.3c-.1-.3-.2-.3-.3-.2.1.1.2.3.2.3z"/><path id="XMLID_253_" d="M47.4 79.7c.2-.1.4-.1.6 0v-.2c0 .1 0 .1.1.2h.1v-.2s0-.1-.1-.2c0 0 0 .1.1.2 0 .1 0 .1.1.1 0 0 0-.1.1 0 0 .1 0 .1-.1 0v.1h.2c0-.1.1-.1.1.1h.1c0-.1 0-.2.1-.3 0 0 0 .2.1.2v-.2c0-.1-.1-.3-.1-.4-.1-.2 0 .5-.1 0 .1.5 0-.3.1 0 0 .1.1.3.1.4 0-.1.1 0 .2.2 0 .2-.1 0-.2-.2v.2c0-.1-.1-.2-.1-.2 0 .1 0 .2-.1.3l.3.1c.6.2 1.2.2 1.8.4.3.1.7.3 1 .6.6.6 1.2-.1 1.7 1.2.2.4.6.3.8.2.4-.8.5-2.9.5-3 0-1.8-.3-.8-.6-1.9.2.6-.3 1.1-.5-.1-.3-1.9-1-.4-1.5-.9-.1-.1-.3 0-.4-.1-.8-.6-1.6.2-2.4.1-.2 0-.4.5-.5.8-.1.1-.3-.1-.4-.1-.2 0-.3.2-.4.4.1-.1.2-.3.4-.3.1 0 0 .6-.1.8 0 .1-.1-.4-.2-.3-.1 0-.1.2-.2.4 0 .1-.1-.4-.1-.3-.1.1-.1.8-.2.6l-.2-.2h-.1v.1c0 .1.1.3.1.5l-.1-.1.1.1c0-.2-.1-.4-.1-.5-.1.3-.2.6-.3.8.1-.1.2 0 .3.2-.1-.1-.1-.2 0-.3l.1.2c-.1.1-.1.3-.2 0v.2c0-.1-.1-.2-.1-.3l.2.6z"/><path id="XMLID_252_" d="M48.2 79.5c0 .1 0 .1 0 0l.1.1c0-.2 0-.1-.1-.1z"/></g></g><g id="XMLID_232_"><g id="XMLID_236_" class="st1"><path id="XMLID_250_" d="M31.9 86.4s.1 0 0 0v-.2.2z"/><path id="XMLID_248_" d="M32.1 86.2c0 .1 0 .1 0 0z"/><path id="XMLID_247_" d="M32 86.2c0 .1.1.1.1.2v-.1l-.1-.1z"/><path id="XMLID_246_" d="M32 86.2c0-.1-.1-.1-.1-.2 0 .1.1.1.1.2z"/><path id="XMLID_245_" d="M31.4 84.6c0-.1.2.4.2.3v-.4c0-.1.2.4.2.3 0-.1-.1-.8-.2-.7-.1.1-.1.3-.2.4v.7h-.1l.2.2c0-.1-.2-.7-.1-.8z"/><path id="XMLID_244_" d="M31.4 86.3v-.2c.2.3.2.2.2 0 0-.1-.1-.1-.1-.2 0 0 0 .2.1.3-.2-.2-.2-.3-.3-.2 0 .1 0 .3.1.3z"/><path id="XMLID_242_" d="M32.2 85.7c.1-.1.3-.1.4-.1 0-.1-.1-.2 0-.1 0 .1.1.1.1.1h.1c0-.1 0-.1-.1-.2 0 0-.1-.1-.1-.2 0 0 .1.1.1.2s.1.1.1.1 0-.1 0 0 0 .1 0 0v.1h.2c0-.1 0-.1.1.1h.1v-.3s.1.1.1.2c0-.1-.1-.2-.1-.2-.1-.1-.2-.3-.2-.4-.1-.2.1.5-.1.1.2.4-.1-.3.1-.1.1.1.1.2.2.4 0-.1.1 0 .2.2 0 .2-.1 0-.2-.2 0 0 0 .1.1.2 0-.1-.1-.2-.1-.2v.3h.2c.5.1.9-.1 1.5-.1.3 0 .6.1.9.3.7.3.8-.4 1.8.5.3.3.6 0 .7-.1-.1-.8-1-2.7-1.1-2.8-.8-1.6-.6-.6-1.2-1.5.4.5.3 1.1-.4.1-1-1.6-.8-.1-1.3-.4-.1-.1-.2 0-.3 0-.7-.4-.9.5-1.5.6-.1.1-.1.5-.1.8-.1.1-.2-.1-.3 0-.1 0-.1.2-.1.5.1-.1.1-.3.2-.4.1-.1.2.6.2.7 0 .1-.2-.4-.2-.3v.4c0 .1-.2-.3-.2-.3 0 .1.2.7.1.6l-.2-.2h-.1v.1c.1.1.1.3.2.5l-.1-.1.1.1c-.1-.2-.1-.3-.2-.5v.8c0-.1.1-.1.3.2-.1-.1-.1-.2-.1-.3 0 .1.1.1.1.2s0 .3-.2 0v.2c0-.1-.1-.2-.2-.3.3.5.5.7.5.7z"/><path id="XMLID_239_" d="M32.8 85.5c0 .1.1.1.1.1-.1-.3-.1-.2-.1-.1z"/></g></g></svg>