<svg id="Layer_1" xmlns="http://www.w3.org/2000/svg" viewBox="0 0 234.1 224.7"><style>.st0{opacity:.85}.st1{fill:#fff}.st1,.st2{opacity:.3}.st3{opacity:.8}.st4{fill:none}.st5{opacity:.2;fill:#fff}</style><path id="XMLID_27_" d="M-26.2 6v.5V6z"/><path id="XMLID_28_" d="M-25.9 12.1v-.5.5z"/><path id="XMLID_94_" d="M165 119l.1-1.2-2.1-.2c.1-1.3 1.4-2.4 1.9-3.6h.1c.2-.4.3-.8.2-1.2-.1-.5-3-.9-4.1-1.9-.3-.3.5-.8.8-1.4-1.7-.2-1.7-.8-.9-1.3l-.8-.2c.1-.2.5-.8.5-.8-4.1-1.2-8.7-3.1-12.9-2.7-.9 0-2.4.4-3.4.6-.5.1-1.5-.3-1.9-.4-.7.5-.7 1.2-1 1.8-3-.9-9.5-2.5-9.4-.3-2.4-.3-3 .7-5.6.6-3.4-.1-7.7-.2-11.9-.4h-.1c0-.4.1-.9.1-1.3 0-2.6-.1-4.6.1-6.1.3-1.5-.7-5.2-.7-7.8l.6.6c0-.9.1-2.6.1-3.5 0-.9.2-.7.5-.4.4.4.8.8 1.1-.7.3-3.6.5-7.3.6-11.1-.4-3.7-.7-7.4-1.1-11.1-.3-.2-.6-.5-.8-1-.1-1.1-.3-2.2-.4-3.3-.6-.7-1.3-.4-1.7-.9-1.3 0-2.5-2.5-3.8-3.4v-.1.1c-.4-.3-.8-.4-1.3-.1-.5.4-.7 6.8-1.5 9.6-.3.7-.8-.9-1.4-1.5 0 3.7-.7 4-1.2 2.4-.1.9-.1 1.8-.1 1.8-.2-.2-.8-.9-.8-.9-.4 4.2-.8 8.7-1.1 13.2v-8.3c0-5.5 0-11.8.1-18.2l-1.4-.2v.7c.1 4.6 0 9.8.2 14.3.1 1.1.1 2.1.1 3.1-.3-4-.6-8.1-.8-12.1 0-2.1-.1-4.1-.1-6.2l-4.7-.5V55c.1 2.6.1 5.3.1 8l-.1-8v-1.5l-2.4-.3c-.1 9.4.2 17.2.5 20.2.7 7.7 2.6 14.6 3.7 23.1.3 2.8.3 5.2.8 7.3-4.8-.6-8.8-.9-10.3-.9-2.5.1-4.9.7-7.5 1.1-3.6-.2-7.2-.3-11-.3v1c-3-.4-6.7-.9-10.7-1.4-1.8-.2-3.8-.4-5.7-.6l-.1 1.3c2.2.2 4.4.3 6.4.4 2.8.2 5.4.6 8 .9-.2 0-.5.1-.7.1l-13.8-.9v.4l12.9.6c-1.5.2-3 .4-4.4.6-2.9-.2-5.7-.3-8.5-.4l-.5 4.8 2.1.3c-.1.1-.1.2-.2.3l-2-.2-.3 3-.1 1.3s0 .1.1.1c.4.5 6.1.3 8.7 1.1.6.2-.8.9-1.3 1.6 3.3-.1 3.5.6 2.2 1.2.8 0 1.6.1 1.6.1-.2.2-.7.9-.7.9 8.4.5 17.7 2.1 25.9 1.6 1.8 0 4.7-.4 6.7-.6 1-.1 3.1.4 3.9.5 1.4-.5 1.3-1.2 1.8-1.8.1 0 .2.1.3.1 0 .5.1 1 .1 1.5.1 1.5.3 2.9.4 4.3-.3 3.7-1.2 8.3-.7 8.7 2.6 2 .7.6 1.6 7.7 0 .4.3 1.1.6 1.9.2 1.9.3 3.6.4 5.3.6 7.6 1.1 13.4 1.3 16.9l1.4 5.1c.2-3.2 0-8.5-.5-14.9.4 1.4.8 3 1.2 5 1.4 5.7 1.6 8.9 2.2 12.3l7.9.9c-.3-4.3-.5-8.2 0-12.7-2-9.7-1.3-22.9-2.2-33.3-.2-2.7-.3-5-.4-7.1 2.9.2 5.1 0 5-.9 2.4.3 3.9.2 5.4.1.6 0 1.2.1 1.9.1 9.1.2 11 1.9 19.2 1.3 2.8.3 5.7.6 8.6.9 3.7.3 7.3.8 11 1.3l.1-1.2h.1l-.1-4.2zm-44.4-6.7c3.8.1 8 1.3 11.6 1.4 2.5.1 4.2.5 5.8 1-5.8-.9-11.6-1.7-17.4-2.4z"/><g id="XMLID_33_"><g id="XMLID_34_"><g id="XMLID_35_" class="st0"><path id="XMLID_396_" d="M96.8 108.1c.5.2 1.7-.2 2 .7 1.6.4 1.9 1.9 2.9 3-.6.4.2.7.2 1.2.2.3.7.4.8.7-.3.4-.7-.5-.9.2-.4 1.1 1.2 1.5 1.3 2.4-.7-.1-1-1.3-1.8-.9-.2.7-.4 1.6-.2 2.1.2-.3.6-.7 1-.6.2.2 0 .5-.1.6-.4.4-.9.4-1.2.6-.4.7-.3 1.4-.1 2.1.3-.1.4.2.5.5.3.9-.8 1.4-.4 2.3.2.6.8.9.9 1.5-.1.2-.3.4-.6.4-.8-.3-.4-1.3-1.4-1.4-.3.1-.2.4-.2.7.6.4.5 1.1.9 1.6-.3-.2-.2.2-.3.3-.9-.9-.9-2.6-2.1-2.9-.1.2-.2.5-.5.4-.1-.2-.3-.4-.6-.5-1.3.4-1.2 2.1-2.1 2.9.5-1 .4-2.5.5-3.5-.1.9-1.1 1.5-1.5 1.8.3-1.2.6-1.8 1.2-2.8-.5-1-1.4-1.8-2.4-2.5-.6 0-1.1 1-1.8.4.2-.6 1.1-.3 1.5-.8 0-.5.7-.8.5-1.3-.1 0-.4.1-.4-.1.1-.4.8-.7.3-1.1-.2-.1-.5-.2-.6-.1l.3-.6c-.8-.5-.7.7-1.3.7 1.1-1.7.9-3.9 2-5.6.9-1.3 2.1-2.6 3.7-2.4z"/><path id="XMLID_395_" class="st1" d="M98.1 109.7v-.1z"/><path id="XMLID_394_" d="M79.5 121.1c.4.5.5 1 .1 1.5-.4.4-1.1.6-1.6.4-.5-.2-.1-.8-.4-1.1.2-.7 1.3-1.1 1.9-.8z"/><path id="XMLID_393_" class="st1" d="M98.4 111.7v-.2.1z"/><path id="XMLID_392_" class="st1" d="M99.6 111.2l-.2-.2.1.1z"/><path id="XMLID_391_" class="st1" d="M99.6 112.2l.1-.1v.1z"/><path id="XMLID_390_" class="st1" d="M99.9 112.5l-.1-.1z"/><path id="XMLID_389_" class="st1" d="M100.8 112.7l-.2-.2h.1z"/><path id="XMLID_388_" class="st1" d="M99.4 113.3l-.2-.1v.1z"/><path id="XMLID_387_" d="M83.8 121.1c.7-.5 1.6-.7 2.4-.9.3.2.1.4 0 .6-.9.1-1.7.9-2.6.8-.2-.2-.1-.8.2-.5z"/><path id="XMLID_386_" class="st1" d="M101.1 112.6l-.1-.1.1.1z"/><path id="XMLID_385_" class="st1" d="M84.9 120.8c.2-.1 0 .1.1.1-.3-.3-.1.2-.5.2l.1-.5c.1.1.2.1.3.2z"/><path id="XMLID_383_" class="st1" d="M84.4 120.9l.1.2c-.3.1.1-.3-.2-.2 0 .1 0 0 .1 0z"/><path id="XMLID_382_" class="st1" d="M85.5 120.5c0 .1.1.3 0 .3 0-.1-.1-.3 0-.3z"/><path id="XMLID_381_" class="st1" d="M93.3 117.5c0 .2-.1.1 0 0z"/><path id="XMLID_379_" class="st1" d="M100.9 114.2c-.1.1-.2.1-.4 0 .1-.2.3-.1.4 0z"/><path id="XMLID_378_" transform="rotate(154.027 92.236 118.393)" class="st1" d="M92.2 118.3h.1v.2h-.1z"/><path id="XMLID_377_" class="st1" d="M93.6 118.9v.3l-.3-.3c.1-.1.2.1.3 0z"/><path id="XMLID_375_" class="st1" d="M95.4 122.1l-.1-.1.1.1z"/><path id="XMLID_374_" d="M91.8 123.8c-.1.2.2.5 0 .7.2-.2-.3-.5 0-.7z"/><path id="XMLID_373_" class="st1" d="M94.6 122.6c0 .2-.2.2-.3.3-.1-.1.1-.4.3-.3z"/><path id="XMLID_372_" d="M91.5 124.1l-.1.2.1-.2z"/><path id="XMLID_370_" d="M91.3 124.5l.1.2-.1-.2z"/><path id="XMLID_369_" d="M91.6 125v-.3c-.1.1 0 .2 0 .3z"/><path id="XMLID_368_" d="M91.5 125.1l-.1.1c-.1-.1-.1-.2-.1-.3.1-.1.1.1.2.2z"/><path id="XMLID_365_" d="M78.4 140.8c.1.2.2.5.1.8-.1.3-.3.7-.6.8-.3-.2-.6-.5-.5-.9.1-.3.1-.5.3-.7.3-.1.5-.2.7 0z"/><path id="XMLID_364_" class="st1" d="M78 141.1c.1-.1.2 0 .2.1l-.1.2c.1-.3-.3-.2-.4-.1 0-.2 0-.4.3-.2z"/><path id="XMLID_363_" d="M99.4 131.2c1.2.5 1.1 1.9 1.6 2.9-1 .5-.4 1.7-1 2.4-.1-.2 0-.5-.1-.8l.3.1c-.2-.2 0-.3-.1-.5h.1c-.1-.2.3-.7-.1-.5 0-.3.4-.5.7-.7-.6-.1.1-.5-.6-.4.1-.3.3.2.4-.2.1-.7-.5-1.4-1-1.9 0 .2.3.4.1.6-.2-.6-.8.3-1-.4-.3.4-.2.5-.3 1 .4.3.5-.4.8-.1-.3.5.5.5.1 1 .2-.5-.1-.5-.2-.9-.1.4-.6.2-.6.5h.4c-.4.1 0 .6-.1.9h-.1c-.1.1.1.2.1.3l-.3-.1c-.3.9.8 1.4.4 2.2-.4-.3 0-1-.7-1-.6-1.2-1-2.5-.3-3.6.3-.7 1.1-.6 1.5-.8z"/><path id="XMLID_362_" transform="rotate(154.027 78.122 141.56)" class="st1" d="M78.1 141.5h.1v.2h-.1z"/><path id="XMLID_361_" class="st1" d="M98.8 131.9c.1-.1-.3-.1-.1-.2l.1.2z"/><path id="XMLID_360_" d="M99.4 132.2c.2.1-.1.1-.1.3 0-.3-.3-.2-.4-.4.2.2.3.3.5.1z"/><path id="XMLID_359_" d="M99 132.4l.1.1-.1-.1z"/><path id="XMLID_352_" class="st1" d="M98.1 133c-.1.3.3.1-.1.2.1-.1 0-.2.1-.2z"/><path id="XMLID_350_" d="M99.5 132.4s.1.1 0 .2c0-.1-.1-.2 0-.2z"/><path id="XMLID_348_" d="M100.1 132.5c-.3-.1 0 .3-.1.3-.1-.3-.3-.2-.1-.4.1-.2 0 .1.2.1z"/><path id="XMLID_346_" class="st1" d="M98.6 133.8c-.1 0 0-.1 0-.2 0 0-.1.1 0 .2z"/><path id="XMLID_345_" class="st1" d="M98.3 133.9c-.1.1-.1 0-.1-.1.1.1.2.1.1.1z"/><path id="XMLID_324_" d="M100.1 133.1v-.2l.2.2z"/><path id="XMLID_322_" d="M106.3 130.3v-.3h.1z"/><path id="XMLID_321_" d="M99.1 133.7c0 .2-.1.2-.2.1.1 0 .1-.1.2-.1z"/><path id="XMLID_320_" d="M85.7 140.9c.5.8.1 1.8-.5 2.5-.7-.2-1.2-.8-1.5-1.3-.1-.4.2-.9.5-1.1.5-.3 1.1-.7 1.5-.1z"/><path id="XMLID_319_" d="M97.5 135.9c.7 1.1-.1 2-.3 3-.2 0-.5-.2-.7.1-.4-.6-1-.8-1.8-1-.3-.4-.5-.9-.2-1.3.1-1.1 1.3-.1 1.4-1.2.5-.4 1.2-.1 1.6.4z"/><path id="XMLID_318_" d="M99.5 134.4l.2.1-.2-.1z"/><path id="XMLID_317_" d="M100.3 134.1h.2-.2z"/><path id="XMLID_316_" class="st1" d="M95.8 136.5c.1.1.2 0 .2-.1.2.5.1 1.6.6 1.4l-.1-.3c.2.1.6-.2.8.1l-.4.2.1-.2c-.2-.1-.3.2-.4.2 0 .4.4.5 0 .8-.2-.1-.1-.3-.4-.4.1.4-.1.1-.3.3l.1-.2s.1 0 .1.1c.2-.3-.3-.6 0-.8-.3.2-.5-.5-.7-.7.2.3.4 0 .4-.3.1-.2.1-.1 0-.1z"/><path id="XMLID_315_" class="st1" d="M95.2 137.2c0 .1-.2.1-.2.3-.4 0 .2-.3.2-.3z"/><path id="XMLID_314_" d="M98.8 135.5l.2-.2v.1z"/><path id="XMLID_312_" d="M107 131.5l-.1-.1h.1z"/><path id="XMLID_311_" class="st2" d="M96.2 137.1c-.1 0-.2.1-.3.1h.1l-.2-.2c.2-.2.3.2.4.1z"/><path id="XMLID_310_" class="st1" d="M95.5 137.2l.3.3-.3-.3z"/><path id="XMLID_309_" class="st1" d="M96.6 136.9c-.2-.1-.1 0-.1-.2l.1.2z"/><path id="XMLID_308_" class="st1" d="M84.7 142.7s0 .1 0 0l-.2-.1c.1 0 .2 0 .2.1z"/><path id="XMLID_307_" class="st1" d="M96.7 136.6v.2-.2z"/><path id="XMLID_305_" class="st1" d="M95.4 137.5c-.1.1-.1.1 0 .1-.1 0-.1-.2-.2-.2l.2.1z"/><path id="XMLID_294_" class="st1" d="M97.1 136.8l-.2-.1h.1z"/><path id="XMLID_292_" d="M90.4 140.1v-.2h.1z"/><path id="XMLID_291_" class="st1" d="M96.8 137l.2-.1z"/><path id="XMLID_78_" d="M91 140.2l-.1-.3v.1z"/><path id="XMLID_77_" d="M99.5 135.8l-.1.3c0-.1-.2-.4.1-.3z"/><path id="XMLID_37_" d="M108.7 133.9l-.1.2c-.1-.2 0-.1.1-.2z"/><path id="XMLID_36_" d="M89.7 148.7c.5.4.2 1.1.2 1.5-.2.5-.7 1-1.2 1-.3.1-.5-.1-.8-.3-.3-.4-.4-1-.2-1.5.3-.9 1.4-1.3 2-.7z"/></g></g></g><g id="XMLID_367_"><g id="XMLID_97_"><g id="XMLID_101_"><g id="XMLID_102_"><g id="XMLID_103_" class="st3"><path id="XMLID_104_" d="M189.6 113.8c.6-3.5.9-9.2 0-16.1-.5-3.4-1.3-7.1-2.5-10.9-1.2-3.8-2.7-7.6-4.5-11.4-1.9-3.8-4.1-7.4-6.5-10.9-2.4-3.4-5.1-6.6-7.9-9.5-2.7-2.9-5.6-5.3-8.3-7.5-2.7-2.1-5.3-4-7.6-5.4-7.1-4.4-13.2-6.8-17.8-8.5-1-.3-1.1-.4-.6-.3.5.2 1.7.5 3.4 1.2 3.4 1.3 8.9 3.7 14.9 7.6 5.4 3.3 11.5 7.9 17.5 14.4-3.4-4.3-7.3-8.3-11.1-11.6-3.8-3.3-7.7-6-11-8.1-5.2-2.5-10.7-4.6-16.4-6.1-12.7-3.3-25.9-3.6-38.5-1-12.6 2.6-24.7 7.9-35.2 15.8-3.8 2.8-9.6 7.8-14.4 13.7C38.2 65 34.3 71.4 32 75.5l.6-1.2c.4-.7.9-1.9 1.8-3.3 1.6-2.8 4-6.6 7.4-10.9 3.4-4.3 7.8-8.9 13-13.3s11.4-8.3 17.9-11.5c6.6-3.1 13.5-5.4 20.2-6.7 6.7-1.4 13-1.8 18.4-1.7 5.4 0 9.9.7 13 1.1 1.6.3 2.8.5 3.6.7.8.2 1.3.3 1.3.3-1-.3-2-.5-3-.8 0 0-.2 0-.7-.1-.4-.1-1.1-.2-1.9-.4-1.6-.2-4-.6-6.9-.9-5.7-.5-13.4-.6-21 .7-3.8.5-7.5 1.5-11 2.4-1.7.5-3.4 1-4.9 1.6-1.5.6-3 1.1-4.3 1.7-2.7 1.1-4.8 2.2-6.3 2.9-.8.4-1.3.7-1.7.9l-.6.3c-3.1 1.7-6 3.6-9 5.7 0 0 .5-.4 1.4-.9.8-.5 1.9-1.4 3.1-2 1.1-.7 2.3-1.4 3.1-1.9.9-.5 1.5-.8 1.5-.8 4-2.3 8-4.3 12.3-6 4.3-1.7 8.8-3.2 13.7-4.2 6.1-1.2 13.1-1.4 19.2-1.3 5 .1 9.6 1.1 14.1 2.3 0 0 2.2.4 4.4 1 1.1.3 2.2.6 3 .8.8.2 1.4.4 1.4.4.9.2 1.8.4 2.7.7 0 0-.1 0-.1-.1-1.6-1.1-7.4-3.7-15.9-5.3-8.4-1.7-19.6-2.2-30.7-.2-5.5 1-11.1 2.5-16.2 4.5s-9.8 4.4-13.9 6.9c-8.2 5-13.7 10.3-16 12.7-3.6 3.9-6.5 8.2-9 12.8-2.5 4.6-4.7 9.4-7 14.7-1.5 3.5-3.1 6.5-3.6 9.4.1.4 0 1.8-.2 3.3-2 7.4-3.9 15-3.2 20.9.1 2.1-1 6-1.6 9.6-.2.9-.3 1.8-.5 2.6-.1.8-.2 1.6-.3 2.3-.1 1.3-.1 2.3.1 2.5 1.8 1.4 2 1.6 2 2.7 0 .5-.1 1.3 0 2.5s.2 3 .9 5.4c.1.6.7 1.8 1.5 3 .7 1.3 1.5 2.7 1.8 3.8 1.1 3.9 2.3 6.3 3.7 8.7.7 1.2 1.5 2.4 2.4 3.8.5.7 1 1.4 1.5 2.2.5.8 1.2 1.6 1.8 2.6 4.2 5.5 6.7 8.7 9.3 11.8 1.3 1.5 2.6 2.9 4.3 4.4.8.7 1.7 1.5 2.8 2.2 1.1.7 2.2 1.5 3.6 2.2.6.4 4.8 3.3 9.2 5.5 4.3 2.3 8.7 4 8.7 4 6.5 3.2 12.3 4.7 17.6 5.9 5.4 1.2 10.3 2 16 3.4 6.6-.6 14.2-1 21.9-2.3 7.6-1.3 15.4-3.5 21.6-6.9 6.2-3.3 10.5-5.9 14.6-8.4s8.1-5 12.9-9.2c1.3-1.3 2.3-2.5 3.3-3.5.9-1.1 1.7-2 2.5-2.7.8-.7 1.7-2.3 2.7-4.1.5-.9 1-1.8 1.4-2.7.5-.9 1-1.8 1.5-2.5l.3 1.2c.7-1 2-3 2.6-4.1.6-1.1.7-.7.8-.3.2.8.4 1.6 1.8-.1 2.8-4.4 5.2-9.3 7.1-14.5 1.2-5.4 1.9-10.7 2-16-.3-.4-.7-.7-.9-1.5 0-1.6-.1-3.1-.2-4.6-.8-1-1.7-.7-2.2-1.3-1.2-.1-2.3-1.7-3.4-3s-2.2-2.4-3.3-1.7c-.3.3-.5 2.4-.9 4.9-.2 1.2-.5 2.6-.8 3.8-.3 1.2-.7 2.3-1.1 3.2-.4.8-1-1.2-1.7-2.1-.1 1.1-.3 2-.5 2.6-.2.6-.4 1-.6 1.1-.4.3-.7-.1-.9-1.1-.2 1-.5 2-.5 2-.2-.3-.9-1.2-.9-1.2-1.4 5.3-3.7 10.6-6.3 15.5-2.6 5-5.5 9.6-8.1 14.1-.3.5-.6 1-1 1.7-.4.6-.7 1.3-1.1 1.9-.7 1.4-1.6 2.7-2.2 3.8-.3.6-1.1 1.2-1.8 1.9-.7.6-1.5 1.2-1.9 1.5-.7 1.8.1 2.2.1 3.4-1.6 1.2-3.7 2.7-6 4.2-1.1.8-2.3 1.5-3.5 2.2-1.2.7-2.4 1.4-3.5 2.1-4.5 2.6-8.1 4.6-7.3 5.8-.7.3-1.4.6-2 .9-.6.3-1.2.5-1.7.8-1 .5-1.9 1.1-2.8 1.5-.9.5-1.8 1-2.9 1.5-1.1.4-2.4 1-4 1.4-4.4 1.2-9.5 2.2-15 2.5-5.5.4-11.3.2-16.9-.7-6.2-.8-12.1-2.5-17.7-4.8-1.1-.4-2.1-.9-3.1-1.3s-2-.9-2.9-1.4c-10.2-5.1-18.5-12.2-25-20.1-6.5-8-11.1-16.8-14.1-26.1s-4.3-19-4-29.1c.4-10 2.4-20.4 6.6-30.7C42 68.9 48.9 59.2 57.5 51.5c4.3-3.9 9-7.2 14-10s10.4-5 15.8-6.6c10.9-3.2 22.3-3.9 32.9-2.5 10.7 1.4 20.6 5 29 9.9 8.4 4.9 15.4 11.1 20.8 17.6 2.7 3.2 5 6.6 7 9.8 2 3.3 3.5 6.5 4.9 9.6 2.6 6.3 4.1 12 4.9 16.8.8 4.8 1.1 8.6 1.2 11.3 0 0 .1.4.2 1s.3 1.4.5 2.1c.6 1.8.9 3.3.9 3.3z"/></g></g></g></g></g><g id="XMLID_371_"><path id="XMLID_376_" class="st4" d="M227.5 61.4l-110.6 7.2 5.7 88.4"/><g id="XMLID_735_" class="st3"><path id="XMLID_964_" d="M181 64.4c-.5.7-1.1 1.4-1.2 2.3.3.6 1 .1 1-.1 2.1 1.3 2.5 3.8 5 4.4-.3.3-.6.4-.8.8 1 1.6.9 3.4 1.6 5-1.4 1.3.3 2.6-.7 4l-.8-.2c-.5.9-.4 2.2-.7 3.1 1.3 1 1.4 2.4 1.7 4-.3.8-.8 2.1-.9 2.6.1-.4-.1-.6-.5-.9-1.1.1-.7 1.6-1.8 2-.7-.9-.3-2.7-2.1-2.6 0 1.3 1.2 3 .7 3.8 0-.6-.4-1.2-.8-1.6-1.5.7-.3 2.7-.2 4-.1 1.5 1.8 2.7.8 4.2-2.7-3.6-5.4-7.5-7-11.9-2.1-4.5-2.6-9.6-2.9-14.1.5-4.6 5.3-5.1 7.6-8.1.3-1.1 1.4-.2 2-.7z"/><path id="XMLID_963_" class="st1" d="M174.5 73c-.1.4-.6 0-.3-.2l.3.2z"/><path id="XMLID_962_" class="st1" d="M173.8 74.6c-.7.5-.8-.6-.9-.9l.5.5.7-.9c.1.5-.8.9-.3 1.3z"/><path id="XMLID_961_" class="st1" d="M174.4 74.1l-.2.1c.1-.1.1-.3.2-.1z"/><path id="XMLID_960_" class="st1" d="M174.5 75.5l.3.1-.3-.1z"/><path id="XMLID_959_" class="st1" d="M174.8 76.4c.2.1-.1.2-.1.4.1-.1-.1-.4.1-.4z"/><path id="XMLID_958_" class="st1" d="M174 77.1c-.3.1-.5-.3-.4-.5.3.1.4.1.4.5z"/><path id="XMLID_957_" class="st1" d="M172.5 77.3l-.2-.5h.1z"/><path id="XMLID_956_" class="st1" d="M175.7 80.4l-.1.4.1-.4z"/><path id="XMLID_955_" class="st1" d="M175.2 81.2c0 .6.3.5-.2 1.1.7-.4-.6-1.2.2-1.3 0 .1.1.2 0 .2z"/><path id="XMLID_954_" class="st1" d="M176.3 81.7v-.4l.1.3z"/><path id="XMLID_953_" class="st1" d="M175.5 81.4l.5.2-.5-.2z"/><path id="XMLID_952_" class="st1" d="M172.9 81.6l.5.1-.5-.1z"/><path id="XMLID_951_" d="M229 84.9c-.4-.5-.4-1.3-.9-1.3.9-.3 1.2.7.9 1.3z"/><path id="XMLID_950_" d="M228.2 85.3c.2-.3.2-.5.6-.1-.6.6-1.8-.1-1.3-.9.4.5-.1 1.1.7 1z"/><path id="XMLID_949_" d="M198.7 89.2c1.1 2.7-.4 4.6-.2 7.4-1.2-.1-1.8-1.4-2.8 0-.4.3.4.5.2.8-.5-.6-1.3.5-1.9.7.1.6.5 1.4.3 1.9-.9.1-1.8-2.4-2.4-.5l.3 1.4c-1.3-.1-.2-2.6-1.9-2.6l-.9 1.5c-.2-.6.6-1.8-.5-1.8s-.2 1.1-1 1.3c-.8-1 .9-3.4-1.1-3.2-.7 0-.1 1.6-.8.6 1.3-1.5-.9-2.5.5-4.1 1.6-1.2-.1-3.1 2.2-3.6.1-1.3 1.8-.9 2.4-1.4 2.3 2.4 3-1.2 5.6 0 1 0 1.5 1.1 2 1.6z"/><path id="XMLID_948_" transform="rotate(176.286 189.775 91.255)" class="st1" d="M189.7 91h.2v.6h-.2z"/><path id="XMLID_947_" class="st1" d="M187.8 92.2c-.2.1-.1-.2-.1-.2.2 0 .1.1.1.2z"/><path id="XMLID_946_" class="st1" d="M188.7 92.6l.1-.4.3.3z"/><path id="XMLID_945_" class="st1" d="M189.2 92.9c-.1.3-.2.1-.4-.1.2.1.3 0 .4.1z"/><path id="XMLID_944_" class="st1" d="M188.7 94.2c-.6 1-.5-.5-1.4-.6.3.2.7-.3.5-.6.1.4.5 1.1.9 1.2z"/><path id="XMLID_943_" class="st1" d="M196.8 92.9c-.3-.4-.4-.1-.6 0 .2-.4.4-.4.6 0z"/><path id="XMLID_942_" class="st1" d="M187.3 93.2c0 .1 0 .2-.1.3 0-.2-.1-.4.1-.3z"/><path id="XMLID_941_" class="st1" d="M186.6 93.8l.2-.5v.5z"/><path id="XMLID_940_" class="st1" d="M189.6 93.9c-.1-.2-.7-.1-.4-.5.1.3.2.1.4.5z"/><path id="XMLID_939_" class="st1" d="M196.1 93.2l.2.3-.2-.3z"/><path id="XMLID_938_" class="st1" d="M189.3 94.6l-.1-.4.2.2z"/><path id="XMLID_937_" class="st1" d="M196.4 94.6c-.6-.8-.1.7-.7-.1.3-.5.6-.1.7.1z"/><path id="XMLID_936_" class="st1" d="M188.3 95c.3.4.5.5.9.4-.7-.2-1.4.2-1.6-.3.3.1.3.1.7-.1z"/><path id="XMLID_935_" class="st1" d="M186.8 95.6l.2-.3v.3z"/><path id="XMLID_934_" transform="rotate(176.286 195.511 95.608)" class="st1" d="M195.5 95.1h.1v1h-.1z"/><path id="XMLID_933_" class="st1" d="M189.3 96.8c-.5 0-.3-.1-.8-.2l.4.7-.1-.1-.1.5c-.5-.9.1-1.4.6-1.9-.3.6.2.8 0 1z"/><path id="XMLID_932_" class="st1" d="M190.3 96.5c-.2.1-.3-.1-.4-.1-.5.2.1.6 0 .6-.6.1.1-.4-.4-.6.3 0 .9-.4.8.1z"/><path id="XMLID_931_" class="st1" d="M191.4 96.9c-.2-.5-.7.1-.5-.5.3.4.8.3.5.5z"/><path id="XMLID_930_" class="st1" d="M190.4 98c0-.8-1.1-.2-.3-.9.2.1.8.6.3.9z"/><path id="XMLID_929_" class="st1" d="M191.1 98.1l-.1-.4.1.1z"/><path id="XMLID_928_" transform="rotate(176.286 190.019 98.106)" class="st1" d="M190 97.9h.1v.4h-.1z"/><path id="XMLID_926_" d="M183.4 103.6l.1.9-.1-.9z"/><path id="XMLID_925_" d="M182.6 104.6l.5 1.5-.5-1.5z"/><path id="XMLID_924_" d="M183.9 106.9l.2-.1.2.2z"/><path id="XMLID_923_" d="M183.3 107.9c.3.1-.1.4 0 .6 0-.2-.1-.6 0-.6z"/><path id="XMLID_922_" d="M199.5 109.2c.3 1.4 1.5 2.6.5 3.9.2 2.4-.6 5.3-2.7 6.3-.3 3.4 3.2 6.2 2.5 9.6-1.5.2-1.4 1.7-2.7 2.3 0 .6 0 1.3-.4 1.8-.6-.6.6-2.7-.8-2.8l.1 2.3c-.3-.3-.1-1.2-.4-1.8-1.2-.5-1.8 1-1.7 1.9-.8-.4-.1-1.4-.1-2.2-1-.4-.4 1.1-1.4 1 1.7 1.3 2.1 3.3 1.5 5.3-.8.9-1 2.8-2.4 2.8-.7-.3-.8-1.6-1.8-1-1 1-1.3 1.8-1.2 3.2-.4.8-1 0-1.3-.2-.2-.5-.5-1.2-1-1.4.6 1.4-.1 3-.7 4.3-.8.1-1.8-1.1-2.1-2-.1-.9 0-1.9.6-2.5.6-.8 1.5.1 2.1-.1-1-1.1-2-2.4-1.7-4.2.2-1.1.6-2.1 1.6-2.9 1.1-.8 1.9 0 2.9.4.4-1.1 1.1-2 2.4-2.3l1 .3c-.1-2.6-1.1-5.2-.1-7.6.6-1.1.7-2.7 2.2-2.9.6-.7 1.9-.1 2.6.3.1-.8.3-2-.7-2.5-.1.2.4 1.4-.3 1.4-.9-1.1-1.5-2.5-1.3-3.8-.7-.1-.6.8-1.2.7.3-2.5-1.8-5.1.2-7.4-.2-1 1.2-1.7 1.6-2.3 1.5-.1 3.3.7 4.2 2.1z"/><path id="XMLID_921_" transform="rotate(176.286 183.45 108.914)" d="M183.4 108.8h.1v.3h-.1z"/><path id="XMLID_920_" class="st1" d="M195.1 108.6c-.4 0-.2-.3-.1-.5-.2.2 0 .7.1.5z"/><path id="XMLID_919_" class="st1" d="M194.7 109c-.5-.1 0 .5-.1.7.2-.3.6.3.8-.2-.1.4.2.4-.2 1.1-.3 0-1.4-.4-1.5.6.7-1.3.4-1.1.7-2.5l.3.3z"/><path id="XMLID_918_" d="M184.6 109.5l-.2.3.2-.3z"/><path id="XMLID_917_" class="st1" d="M198 109.1c0 .6.5-.2.3.4l-.3-.4s.4-.2 0 0z"/><path id="XMLID_916_" class="st1" d="M197.4 109.5h.4-.4z"/><path id="XMLID_915_" d="M194.9 109.8c-.2.1-.1.3-.1.4l-.2-.4h.3z"/><path id="XMLID_914_" class="st1" d="M199.1 111.7l-1-.7h.2c0-.6-.5-.5-.2-1.1.3.3.7 1.4 1 1.8z"/><path id="XMLID_911_" class="st1" d="M195.7 110.4v-.3h.3z"/><path id="XMLID_910_" class="st1" d="M197.6 110.5c.3.3.1 1-.3 1.3-.6 0-1.7-.4-1.5.7v-.6l-.2.2c0-1.1-.8.1-1 .2.5-.4-.5-.9.1-.9v.1c0-.2.8.1.8-.5-.1 1.5.5-.4 1 .7-.2-.5.6-.3.3-.8.4-.1.6 1.3.9.3-.8-.4.2-.8-.6-1.3l.5.6z"/><path id="XMLID_909_" class="st1" d="M195.1 111.1c-.3.4-.7-.3-.8-.4.2.4.7.1.8.4z"/><path id="XMLID_908_" class="st1" d="M196.2 110.9c-.2 0-.2.1-.5.1.2-.1.4-.1.5-.1z"/><path id="XMLID_907_" class="st1" d="M198.7 110.7l.4.1-.4-.1z"/><path id="XMLID_906_" class="st1" d="M193.4 112.2l-.1.3.1-.5v.2z"/><path id="XMLID_905_" class="st1" d="M194.2 112.1c-.5 0-.2.7-.5.5-.1-.2.2-.8.5-.5z"/><path id="XMLID_904_" class="st1" d="M198.8 112.4c.6.3-.6-.4-.6.4-.3-.5.1-.8.5-.9l.1.5z"/><path id="XMLID_903_" class="st1" d="M197.8 112.7l-.2.1c.1-.2.1-.4.3-.4 0 0 .1.3-.1.3z"/><path id="XMLID_902_" class="st1" d="M196.6 112.6c-.1.2.1.8-.1 1.3.2-.5-.6-.8-.3-1.3l.1.4.3-.4z"/><path id="XMLID_901_" class="st1" d="M195.2 113.1c-.5.4.4.9-.4 1-.5-.5-1.2 0-1.4-.6 1.3.7.3-1 1.8-.4z"/><path id="XMLID_900_" d="M194.7 113.5c-.4-.1-.3-.3 0-.4-.1.2.2.3 0 .4z"/><path id="XMLID_899_" class="st1" d="M196.9 113.4l.3-.4-.1.3z"/><path id="XMLID_898_" class="st1" d="M195.4 113.5l.2-.4.2.2z"/><path id="XMLID_897_" class="st1" d="M198.1 113.7l.1-.2.1.1z"/><path id="XMLID_896_" class="st1" d="M197.3 114.2c-.3-.1 0-.6.1-.5l-.1.5z"/><path id="XMLID_895_" class="st1" d="M199.3 114.1c-.2.1-.6 0-.7.2.1-.5.3-.7.7-.2z"/><path id="XMLID_894_" class="st1" d="M193.9 115.5c0-.1.2-.2.1-.3-.2.4.7 1.2-.1 1.1-.1-.4 0-.7-.4-1.1l.4.3z"/><path id="XMLID_893_" transform="rotate(176.286 195.332 115.252)" class="st1" d="M195.3 115.1h.1v.3h-.1z"/><path id="XMLID_891_" d="M190.9 117.2l.2.6c-.1-.3-.3-.9-.7-1.2-.9.5-.1.1-1-.3-.9.9-.5 1.6-.5 2.5.9-.1.6 1.2 1.4.7.1-.5.6-1 .6-1.5 0 .6-.4 1.2-.9 1.8-.7-.2-1.4-1-1.4-1.8-.1-.7.1-1.5.8-1.9.7.1 1.3.6 1.5 1.1z"/><path id="XMLID_890_" class="st1" d="M196.6 116.1c.1.4-.1-.1-.2-.2l.2.2z"/><path id="XMLID_889_" class="st1" d="M198.5 115.9l.1.3-.1-.3z"/><path id="XMLID_886_" d="M140.7 124.6c.1 1-.3 2-.9 2.8-.8-.3-1.7-.6-1.7-1.6.2-.7.2-1.5.8-1.9.8-.3 1.5.1 1.8.7z"/><path id="XMLID_885_" class="st1" d="M138.7 124.6l-.1.7.1-.7z"/><path id="XMLID_884_" class="st1" d="M140.4 125.6l-.1-.2c-.1.6-.4.9-.7 1.3-.5.1-.5-1-.9-.3-.3-.4.5-1.1.6-1.7.2 0 .6.2.7 0l-.1-.3c.6 0 .3.9.5 1.2z"/><path id="XMLID_881_" class="st1" d="M195.7 124l.3-.5.4.2z"/><path id="XMLID_880_" class="st1" d="M195.6 124.2l-.1.7.1-.7z"/><path id="XMLID_879_" class="st1" d="M197.9 126.2c-.3-.1-.2-.4 0-.6v.6z"/><path id="XMLID_878_" class="st1" d="M194.7 126.6c-.1-.2-.5.4-.6 0h.6z"/><path id="XMLID_877_" class="st1" d="M197.1 126.8c0 .2.3.3.4.1 0 .7-1-.1-.8.7.2-.6 1.1.3.9.3-.6.1-1.7-.2-1.3.6 0 .2.2-1.1-.5-.7v.2c-.4-.6.1-.4.7-.6l-.3-.1c.3-.3.6-.3.9-.5z"/><path id="XMLID_876_" class="st1" d="M195.2 127.6c-.3-.1 0-.5.1-.7l-.1.7z"/><path id="XMLID_875_" class="st1" d="M194.7 128c-.1.3-.5.3-.6.1.1-.1.5-.6.6-.1z"/><path id="XMLID_874_" class="st1" d="M194 128.7l-.1-.2.4.1z"/><path id="XMLID_873_" class="st1" d="M196.9 128.8l.2-.3.1.4z"/><path id="XMLID_872_" class="st1" d="M195.3 129c0 .2-.2.2-.2.3l.4-.7c0 .3.1.6-.2.4z"/><path id="XMLID_871_" transform="rotate(176.286 198.02 128.648)" class="st1" d="M197.9 128.5h.2v.3h-.2z"/><path id="XMLID_870_" class="st1" d="M196 129l.4.1-.4-.1z"/><path id="XMLID_869_" class="st1" d="M194.3 129.5l.1.2-.1-.2z"/><path id="XMLID_868_" class="st1" d="M195 130.1l.1.3c-.3.1-.5-.5-.8-.2.2-.8.4.2.7-.1z"/><path id="XMLID_867_" class="st1" d="M196.1 130l.3.3-.3-.3z"/><path id="XMLID_866_" class="st1" d="M190.5 134.8l.3-.3-.1.3z"/><path id="XMLID_865_" transform="rotate(176.286 185.99 135.61)" class="st1" d="M185.9 135.4h.1v.4h-.1z"/><path id="XMLID_851_" class="st1" d="M187.6 136.8l-.2-.5.3.3z"/><path id="XMLID_849_" d="M128.3 148.9c.4 1.8.9 4 .1 5.7-.6 1.3-2.1 2-3.5 2.2-.3-1.2-2-1.5-2.4-2.7-.6-1.3-.1-2.7.3-4.1 1.1-1.2 2.4-3.5 4.5-2.5l1 1.4z"/><path id="XMLID_847_" class="st1" d="M125.4 151.1c-.2.3-.8.3-.4.7-.4-.6-.2-.7.4-.7z"/><path id="XMLID_817_" class="st1" d="M125.4 152.9l.3.3-.3-.3z"/></g></g><g id="XMLID_279_"><g id="XMLID_131_"><g id="XMLID_135_"><g id="XMLID_136_"><path id="XMLID_173_" transform="rotate(-116.629 59.455 94.738)" class="st4" d="M22.4 68.7h74.1v52.1H22.4z"/><g id="XMLID_137_" class="st3"><g id="XMLID_138_"><path id="XMLID_172_" d="M79.9 88.7l-.2.1c.3-.3-.2-.5 0-.6.2.1.4.3.2.5z"/><g id="XMLID_139_"><path id="XMLID_171_" d="M69.7 58.9l-.4.2c-.5-.3 0-.8 0-1.1.3-.1.3-.6.7-.3.4.4.1.9-.3 1.2z"/><path id="XMLID_170_" d="M67.8 68.3c.7.4-1 .9.2 1.5.3.1.4-.6.8-.3 1 2 3.6 3.2 5.7 4.3-.5 0-.9.8-1.6.6-1.1-.3-2.3-2-3.2-.5-1.2 1.2-3 1.7-4.7 1.6-1.6 1.9 1.3 3.6-.2 5.6-.5.1-1-.1-1.4-.4-1-1-.6-2.6-1.8-3.3-.5.4-.8 1-1.5 1-1.8-.2-3.8.1-5.3-.2.1-.8 1-1.4.9-2.1-.6.1-.8-1-1.5-.4-.6-.3-.3-1.1-.1-1.5-.7-.5-2.6 1.6-2.3.1-.5-.5.6-.6.8-.8.1.1.4.2.5.3 1.1-1.6 2.7-2.5 3.8-4-.8-1.4-2.7-1.2-3.8-2.4.4-.2 1.1.4 1.7.3L56 67c-.5-1.6 1.1-2 1.2-3.2.2.2.4.8.8 1 .5 1 1.3-.3 1.9.4.6-.3.6-1.3 1-1.9-.5-.6-.1-1.4-.6-1.9-.2-.7.7-.1 1-.4.4 1.4.2 3.1 1.2 4.3.8-.5.3 1 1.1.3l.3-.7c.1.3.3.4.7.3.2-.5.5-1 .6-1.5.2.2.3.8.8.8l.8-.7c-.5.9-.5 1.9-.2 2.7.4.1.6-.6.8-.5-.1.2-.4.6-.3.9 1.1 0 2.6-.5 3.3-1.4-.3.3.2.2.3.4-1.1.8-2.2 1.5-2.9 2.4z"/><path id="XMLID_169_" d="M80.2 94.6c-.2 1.5-1.3 1.9-2.6 2.4-.7-.4-1.8-.4-2.3-.9.6-.9-1.2-1.7.2-2.2-.8-.7.6-1.1 1-1.6.7-.4 1.5-.2 2.1 0 .3.3.6.7 1.1.8.2.5-.3 1.4.5 1.5z"/><path id="XMLID_168_" class="st5" d="M79 94c-.4-.2-.1-.4.1-.5.3.3-.5.2-.1.5z"/><path id="XMLID_167_" class="st5" d="M78.4 93.8c-.4-.7-.8.2-1.4.2.5 0 .4.1.5.5-.5.1-.5-.6-.8 0 .1 0 .2.6.6.3-.2.7-1.3-.3-1.5.1.4-.2.5-.5.8-.7.1-.3-.3-.4-.3-.6.4.2.6 0 .9-.5-.1.1-.2.3-.1.4 0-.1.2-.2.3-.2.1.1-.1.1-.1.2.6.4.5-.3.6-.6.1.1-.2.5.2.7.3.2.3-.2.5-.2l-.2.4z"/><path id="XMLID_166_" class="st5" d="M78.4 94.2c.2-.1.3.1.4-.1-.5.3.4.7-.3.6.5.1.4.8.8.7l-.5.3c-.1-.1 0-.1.1-.2-.3-.2-.5.5-.3.7l-.8-.2c-.1 0 .4.2.3-.2-.6-.4-.5.5-.7.7-.3-.5-.8-1-1.4-.6.5-.3.6-.4 1.2-.7.5.1-.5.5.2.6l.2-.2c0 .1-.1.1-.1.2.2-.3.7-.2.6-.7-.5 0-.3-.2-.7-.4.3.8 1-.2 1.1-.7.1.1-.3-.1-.1.2z"/><path id="XMLID_165_" d="M78.9 95.2l-.3-.1.3.1z"/><path id="XMLID_164_" d="M76.7 94l.4-.4.1.1z"/><path id="XMLID_163_" d="M60.3 60.1l-.3.5.3-.5z"/><path id="XMLID_162_" class="st5" d="M76.3 94.1c-.8-.3.5.3-.4.4.2-.5-.5-.5.2-.7l.2.3z"/><path id="XMLID_161_" d="M58.9 62.7c-.3.3-1-.3-.5-.5.3-.2.9.1.5.5z"/><path id="XMLID_160_" d="M83.8 114c-.2.6.5 1.7 0 2.1-.3-.2-.6-.1-.8.3 0 .4.5.6.3 1.1-1.5.2-1 1-2.3 1.6-.1.6.6 1 1 1.4-.3.2-.3-.3-.5-.3.5 1.5 1.9 2.4 2.6 3.8-.2-.2-.7.3-.6.3l-2.1-2.3c-2.8.3-4.7 1.9-6.5 4.1-.6.6.7 1.6-.5 1.6-1.2-.9-.1-2.9-1.4-3.5-1.6-.1-3.5-.7-4.7-1-.8-.6 1.1-1.4-.3-1.9-.3.1-.5.4-.9.4-.1-.6 1-1 .4-1.6-.4-.2-.8.5-1.1-.1-.1-.6 1.1-.4.8-1.2.3-1.3-1.1-.3-1.4-1 .2-.3.7-.5 1-.6.1-.5.4-1.3.2-2-.4.1-.9-.1-1.2-.3.6-.5 1.7-.6 2.2-1.5.2-.8-1-.2-.7-1.1.5-.1 1.2.3 1.6 0l.1-1.2c2.2-1.2 4.5-.9 6.6-2.4 1.4.4 2.9.2 4.2 0 0 .6-.1 1.1.4 1.5.4 0 .8.1 1.2.1.2.3-.1.6.2.9l1 .1c0 .7-.3 1.3.1 1.9.2.6.8.3 1.2.3.3 0 0 .3-.1.5z"/><path id="XMLID_159_" d="M53.3 57.3c-.2-.1-.5-.4-.5-.7.3-.1.7.4.5.7z"/><path id="XMLID_158_" d="M71.7 105c.6.4-.3.8 0 1.2-.9.5-.3 1.7-1.6 1.9-1 .9-1.4-.7-2.5.1-.6-1-2.4-1.7-1.8-3.5-.1-1.1 1.5-.7.8-1.8.3.1.7.3 1.2.1.3-.1.2-.7.6-.7.5.3 1.1.8 1.6.2 0 .7.6.8 1.1.7-.7 1 1.4.8.6 1.8z"/><path id="XMLID_157_" transform="rotate(-116.629 70.304 104.095)" class="st5" d="M70.3 103.9h.1v.3h-.1z"/><path id="XMLID_156_" class="st5" d="M69.7 103.8c-.4.7-.2-.3-.8.1.8-.1-.3-.2.1-.6.5.1 0 .3.3.6l.7-.3-.3.2z"/><path id="XMLID_155_" class="st5" d="M70.3 105.3v-.3l.1.1z"/><path id="XMLID_154_" class="st5" d="M70.2 106.5c-.2.1-.2-.1-.1-.3l.1.3z"/><path id="XMLID_153_" class="st5" d="M68.4 103.7l.2.3-.3-.1z"/><path id="XMLID_152_" class="st5" d="M68 104.6l.2-.4-.1.3z"/><path id="XMLID_151_" class="st5" d="M67.7 104.5l-.1.3.1-.3z"/><path id="XMLID_150_" class="st5" d="M68.2 105.6l-.4-.1.4.1z"/><path id="XMLID_149_" class="st5" d="M67.6 105.7l-.2.3.2-.3z"/><path id="XMLID_148_" d="M51.6 101.4c-.3-.2-.9-.4-.6-.9.2-.4.8-.3 1 0 .2.3 0 .9-.4.9z"/><path id="XMLID_147_" d="M49.4 103.4c-1.5.9-.3 2.9-1.3 4.2-.5.6-.9-.5-1.5-.1.2.3.2.7.3 1-.3 0-.8-.7-1.2-.2-.4.4-.7 1.2-.8 1.7-1.3.4-3-2.4-3.7.1-.1-.5.3-1 0-1.4-.7-.3-1.5 1.5-1.9.2.1-.2.1-.5-.2-.6-.7-.3-1 1-1.5.6.2-1-.3-2 .5-2.8 0-.7-1-.8-1.2-1.1-.5-.9 1-1.2.7-2.2-.7-.3-1.5-1-1.7-1.8 1.1.1.7-1 .8-1.4 1.7.3 1.2-2.1 2.6-2-.2-.2-.6-.4-.4-.7.6.1.6 1.2 1.5.7.3-.3 1 0 1.2-.6.1-.3-.5-.7 0-.8.7.6 2 .5 3 .7.6.2.1 1.1.9.9.3-.2.2-.8.7-.8 1 1.4 1.8 3.8 3.8 4.6-.1.8-.3 1.3-.6 1.8z"/><g id="XMLID_140_"><path id="XMLID_146_" d="M64.6 96.1c-.5.5-.9.8-1.6.7-.6-.1-.6-.8-1.2-.7.4-.3-.2-.7-.1-1.1.2-.5.4-1.1 1-1.3.7.1 1.8 0 2 .8.4.6 0 1.1-.1 1.6z"/><path id="XMLID_145_" class="st5" d="M63.4 94.6c-.3-.3-.1-.5.2-.6.1.6.6-.1.7.6-.2.2-.8.1-.9 0z"/><path id="XMLID_144_" class="st5" d="M64.1 94.9h-.3.3z"/><path id="XMLID_143_" class="st5" d="M63.3 96.2l.2-.3h-.1c.1.1.5-.2.7-.1-.3.2-.5 1.1-.8.4z"/><path id="XMLID_142_" class="st5" d="M62.3 95.1c.1-.1 1 .1.9.7-.1-1-.6.4-1.1 0l.4-.2c-.8 0-.1-.7-.2-1v.1c.2 0 .4-.1.5-.3.1 0 .2.1.2-.1.3.6-.4.4-.7.8z"/><path id="XMLID_141_" class="st5" d="M62.5 94.3l-.1-.2c.1.1.3-.1.4.1l-.3.1z"/></g></g></g></g></g></g></g></g></svg>