<svg id="Layer_1" xmlns="http://www.w3.org/2000/svg" viewBox="0 0 234.1 224.7"><style>.st0{fill:none}.st1{opacity:.8}.st2{opacity:.3;fill:#fff}.st3{opacity:.85}.st4{opacity:.35;fill:#fff}</style><path id="XMLID_27_" d="M-26.2 6v.5V6z"/><path id="XMLID_28_" d="M-25.9 12.1v-.5.5z"/><g id="XMLID_33_"><g id="XMLID_170_"><g id="XMLID_185_"><path id="XMLID_190_" d="M145.4 138.8c0-.6 0-1.2-.1-1.8-.1-.7-.5-1.4-.9-2-.5-.6-1.1-1.1-1.8-1.4-.7-.3-1.4-.4-2-.4-.6 0-1.1 0-1.6-.1h-1.5c-3.2-.1-6.3-.1-9.5-.1v-1.3c-1-4.8-1-11.3-1.6-16.5-.2-1.3-.3-2.5-.3-3.5.3-.1.5-.2.8-.2.8-.2 1.6-.3 2.4-.3.8 0 1.5.1 2.2.2l.2-.9c-1.4-.3-2.8-.3-4.3 0l-1.2.3v-.1c.2-.1.4-.1.6-.2.6-.1 1.2-.3 1.8-.3h.7c.8 0 1.6.1 2.4.2v-.2h.1v.2-.2h.1l.3-1.5h-.1v-.2.2h-.1v-.2l-1.3-.1h-1.1 1.1l1.3.1.2-.9c-.6-.1-1.1-.1-1.7-.1.3-.3 1.1-.5 1.8-.2.5.2.8.5 1 .7.3.2.4.2.5-.1 0-.1 0-.3-.1-.5-.1-.1-.1-.3-.2-.4-.1-.1-.2-.3-.4-.5-.3-.3-.8-.6-1.4-.7-.5-.2-1.1-.2-1.7-.2-1.2 0-2.4.3-3.5.7-.1 0-.3.1-.4.1v-3.1c-.1-1.3-.2-2.3-.2-3 0-.8-.5-2.6-.6-3.9l.3.3c0-.4-.1-1.3-.1-1.7 0-.4.1-.3.2-.2.2.2.4.4.4-.4-.1-1.8-.2-3.7-.3-5.6-.4-1.9-.7-3.7-1.1-5.5-.1-.1-.3-.2-.4-.4-.1-.5-.3-1.1-.4-1.6-.2-.2-.3-.2-.5-.2l-.2-1.6c-.1.4-.1.9-.2 1.5-.7-.1-1.6-2-2.1-1.4-.2.2.2 3.4.1 4.8-.1.3-.4-.4-.7-.7.2 1.8 0 2-.3 1.2 0 .4.1.9.1.9l-.4-.4c.3 4.6.3 9.8 1.1 14.3.1 1 .5 2.6.7 3.6.1.5.1 1.7.1 2.2.3.7.6.6.8.9v.3c-.9.4-1.7.8-1.7.8l.7-.7c-2.9 1.3-6 2.8-8.9 4.4 0-.8-.1-1.6-.1-2.4l-.3-3.6c-.2-1.1-.4-2.1-.6-3.2-.3-3.8-.6-7.5-.9-10.8l-1 .1v.5c.2 2 .5 4 .7 6v-.1c0-.1-.1-.3-.1-.4l-.5-5.5c0-.2 0-.3-.1-.5h-.2.2-.2l-1.6.2h-.2.2-.2l.3 2.7-.3-2.7-1 .1c.1.6.1 1.2.2 1.7l-.1.1c-.1.3.5 4.2.4 6 0 .4-.4-.5-.7-.8.3 2.3.1 2.4-.3 1.5.1.5.1 1.1.1 1.1-.1-.1-.4-.5-.4-.5.4 4.4.6 9.3 1.1 13.9-2.2 1.5-4.2 3.1-6.2 4.7l-3 2.7c-.9.9-2 1.9-2.9 3.4-.4.6-.9 1.5-1.1 2.6-.1.5-.2 1.2-.2 1.8 0 .6.1 1.2.3 1.8.4 1.1 1 2.1 1.7 2.9.7.8 1.4 1.3 2.1 1.8.2.1.4.2.6.4.2.1.5.3.7.4.5.2 1.1.4 1.6.6 1.1.3 2.1.5 2.7.6.4 0 .7 0 .9-.1 1.3.3 2.6.6 3.9.7.7.1 1.3.1 2 .2.2.8.3 1.2.5 1.1.3 3.4.8 4 1.2 7.6.5 3.6 1 8 1.7 12.5-.5.2-1 .5-1.4.7-1.8.9-3.6 1.7-5.2 2.4-2.2 1-4.4 2-6.4 2.9l.1.2-4.3 1.1c1.2-.2 2.7-.4 4.4-.7l.7 1.8c4.4-1.4 8.7-2.8 12.8-4.3.3 1.5.6 3 .8 4.4.1.6.3 1.3.4 1.9.1 1.4.2 2.6.3 3.5l.7 3.2c0-.8 0-1.8-.1-2.9.2.7.4 1.5.6 2.2.1.4.2.7.3 1.1l2.5-.5c-.6-5-1.1-9.8-1.6-14.4.4-.1.7-.3 1.1-.4 3.1-1.1 6.2-2.4 9.2-4.1.8 7.9 1.5 15.3 2.6 23l1.1 7.5 1.9-7.3c.6-2.4.9-4.9.8-7.5-.1-2.5-.5-5.1-1.1-7.6-.5-2.3-1.1-4.5-1.7-6.7-.3-1-.5-2-.8-2.9 1.5-1 3-2 4.4-3.2.4-.3.9-.7 1.3-1 3.2-2.7 6.1-6.1 7.9-10 .2-.4.4-.9.5-1.3.2-.4.4-.9.4-1.4-.2-.7-.2-.9-.2-1.2zm-21.5-17.7c.1.8 0 .3-.1-1.1 0-.6-.1-1.3-.2-2.1 0 .2.1.4.1.6.1.9.2 1.8.2 2.6zm-24.3 8.5c0-.2.1-.4.2-.6l.2-.6.3-.6c.2-.4.4-.8.6-1.1.5-.7 1-1.5 1.6-2.1.1-.1.2-.2.3-.4.2-.2.5-.4.7-.6.5-.4 1.1-.9 1.4-1.2.7-.6.6-.4.5-.1-.1.1-.1.2-.2.3-.8.7-1.5 1.4-2.3 2.2-1.3 1.4-2.4 2.9-3.2 4.7-.2.5-.4 1-.5 1.5v-.1l.1-.6.3-.7zm26.2 8.9c.3 2 .7 3.9 1 5.9 0 .5.1.9.1 1.4.1.5.1 1.1.2 1.6-.1-.7-.3-1.5-.4-2.2-.4-2.2-.8-4.5-1.2-6.6.1-.1.2-.1.3-.1zM112.7 118c.9-.7 1.9-1.4 2.9-2.1.1-.1.2-.1.3-.2 2.1-1.4 4.3-2.7 6.6-3.9-.3.1-.6.3-.9.5-1.6.9-3.1 1.9-4.6 2.9-1.4 1-2.9 2-4.3 3.1.1 0 0-.1 0-.3zm-4.8 4.7c-1.8 1.5-3.6 3-4.9 4.7-.4.6-.8 1.1-1.2 1.7-.3.6-.6 1.2-.8 1.8l-.3.9c-.1.3-.1.5-.1.8 0 0-.1 0-.1-.1v-.3c.1-.8.4-1.7.7-2.4.7-1.6 1.8-3 3-4.3 1.1-1.1 2.3-2.2 3.5-3.2.2.2.2.3.2.4zm-4.4 10.8c-.8-.1-1.7-.3-2.4-.7v-.1c.1-.6.2-1.3.5-2 .5-1.4 1.4-2.7 2.5-3.9 1.1-1.2 2.4-2.4 3.9-3.6 0 0 .1 0 .1-.1.1.7.1 2.1.1 2.6.3.9.6.8.8 1.1.1 1.7.2 4.1.3 6.4-1.3.1-2.5.1-3.8.2-.5 0-1 .1-1.4.1-.3.1-.4.1-.6 0zm11.8 4.8c.8 0 1.6-.1 2.6-.1h.5c-.3 0-.7 0-1 .1-.8 0-1.5.1-2.1 0 0 .1 0 0 0 0zm10 .2l.3 1.8c.2 1.3.4 2.6.6 3.6.4 2.1.6 3.5.6 3.5.2.9.4 1.9.5 2.8v.1c-.1-.3-.1-.6-.2-1-.2-1-.4-1.9-.4-1.9-.3-1.7-.7-3.3-1-5-.3-1.3-.5-2.6-.8-3.9h.4zm-12.5-19.9c1.4-1.1 2.9-2.1 4.3-3.1 1.5-1 3-2 4.6-2.9.3-.1.5-.3.8-.4v.1c-1.3.7-2.5 1.5-3.8 2.3-1.4.9-2.8 1.9-4.2 2.9-.6.4-1.1.8-1.7 1.3v-.2zm-12.6 13.6c.1-.9.4-1.8.8-2.6.7-1.6 1.9-3.1 3.1-4.4 1.1-1.2 2.4-2.3 3.7-3.3 0 .1 0 .2.1.4-1.2 1-2.5 2.1-3.6 3.2-1.2 1.3-2.3 2.7-3 4.3-.3.8-.6 1.6-.7 2.5v.3c-.1-.1-.2-.1-.3-.2-.1 0-.1-.1-.1-.2zm17.2 25.8c-.7-6.5-1.3-12.8-2-19.1h1c2.7-.1 5.4-.3 8-.4h.1c.5 3.8 1.2 7.6 1.7 10.8.2 1.2.5 2.4.7 3.4-.3.2-.6.4-.9.5-2.8 1.8-5.7 3.4-8.6 4.8zm12.5-7.2c-.3-2.1-1-6.1-1-6.1-.2-2.3-.4-4.2-.6-6 1.2.1 2.4.2 3.5.5.6.1 1.2.3 1.8.4.6.2 1.1.3 1.7.5.6.2 1.1.4 1.6.7.5.3 1 .5 1.5.8.5.3.9.6 1.4.9.1.1.3.2.4.3-.3.2-.5.5-.8.7-.4.4-.9.8-1.3 1.2-2.6 2.1-5.3 4.2-8.2 6.1zm10.6-8.3c0-.1 0-.1 0 0-.4-.3-.7-.6-1-.8-.3-.2-.6-.4-1-.6-1.3-.8-2.7-1.4-4.1-1.8-1.4-.4-2.7-.7-4-.9-.8-.1-1.5-.2-2.2-.2 2.3.2 4.7.6 7.1 1.4 1.5.5 3 1.2 4.3 2.2.2.1.3.2.5.4.2 0 .3.1.4.3.1-.1.1 0 0 0zm-15.9-9.5c-.1-.9-.3-1.8-.4-2.7-.3-2-.5-3.7-.7-4.9-.2-1.2-.2-1.9-.2-1.9 0 .4.1.8.1 1.2 0 0 .2 1.4.4 3.5.1 1.1.3 2.3.5 3.6 0 .4.1.7.1 1.1h-.2c-.1-1-.3-2-.4-2.9-.2-1.8-.3-3.6-.5-5.3l-.4-3.4c-.1-.3-.1-.7-.2-1-.1 1.2.2 6.4.9 12.7-3 0-6 .1-9.1.2-.5-4.4-1.1-9-1.8-13.7 1.4-1 2.8-2 4.2-2.9.8-.5 1.6-1.1 2.4-1.6.8-.5 1.6-1 2.4-1.4.2-.1.4-.2.7-.4.1.6.1 1.2.2 1.7v1.2l.3 3.3c.1 1.1.2 2.2.4 3.4.4 3.5.9 6.9 1.4 10.3.1-.1 0-.1-.1-.1zm-1.9 24.6c1.6-.9 3.1-1.8 4.7-2.6v.2c-2.1 1.2-3.9 2.1-5.4 2.8.2-.2.4-.3.7-.4zm7.7-4.5c.3-.2.6-.3.9-.5-.3.2-.6.4-.9.5 0 .1 0 .1 0 0zm11.5-14.4c-.1.5-.2 1.1-.5 1.8 0 .1-.1.2-.1.3 0 .1 0 .1-.1.2 0 .1-.1.2-.1.3-.1.3-.3.6-.4 1-.7-.6-1.4-1.1-2.1-1.6-1.9-1.2-4-1.9-6-2.4-.3-.1-.5-.1-.8-.2h8.3c.3 0 .6 0 .9.1h.5c.1 0 .3.1.4.1 0 0 .1 0 .1.1-.1.1-.1.2-.1.3zm-10.3-28.5v-.2h.1l-.1.2zm0 0v-.2.2zm.3-1.4v.2-.2zm0 0v.2h-.1l.1-.2c-.1 0-.1 0 0 0zm-9.7-2.3v.4c-.3.1-.5.2-.6.2-.3.1-.1-.1.6-.6zm-13.1-15.2h-.2.2zm0 0h-.2.2zm-1.4.1h.2-.2zm0 0h.2-.2zm1.8 46.9h.3c-.7-.1-.7-.1-.3 0z"/></g><g id="XMLID_171_"><path id="XMLID_184_" d="M54.9 100.5c0 .1-.1.1-.1.2-.2.7 0 1.5.5 2.1 0 .1 0 .2.1.3.3.9 1.6 1.2 2.2.6 1-.2 1.9-1.1 2.1-2.2.5-.1.9-.3 1.4-.5.2-1.6-1.2-3.3-2.8-3.3-.5 0-1 .2-1.3.6-.3-.1-.6-.1-1-.1l-.1-.4c-.1.1-.2.3-.3.5-.5.1-1 .3-1.2.8-.2.5.1 1 .5 1.4z"/><path id="XMLID_183_" d="M171.5 80c0 .1-.1.1-.1.2-.2.7 0 1.5.5 2.1 0 .1 0 .2.1.3.3.9 1.6 1.2 2.2.6 1-.2 1.9-1.1 2.1-2.2.5-.1.9-.3 1.4-.5.2-1.6-1.2-3.3-2.8-3.3-.5 0-1 .2-1.3.6-.3-.1-.6-.1-1-.1l-.1-.4c-.1.1-.2.3-.3.5-.5.1-1 .3-1.2.8-.3.4 0 1 .5 1.4z"/><path id="XMLID_172_" d="M214.3 187.5l-.1-.8c0-.4-.1-.9-.2-1.3-.5-3-.9-6-1.4-9.1-.9-6-1.8-12.2-2.8-18.4-.3-2.4-.7-4.7-1-7.1-.5-7.4-1.1-15.8-1.6-24.5-.9-13.8-1.6-28.7-2-43-.3-14.3-.2-27.9.1-39.1l-4.9-.2c.3-.5.3-.9-.4-1-.3 0-1.3.3-2.7.9l-1.7-.1v.7c-1.2.4-2.5.9-3.9 1.4-4.2 1.5-9.1 3.2-12.2 3.9-1.5.3 1.6-1.4 2.7-2.5-7.8 2.9-8.4 2.4-5.4.8-1.8.6-3.7 1.2-3.7 1.2.4-.3 1.6-1.4 1.6-1.4-4.7 1.5-9.6 2.9-14.5 4.2-1.1-2.9-2.2-5.5-3-7.4-.6-1.2-1.1-2.2-1.6-3.1-.5-.9-.9-1.7-1.2-2.4-.3-.6-.1-.2.5.8s1.4 2.7 2.3 4.7c.4.9.9 1.9 1.4 2.9.4 1.1 1 2.2 1.5 3.5-.7-3.4-1.6-6.7-2.3-9.1-.9-1.6-1.8-3.1-2.8-4.6-4.4-6.7-9.8-12.4-15.9-17.7-1.1-1-3-2.3-5-3.6-2-1.3-4.1-2.3-5.4-3 0 0 .5.2 1.4.6.9.4 2.2 1.1 3.7 1.9 3 1.7 6.6 4.4 9.8 7.4 3.3 3 6.3 6.3 8.4 8.9 1 1.3 1.9 2.4 2.4 3.2l.9 1.2c-.2-.3-.3-.6-.5-.9 0 0-.2-.2-.4-.7-.3-.4-.7-1-1.2-1.7-1-1.4-2.5-3.3-4-5.1-1.5-1.8-3.2-3.5-4.4-4.7-1.3-1.2-2.1-2-2.1-2-.8-.7-1.6-1.4-2.5-2.2 0 0 .6.5 1.2 1.1.6.5 1.2 1.1 1.2 1.1 2.1 1.8 4.3 3.5 6.4 5.7.6.7 1.3 1.5 1.9 2.3l1.8 2.4c.9 1.2 1.5 2.5 2.2 3.8l.8 1.2c.4.6.7 1.2.7 1.2.2.2.4.4.5.7 0-.3-.2-1-.5-1.8s-.8-1.9-1.5-3c-1.3-2.3-3.1-5.2-5.2-7.9-1-1.4-2.2-2.6-3.3-3.9-1.2-1.2-2.3-2.4-3.4-3.3-2.2-2-4.1-3.4-5-3.9-2.9-1.6-6.2-2-9.7-3.1-1.2-.4-2.1-1-3.1-1-.1.2-.6.2-1.1.2-1.2-.2-2.4-.6-3.6-.8-.6-.1-1.2-.2-1.7-.2s-1.1.1-1.5.2c-.3.1-.8-.1-1.4-.3-.6-.2-1.2-.5-1.8-.8-1.3-.6-2.4-1-2.5-.7-.7 2.3-.2.5-3.4 1.2-.4.1-1.3 1.3-2.1 1.5-2.6.4-3.1 1.4-5.6 3-1.7 1.3-2.9 1.9-4 2.6-1 .7-2.1 1.4-3.1 3.1-.1.1-.4.4-.8.9s-.9 1.1-1.4 1.7l-1.8 2.4c-1.6 1.6-2.6 3.1-3.6 4.5-.5.7-1 1.3-1.6 1.9-.6.6-1.2 1.2-2 1.7-.3 1-.7 2-1.3 3-.5 1-1.1 2-1.8 3-1.2 2-2.6 4.1-3.2 6.2-1.3 4.1-2.8 5.5-4.6 9.1-.4 1-.5 1.9-.9 2.5-.4.6.1 2.3-.2 3.4l-.5-.4c-.1.4-.3 1.1-.4 1.5-.1.4-.3.2-.5.1-.4-.2-.7-.5-1.1.2-.3.8-.5 1.6-.7 2.4-.2.8-.4 1.6-.5 2.5.2 1.7.5 3.3.9 4.9.3.1.5.2.8.4l.1.4c-3.2.6-6.5 1.2-9.7 1.9-4.2 1-8.2 2-11.7 3.1-.9.3-1.7.5-2.6.8-.4.2-.9.3-1.4.5-.2.1-.5.2-.8.4-.3.1-.6.3-.9.4-2.3 1.2-4 2.9-4.9 4.5-1 1.9-1.2 3.6-1.2 4.7s.2 1.6.4 1.4v4.6c0 1.3.1 2.4.1 3.5.1 2.2.3 4 .4 5.9.3 3.8.6 7.6.8 14 .4 17 .8 38.5 1.2 59.7.2 5.8.3 11.5.4 17.2 0 2.9.1 5.7.1 8.6 0 2 0 4.1.4 5.8.2.9.6 1.7 1.2 2.4s1.5 1.2 2.3 1.5c1.3.4 2.7.5 4.1.5 1.3-.1 2.6-.1 3.9-.2l6-.3c28.3-1.4 54.3-3 79.2-6.4 12.5-1.7 24.6-4.1 36.5-5.8 2.4-.3 4.8-.6 7.3-.9.8 0 1.5 0 2.2-.1 9-.3 17.2-.5 24.1-.7l2-.2c.6-.1 1.3-.2 1.8-.6.4-.3.6-.8.8-1.3.1 0 .1-.1.2-.1 1.7-1.3 2.9-3.3 3.3-5.4.2-1.1.3-2.2.3-3.3.2.1.2-.2.2-.5zm-10.4-81.4c.2 3.6.5 7.1.7 10.7-2.4-22.2-3.3-44.9-2.3-67.4-.2 18.9.3 37.8 1.6 56.7zm-1.5-61.7h-.5v-.1l-1.4-.1 1.9.2c0-.1 0-.1 0 0zm-4.5 2.4v.6-.6zm.7.8v8.3c-.3 7.9-.5 18.2-.3 28.5.2 12.9 1.1 25.8 1.6 33.7-2.1-23.4-2.6-47-1.3-70.5zm4.5-3.3c-.1 4.9-.2 9.8-.2 14.7 0 15.3.8 30.2 2 46.9.6 9.4 1.2 20 2 29.7-.4-3.4-.9-6.8-1.3-10.3-.4-4.7-.7-9.6-1-14.5-.8-12.9-1.4-25.9-1.5-35.6-.1-4.9-.1-8.9-.1-11.7V59c-.2-4.9 0-9.7.1-14.7l-2.6-.1 2.6.1zM79 70.5c0-.3.1-.6.1-.6.2.1.8.3.8.3.7-3.4 2.4-6.9 2.2-10.2 0-.7-.2-1.9-.3-2.7-.1-.4.5-1.2.6-1.5-.4-.7-1-.7-1.5-1.1.3-.6.7-1.3 1-2.1.4-.8.8-1.6 1.1-2.3.6-1.5.8-2.8-.2-3.1.9-1.8.1-2.6 1-4.5 1.1-2.6 2.8-5.8 4.8-8.7 1-1.6 2.2-3.1 3.5-4.5.5-.5.9-1 1.4-1.5 4.8-5 10.3-8.1 15.7-9.8 2.7-.8 5.5-1.3 8.4-1.3 2.9-.1 5.8.2 9 1 3.3.8 6.5 2.3 9.5 4.2 1.5 1 2.9 2 4.3 3.2.7.6 1.4 1.1 2 1.7.6.6 1.3 1.2 1.9 1.8 2.5 2.5 4.7 5.1 6.7 7.9 1.9 2.8 3.6 5.5 4.9 8.3 1.3 2.7 2.3 5.3 3.2 7.7-5.1 1.4-10.4 2.6-15.6 3.8-10.7 2.4-21.3 4.5-31.3 6.5-4.3.8-11.5 2.4-16.3 3.5-2.4.5-7.8 1-9.8 1.3-3.4 1.1-2.8 1.6-4.1 2.5-1.2.2-2.6.3-4 .5 0-.8.5-.8 1-.3zm-2.5.3c.1-.1.3-.1.5.1-.2 0-.4.1-.6.1 0-.1 0-.1.1-.2zM42.8 90.3c0-.2 0-.5.1-.7.1-.5.2-.9.5-1.3.2-.2.3-.5.5-.7.3-.3.7-.6 1.1-.8.4-.2.8-.4 1.4-.6 1.2-.4 2.5-.8 3.7-1.1 2.4-.7 4.7-1.3 6.9-1.9 4.4-1 8.4-1.8 12.3-2.4 7.8-1.3 15.4-2 25.7-3.2 5.9-.8 10.2-1.6 13.7-1.8 3.5-.3 11.7-2.5 17.6-3.6l-1.3.8c2-.3 5.9-1.1 7.9-1.4 2-.4 1.5-.1 1.1.2-.9.6-1.8 1.2 1.7.7 8.3-1.5 16.6-3.5 25.1-5.8.4-.1.8-.3 1.2-.4.1 1 .2 1.9.3 2.5l1.1 1.8c.3-1.1.3-2.8.1-4.9 7.3-2.5 14.4-5.3 21.4-8.2.4-.4.8-.9 1.8-1.5 2.3-1 4.6-2.1 6.8-3.2 1.2-1.1.5-1.5 1.2-2.2-.1-.3.2-.8.7-1.4-.6 9.9-.6 17.5-.6 21.4.2 17.5 2.2 33.3 4.2 52.5.3 3.2.6 6.2.8 9 .3 2.8.6 5.4 1 7.8.2.5.7 2.9 1.1 5.3 1.6 12.4 2.8 25 4.7 34.6.1 1.7.3 3.4.4 5l.3 3.3v.2c-.1.4-.2.7-.3 1.1-.3.7-.8 1.2-1.4 1.4-.7.2-1.4.1-2 0-.2 0-.2-.1-.4-.1-.3 0-.7-.1-1-.1-.7-.1-1.3-.1-1.8-.2-2.3-.2-3.9-.3-4.3-.1-2.7 1.1-3.1 1.3-4.9 1.2-1.8 0-4.9-.5-13.3.3-2 .2-8.4 1.9-12.3 2.5-13.3 1.7-17 3.3-31.9 5.7-1.9.3-3.6.6-5.3.8-37 2-64.6 3.5-77.7 4.2l-6.8.9v-.1c0-1-.1-2-.1-2.9-.1-5.2-.2-10-.4-14.7-.2-9.3-.2-17.9.4-27.6-.8-10.9-.9-23.5-.9-36.4V91c-.1-.2-.1-.4-.1-.7zM68.5 207c-8.2.6-16 1.3-16 1.3-1.4.1-2.8.1-4.1.2-1.1 0-2.1.2-3.1-.1-.5-.2-.9-.5-1.1-.9-.1-.3-.2-.5-.2-.8 11.9-.3 31.1-1.2 52.3-2.4-2.9.3-6.1.7-9.9 1.2-1.3 0-9.7.8-17.9 1.5z"/></g></g><g id="XMLID_169_"><g id="XMLID_371_"><g id="XMLID_375_"><g id="XMLID_376_"><path id="XMLID_479_" transform="rotate(164.238 128.298 139.117)" class="st0" d="M88.4 107.2h79.9V171H88.4z"/><g id="XMLID_377_" class="st1"><g id="XMLID_378_"><path id="XMLID_478_" d="M125.7 106.7c-.3.6-.6 1.2-.5 1.8.3.4.7-.1.7-.2 1.7.6 2.3 2.3 4.2 2.4-.2.2-.4.4-.5.7.9.9 1.2 2.3 1.9 3.3-.8 1.1.6 1.8.1 2.9h-.6c-.2.7 0 1.6 0 2.3 1 .5 1.4 1.5 1.8 2.6-.1.6-.2 1.6-.2 2 0-.3-.2-.4-.5-.5-.8.2-.3 1.2-1 1.7-.6-.5-.6-1.9-1.9-1.5.2.9 1.3 1.9 1 2.6-.1-.4-.5-.8-.8-1-.9.7.2 1.9.4 2.8.2 1 1.7 1.6 1.2 2.8-2.5-2.1-4.9-4.5-6.7-7.3-2.2-2.8-3.3-6.4-4.1-9.5-.3-3.3 3-4.4 4.1-6.8.2-1.1 1.1-.7 1.4-1.1z"/><path id="XMLID_477_" class="st2" d="M122.4 113.7c0 .3-.4.1-.3-.1l.3.1z"/><path id="XMLID_476_" class="st2" d="M122.2 115c-.4.5-.6-.3-.8-.5l.4.3.3-.8c.3.3-.3.7.1 1z"/><path id="XMLID_475_" class="st2" d="M122.6 114.5l-.2.1c.1-.1 0-.2.2-.1z"/><path id="XMLID_474_" class="st2" d="M122.9 115.5h.2-.2z"/><path id="XMLID_473_" class="st2" d="M123.2 116.1c.1 0 0 .2 0 .3 0-.1-.2-.3 0-.3z"/><path id="XMLID_472_" class="st2" d="M122.7 116.7c-.2.1-.4-.1-.3-.3.2 0 .2 0 .3.3z"/><path id="XMLID_471_" class="st2" d="M121.7 117.1l-.2-.3.1-.1z"/><path id="XMLID_470_" class="st2" d="M124.4 118.8v.3-.3z"/><path id="XMLID_469_" class="st2" d="M124.2 119.4c.1.5.3.3 0 .8.4-.4-.6-.7 0-1 0 .1.1.2 0 .2z"/><path id="XMLID_468_" class="st2" d="M125 119.6v-.3l.1.2z"/><path id="XMLID_467_" class="st2" d="M124.4 119.5l.4.1-.4-.1z"/><path id="XMLID_466_" class="st2" d="M122.6 120h.4-.4z"/><path id="XMLID_465_" d="M162.7 113.9c-.3-.3-.5-.8-.8-.8.5-.3.9.3.8.8z"/><path id="XMLID_464_" d="M162.2 114.3c.1-.2.1-.4.4-.2-.3.5-1.3.2-1-.4.2.3 0 .8.6.6z"/><path id="XMLID_463_" d="M141.9 121.5c1.2 1.7.4 3.3 1 5.3-.9.1-1.5-.7-2 .4-.2.3.3.3.3.5-.5-.4-.8.5-1.2.8.2.4.6.9.5 1.3-.6.2-1.6-1.4-1.7 0l.4.9c-.9.1-.6-1.8-1.7-1.6l-.4 1.2c-.2-.4.2-1.4-.6-1.2-.8.2 0 .8-.5 1.1-.7-.6.1-2.5-1.2-2.1-.5.1.2 1.1-.4.5.7-1.3-1-1.6-.3-2.9 1-1.1-.5-2.1 1-2.9-.1-.9 1.1-.9 1.5-1.3 2 1.4 1.9-1.3 3.9-.9.5-.1 1 .6 1.4.9z"/><path id="XMLID_462_" transform="rotate(164.238 135.967 124.28)" class="st2" d="M135.9 124.1h.1v.4h-.1z"/><path id="XMLID_461_" class="st2" d="M134.7 125.3c-.2.1-.1-.1-.1-.2.1 0 .1.1.1.2z"/><path id="XMLID_460_" class="st2" d="M135.4 125.4v-.3l.3.2z"/><path id="XMLID_459_" class="st2" d="M135.8 125.6c-.1.2-.2.1-.3 0 .2-.1.3-.1.3 0z"/><path id="XMLID_458_" class="st2" d="M135.6 126.5c-.3.8-.4-.3-1.1-.2.3.1.5-.3.3-.5.2.2.5.7.8.7z"/><path id="XMLID_457_" class="st2" d="M141.1 124.4c-.2-.2-.3 0-.5.1.2-.3.3-.4.5-.1z"/><path id="XMLID_456_" class="st2" d="M134.5 126v.2c0-.1-.1-.2 0-.2z"/><path id="XMLID_455_" class="st2" d="M134.1 126.5l.1-.3v.3z"/><path id="XMLID_454_" class="st2" d="M136.3 126.2c-.1-.1-.5 0-.4-.3.1.2.2 0 .4.3z"/><path id="XMLID_453_" class="st2" d="M140.7 124.7l.2.2-.2-.2z"/><path id="XMLID_452_" class="st2" d="M136.1 126.7l-.1-.3.2.1z"/><path id="XMLID_451_" class="st2" d="M141.1 125.6c-.5-.4 0 .5-.5 0 .2-.3.4-.1.5 0z"/><path id="XMLID_450_" class="st2" d="M135.5 127.2c.2.2.4.3.7.2-.5 0-1 .3-1.1 0l.4-.2z"/><path id="XMLID_449_" class="st2" d="M134.5 127.8l.1-.3.1.3z"/><path id="XMLID_448_" transform="rotate(164.238 140.663 126.485)" class="st2" d="M140.6 126.1h.1v.7h-.1z"/><path id="XMLID_447_" class="st2" d="M136.5 128.3c-.3.1-.2 0-.6 0l.4.4h-.1v.4c-.5-.5-.2-1 .1-1.4-.1.3.3.4.2.6z"/><path id="XMLID_446_" class="st2" d="M137.1 127.9c-.1.1-.2 0-.3 0-.3.2.2.4.1.4-.4.2 0-.3-.4-.4.2 0 .6-.4.6 0z"/><path id="XMLID_445_" class="st2" d="M138 128c-.2-.3-.5.2-.4-.3.2.3.5.1.4.3z"/><path id="XMLID_444_" class="st2" d="M137.4 128.9c-.1-.6-.8 0-.4-.6.2.1.7.3.4.6z"/><path id="XMLID_443_" class="st2" d="M137.9 128.9l-.1-.3.1.1z"/><path id="XMLID_442_" transform="rotate(164.238 137.169 129.07)" class="st2" d="M137.1 128.9h.1v.3h-.1z"/><path id="XMLID_441_" d="M163.7 122c.2.4.1.8-.1 1-.1-.3.4-.5 0-.7l-.1.2c-.7-.2.3-.8-.5-.6-.4.1-.3.4-.4.7.1.4.7 1.1.9.6l-.4.4c-.5-.2-.6-.9-.5-1.3.1-.5.7-.9 1.1-.3z"/><path id="XMLID_440_" d="M133.3 133.9l.2.6-.2-.6z"/><path id="XMLID_439_" d="M132.9 134.8l.6 1-.6-1z"/><path id="XMLID_438_" d="M134.2 136.2l.1-.1.2.1z"/><path id="XMLID_437_" d="M133.9 137c.2.1 0 .3.1.4 0-.1-.2-.4-.1-.4z"/><path id="XMLID_436_" d="M145.5 135.5c.4.9 1.4 1.6.9 2.7.5 1.7.4 3.8-.9 4.8.3 2.4 3.2 3.9 3.2 6.4-1 .4-.7 1.4-1.5 2 .1.5.2.9 0 1.3-.5-.3 0-2-1-1.8l.4 1.6c-.2-.2-.2-.8-.5-1.2-.9-.2-1.1 1-.9 1.6-.7-.2-.3-1-.4-1.5-.8-.1-.1.8-.8.9 1.4.7 1.9 2 1.8 3.5-.5.7-.3 2.1-1.3 2.3-.6-.1-.8-1-1.4-.5-.5.9-.6 1.4-.4 2.5-.1.6-.7.1-.9.1-.2-.3-.5-.8-.9-.8.6.9.4 2.1.2 3.2-.6.2-1.5-.5-1.8-1.1-.2-.6-.3-1.3 0-1.9.3-.7 1-.2 1.5-.4-.9-.6-1.8-1.4-1.8-2.7 0-.8.1-1.5.7-2.3.6-.7 1.3-.3 2.1-.2.1-.8.5-1.6 1.3-1.9h.7c-.4-1.8-1.6-3.5-1.2-5.3.2-.9.1-2 1.1-2.4.3-.6 1.3-.4 1.9-.2 0-.6-.1-1.5-.9-1.6-.1.1.5.9 0 1-.8-.6-1.4-1.5-1.5-2.5-.5 0-.3.6-.8.7-.2-1.8-2-3.3-.9-5.2-.3-.7.6-1.4.8-1.9 1-.4 2.4-.1 3.2.8z"/><path id="XMLID_435_" transform="rotate(164.238 134.165 137.673)" d="M134.1 137.6h.1v.2h-.1z"/><path id="XMLID_434_" class="st2" d="M142.3 135.7c-.3.1-.2-.2-.1-.3-.2.2.1.5.1.3z"/><path id="XMLID_433_" class="st2" d="M142.1 136c-.4 0 0 .4 0 .5.1-.3.5.1.5-.3 0 .3.2.2 0 .8-.2.1-1-.1-1 .6.3-1 .1-.8.1-1.8l.4.2z"/><path id="XMLID_432_" d="M135 137.9l-.1.3.1-.3z"/><path id="XMLID_431_" class="st2" d="M144.5 135.6c.1.4.3-.2.3.2l-.3-.2c-.1 0 .2-.2 0 0z"/><path id="XMLID_430_" class="st2" d="M144.1 136l.3-.1-.3.1z"/><path id="XMLID_429_" d="M142.4 136.6c-.2.1 0 .2 0 .3l-.2-.2.2-.1z"/><path id="XMLID_428_" class="st2" d="M145.6 137.3l-.8-.3h.1c-.1-.4-.4-.2-.3-.8.3.1.8.8 1 1.1z"/><path id="XMLID_427_" class="st2" d="M143 136.9v-.2l.2-.1z"/><path id="XMLID_426_" class="st2" d="M144.4 136.7c.2.2.2.7 0 1-.4.1-1.3 0-.9.7l-.1-.4-.1.1c-.1-.7-.6.2-.7.3.3-.4-.5-.5-.1-.6v.1c0-.2.6 0 .5-.4.1 1.1.3-.4.8.4-.2-.3.4-.3.1-.6.3-.1.6.8.7.1-.6-.1 0-.6-.6-.8l.4.1z"/><path id="XMLID_425_" class="st2" d="M142.7 137.5c-.1.3-.5-.1-.6-.1.1.2.5-.1.6.1z"/><path id="XMLID_424_" class="st2" d="M143.5 137.2c-.1 0-.2.1-.3.2 0-.2.1-.2.3-.2z"/><path id="XMLID_423_" class="st2" d="M145.2 136.7h.3-.3z"/><path id="XMLID_422_" class="st2" d="M141.7 138.5l-.1.2v-.4l.1.2z"/><path id="XMLID_421_" class="st2" d="M142.2 138.3c-.3.1 0 .5-.2.4-.2-.1 0-.6.2-.4z"/><path id="XMLID_420_" class="st2" d="M145.5 137.8c.5.1-.5-.2-.4.3-.3-.3 0-.6.2-.7l.2.4z"/><path id="XMLID_419_" class="st2" d="M144.8 138.2l-.2.1c0-.1 0-.3.1-.3s.2.1.1.2z"/><path id="XMLID_418_" class="st2" d="M144 138.3c0 .2.2.5.1.9.1-.4-.5-.5-.4-.8l.1.3.2-.4z"/><path id="XMLID_417_" class="st2" d="M143 138.9c-.3.3.4.6-.1.8-.4-.2-.9.2-1.1-.2 1 .2.1-.8 1.2-.6z"/><path id="XMLID_416_" d="M142.8 139.2c-.3 0-.3-.2-.1-.3 0 .2.2.2.1.3z"/><path id="XMLID_415_" class="st2" d="M144.3 138.8l.1-.3v.2z"/><path id="XMLID_414_" class="st2" d="M143.3 139.1l.1-.3.1.1z"/><path id="XMLID_413_" class="st2" d="M145.2 138.8v-.1l.1.1z"/><path id="XMLID_412_" class="st2" d="M144.7 139.3c-.2 0-.1-.4 0-.4v.4z"/><path id="XMLID_411_" class="st2" d="M146.1 138.9c-.2.1-.4.1-.5.3 0-.4.2-.5.5-.3z"/><path id="XMLID_410_" class="st2" d="M142.5 140.8c0-.1.1-.2 0-.3-.1.3.7.8.1.8-.1-.3-.1-.5-.4-.7l.3.2z"/><path id="XMLID_409_" transform="rotate(164.238 143.49 140.35)" class="st2" d="M143.5 140.2h.1v.2h-.1z"/><path id="XMLID_408_" d="M140.6 142.4l.2.4c-.1-.2-.3-.6-.7-.7-.5.5 0 .1-.7 0-.5.7-.1 1.2 0 1.9.6-.2.6.8 1.1.3 0-.4.3-.8.2-1.1.1.5-.1.9-.3 1.4-.5 0-1.1-.5-1.3-1-.2-.5-.1-1.1.3-1.5.5-.3 1 0 1.2.3z"/><path id="XMLID_407_" class="st2" d="M144.5 140.8c.1.3-.1 0-.1-.1 0 0 .1 0 .1.1z"/><path id="XMLID_406_" class="st2" d="M145.8 140.3l.1.2-.1-.2z"/><path id="XMLID_405_" d="M166.3 137.8c1.3.3 1.5 2.3 2 3.3.3 1.7.3 3.6-.4 5.2-1.2 1.2-1.7 3.4-3.3 4.6.2.7-.2 1.1.2 1.6-.4.4-.2 1-.8.8-1.4-.8.4-2.1-.6-3-1-1-2.4-2-2.6-3.3.4-.6.7-1.5.8-2.3-.4-1-.6-2.2-1.2-3-.3-1.2 1.1-2 1.3-2.9.6-.7 1.4-.7 2-1.4 1 .1 1.8-.4 2.6.4z"/><path id="XMLID_404_" d="M106.4 155.2c.3.7.1 1.5-.2 2.1-.6-.1-1.3-.2-1.4-.9 0-.5-.1-1.1.3-1.5.4-.3 1-.1 1.3.3z"/><path id="XMLID_403_" class="st2" d="M105 155.4v.5-.5z"/><path id="XMLID_402_" class="st2" d="M106.3 155.9c-.1.3-.2.6-.4 1-.3.2-.5-.6-.7-.1-.3-.2.2-.8.2-1.3.2 0 .4.1.5-.1l-.1-.2c.4-.2.4.5.5.7z"/><path id="XMLID_401_" class="st2" d="M145.1 146.4l.1-.3.3.1z"/><path id="XMLID_400_" class="st2" d="M145 146.6v.5-.5z"/><path id="XMLID_399_" class="st2" d="M147 147.7c-.3 0-.2-.2-.1-.4l.1.4z"/><path id="XMLID_398_" class="st2" d="M144.7 148.5c-.1-.1-.3.4-.4.1l.4-.1z"/><path id="XMLID_397_" class="st2" d="M146.5 148.2c0 .1.2.2.3 0 .1.5-.7.1-.4.6.1-.4.8 0 .7.1-.4.2-1.2.1-.8.6 0 .1-.1-.8-.5-.4v.2c-.3-.4 0-.3.4-.5h-.3c.2-.4.4-.4.6-.6z"/><path id="XMLID_396_" class="st2" d="M145.3 149.1c-.2 0-.1-.3 0-.5v.5z"/><path id="XMLID_395_" class="st2" d="M144.9 149.4c-.1.2-.3.3-.4.2.1-.1.3-.5.4-.2z"/><path id="XMLID_394_" class="st2" d="M144.6 150l-.1-.1h.3z"/><path id="XMLID_393_" class="st2" d="M146.6 149.7l.1-.3.2.3z"/><path id="XMLID_392_" class="st2" d="M145.5 150c0 .1-.1.1-.1.3l.2-.5c.1.1.2.3-.1.2z"/><path id="XMLID_391_" transform="rotate(164.238 147.398 149.385)" class="st2" d="M147.3 149.3h.1v.2h-.1z"/><path id="XMLID_390_" class="st2" d="M146 150h.3-.3z"/><path id="XMLID_389_" class="st2" d="M144.9 150.5l.1.2-.1-.2z"/><path id="XMLID_388_" class="st2" d="M145.5 150.8l.1.2c-.2.1-.4-.2-.6 0 0-.6.3.1.5-.2z"/><path id="XMLID_387_" class="st2" d="M146.2 150.6l.2.2-.2-.2z"/><path id="XMLID_386_" class="st2" d="M143 154.8l.2-.2v.2z"/><path id="XMLID_385_" transform="rotate(164.238 139.97 156.098)" class="st2" d="M139.9 156h.1v.3h-.1z"/><path id="XMLID_384_" class="st2" d="M141.2 156.7l-.1-.3.2.1z"/><path id="XMLID_383_" d="M132.5 159.4c1.7.4 2.6 2.2 2.9 3.8-.1 1.2-.4 2.5-.8 3.7-.5.7-1.3.5-1.8 1-.5-.2-.7-.9-1.4-.8-.9-1.3-2.6-2.6-2.1-4.6-.3-1.8 1.5-3.1 3.2-3.1z"/><path id="XMLID_382_" d="M101.3 174.2c.6 1.2 1.2 2.7.9 4-.2 1-1.2 1.7-2.1 2.1-.4-.8-1.7-.7-2.1-1.5-.6-.9-.5-1.9-.4-3 .6-1 1.2-2.8 2.8-2.4l.9.8z"/><path id="XMLID_381_" class="st2" d="M133.2 166.1l-.1-.2h.1z"/><path id="XMLID_380_" class="st2" d="M99.6 176.1c-.1.2-.5.3-.2.5-.3-.3-.2-.4.2-.5z"/><path id="XMLID_379_" class="st2" d="M99.8 177.4l.3.2-.3-.2z"/></g></g></g></g></g></g><g id="XMLID_225_"><path id="XMLID_760_" class="st0" d="M104.5 159l-6.9-25.1c-5.8 2.4-12.9 1.5-17.5-5-6.6-9.3-11.4-19.5-14.7-30.4-.4-1.3-.8-2.7-1.2-4-3-1-5.9-2.2-8.5-3.9-7.1-4.4-8.7-12.7-6.2-19.1l-21 5.7 26.1 95.4 49.9-13.6z"/><g id="XMLID_288_" class="st3"><path id="XMLID_327_" d="M68.8 115.7c.9 1.4-.3 2.7-.5 4.1-.6-.2-.7-.9-1.2-1.1.3.2.4.1.9 0h-.1c-.1.2.1.4.3.4.5-.5 1-1.4.9-1.8l-.6-.3.6.1c-.2-.7-.3-1.5-.9-1.9-.3.5-1 1-1.5.5.4-.7 1.6-1.1 2.1 0z"/><path id="XMLID_325_" d="M66.7 117.9c.1-.6-.5-1.1-.2-1.8-.4.9.5.9.2 1.8z"/><path id="XMLID_323_" d="M67 118.5l-.3-.4h.3z"/><path id="XMLID_313_" d="M69.1 124.9c.2.4-.2.9-.6 1.1-.5 0-.8-.3-1.1-.7-.3-1 1.4-1.3 1.7-.4z"/><path id="XMLID_306_" d="M55.4 134.5c.1 3.8-3 6.2-4.6 9.3-.7.2-1-.4-1.1-.8 0-1.7 1.8-2.6 1.6-4.5.6-1.8 1.3-3.8 3.1-4.8.6 0 1 .3 1 .8z"/><path id="XMLID_303_" d="M65.6 137.8c.7.7.1 1.8-.3 2.4-.3-1 .3-1.4.3-2l.1.1c.1-.3 0-.5-.2-.4-.6-.1-.2.7-.8.7 0-.6-.5-.2-.5-.8-.7 0-.4 1.1-.7 1.4.2-.1.8 1.3 1.8 1.2l-.2 1.1c-.8 0-.4-1-1.3-1.2-.4-.8-.7-2 0-2.9.8-.6 1.4-.2 1.8.4z"/><path id="XMLID_302_" class="st4" d="M64.8 137.7c-.2 0-.6 0-.4-.4l.4.4z"/><path id="XMLID_301_" d="M61.2 158c1 1.4-.3 2.6-.5 3.8-.3-.9-1.3-1.4-1.4-2.5.1-.6 0-1.3.6-1.6.5-.3.9.1 1.3.3z"/><path id="XMLID_300_" class="st2" d="M61 158.4c-.1.6 0 1.7.2 2-.3.8-1.1-.5-.6.5-.3-.2-.3-.9-.9-1 .8-.4.4-1.2.1-1.6.5-.4.8.1 1.2.1z"/><path id="XMLID_299_" d="M59.3 168.6c.4 1 .1 2-.5 2.9-.7 0-1-.9-1.4-1.6.2-.6 0-1.2.6-1.7.5-.2.9 0 1.3.4z"/><path id="XMLID_298_" class="st2" d="M57.9 168.8c.3.3.5-.5.7.1l-.2.2c-.1-.1-.7-.2-.5-.5.1.1 0 .2 0 .2z"/><path id="XMLID_297_" class="st2" d="M57.8 169.8c-.2 0-.4-.4-.1-.4l.1.4z"/><path id="XMLID_296_" class="st2" d="M59.1 170.3c-.8-.8-.2 1-1.1.4l.4-.3-.1-.1c0-.5.6-.5.9-.5l-.1.5z"/><path id="XMLID_295_" d="M54.2 165.7c.2.7.2 2.2-.8 2-.6-.2-.8-1-.8-1.7.1-.4.2-.7.5-.9.6-.2.9.2 1.1.6z"/><path id="XMLID_293_" class="st2" d="M52.9 166.3c.4.2.5-.5.9-.5l.2.8c-.7-.9 0 .8-.9.6-.4-.2-.4-.5-.3-1.2l.1.3z"/></g></g><g id="XMLID_221_"><g id="XMLID_245_"><g id="XMLID_249_"><g id="XMLID_250_"><g id="XMLID_251_" class="st3"><g id="XMLID_252_"><path id="XMLID_262_" d="M82.2 57.9c0-.4.1-.9.1-1.3-.1.2-.3.4-.5.7-.1.2.1.4.4.6z"/><path id="XMLID_261_" d="M82.4 55.4v-.2c0-.1-.1-.1-.1-.2l.1.4z"/><path id="XMLID_260_" d="M82.3 53c-.1.4-.1.8-.1 1.2.2-.3.2-.7.1-1.2z"/><path id="XMLID_259_" d="M81.8 54.8c.2-.1.4-.2.5.1 0-.2-.1-.5-.1-.7-.1.2-.2.5-.4.6z"/><path id="XMLID_258_" d="M81.8 54.8c-.2.1-.4.3-.5.4.2-.1.4-.2.5-.4z"/><path id="XMLID_257_" d="M77.4 53.9c-.1-.3 1.1-.1.9-.6-.2-1.2-.7-2.2-.5-3.3-.2-.5 1.3-1.1 1.1-1.6-.2-1.2-1.2-4.5-1.5-2.7-.4 2.7-.3 4.5-.3 6.9.3 2 .8 3.9 1.2 5.8 0 .5 0 1.1-.1 1.6.2-.7.4-1.3.6-2.1.3-1.1-1.2-2.4-1.4-4z"/><path id="XMLID_256_" d="M81.9 67.8c-.2-.2-.5-.6-.5-.6.8-1.1.3-2.2-.1-3.3-.2.2-.4.4-.6.5.1.6.5.7.7.1-.7 1.3-.6 2.6-.3 3.8.3-.1.7-.2.8-.5z"/><path id="XMLID_255_" d="M81.3 69c-.1-.2-.1-.5-.2-.7H81c.1.3.2.5.3.7z"/><path id="XMLID_254_" d="M81.9 47.9c.5-3.1 1.3-6 2.4-8.6-.2-.3-.4-.5-.1-.8.3-.1.5-.3.7-.5.2-.4.3-.8.5-1.1 0-.1.1-.3.1-.4 0-.3-.2-.3-.5-.2-.2.1-.4.2-.6.2.1 0 .4-.2.6-.2.2-.1.4-.3.6-.5.1-.4.2-.8.5-1.1-.1.5-.2.8-.5 1.1-.1.2-.1.5-.1.7v.2c.4-.9.9-1.7 1.3-2.5.1-.2.1-.4.2-.6.2-.7.4-1.4 1.1-1.4.1-.1.2-.3.3-.4h-.1c.1 0 .1-.1.2-.1.4-.6.8-1.1 1.3-1.7.1-.5.1-1.1.3-1.6h.8c-.1-.4-.1-.7 0-1-.5 0-1.1 0-1.5.1-.8 0 .3 1.6-1 1.4 1.3.2.2-1.4 1-1.4.4-.1 1-.1 1.5-.1.3-.7 1.1-1.2 2-1.2-.3 1-1.1 1.1-2 1.2-.1.3-.2.7 0 1h-.8c-.2.5-.2 1-.3 1.6.9-1 1.8-2 2.9-2.9 3.4-2.8 7.3-4.6 11.5-5.5 4.2-.9 8.6-1 13.2-.2 4.9 1 9.5 2.9 13.3 5.4 3.8 2.6 7.4 4.9 10.3 7.9 1.5 1.5 2.7 3.1 3.7 5 .9 1.9 1.6 3.9 1.6 6.1.1 1.6.7 3.7 1.2 5.8.5 2.1.8 4.1.8 5.5.5.9 1.2 1.6 2 2.1s1.6.7 2.5.8c1.6.2 3.1-.4 3.3-.5 2.5-1.4 3-2.9 3.2-4.9.1-2-.1-4.3.3-8.1-.1 2.6-1.1 1.8-1.8-.1-.7-1.9-1.4-4.9-1-7.6.7-4.1-1.6-8-4.8-11.1-3.2-3.1-7.1-5.5-10.3-8.2-1.6-1.4-3.7-2.3-5.9-3.4-2.8-1.7-5.7-3-8.8-3.8-3-.9-6.2-1.4-9.4-1.5-3.2-.2-6.5 0-9.8.5-3.3.5-6.7 1.3-10.2 2.5-3.7 1.5-6.2 4.4-8.2 7-1.7 1.7-3.8 3.1-4.9 4.7-1.8 2.4-2.6 4.8-3.1 7.1.9-2.4 1.5-4.2 3.2-6.8.6-.8.7-.3.6.6-.1.9-.3 2.1-.5 2.7 0 .6-1.7.6-1.7 1.2-.6 1-.6 2.2-.7 3.5 0 .6-1.1 0-1.1.3-.4 1.7.7 3.4 0 4.2-.4.7-.8 1.3-1.2 1.9-.2.4-.4.8-.4 1.2 0 .3 0 .6.1.9.4-.1.9-.1 1.4 0-.2.4-.6.9-.8 1.3.2-.4.6-.9.8-1.3-.5-.1-1-.1-1.4 0 .2 2.2.3 4.6.5 6.9h.1c.1-1.3.4-2.5 1.5-3.6-.4.5-.7.4-.7-.3.2-.1.5-.2.7-.3.1 1.2.2 2.3-.9 3.2 0 0 .2.5.3.8-.2.3-.6.2-1 .3v.8c.3-.2.8-.7 1.2-1.1.2-.7.5-1.1.5-1.1z"/><path id="XMLID_253_" d="M85.5 35.7c0 .2-.1.4-.1.6.4-.7.7-1.4 1.2-2.1-.8.1-.9.8-1.1 1.5z"/></g></g></g></g></g></g></g></svg>