<svg id="Layer_1" xmlns="http://www.w3.org/2000/svg" viewBox="0 0 234.1 224.7"><style>.st0{fill:none}.st1{opacity:.85}.st2{fill:#fff}.st2,.st3{opacity:.3}.st4{fill:#fff}.st4,.st5{opacity:.32}.st6{opacity:.8}</style><path id="XMLID_27_" d="M-26.2 6v.5V6z"/><path id="XMLID_28_" d="M-25.9 12.1v-.5.5z"/><g id="XMLID_13_"><path id="XMLID_25_" d="M145.8 136c0-.6-.1-1.1-.1-1.7 7.5-.6 14.8-1.9 22.7-2.7-.1-5.3-.1-10.5-.1-15.8h-.8c-3.6.1-6.7 1.4-9.7 2.2-2.2.3-4.6-.3-6.3-.3-2.7.1-5 .6-7.2 1.2-.6-5-1.3-9.9-2-14.7-.2-1.1-.3-2.2-.5-3.2 0-2.2.1-4.4.3-6.7h.2c.4.1.7.1 1.1.2 2.9.4 7 .4 11.3.1 2.9-.2 5.8-.6 8.3-1 0-1.2 0-2.5.2-3.8l1.2-7.5c-1.2-.3-2.4-.4-3.7-.4-2.4 0-5.4.2-9.8-.8 2.4.6 1.3 1.4-1.2 1.7-1.8.2-4.4.2-6.9-.4-.2-4.7-1-10-1.3-13.2-.3-.8-.7-1.4-1.1-1.9-.3-2.3-.6-4.5-.9-6.7h-8.2v.5c0 .5.1.9.1 1.4-.1-.1-.2-.3-.3-.7v1.6c-.2-.2-.6-.7-.6-.7v8.1c-.7 2.3-.3 4.8-.7 8.6-7 0-14.7 1.9-21.9 1.4-2.7-.2-5.5.2-8.7.2h-1.1c-.6-5.1-1.7-10.6-2.3-14.1-2.1-4.6-5.1-4.1-7-3.2h-.4v-1.2c-.1-.6-.1-1.2-.2-1.8h-10c-.2 6.9-.4 14.1.1 20.8-3.9.3-7.8.7-11.8 1l.1 5.3c-2.7.4-5.3.7-7.9 1.1 0 2.2.1 4.4.1 6.6.4 0 .7 0 1-.1.1.1-.5.4-1 .7v.3c2.9-.2 3.1.3 1.8.7h1.6c-.2.2-.7.6-.7.6h5.4v.8c4.2-.2 8.6-.3 13-.3.5 1.4.9 1.2 1.4 1.9 0 3.7.2 9.5.6 14.4.2 2.2.4 4.2.6 5.7-1.6.7-2.4 1.7-2.8 2.8-.8 0-2.2 0-2.9-.1-.8 0-.6-.2-.4-.3.4-.3.8-.6-.6-.8-3.3-.2-6.6-.3-10.1-.3-2.1.2-4.1.4-6.1.6.1 3.9.2 7.9.4 11.8l15.4-.4c2.3-.1 4.7-.2 7.1-.2l-7.1.2c-5 .2-10 .5-15.4.7v1.1c9.6 0 19.2-.2 25.5-.5.1.4.1.8.2 1.2.2 1.2.3 2.5.5 3.8.5 9.9 1 18.7 1.3 26.2h1.1c-.2-4.5-.5-9.1-.8-13.7.2 1.3.4 2.7.6 4 .2 2.1.3 4.3.4 6.4h.5c.1.6.2 1.3.3 1.9.1.5.1.9.2 1.4h5.6l-.3-3.3 10-.1c-.2-5.8-.4-11.6-.3-17.8-.1-4.1-1.1-7.7-1.9-11.1 6.9 4.4 16.1.2 24.3 1 .9.1 1.8.1 2.7 0 .1 8.3 1.2 16.3 2.2 24.6l8.8-.6c.1 1 .3 2.1.4 3.1l4.5-.1c.1-1.1.1-2.3.2-3.4l2.2-.2c-.5-5-1-10.1-1.1-15.5-.2-2.3-.7-4.5-1.3-6.6zm-82.9-2.6c5.1-.3 10.1-.6 15-.9 1.9-.1 3.9-.1 5.8-.2h1.5v.3c-7.4.2-14.9.5-22.3.8zm56.6-11.7c.3-.1.6-.3.9-.3.1-.1.2.1.2.3-.3-.1-.7 0-1.1 0zm3.4-.1c.6-.2 1.2-.4 1.9-.4.3-.2.6.1.9.4-.9-.1-1.8 0-2.8 0zm6.7 0h-1.7c.7-.3 1.4-.7 1.8-1.1-.1.3-.1.7-.1 1.1zm-.3-1.8c-2.9.3-4.8.7-7.3 1-1 .3-2 .6-2.9.9-5.4.1-10.8.1-16.4-1-.3-2.1-.6-4.1-1.1-6.1.2 2.2.5 4 .8 6-.6-.1-1.2-.3-1.8-.4.2-.6 1-1.4.8-2-.1-1.5-.7-2.9-1.2-4.5-.3-.7 1-.7.9-1-.4-2.2-2.2-3.8-1.9-5.3.2-1.1.3-2.1.5-3 0-.6.1-1.2 0-1.8-.1-.4-.3-.8-.4-1.2-.3-1-.7-2.1-1-3.2v-2c.4 0 .9 0 1.3.1.5.7.8 1 .8.1 1.5.1 2.9.3 4.1.3 3.6 0 6.7-.5 9.7-1.1-3.3.2-5.8.6-9.5.8-2.5.1 1.7-1.7 3.4-2.1.7-.3 1.8 1.2 2.5.9 1.5 0 2.9-.6 4.6-1 .7-.3.6 1.1 1 .9 2.2-.3 4-2 5.4-1.7 1.1.2 2.1.4 3 .6.6.1 1.2.1 1.8.1l1.2-.3c.7-.2 1.3-.3 2-.5-3.9 7.7 0 17.5.2 26.6-.3-.1-.4-.1-.5-.1zm14.9-.8c2.4-.3 4.2-.7 7-.9 1.9-.1-1.3 1.8-2.6 2.2-.5.3-1.4-1.2-2-.9-.8 0-1.5.3-2.3.6 0-.3-.1-.7-.1-1z"/><path id="XMLID_380_" d="M79.7 123.1c0 .1 0 .2-.1.2h-.2l.3-.2z"/><path id="XMLID_384_" d="M150.8 81c-.2 0-.4-.1-.6-.1.3.1.5.1.6.1z"/></g><g id="XMLID_6_"><path id="XMLID_12_" class="st0" d="M200 190.6l-68-83"/><g id="XMLID_32_" class="st1"><path id="XMLID_31_" d="M131.1 131.5c.4-1 1.3-2.2.8-3.1.6-1.1 2.5-1.1 2-2.6.2.1.5.1.8.1.2-.6.1-.8.3-1.5-1.8-.1-3.8-1.8-3.6-3.9-.1-1.2 1.1-2.1 2.2-2 1.3.2 2.3 1.3 2.8 2.4l.5 1.9c-.6 0-1.1.4-.5.8.5.2.9 0 1.1-.3.1.4.9.4.7 1.1 1-1.1 2.4-1.5 3.9-1.1l.1.9c2-.9 2.1 1.3 3.8 1.7 3.4.6.5 2.5 3.7 3.3-.7 0-1.9 0-1.5 1.1.5.7 1.6 0 2.2.9-.6 1.1-3.5-1-2.6 1.5.7.7.5 1.8.8 2.7 2.3 1.1 2.6 4.4 5.6 4.7-1.3-.4-.9 1-1.3 1.5.4 1.5 1.9 1.5 2.7 2.3-.4.5.3 1-.6 1.4-1.4-1.3-2.5-3-4.3-4-.8.5-1.9.4-1.7 1.5.4 2.6-.1 6.1 1.1 7.7-2.4-3.5-5.6-6.3-8.2-9.6-2 1 1.4 2 .3 2.9-1.1-.9-1.9 0-3 .3l-2.6-3.1c-.6-.1-.7.3-1.1.5-1.8-.6-.6-3.5-2.8-3.7-.7-1.4.2-2.6-.8-3.9-1.3.2.5 1.1.1 2-.6-.1-.5-1.4-1.4-1.2"/><path id="XMLID_864_" class="st2" d="M133.7 118.9c.2.9.7.6 1.4 1h-.3c0 1 1.5 0 1 1.3.1.2-.3-.5-.6-.1 0 .5.6.1.4.5-.2-.1-.8-.3-1.1-.3-.3.6-.8.7-1.3 1.3l.7-.2c-.5 0-.5.5-.9.9-.7-.5-.6-1.2-1.3-2 .7.7 0-.5.7-.8-.6.4-1-.3-.7-.5l.2.2.4-.6.1.1c.5-1.3.2.8.8 0l-.5-.6 1-.2z"/><path id="XMLID_863_" class="st3" d="M133.1 120.5c.3-.2 0-.3.3-.5 0 .3.2.1.3 0 0 .9-.8.1-.9.9-.3-.2-.4-.3-.5-.6.5-.2.3.1.8.2z"/><path id="XMLID_862_" class="st3" d="M132.8 121.6c0-.1-.4-.7-.6-.5l.9.1-.3.4z"/><path id="XMLID_860_" class="st2" d="M133.4 123.3l.1-.4.4.3z"/><path id="XMLID_845_" d="M131.8 145.2h-.3l.2-.2z"/><path id="XMLID_844_" transform="rotate(140.669 138.071 140.52)" class="st2" d="M138 140.4h.1v.2h-.1z"/><path id="XMLID_843_" class="st2" d="M149.1 140.7v.2c-.2-.1-.6-.3-.5-.5.1 0 .2.4.5.3z"/><path id="XMLID_842_" class="st2" d="M147.8 142.7c-.2-.1-.5.3-.4.6-.4-.4 0-.5.4-.6z"/><path id="XMLID_841_" class="st2" d="M148.1 144.3h.1-.1z"/><path id="XMLID_840_" d="M152.6 152.5c.9 2.3 3.1 3.1 4.4 4.6 1.4-.2 3 1.1 3.3 2.4-.4-.2-.7-1.4-1.4-.9 1.3 1.1-.5.8 1 1.9l.6-.5c-.2 1.9-.8 3.6 1.1 5.1.9 1.2 2.3 2.6 3 4 .5.7-.2.7-.7.9-2.7-2-3.8-6.1-6.7-7.3-2-1 0-2.7-1.1-3.9-.2.2 0 .3.1.4-.3-.8-1.1.8-1.1-.3.4 1.2-.1 2.6.8 3.6-1.6-4-3.5-8.1-5.6-11.6.9.1 1.2 1.6 2.3 1.6z"/><path id="XMLID_839_" transform="rotate(140.669 153.994 155.238)" class="st4" d="M153.9 155h.1v.4h-.1z"/><path id="XMLID_838_" d="M145.4 163.6c1.5 1 .9 2.8 1.3 4.3-.7.1-1.1-.6-1.7-.6.4.1.5-.1.9-.4l-.1.1c0 .2.3.3.4.3.3-.7.4-1.8 0-2.2l-.7-.1.6-.2c-.5-.6-1-1.3-1.7-1.5-.1.6-.6 1.4-1.3 1.2.3-.9 1.4-1.8 2.3-.9z"/><path id="XMLID_837_" class="st4" d="M155.5 156.2c-.7.5-.3-.6-1-.5.4-.4.9.6 1 .5z"/><path id="XMLID_836_" d="M144.3 166.7c-.2-.6-1-.9-1-1.6.1.9 1 .5 1 1.6z"/><path id="XMLID_835_" class="st4" d="M155.7 157.4h-.3c.4.4-.5 1 .4 1.2 0-.2.1-.2.2-.4.2.9-1.1.5-1.2.1.5-.1.1-.8.1-1.1-.4.2-1 .2-.8-.6.2 0 .9.8 1.6.8z"/><path id="XMLID_834_" d="M144.9 167.1l-.5-.3h.3z"/><path id="XMLID_833_" class="st4" d="M155.7 157.7h.4-.4z"/><path id="XMLID_832_" class="st4" d="M157.8 158.8h-.6l.2-.1z"/><path id="XMLID_831_" class="st5" d="M156 160c-.3.4.4.7-.2.7-.4-.5.5-.5.2-.7z"/><path id="XMLID_830_" class="st4" d="M157.5 160.4c-.6.3-.3-.1-.8-.6l.8.6z"/><path id="XMLID_829_" class="st4" d="M158.8 158.4v-.4.2z"/><path id="XMLID_828_" class="st4" d="M158.2 159.3l-.1.1.8.4c-.8 1-.7-.5-1.2-.6.1.1.4-.2.5.1z"/><path id="XMLID_827_" class="st4" d="M157.1 161.1l-.2-.4.3.1z"/><path id="XMLID_826_" class="st4" d="M159.7 160.7l-.2-.3.4.1z"/><path id="XMLID_825_" d="M157.8 164.1c.8 1 1.8 2.1 1.3 3.5-.3.4-.2 1.2-.8 1.4-1.1-.3-2.2-.5-3-1.6-.4-.9-.8-1.8-.3-2.9.6-1.2 1.9-.7 2.8-.4z"/><path id="XMLID_824_" d="M149.8 172.6c.4.3.1 1-.1 1.3-.4.3-.9.1-1.3-.2-.8-.9.7-2 1.4-1.1z"/><path id="XMLID_823_" class="st4" d="M156.9 166.7l-.8.2c.5-.3.1-1.1.8-.2z"/><path id="XMLID_822_" class="st4" d="M160.2 164.1l-.2-.5h.2z"/><path id="XMLID_821_" class="st4" d="M157.4 166.4c0-.3 1.5 0 .8-.8.6.2.2 1.2.4 1.2l-.6-.4c-.2.7.6.6.2 1.3l-.7-.1c.4-.9.4-.5-.1-1.2z"/><path id="XMLID_820_" class="st4" d="M157.3 167.8l1 .2c-.8.5-1.1-.6-1.6.3.3-.4-.7-1.1.1-1.3.4.5.5.1.5.8z"/><path id="XMLID_819_" class="st4" d="M161.3 165l-.4-.4.3.2z"/><path id="XMLID_818_" transform="rotate(140.669 161.098 165.607)" class="st4" d="M161.1 165.4h.1v.4h-.1z"/><path id="XMLID_816_" class="st4" d="M163.3 168.5c-.2-.2.2-.5.4-.3-.3.2-.7 1.1-1 .2l.6.1z"/><path id="XMLID_815_" class="st4" d="M164.3 169.1c0 1.1-.4-.3-.8.4 0-.4.5-.7.8-.4z"/></g></g><g id="XMLID_366_"><path id="XMLID_912_" class="st0" d="M65 100.3c1.9-4.4 4.3-8.3 7.2-12.1 4.1-5.4 9.9-8.9 16.1-8.8.3-.6.5-1.2.8-1.9 3.6-8.1 3.5-10.9.6-19.8-1.1-3.4-.9-6.9.2-10.1L23.6 32.1l-14.5 62L63 106.6c.3-2.1 1-4.2 2-6.3z"/><path id="XMLID_913_" class="st0" d="M115.3 118h-.1c-.1.3-.2.5-.3.8l15.4 3.6 7.3-31.3c-9.4 5.8-19 17.9-22.3 26.9z"/><g id="XMLID_397_" class="st1"><path id="XMLID_892_" d="M29.6 56.1c.6 1.2-.2 2.3-.3 3.4-1.2-.7-1.5.9-2.6.7-1.3 1.5-2.9 2.7-3.8 4.6-.6-.4.7-1.5.2-2.6-.7-1.3-2.1-.8-3.2-.8-1.1.4-2.2 1.4-3.3.8 3.5-.7 3.1-5.2 6.3-6.3 1.7-.6 3.6-2.5 5.4-1.1.9 0 .9.8 1.3 1.3z"/><path id="XMLID_887_" d="M40.8 60.4c2.4 1.7 3.8 4 5.2 6.4-.3.4.2 1.2-.6 1.1-.7.1-1-.6-1.4-.9-1.5-2.1-2.8-4.5-4.6-6.3-.4-.5-1.4-1.1-.6-2 1.1-.7 1.8 1.1 2 1.7z"/><path id="XMLID_883_" d="M71.9 74.9c.3 1.3-1.3 2.2-1.1 3.4-.5.9-1.8 1.3-2.8 1.7-.8-1-2.3 1-2.7-.8-.6.2-1.8 0-1.7.9 1 1 1 2.8 2.5 3.2.1.3-.4.4-.7.6-.5.8.8 1.2.9 1.8l-.9.6.5.9c-.4.3-1.3.4-1.1 1.1 0 1 1.4.6 1 1.6-.5.1-.8-.6-1.4-.5-.9.7-1.1 1.8-.7 2.6-.5.1-.8-.2-1.4-.2-.5.6-1.4 1-1 1.9-.6.5-.6-.5-1.1-.5.1 1.1-1.8.7-1.3 1.9-.7-.3 0-1-.6-1.4-2.8-1.9-4.7 1.5-7.3.2.5-1.4-.8-3 .2-4.2-.3-1.4-1.7-1-2.5-1.2-.2-.7.3-1.6.1-2.2-1.2.6-1.9-1-3.1-.4 2.7-.4 5-3.4 8-3.7.4-.5 1.7-.8 1.2-1.8-.5-1.1-1.1-1.8-2.1-2.3-.8-.8.4-1.3-.4-2 1.1-.4 1.3 1.6 2.5 1.2.5.8.7 2 1.7 2.4 1.5.7 2.9-.1 4.3.3 1.3-.6 2.7-.9 3.7-1.9-.8-1.8-2.7.7-4.1-.6-.4-.4-.4-1.1.1-1.3.9-.5 3-.3 2.7-2 0-.6-.8-1.5.2-1.8 1.6-1.4 3.6-1.3 5.6-.5 1.5.8 2.1 1.9 2.8 3z"/><path id="XMLID_882_" d="M48.2 70.9c-.8-.7.3-.4.3-.8.2.4.2 1-.3.8z"/><path id="XMLID_854_" d="M127.5 103.6v-.3l.1.2z"/><path id="XMLID_812_" d="M127.1 108.9l-.4.1c.2-.4.2-.2.4-.1z"/><path id="XMLID_736_" d="M47.2 98.6c.4 1-.4 2-.9 2.7-1.4.6-3 1.6-4.3.4-.4-.4-.8-.9-1-1.6.4-.8.1-2.4 1.3-2.9 1.6-.8 4.3-.8 4.9 1.4z"/></g></g><g id="XMLID_1172_"><g id="XMLID_20_"><g id="XMLID_34_"><g id="XMLID_35_"><g id="XMLID_36_" class="st6"><path id="XMLID_37_" d="M195 114c.6-3.6.9-9.5 0-16.6-.6-3.5-1.3-7.3-2.5-11.2-1.2-3.9-2.8-7.9-4.7-11.8-1.9-3.9-4.2-7.7-6.7-11.2-2.5-3.6-5.3-6.8-8.1-9.8-2.8-3-5.8-5.5-8.6-7.8-2.8-2.2-5.5-4.1-7.9-5.6-7.4-4.6-13.6-7-18.3-8.8-1-.4-1.2-.4-.6-.3.5.2 1.8.5 3.5 1.2 3.5 1.3 9.2 3.8 15.4 7.8 5.6 3.4 11.9 8.2 18.1 14.9-3.5-4.5-7.5-8.5-11.5-12-4-3.4-8-6.2-11.4-8.4-5.3-2.6-11-4.7-16.9-6.3-13.1-3.4-26.7-3.7-39.8-1-13 2.7-25.5 8.2-36.4 16.3-4 2.9-9.9 8.1-14.9 14.1s-9.1 12.6-11.4 16.9l.6-1.2c.4-.8 1-2 1.8-3.4 1.6-2.9 4.1-6.9 7.6-11.3s8-9.2 13.4-13.7S67.5 36.2 74.2 33c6.8-3.2 13.9-5.5 20.8-7 6.9-1.4 13.4-1.8 19-1.8s10.2.7 13.5 1.2c1.6.3 2.9.5 3.7.7.9.2 1.3.3 1.3.3-1-.3-2.1-.5-3.1-.8 0 0-.2 0-.7-.1-.5-.1-1.1-.2-2-.4-1.7-.2-4.1-.7-7.1-.9-5.9-.5-13.8-.6-21.7.7-3.9.5-7.8 1.5-11.4 2.5-1.8.6-3.5 1.1-5.1 1.7-1.6.6-3.1 1.1-4.5 1.7-2.8 1.1-5 2.3-6.6 3-.8.4-1.4.7-1.8 1l-.6.3c-3.2 1.8-6.2 3.8-9.3 5.9 0 0 .6-.4 1.4-1 .9-.6 2-1.4 3.2-2.1 1.2-.7 2.3-1.5 3.2-2 .9-.5 1.5-.8 1.5-.8 4.1-2.3 8.3-4.4 12.7-6.2 4.4-1.8 9.1-3.3 14.1-4.4 6.3-1.3 13.6-1.5 19.9-1.3 5.2.1 9.9 1.2 14.6 2.3 0 0 2.3.4 4.6 1 1.1.3 2.3.6 3.1.8.8.3 1.4.4 1.4.4.9.2 1.8.4 2.8.7l-.1-.1c-1.7-1.1-7.6-3.8-16.4-5.5-8.7-1.8-20.2-2.2-31.7-.2-5.7 1-11.4 2.6-16.7 4.7-5.3 2-10.2 4.5-14.4 7.1-8.1 5.4-13.8 10.9-16.1 13.5C42 52 39 56.4 36.4 61.1c-2.6 4.7-4.9 9.7-7.2 15.2C27.6 80 26 83 25.4 86c.1.4 0 1.9-.3 3.4-2 7.6-4 15.5-3.3 21.6.1 2.1-1 6.2-1.7 9.9-.2.9-.4 1.9-.5 2.7-.1.9-.2 1.7-.3 2.3-.1 1.4-.1 2.4.1 2.6 1.9 1.5 2.1 1.6 2.1 2.7 0 .6-.1 1.4 0 2.6.1 1.3.2 3.1.9 5.6.2.6.8 1.8 1.5 3.1.8 1.3 1.5 2.8 1.9 4 1.1 4.1 2.3 6.5 3.8 9 .8 1.2 1.5 2.5 2.5 3.9.5.7 1 1.5 1.6 2.3.6.8 1.2 1.7 1.9 2.7 4.3 5.7 7 9 9.6 12.2 1.4 1.5 2.7 3 4.5 4.5.9.8 1.8 1.5 2.9 2.3 1.1.8 2.3 1.6 3.7 2.3.7.4 5 3.4 9.5 5.7 4.5 2.3 9 4.1 9 4.1 6.8 3.3 12.7 4.9 18.2 6.1 5.5 1.2 10.7 2.1 16.5 3.5 6.8-.7 14.7-1 22.6-2.4 7.9-1.4 15.9-3.6 22.3-7.1 6.4-3.4 10.8-6.1 15.1-8.7 4.3-2.6 8.4-5.2 13.3-9.5 1.3-1.3 2.4-2.6 3.4-3.6.9-1.1 1.8-2 2.6-2.8.9-.7 1.8-2.4 2.8-4.2.5-.9 1-1.9 1.5-2.8.5-.9 1-1.8 1.5-2.6l.3 1.2c.7-1.1 2.1-3.1 2.7-4.3.6-1.1.8-.7.9-.3.2.8.4 1.7 1.8-.1 2.9-4.6 5.4-9.6 7.3-15 1.3-5.5 1.9-11.1 2.1-16.5-.4-.4-.7-.8-.9-1.6 0-1.6-.1-3.2-.2-4.8-.8-1-1.7-.7-2.3-1.4-1.2-.1-2.4-1.7-3.5-3.1-1.1-1.4-2.3-2.5-3.4-1.8-.3.3-.6 2.5-1 5-.2 1.3-.5 2.6-.8 3.9-.4 1.3-.7 2.4-1.1 3.3-.5.8-1-1.3-1.7-2.2-.2 1.1-.3 2-.5 2.6-.2.6-.4 1-.6 1.2-.4.3-.7-.1-1-1.1-.3 1-.5 2.1-.5 2.1-.2-.3-.9-1.2-.9-1.2-1.5 5.5-3.9 10.9-6.6 16.1-2.7 5.1-5.7 9.9-8.4 14.6-.3.5-.6 1.1-1 1.7-.4.6-.8 1.3-1.2 2-.8 1.4-1.6 2.8-2.3 3.9-.3.6-1.1 1.3-1.9 1.9-.8.6-1.5 1.3-1.9 1.6-.8 1.8.1 2.3.1 3.5-1.7 1.2-3.8 2.8-6.2 4.3-1.1.8-2.4 1.5-3.6 2.3l-3.6 2.1c-4.6 2.7-8.4 4.7-7.5 6-.8.3-1.5.6-2.1 1-.6.3-1.2.6-1.7.8-1.1.5-1.9 1.1-2.9 1.6-.9.5-1.8 1-3 1.5-1.1.5-2.5 1-4.2 1.5-4.5 1.3-9.8 2.2-15.5 2.6-5.6.4-11.6.2-17.5-.7-6.4-.8-12.5-2.6-18.3-5-1.1-.4-2.1-.9-3.2-1.4-1-.4-2-.9-3-1.4-10.5-5.3-19.2-12.6-25.8-20.8-6.7-8.2-11.5-17.4-14.6-27-3.1-9.6-4.5-19.7-4.1-30.1.4-10.4 2.5-21 6.9-31.7 4.4-10.8 11.5-20.7 20.4-28.7 4.4-4 9.3-7.5 14.5-10.4 5.2-2.9 10.7-5.2 16.3-6.8 11.3-3.3 23-4.1 34-2.6 11 1.5 21.3 5.2 30 10.3 8.7 5.1 15.9 11.5 21.5 18.2 2.8 3.4 5.1 6.8 7.2 10.2 2 3.4 3.7 6.8 5.1 10 2.7 6.5 4.2 12.4 5.1 17.3.9 4.9 1.2 8.9 1.3 11.7 0 0 .1.4.2 1s.4 1.4.5 2.2c.4 1.8.7 3.4.7 3.4z"/></g></g></g></g></g><g id="XMLID_1062_"><path id="XMLID_1171_" class="st0" d="M234.1 59.8l-114.3 7.4 6 91.4"/><g id="XMLID_1063_" class="st6"><path id="XMLID_1170_" d="M186.1 62.9c-.5.7-1.2 1.5-1.3 2.3.3.6 1 .1 1.1-.1 2.2 1.4 2.6 3.9 5.1 4.6-.3.3-.6.5-.9.8 1 1.6 1 3.5 1.7 5.1-1.4 1.3.3 2.7-.7 4.1l-.8-.2c-.5 1-.4 2.3-.7 3.2 1.3 1 1.5 2.5 1.8 4.1-.4.9-.8 2.1-.9 2.7.1-.4-.1-.7-.5-.9-1.2.1-.7 1.6-1.9 2-.7-1-.3-2.8-2.2-2.7 0 1.3 1.3 3.1.7 4 0-.7-.4-1.2-.8-1.7-1.5.8-.3 2.8-.2 4.1-.1 1.5 1.9 2.8.8 4.3-2.8-3.7-5.6-7.7-7.2-12.3-2.2-4.6-2.7-9.9-2.9-14.6.5-4.7 5.5-5.3 7.8-8.4.2-.8 1.3.2 2-.4z"/><path id="XMLID_1169_" class="st2" d="M179.3 71.8c-.1.4-.7 0-.3-.2l.3.2z"/><path id="XMLID_1168_" class="st2" d="M178.6 73.5c-.7.5-.8-.6-1-.9l.5.5.7-1c.2.6-.7.9-.2 1.4z"/><path id="XMLID_1167_" class="st2" d="M179.3 73l-.2.1c0-.1 0-.4.2-.1z"/><path id="XMLID_1166_" class="st2" d="M179.4 74.4l.3.1-.3-.1z"/><path id="XMLID_1165_" class="st2" d="M179.7 75.4c.2.1-.1.3-.1.4 0-.2-.1-.4.1-.4z"/><path id="XMLID_1164_" class="st2" d="M178.8 76c-.3.1-.5-.3-.4-.5.3.1.4.2.4.5z"/><path id="XMLID_1163_" class="st2" d="M177.3 76.3l-.2-.5h.1z"/><path id="XMLID_1162_" class="st2" d="M180.6 79.5l-.1.4.1-.4z"/><path id="XMLID_1161_" class="st2" d="M180.1 80.3c0 .7.3.5-.3 1.2.7-.5-.6-1.2.2-1.4.1.1.2.2.1.2z"/><path id="XMLID_1160_" class="st2" d="M181.2 80.8v-.4l.1.3z"/><path id="XMLID_1159_" class="st2" d="M180.4 80.5l.5.2-.5-.2z"/><path id="XMLID_1158_" class="st2" d="M177.7 80.8l.5.1-.5-.1z"/><path id="XMLID_1157_" d="M235.7 84.2c-.4-.5-.4-1.3-.9-1.4.9-.3 1.2.7.9 1.4z"/><path id="XMLID_1156_" d="M234.9 84.6c.2-.3.2-.5.6-.1-.6.6-1.8-.1-1.3-.9.3.4-.1 1 .7 1z"/><path id="XMLID_1155_" d="M204.3 88.5c1.2 2.8-.4 4.8-.2 7.7-1.3-.1-1.8-1.5-2.9 0-.4.4.4.5.2.8-.5-.6-1.3.5-2 .7.1.7.5 1.5.3 2-.9.1-1.8-2.5-2.5-.5l.3 1.4c-1.3-.1-.3-2.7-1.9-2.7l-.9 1.6c-.2-.6.6-1.9-.5-1.9-1.2 0-.2 1.1-1.1 1.3-.8-1 .9-3.5-1.1-3.3-.8 0-.1 1.7-.8.6 1.3-1.6-.9-2.6.5-4.2 1.7-1.2-.1-3.2 2.3-3.7.1-1.3 1.9-1 2.5-1.4 2.4 2.5 3.1-1.3 5.8 0 1 0 1.5 1.1 2 1.6z"/><path id="XMLID_1154_" transform="rotate(176.286 195.137 90.68)" class="st2" d="M195.1 90.4h.2v.6h-.2z"/><path id="XMLID_1153_" class="st2" d="M193.1 91.7c-.2.1-.1-.2-.1-.2.2-.1.1.1.1.2z"/><path id="XMLID_1152_" class="st2" d="M194.1 92v-.3l.4.3z"/><path id="XMLID_1151_" class="st2" d="M194.6 92.4c-.1.3-.2.1-.4-.1.1.1.3 0 .4.1z"/><path id="XMLID_1150_" class="st2" d="M194 93.7c-.6 1-.5-.6-1.5-.6.3.2.7-.3.5-.6.2.4.6 1.1 1 1.2z"/><path id="XMLID_1149_" class="st2" d="M202.3 92.4c-.3-.4-.4-.1-.7 0 .4-.5.5-.5.7 0z"/><path id="XMLID_1148_" class="st2" d="M192.6 92.6c0 .1 0 .2-.1.3 0-.1-.1-.3.1-.3z"/><path id="XMLID_1147_" class="st2" d="M191.9 93.3l.2-.5v.5z"/><path id="XMLID_1146_" class="st2" d="M195 93.4c-.1-.2-.8-.1-.4-.5 0 .3.2.1.4.5z"/><path id="XMLID_1145_" class="st2" d="M201.7 92.7l.2.3-.2-.3z"/><path id="XMLID_1144_" class="st2" d="M194.6 94.2v-.5l.2.2z"/><path id="XMLID_1143_" class="st2" d="M202 94.1c-.6-.8-.1.8-.7-.1.3-.5.6 0 .7.1z"/><path id="XMLID_1142_" class="st2" d="M193.6 94.6c.3.4.5.5.9.4-.7-.2-1.5.2-1.6-.3.3.1.3.1.7-.1z"/><path id="XMLID_1141_" class="st2" d="M192.1 95.2l.2-.4v.4z"/><path id="XMLID_1140_" transform="rotate(176.286 201.064 95.177)" class="st2" d="M201 94.7h.1v1h-.1z"/><path id="XMLID_1139_" class="st2" d="M194.7 96.4c-.5 0-.3-.1-.8-.2l.4.7-.1-.1-.1.5c-.5-.9.1-1.4.6-2-.4.7.1.9 0 1.1z"/><path id="XMLID_1138_" class="st2" d="M195.7 96.1c-.2.1-.3-.1-.4-.1-.5.2.1.6 0 .6-.7.1.1-.4-.4-.6.2 0 .9-.4.8.1z"/><path id="XMLID_1137_" class="st2" d="M196.9 96.5c-.2-.5-.7.1-.5-.5.2.4.7.3.5.5z"/><path id="XMLID_1136_" class="st2" d="M195.8 97.6c0-.8-1.1-.2-.3-1 .2.2.8.7.3 1z"/><path id="XMLID_1135_" class="st2" d="M196.5 97.7l-.1-.4.1.1z"/><path id="XMLID_1134_" transform="rotate(176.286 195.39 97.757)" class="st2" d="M195.3 97.5h.1v.4h-.1z"/><path id="XMLID_1133_" d="M188.5 103.4l.1.9-.1-.9z"/><path id="XMLID_1132_" d="M187.7 104.5l.5 1.6-.5-1.6z"/><path id="XMLID_1131_" d="M189.1 106.9l.2-.2.2.2z"/><path id="XMLID_1130_" d="M188.5 107.8c.3.2-.1.4 0 .6-.1-.1-.2-.5 0-.6z"/><path id="XMLID_1129_" d="M205.2 109.3c.3 1.4 1.5 2.7.5 4.1.2 2.5-.6 5.5-2.7 6.5-.3 3.5 3.3 6.4 2.6 9.9-1.6.2-1.5 1.8-2.8 2.3 0 .7 0 1.3-.5 1.9-.6-.6.7-2.8-.9-2.9l.1 2.3c-.3-.3-.1-1.2-.4-1.8-1.2-.5-1.9 1-1.8 2-.9-.4-.1-1.5-.1-2.2-1-.4-.4 1.1-1.4 1 1.8 1.4 2.1 3.4 1.5 5.5-.9.9-1.1 2.9-2.5 2.9-.8-.3-.9-1.7-1.8-1.1-1 1.1-1.3 1.8-1.3 3.3-.4.8-1 0-1.3-.2-.2-.5-.5-1.2-1-1.4.6 1.5-.1 3.1-.7 4.5-.8.1-1.9-1.1-2.2-2-.1-.9 0-1.9.6-2.6.6-.9 1.5.1 2.2-.1-1.1-1.2-2.1-2.5-1.8-4.3.3-1.2.6-2.1 1.6-3 1.1-.8 1.9 0 3 .4.4-1.1 1.1-2.1 2.4-2.3l1 .3c-.1-2.7-1.2-5.3-.1-7.8.6-1.1.7-2.8 2.3-3 .6-.7 1.9-.1 2.7.3.1-.8.3-2.1-.7-2.5-.2.2.4 1.5-.3 1.4-.9-1.1-1.5-2.6-1.3-3.9-.8-.1-.6.8-1.3.8.3-2.6-1.8-5.3.3-7.6-.2-1.1 1.2-1.7 1.7-2.4 1.6-.7 3.5.2 4.4 1.7z"/><path id="XMLID_1128_" transform="rotate(176.286 188.602 108.923)" d="M188.6 108.8h.1v.3h-.1z"/><path id="XMLID_1127_" class="st2" d="M200.6 108.6c-.4 0-.2-.3-.1-.5-.2.2.1.7.1.5z"/><path id="XMLID_1126_" class="st2" d="M200.2 109c-.5-.1-.1.5-.1.8.2-.3.6.3.8-.2-.1.4.2.4-.2 1.1-.3 0-1.4-.4-1.5.6.8-1.3.4-1.1.8-2.6l.2.3z"/><path id="XMLID_1125_" d="M189.8 109.5l-.2.3.2-.3z"/><path id="XMLID_1124_" class="st2" d="M203.7 109.1c0 .6.5-.2.4.4l-.4-.4c-.1 0 .3-.2 0 0z"/><path id="XMLID_1123_" class="st2" d="M203 109.5h.4-.4z"/><path id="XMLID_1122_" d="M200.5 109.8c-.2.1-.1.3-.1.4l-.2-.4h.3z"/><path id="XMLID_1121_" class="st2" d="M204.8 111.8l-1-.7h.2c0-.7-.5-.5-.2-1.2.2.4.7 1.5 1 1.9z"/><path id="XMLID_1120_" class="st2" d="M201.3 110.4l-.1-.2h.4z"/><path id="XMLID_1119_" class="st2" d="M203.3 110.6c.3.3.1 1.1-.3 1.4-.6 0-1.8-.4-1.5.8v-.6l-.2.2c0-1.1-.8.1-1.1.2.5-.4-.6-.9.1-.9v.1c0-.2.8.1.8-.5-.1 1.6.5-.4 1.1.8-.2-.5.6-.3.3-.9.4-.1.6 1.3.9.3-.9-.4.2-.8-.7-1.3l.6.4z"/><path id="XMLID_1118_" class="st2" d="M200.6 111.2c-.3.4-.7-.3-.9-.4.3.4.8.1.9.4z"/><path id="XMLID_1117_" class="st2" d="M201.8 111c-.2 0-.2.1-.5.1.2-.1.3-.1.5-.1z"/><path id="XMLID_1116_" class="st2" d="M204.4 110.8l.4.1-.4-.1z"/><path id="XMLID_1115_" class="st2" d="M198.9 112.3l-.2.3.1-.5c.1 0 .1.2.1.2z"/><path id="XMLID_1114_" class="st2" d="M199.7 112.2c-.5 0-.2.7-.5.5-.1-.2.2-.8.5-.5z"/><path id="XMLID_1113_" class="st2" d="M204.5 112.5c.6.3-.6-.4-.6.4-.4-.5.1-.8.5-1l.1.6z"/><path id="XMLID_1112_" class="st2" d="M203.4 112.8l-.2.1c.1-.2.1-.4.3-.4 0 0 .1.3-.1.3z"/><path id="XMLID_1111_" class="st2" d="M202.2 112.7c-.1.3.1.8-.1 1.3.2-.5-.6-.8-.3-1.3l.1.4.3-.4z"/><path id="XMLID_1110_" class="st2" d="M200.7 113.2c-.6.4.4 1-.4 1-.5-.5-1.3 0-1.5-.6 1.4.7.4-.9 1.9-.4z"/><path id="XMLID_1109_" d="M200.2 113.7c-.4-.1-.4-.3 0-.4-.1.1.2.3 0 .4z"/><path id="XMLID_1108_" class="st2" d="M202.5 113.5l.3-.4-.1.3z"/><path id="XMLID_1107_" class="st2" d="M201 113.6l.2-.3.2.1z"/><path id="XMLID_1106_" class="st2" d="M203.7 113.9l.1-.3.1.2z"/><path id="XMLID_1105_" class="st2" d="M202.9 114.3c-.3-.1 0-.7.1-.5l-.1.5z"/><path id="XMLID_1104_" class="st2" d="M205 114.3c-.2.1-.6 0-.7.2 0-.5.3-.7.7-.2z"/><path id="XMLID_1103_" class="st2" d="M199.4 115.7c0-.1.2-.2.1-.3-.2.4.8 1.3-.1 1.2-.1-.4 0-.8-.4-1.1l.4.2z"/><path id="XMLID_1102_" transform="rotate(176.286 200.879 115.47)" class="st2" d="M200.8 115.3h.1v.3h-.1z"/><path id="XMLID_1101_" d="M196.3 117.4l.2.7c-.1-.3-.3-.9-.7-1.2-.9.5-.1.1-1-.3-.9.9-.5 1.7-.5 2.6.9-.1.7 1.3 1.5.7.1-.5.6-1 .6-1.5 0 .7-.4 1.3-.9 1.9-.8-.2-1.4-1.1-1.5-1.8-.1-.7.1-1.6.9-2 .6-.1 1.2.4 1.4.9z"/><path id="XMLID_1100_" class="st2" d="M202.1 116.4c.1.4-.1-.1-.2-.2.2 0 .2.1.2.2z"/><path id="XMLID_1099_" class="st2" d="M204.1 116.1l.1.3-.1-.3z"/><path id="XMLID_1098_" d="M144.5 125.1c.2 1.1-.3 2.1-.9 2.9-.9-.3-1.7-.6-1.8-1.6.2-.7.2-1.5.9-2 .7-.4 1.5.1 1.8.7z"/><path id="XMLID_1097_" class="st2" d="M142.4 125.1l-.1.7.1-.7z"/><path id="XMLID_1096_" class="st2" d="M144.1 126.2l-.1-.2c-.1.6-.4.9-.7 1.4-.5.1-.6-1-.9-.4-.4-.4.5-1.1.6-1.7.3 0 .6.2.8 0l-.1-.3c.5-.1.2.8.4 1.2z"/><path id="XMLID_1095_" class="st2" d="M201.3 124.5l.3-.5.4.2z"/><path id="XMLID_1094_" class="st2" d="M201.2 124.7l-.1.8.1-.8z"/><path id="XMLID_1093_" class="st2" d="M203.6 126.8c-.3-.1-.2-.4 0-.7v.7z"/><path id="XMLID_1092_" class="st2" d="M200.2 127.2c-.1-.2-.6.5-.6 0h.6z"/><path id="XMLID_1091_" class="st2" d="M202.7 127.4c0 .2.3.3.4.1 0 .7-1-.1-.8.7.2-.6 1.1.3.9.4-.6.1-1.8-.2-1.3.7 0 .2.2-1.2-.5-.7v.2c-.4-.6.1-.4.7-.6l-.3-.1c.3-.5.6-.5.9-.7z"/><path id="XMLID_1090_" class="st2" d="M200.7 128.2c-.3-.1 0-.5.1-.7l-.1.7z"/><path id="XMLID_1089_" class="st2" d="M200.2 128.6c-.1.3-.5.3-.7.1.2 0 .6-.6.7-.1z"/><path id="XMLID_1088_" class="st2" d="M199.5 129.3l-.1-.1h.4z"/><path id="XMLID_1087_" class="st2" d="M202.5 129.5l.2-.4.1.4z"/><path id="XMLID_1086_" class="st2" d="M200.8 129.7c0 .2-.2.2-.2.3l.4-.7c.1.3.2.6-.2.4z"/><path id="XMLID_1085_" transform="rotate(176.286 203.655 129.311)" class="st2" d="M203.6 129.1h.2v.3h-.2z"/><path id="XMLID_1084_" class="st2" d="M201.6 129.7l.4.1-.4-.1z"/><path id="XMLID_1083_" class="st2" d="M199.8 130.1l.1.2-.1-.2z"/><path id="XMLID_1074_" class="st2" d="M200.6 130.8l.1.3c-.3.1-.5-.5-.8-.2.1-.9.4.2.7-.1z"/><path id="XMLID_1073_" class="st2" d="M201.7 130.7l.3.3-.3-.3z"/><path id="XMLID_1072_" class="st2" d="M195.9 135.7l.3-.3-.1.2z"/><path id="XMLID_1071_" transform="rotate(176.286 191.227 136.503)" class="st2" d="M191.2 136.3h.1v.4h-.1z"/><path id="XMLID_1070_" class="st2" d="M192.8 137.7l-.1-.5.3.3z"/><path id="XMLID_1068_" d="M131.7 150.3c.5 1.9.9 4.1.1 5.9-.6 1.4-2.2 2.1-3.6 2.2-.3-1.2-2.1-1.5-2.5-2.8-.6-1.4-.1-2.8.3-4.3 1.2-1.2 2.5-3.6 4.7-2.6l1 1.6z"/><path id="XMLID_1066_" class="st2" d="M178.8 148.5l-.1-.3h.1z"/><path id="XMLID_1065_" class="st2" d="M128.6 152.5c-.2.3-.8.3-.5.7-.3-.6-.1-.7.5-.7z"/><path id="XMLID_1064_" class="st2" d="M128.6 154.4l.4.3-.4-.3z"/></g></g></svg>